<svg width="27" height="33" viewBox="0 0 27 33" fill="none" xmlns="http://www.w3.org/2000/svg">
<path d="M21.0939 31.8123H5.90613C3.49003 31.8123 1.53113 29.8534 1.53113 27.4373V12.9331C1.53113 11.4226 2.75503 10.1987 4.2655 10.1987H22.7335C24.2439 10.1987 25.4678 11.4226 25.4678 12.9331V27.4373C25.4689 29.8534 23.51 31.8123 21.0939 31.8123Z" fill="#F0D2DC"/>
<path d="M22.7335 9.21441H20.2933V6.99629C20.2933 3.25129 17.2461 0.204102 13.5 0.204102C9.75504 0.204102 6.70785 3.25129 6.70785 6.99629V9.21551H4.2666C2.21582 9.21551 0.547852 10.8835 0.547852 12.9343V27.4374C0.547852 30.3927 2.95191 32.7968 5.90723 32.7968H21.0939C24.0493 32.7968 26.4533 30.3927 26.4533 27.4374V12.9332C26.4533 10.8824 24.7843 9.21441 22.7335 9.21441ZM8.67551 6.99629C8.67551 4.3352 10.84 2.17176 13.5 2.17176C16.16 2.17176 18.3235 4.33629 18.3235 6.99629V9.21551H8.67551V6.99629ZM24.4835 27.4374C24.4835 29.3066 22.9621 30.828 21.0929 30.828H5.90723C4.03801 30.828 2.5166 29.3066 2.5166 27.4374V12.9332C2.5166 11.9685 3.30191 11.1832 4.2666 11.1832H22.7346C23.6993 11.1832 24.4846 11.9685 24.4846 12.9332L24.4835 27.4374Z" fill="#E69AB1"/>
</svg>
