<svg width="30" height="30" viewBox="0 0 30 30" fill="none" xmlns="http://www.w3.org/2000/svg">
<path d="M13.8096 27.7406L11.9486 26.401C11.6046 26.1525 11.1911 26.0185 10.7664 26.0166L8.47426 26.0072C7.5977 26.0035 6.82145 25.4391 6.54676 24.6066L5.83145 22.4306C5.69832 22.0266 5.44239 21.6731 5.09832 21.4219L3.25145 20.071C2.5427 19.5525 2.24551 18.6385 2.51457 17.8022L3.21582 15.6235C3.34614 15.2175 3.34614 14.7816 3.21582 14.3756L2.51457 12.1969C2.24551 11.3606 2.5427 10.4466 3.25145 9.92814L5.09832 8.57721C5.44239 8.32596 5.69832 7.97346 5.83145 7.56846L6.54676 5.39252C6.82051 4.55908 7.59676 3.99471 8.47426 3.99189L10.7664 3.98252C11.1911 3.98064 11.6046 3.84658 11.9486 3.59814L13.8096 2.25939C14.5211 1.74752 15.4793 1.74752 16.1908 2.25939L18.0518 3.59908C18.3958 3.84752 18.8093 3.98158 19.2339 3.98346L21.5261 3.99283C22.4027 3.99658 23.1789 4.56096 23.4536 5.39346L24.1689 7.56939C24.3021 7.97346 24.558 8.32689 24.9021 8.57814L26.7489 9.92908C27.4577 10.4475 27.7549 11.3616 27.4858 12.1978L26.7846 14.3766C26.6543 14.7825 26.6543 15.2185 26.7846 15.6244L27.4858 17.8031C27.7549 18.6394 27.4577 19.5535 26.7489 20.0719L24.9021 21.4228C24.558 21.6741 24.3021 22.0266 24.1689 22.4316L23.4536 24.6075C23.1799 25.441 22.4036 26.0053 21.5261 26.0081L19.2339 26.0175C18.8093 26.0194 18.3958 26.1535 18.0518 26.4019L16.1908 27.7406C15.4793 28.2535 14.5211 28.2535 13.8096 27.7406Z" fill="#F0D2DC"/>
<path d="M14.0029 21.4069L19.6916 13.9256C19.7404 13.8619 19.6944 13.7709 19.6147 13.7709H16.2688C16.2154 13.7709 16.1722 13.7278 16.1722 13.6744V8.65125C16.1722 8.55844 16.0551 8.51906 15.9988 8.59313L10.3101 16.0744C10.2613 16.1381 10.3072 16.2291 10.3869 16.2291H13.7329C13.7863 16.2291 13.8294 16.2722 13.8294 16.3256V21.3488C13.8294 21.4406 13.9466 21.4809 14.0029 21.4069Z" fill="#F3E9ED"/>
<path d="M27.588 15.3656C27.5112 15.1265 27.5112 14.8743 27.588 14.6343L28.2884 12.4565C28.6699 11.2715 28.2509 9.98247 27.2468 9.24841L25.399 7.89653C25.1965 7.74935 25.0484 7.54591 24.9705 7.30685L24.2543 5.12997C23.8662 3.9506 22.7702 3.1556 21.5299 3.14997L19.2377 3.13872C18.9865 3.13778 18.7484 3.05997 18.5459 2.91466L16.6849 1.57403C15.678 0.849346 14.3243 0.849346 13.3174 1.57403L11.4565 2.91466C11.254 3.05997 11.0149 3.13778 10.7646 3.13872L8.47149 3.1481C7.2293 3.15372 6.1343 3.9506 5.74711 5.12997L5.02992 7.30685C4.95211 7.54497 4.80399 7.74841 4.60055 7.89653L2.75367 9.24747C1.74961 9.9806 1.32961 11.2706 1.71211 12.4556L2.41242 14.6343C2.4893 14.8734 2.4893 15.1256 2.41242 15.3656L1.71211 17.5434C1.33055 18.7284 1.74961 20.0175 2.75367 20.7515L4.60149 22.1034C4.80399 22.2506 4.95211 22.454 5.02992 22.6931L5.74617 24.87C6.1343 26.0493 7.23024 26.8443 8.47055 26.85L10.7627 26.8603C11.014 26.8612 11.2521 26.939 11.4546 27.0843L13.3155 28.425C13.819 28.7878 14.4096 28.9687 14.9993 28.9687C15.589 28.9687 16.1796 28.7878 16.683 28.425L18.544 27.0843C18.7465 26.939 18.9855 26.8612 19.2359 26.8603L21.5271 26.85C22.7693 26.8443 23.8643 26.0484 24.2515 24.869L24.9687 22.6922C25.0465 22.454 25.1946 22.2506 25.398 22.1025L27.2449 20.7515C28.249 20.0184 28.669 18.7284 28.2865 17.5434L27.588 15.3656ZM25.9821 15.8822L26.6824 18.06C26.8399 18.5512 26.6665 19.0856 26.2502 19.3893L24.4043 20.7393C23.9149 21.0965 23.5559 21.5897 23.3674 22.1653L22.6502 24.3412C22.4899 24.8297 22.0362 25.1597 21.5215 25.1615L19.2302 25.1718C18.6255 25.1747 18.0471 25.3622 17.5587 25.7147L15.6977 27.0553C15.2824 27.3553 14.7199 27.3553 14.3046 27.0553L12.4437 25.7147C11.9552 25.3622 11.3759 25.1747 10.7721 25.1718L8.47992 25.1615C7.96524 25.1597 7.51149 24.8297 7.35117 24.3412L6.63586 22.1662C6.44649 21.5897 6.08742 21.0956 5.59899 20.7403L3.75024 19.3903C3.33399 19.0865 3.16055 18.5522 3.31805 18.0609L4.01836 15.884C4.20399 15.3065 4.20399 14.6943 4.01836 14.1178L3.31805 11.94C3.16055 11.4478 3.33399 10.9143 3.75024 10.6097L5.59617 9.25966C6.08555 8.90247 6.44461 8.40935 6.63305 7.83278L7.35024 5.65685C7.51055 5.16841 7.9643 4.83841 8.47899 4.83653L10.7702 4.82622C11.3749 4.82341 11.9534 4.63591 12.4418 4.28341L14.3027 2.94278C14.5109 2.79278 14.7546 2.71778 14.9993 2.71778C15.244 2.71778 15.4877 2.79278 15.6959 2.94278L17.5568 4.28341C18.0452 4.63591 18.6246 4.82341 19.2284 4.82622L21.5205 4.83653C22.0352 4.83841 22.489 5.16841 22.6493 5.65685L23.3646 7.83185C23.554 8.40841 23.913 8.90247 24.4015 9.25778L26.2502 10.6097C26.6665 10.9134 26.8399 11.4478 26.6824 11.939L25.9821 14.1159C25.7965 14.6943 25.7965 15.3056 25.9821 15.8822Z" fill="#E69AB1"/>
<path d="M19.6145 12.9272H17.0157V8.65218C17.0157 8.24624 16.7579 7.88906 16.3726 7.76062C15.9901 7.63124 15.5673 7.76249 15.3264 8.08312L9.63574 15.5662C9.42012 15.8531 9.38449 16.2309 9.54481 16.5525C9.70512 16.8741 10.0276 17.0737 10.3857 17.0737H12.9845V21.3497C12.9845 21.7556 13.2423 22.1128 13.6276 22.2412C13.7251 22.2741 13.8264 22.2909 13.9257 22.2909C14.2145 22.2909 14.4929 22.1569 14.6748 21.9178L20.3645 14.4366C20.5801 14.1497 20.6157 13.7719 20.4554 13.4503C20.2951 13.1287 19.9736 12.9272 19.6145 12.9272ZM14.6729 19.1306V16.3256C14.6729 15.8062 14.2511 15.3844 13.7326 15.3844H11.8923L15.3264 10.8694V13.6744C15.3264 14.1937 15.7482 14.6156 16.2667 14.6156H18.107L14.6729 19.1306Z" fill="#E69AB1"/>
</svg>
