<svg width="40" height="40" viewBox="0 0 40 40" fill="none" xmlns="http://www.w3.org/2000/svg">
<g id="package_120391 1">
<path id="Vector" d="M33.3333 15.9939V32.5001C33.3333 32.9603 32.9602 33.3334 32.5 33.3334H7.50001C7.03977 33.3334 6.66667 32.9603 6.66667 32.5001V15.9939L3.39294 7.80957C3.17399 7.26219 3.57712 6.66675 4.16667 6.66675H20.8333C21.1741 6.66675 21.4805 6.87421 21.6071 7.19059L24.1667 13.5896L26.7263 7.19059C26.8528 6.87421 27.1593 6.66675 27.5 6.66675H35.8333C36.4229 6.66675 36.826 7.26219 36.6071 7.80957L33.3333 15.9939ZM25 16.6667V31.6667H31.6667V16.6667H25ZM23.3333 16.6667H8.33334V31.6667H23.3333V16.6667ZM8.0642 15.0001H22.9358L20.2691 8.33341H5.39754L8.0642 15.0001ZM31.9358 15.0001L34.6025 8.33341H28.0642L25.3975 15.0001H31.9358ZM21.6667 25.8334V29.1667C21.6667 29.627 21.2936 30.0001 20.8333 30.0001H15.8333C15.3731 30.0001 15 29.627 15 29.1667V25.8334C15 25.3732 15.3731 25.0001 15.8333 25.0001H20.8333C21.2936 25.0001 21.6667 25.3732 21.6667 25.8334ZM20 26.6667H16.6667V28.3334H20V26.6667Z" fill="#797979"/>
</g>
</svg>
