<svg width="33" height="33" viewBox="0 0 33 33" fill="none" xmlns="http://www.w3.org/2000/svg">
<path d="M26.8906 7.75V14.3125H18.6875V6.10938H25.25C26.1556 6.10938 26.8906 6.84438 26.8906 7.75ZM14.3125 6.10938V14.3125H6.10938V7.75C6.10938 6.84438 6.84438 6.10938 7.75 6.10938H14.3125ZM14.3125 18.6875V26.8906H7.75C6.84438 26.8906 6.10938 26.1556 6.10938 25.25V18.6875H14.3125ZM18.6875 18.6875V26.8906H25.25C26.1556 26.8906 26.8906 26.1556 26.8906 25.25V18.6875H18.6875Z" fill="#F0D2DC"/>
<path d="M1.1875 7.64062C1.73109 7.64062 2.17188 7.19984 2.17188 6.65625V2.73734C2.17188 2.42562 2.42562 2.17188 2.73734 2.17188H6.65625C7.19984 2.17188 7.64062 1.73109 7.64062 1.1875C7.64062 0.643906 7.19984 0.203125 6.65625 0.203125H2.73734C1.34062 0.203125 0.203125 1.34062 0.203125 2.73734V6.65625C0.203125 7.19984 0.643906 7.64062 1.1875 7.64062ZM6.65625 30.8281H2.73734C2.42562 30.8281 2.17188 30.5755 2.17188 30.2627V26.3438C2.17188 25.8002 1.73109 25.3594 1.1875 25.3594C0.643906 25.3594 0.203125 25.8002 0.203125 26.3438V30.2627C0.203125 31.6594 1.34062 32.7969 2.73734 32.7969H6.65625C7.19984 32.7969 7.64062 32.3561 7.64062 31.8125C7.64062 31.2689 7.19984 30.8281 6.65625 30.8281ZM30.2627 0.203125H26.3438C25.8002 0.203125 25.3594 0.643906 25.3594 1.1875C25.3594 1.73109 25.8002 2.17188 26.3438 2.17188H30.2627C30.5744 2.17188 30.8281 2.42453 30.8281 2.73734V6.65625C30.8281 7.19984 31.2689 7.64062 31.8125 7.64062C32.3561 7.64062 32.7969 7.19984 32.7969 6.65625V2.73734C32.7969 1.34062 31.6594 0.203125 30.2627 0.203125ZM31.8125 25.3594C31.2689 25.3594 30.8281 25.8002 30.8281 26.3438V30.2627C30.8281 30.5744 30.5755 30.8281 30.2627 30.8281H26.3438C25.8002 30.8281 25.3594 31.2689 25.3594 31.8125C25.3594 32.3561 25.8002 32.7969 26.3438 32.7969H30.2627C31.6594 32.7969 32.7969 31.6594 32.7969 30.2627V26.3438C32.7969 25.8002 32.3561 25.3594 31.8125 25.3594ZM23.7964 18.6875C23.7964 18.1439 23.3556 17.7031 22.812 17.7031H18.6875C18.1439 17.7031 17.7031 18.1439 17.7031 18.6875V26.8906C17.7031 27.4342 18.1439 27.875 18.6875 27.875C19.2311 27.875 19.6719 27.4342 19.6719 26.8906V19.6719H22.8109C23.3556 19.6719 23.7964 19.2311 23.7964 18.6875ZM27.875 25.25V18.6875C27.875 18.1439 27.4342 17.7031 26.8906 17.7031C26.347 17.7031 25.9062 18.1439 25.9062 18.6875V25.25C25.9062 25.612 25.612 25.9062 25.25 25.9062H22.7891C22.2455 25.9062 21.8047 26.347 21.8047 26.8906C21.8047 27.4342 22.2455 27.875 22.7891 27.875H25.25C26.697 27.875 27.875 26.697 27.875 25.25ZM18.6875 15.2969H26.8906C27.4342 15.2969 27.875 14.8561 27.875 14.3125V7.75C27.875 6.30297 26.697 5.125 25.25 5.125H18.6875C18.1439 5.125 17.7031 5.56578 17.7031 6.10938V14.3125C17.7031 14.8561 18.1439 15.2969 18.6875 15.2969ZM19.6719 7.09375H25.25C25.612 7.09375 25.9062 7.38797 25.9062 7.75V13.3281H19.6719V7.09375ZM14.3125 5.125H7.75C6.30297 5.125 5.125 6.30297 5.125 7.75V14.3125C5.125 14.8561 5.56578 15.2969 6.10938 15.2969H14.3125C14.8561 15.2969 15.2969 14.8561 15.2969 14.3125V6.10938C15.2969 5.56578 14.8561 5.125 14.3125 5.125ZM13.3281 13.3281H7.09375V7.75C7.09375 7.38797 7.38797 7.09375 7.75 7.09375H13.3281V13.3281Z" fill="#E69AB1"/>
<path d="M9.42453 11.3047H10.9973C11.1669 11.3047 11.3047 11.1669 11.3047 10.9973V9.42453C11.3047 9.255 11.1669 9.11719 10.9973 9.11719H9.42453C9.255 9.11719 9.11719 9.255 9.11719 9.42453V10.9973C9.11719 11.1669 9.255 11.3047 9.42453 11.3047ZM23.5755 9.11719H22.0027C21.8331 9.11719 21.6953 9.255 21.6953 9.42453V10.9973C21.6953 11.1669 21.8331 11.3047 22.0027 11.3047H23.5755C23.745 11.3047 23.8828 11.1669 23.8828 10.9973V9.42453C23.8828 9.255 23.745 9.11719 23.5755 9.11719ZM9.42453 23.8828H10.9973C11.1669 23.8828 11.3047 23.745 11.3047 23.5755V22.0027C11.3047 21.8331 11.1669 21.6953 10.9973 21.6953H9.42453C9.255 21.6953 9.11719 21.8331 9.11719 22.0027V23.5755C9.11719 23.745 9.255 23.8828 9.42453 23.8828ZM23.5755 23.8828C23.745 23.8828 23.8828 23.745 23.8828 23.5755V22.0027C23.8828 21.8331 23.745 21.6953 23.5755 21.6953H22.0027C21.8331 21.6953 21.6953 21.8331 21.6953 22.0027V23.5755C21.6953 23.745 21.8331 23.8828 22.0027 23.8828H23.5755Z" fill="#E69AB1"/>
<path d="M14.3125 17.7031H6.10938C5.56578 17.7031 5.125 18.1439 5.125 18.6875V25.25C5.125 26.697 6.30297 27.875 7.75 27.875H14.3125C14.8561 27.875 15.2969 27.4342 15.2969 26.8906V18.6875C15.2969 18.1439 14.8561 17.7031 14.3125 17.7031ZM13.3281 25.9062H7.75C7.38797 25.9062 7.09375 25.612 7.09375 25.25V19.6719H13.3281V25.9062Z" fill="#E69AB1"/>
</svg>
