<svg width="24" height="30" viewBox="0 0 24 30" fill="none" xmlns="http://www.w3.org/2000/svg">
<rect x="3.07596" y="8.73413" width="17.4684" height="20.1266" fill="#F0D2DC"/>
<rect x="1.17722" y="4.93677" width="21.2658" height="3.79747" fill="#F0D2DC"/>
<path d="M21.5705 3.78381H16.2885C15.9521 1.64739 14.152 0 11.9428 0C9.73357 0 7.89885 1.64739 7.59711 3.78381H2.39135C1.37862 3.78381 0.556671 4.60925 0.556671 5.61849V7.49132C0.556671 8.42776 1.22951 9.17686 2.13125 9.28786V27.5653C2.13125 28.9145 3.21679 30 4.56592 30H19.4341C20.7833 30 21.8688 28.9145 21.8688 27.5653V9.32256C22.7671 9.17341 23.4434 8.42431 23.4434 7.52602V5.65319C23.4052 4.60925 22.5798 3.78381 21.5705 3.78381ZM11.9428 1.38728C13.4029 1.38728 14.6029 2.40001 14.863 3.78381H8.98439C9.28269 2.43468 10.4827 1.38728 11.9428 1.38728ZM20.4468 27.607C20.4468 28.1688 19.996 28.6544 19.3994 28.6544H4.52778C3.96593 28.6544 3.48038 28.2035 3.48038 27.607V9.36416H20.4122V27.607H20.4468ZM22.018 7.49132C22.018 7.75492 21.8307 7.94221 21.5671 7.94221H2.38787C2.12428 7.94221 1.93698 7.75492 1.93698 7.49132V5.61849C1.93698 5.3549 2.12428 5.16761 2.38787 5.16761H21.5289C21.7925 5.16761 21.9798 5.3549 21.9798 5.61849V7.49132H22.018ZM6.58786 25.0578V13.2243C6.58786 12.8497 6.88612 12.5515 7.26071 12.5515C7.6353 12.5515 7.93355 12.8497 7.93355 13.2243V25.0578C7.93355 25.4324 7.6353 25.7307 7.26071 25.7307C6.88616 25.7723 6.58786 25.4324 6.58786 25.0578ZM11.3428 25.0578V13.2243C11.3428 12.8497 11.6411 12.5515 12.0157 12.5515C12.3902 12.5515 12.6885 12.8497 12.6885 13.2243V25.0578C12.6885 25.4324 12.3902 25.7307 12.0157 25.7307C11.6445 25.7723 11.3428 25.4324 11.3428 25.0578ZM16.1012 25.0578V13.2243C16.1012 12.8497 16.3994 12.5515 16.774 12.5515C17.1486 12.5515 17.4469 12.8497 17.4469 13.2243V25.0578C17.4469 25.4324 17.1486 25.7307 16.774 25.7307C16.4376 25.7723 16.1012 25.4324 16.1012 25.0578Z" fill="#797979"/>
</svg>
