<svg width="27" height="33" viewBox="0 0 27 33" fill="none" xmlns="http://www.w3.org/2000/svg">
<path d="M21.0939 31.8125H5.90608C3.48999 31.8125 1.53108 29.8536 1.53108 27.4375V12.9333C1.53108 11.4228 2.75499 10.1989 4.26546 10.1989H22.7334C24.2439 10.1989 25.4678 11.4228 25.4678 12.9333V27.4375C25.4689 29.8536 23.51 31.8125 21.0939 31.8125Z" fill="#F0D2DC"/>
<path d="M22.7334 9.21454H20.2933V6.99641C20.2933 3.25141 17.2461 0.204224 13.5 0.204224C9.75499 0.204224 6.70781 3.25141 6.70781 6.99641V9.21563H4.26656C2.21577 9.21563 0.547806 10.8836 0.547806 12.9344V27.4375C0.547806 30.3928 2.95187 32.7969 5.90718 32.7969H21.0939C24.0492 32.7969 26.4533 30.3928 26.4533 27.4375V12.9333C26.4533 10.8825 24.7842 9.21454 22.7334 9.21454ZM8.67546 6.99641C8.67546 4.33532 10.84 2.17188 13.5 2.17188C16.16 2.17188 18.3234 4.33641 18.3234 6.99641V9.21563H8.67546V6.99641ZM24.4834 27.4375C24.4834 29.3067 22.962 30.8281 21.0928 30.8281H5.90718C4.03796 30.8281 2.51656 29.3067 2.51656 27.4375V12.9333C2.51656 11.9686 3.30187 11.1833 4.26656 11.1833H22.7345C23.6992 11.1833 24.4845 11.9686 24.4845 12.9333L24.4834 27.4375Z" fill="#E69AB1"/>
<path d="M17.1214 20.0219H9.87968C9.33609 20.0219 8.89531 20.4626 8.89531 21.0062C8.89531 21.5498 9.33609 21.9906 9.87968 21.9906H17.1214C17.665 21.9906 18.1058 21.5498 18.1058 21.0062C18.1058 20.4626 17.665 20.0219 17.1214 20.0219Z" fill="#E69AB1"/>
</svg>
