<svg width="30" height="30" viewBox="0 0 30 30" fill="none" xmlns="http://www.w3.org/2000/svg">
<g id="shopping-bag">
<g id="Group">
<path id="Vector" d="M21.509 28.125H8.49084C6.41991 28.125 4.74084 26.4459 4.74084 24.375V11.9428C4.74084 10.6481 5.78991 9.59906 7.08459 9.59906H22.9143C24.209 9.59906 25.258 10.6481 25.258 11.9428V24.375C25.259 26.4459 23.5799 28.125 21.509 28.125Z" fill="#F0D2DC"/>
<path id="Vector_2" d="M22.9143 8.75531H20.8228V6.85406C20.8228 3.64406 18.2109 1.03218 14.9999 1.03218C11.7899 1.03218 9.17807 3.64406 9.17807 6.85406V8.75624H7.08557C5.32776 8.75624 3.89807 10.1859 3.89807 11.9437V24.375C3.89807 26.9081 5.9587 28.9687 8.49182 28.9687H21.509C24.0421 28.9687 26.1028 26.9081 26.1028 24.375V11.9428C26.1028 10.185 24.6721 8.75531 22.9143 8.75531ZM10.8646 6.85406C10.8646 4.57312 12.7199 2.71874 14.9999 2.71874C17.2799 2.71874 19.1343 4.57406 19.1343 6.85406V8.75624H10.8646V6.85406ZM24.4143 24.375C24.4143 25.9772 23.1103 27.2812 21.5081 27.2812H8.49182C6.88963 27.2812 5.58557 25.9772 5.58557 24.375V11.9428C5.58557 11.1159 6.2587 10.4428 7.08557 10.4428H22.9153C23.7421 10.4428 24.4153 11.1159 24.4153 11.9428L24.4143 24.375Z" fill="#E69AB1"/>
<path id="Vector_3" d="M18.104 18.0187H11.8969C11.4309 18.0187 11.0531 18.3966 11.0531 18.8625C11.0531 19.3284 11.4309 19.7062 11.8969 19.7062H18.104C18.57 19.7062 18.9478 19.3284 18.9478 18.8625C18.9478 18.3966 18.57 18.0187 18.104 18.0187Z" fill="#E69AB1"/>
</g>
</g>
</svg>
