<?xml version="1.0" encoding="utf-8"?><svg xmlns="http://www.w3.org/2000/svg" xmlns:xlink="http://www.w3.org/1999/xlink"><symbol viewBox="0 0 47.971 47.971" xml:space="preserve" id="close" xmlns="http://www.w3.org/2000/svg">
    <path d="M28.228 23.986 47.092 5.122a2.998 2.998 0 0 0 0-4.242 2.998 2.998 0 0 0-4.242 0L23.986 19.744 5.121.88a2.998 2.998 0 0 0-4.242 0 2.998 2.998 0 0 0 0 4.242l18.865 18.864L.879 42.85a2.998 2.998 0 1 0 4.242 4.241l18.865-18.864L42.85 47.091c.586.586 1.354.879 2.121.879s1.535-.293 2.121-.879a2.998 2.998 0 0 0 0-4.242L28.228 23.986z" data-original="#000000"/>
</symbol><symbol viewBox="0 0 28 28" id="comments" xmlns="http://www.w3.org/2000/svg">
    <path d="M23.627 4.088C20.695 1.083 16.607-.365 12.403.123 6.428.814 1.618 5.443.706 11.382c-.607 3.955.524 7.9 3.109 10.889l-.724 4.478c-.065.397.099.79.426 1.023a1.05 1.05 0 0 0 1.104.074l3.9-2.067a13.555 13.555 0 0 0 6.977 1.082c6.013-.646 10.985-5.458 11.82-11.44.588-4.198-.758-8.329-3.69-11.333Zm2.021 11.1c-.73 5.227-5.075 9.431-10.33 9.995a11.837 11.837 0 0 1-6.454-1.104.847.847 0 0 0-.764.013l-3.14 1.664.585-3.613a.845.845 0 0 0-.211-.705c-2.431-2.645-3.51-6.216-2.96-9.8.798-5.19 5-9.235 10.223-9.838.47-.054.935-.08 1.398-.08 3.175 0 6.187 1.254 8.426 3.547 2.564 2.628 3.741 6.244 3.227 9.92Z"/>
    <path d="M17.146 9.84h-.324v-.248a2.826 2.826 0 0 0-2.823-2.823 2.826 2.826 0 0 0-2.823 2.823v.248h-.324c-.979 0-1.776.797-1.776 1.776v4.942a2.337 2.337 0 0 0 2.335 2.335h5.175a2.337 2.337 0 0 0 2.334-2.335v-4.942a1.775 1.775 0 0 0-1.774-1.776Zm-4.281-.248a1.136 1.136 0 0 1 2.27 0v.248h-2.27v-.248Zm4.37 6.966c0 .357-.291.647-.648.647h-5.175a.648.648 0 0 1-.647-.647v-4.942c0-.049.04-.088.089-.088h6.293c.049 0 .088.04.088.088v4.942Z"/>
</symbol><symbol viewBox="0 0 28 28" id="list" xmlns="http://www.w3.org/2000/svg">
    <path d="M23.375.536H4.625A4.599 4.599 0 0 0 .031 5.129v17.742a4.599 4.599 0 0 0 4.594 4.593h18.75a4.599 4.599 0 0 0 4.594-4.593V5.129A4.599 4.599 0 0 0 23.375.536Zm2.906 22.335a2.91 2.91 0 0 1-2.906 2.906H4.625a2.91 2.91 0 0 1-2.906-2.906V5.129a2.91 2.91 0 0 1 2.906-2.906h18.75a2.91 2.91 0 0 1 2.906 2.906v17.742Z"/>
    <path d="M21.369 6.846H11.066a.844.844 0 0 0 0 1.687h10.303a.844.844 0 0 0 0-1.687Zm-13.873 0H6.63a.844.844 0 0 0 0 1.687h.866a.844.844 0 0 0 0-1.687Zm13.873 6.31H11.066a.844.844 0 0 0 0 1.688h10.303a.844.844 0 0 0 0-1.688Zm-13.873 0H6.63a.844.844 0 0 0 0 1.688h.866a.844.844 0 0 0 0-1.688Zm13.873 6.31H11.066a.844.844 0 0 0 0 1.688h10.303a.844.844 0 0 0 0-1.687Zm-13.873 0H6.63a.844.844 0 0 0 0 1.688h.866a.844.844 0 0 0 0-1.687Z"/>
</symbol><symbol viewBox="0 0 24 28" id="login" xmlns="http://www.w3.org/2000/svg">
    <path d="M19.914 7.755h-2.091v-1.9A5.829 5.829 0 0 0 12 .031a5.829 5.829 0 0 0-5.822 5.822v1.902H4.086a3.19 3.19 0 0 0-3.188 3.188v12.431a4.599 4.599 0 0 0 4.594 4.594h13.017a4.599 4.599 0 0 0 4.594-4.594V10.943a3.192 3.192 0 0 0-3.189-3.188Zm-12.05-1.9A4.14 4.14 0 0 1 12 1.718a4.14 4.14 0 0 1 4.134 4.135v1.902h-8.27V5.854Zm13.55 17.52a2.91 2.91 0 0 1-2.906 2.906H5.492a2.91 2.91 0 0 1-2.906-2.906V10.943c0-.827.673-1.5 1.5-1.5h15.83c.826 0 1.5.673 1.5 1.5l-.002 12.432Z"/>
    <path d="M15.104 17.019H8.897a.844.844 0 0 0 0 1.687h6.207a.844.844 0 0 0 0-1.687Z"/>
</symbol><symbol viewBox="0 0 28 28" id="magazine" xmlns="http://www.w3.org/2000/svg">
    <path d="m27.814 7.192-1.66-4.555a2.73 2.73 0 0 0-2.555-1.78H4.4a2.732 2.732 0 0 0-2.556 1.781L.185 7.192a2.56 2.56 0 0 0-.154.876v1.234c0 1.526.844 2.846 2.08 3.56v11.563a2.723 2.723 0 0 0 2.718 2.719h18.342c1.499 0 2.718-1.22 2.718-2.719V12.863c1.236-.714 2.08-2.035 2.08-3.56V8.067c0-.3-.052-.595-.155-.876ZM23.6 2.544c.432 0 .822.27.97.673l1.35 3.704h-4.653l-.798-4.377H23.6Zm-8.756 0h3.908l.798 4.377h-4.706V2.544Zm0 6.065h4.875v.693a2.44 2.44 0 0 1-2.438 2.438 2.44 2.44 0 0 1-2.437-2.438V8.61ZM9.248 2.544h3.908V6.92H8.45l.798-4.377ZM8.28 8.609h4.875v.693a2.44 2.44 0 0 1-2.437 2.438A2.44 2.44 0 0 1 8.28 9.302V8.61ZM3.43 3.22c.148-.404.538-.675.97-.675h3.131L6.733 6.92H2.081L3.43 3.219ZM1.719 9.302V8.61h4.875v.693a2.44 2.44 0 0 1-2.438 2.438A2.44 2.44 0 0 1 1.72 9.302Zm14.795 16.154h-5.027v-4.792c0-.568.462-1.032 1.03-1.032h2.967c.568 0 1.031.463 1.031 1.032v4.792Zm7.688-1.031c0 .568-.462 1.031-1.031 1.031H18.2v-4.792c0-1.5-1.22-2.719-2.718-2.719h-2.966c-1.5 0-2.719 1.22-2.719 2.719v4.792H4.83a1.032 1.032 0 0 1-1.03-1.031V13.391c.12.01.234.037.357.037a4.108 4.108 0 0 0 3.282-1.653 4.108 4.108 0 0 0 3.28 1.653A4.108 4.108 0 0 0 14 11.775a4.108 4.108 0 0 0 3.281 1.653 4.108 4.108 0 0 0 3.282-1.653 4.108 4.108 0 0 0 3.28 1.653c.124 0 .239-.025.359-.037v11.034Zm2.08-15.123a2.44 2.44 0 0 1-2.438 2.438 2.44 2.44 0 0 1-2.438-2.438V8.61h4.875v.693Z"/>
</symbol><symbol viewBox="0 0 32 24" id="menu" xmlns="http://www.w3.org/2000/svg">
    <path fill-rule="evenodd" clip-rule="evenodd" d="M31.5 2A1.5 1.5 0 0 0 30 .5H2a1.5 1.5 0 1 0 0 3h28A1.5 1.5 0 0 0 31.5 2Zm0 10a1.5 1.5 0 0 0-1.5-1.5H2a1.5 1.5 0 0 0 0 3h28a1.5 1.5 0 0 0 1.5-1.5Zm0 10a1.5 1.5 0 0 0-1.5-1.5H2a1.5 1.5 0 0 0 0 3h28a1.5 1.5 0 0 0 1.5-1.5Z"/>
</symbol><symbol viewBox="0 0 45 46" id="shopping-bag" xmlns="http://www.w3.org/2000/svg">
    <path d="M37.658 44.832h-30.1a3.487 3.487 0 0 1-3.463-3.078L1.388 19.148a3.487 3.487 0 0 1 3.463-3.894h35.514a3.486 3.486 0 0 1 3.463 3.894L41.12 41.754a3.487 3.487 0 0 1-3.463 3.078Z" stroke-width="2" stroke-miterlimit="10" stroke-linecap="round" stroke-linejoin="round"/>
    <path d="M13.116 22.004V11.009a9.492 9.492 0 0 1 18.984 0v10.995" stroke-width="2" stroke-miterlimit="10" stroke-linecap="round" stroke-linejoin="round"/>
</symbol><symbol viewBox="0 0 26 27" id="shopping-bag2" xmlns="http://www.w3.org/2000/svg">
    <path fill-rule="evenodd" clip-rule="evenodd" d="M2.098 10.743 3.6 23.302a.937.937 0 0 0 .931.827h16.723a.937.937 0 0 0 .93-.827V23.3l1.504-12.557a.937.937 0 0 0-.93-1.046H3.029c-.562 0-.997.49-.931 1.046Zm-1.987.234a2.937 2.937 0 0 1 2.917-3.28h19.73a2.937 2.937 0 0 1 2.917 3.28v.002l-1.503 12.557a2.937 2.937 0 0 1-2.917 2.593H4.532a2.937 2.937 0 0 1-2.917-2.592L.111 10.977Z"/>
    <path fill-rule="evenodd" clip-rule="evenodd" d="M12.893 2.065A4.273 4.273 0 0 0 8.62 6.34v6.107a1 1 0 1 1-2 0V6.34a6.273 6.273 0 0 1 12.547 0v6.107a1 1 0 1 1-2 0V6.34a4.273 4.273 0 0 0-4.274-4.274Z"/>
</symbol><symbol viewBox="0 0 33 28" id="telegram" xmlns="http://www.w3.org/2000/svg">
    <path d="M30.636.666c.166 0 .333.02.496.06l.028.008c.415.11.777.35 1.033.714.247.351.395.81.395 1.368 0 .277-.038.587-.12.922l-4.704 22.169a3.55 3.55 0 0 1-.354.989c-.223.4-.517.682-.873.844-.357.163-.761.198-1.194.107l-.022-.006a3.544 3.544 0 0 1-.946-.373l-11.259-8.31a.888.888 0 0 1-.272-.316l-.005-.012a.89.89 0 0 1-.095-.392.906.906 0 0 1 .35-.703L24.49 7.442 9.536 16.877a.856.856 0 0 1-.254.119c-.908.233-6.58-1.872-7.478-2.201-.497-.15-.875-.37-1.114-.626a1.202 1.202 0 0 1-.348-.832c0-.288.108-.575.325-.845.28-.347.77-.685 1.477-.966L29.722.888a2.44 2.44 0 0 1 .829-.216l.085-.006Zm.23 1.124-.229-.026-.226.036C21.154 5.1 11.745 8.996 2.542 12.546c-.517.205-.854.426-1.021.633-.053.065-.08.12-.08.158 0 .02.017.05.05.085.113.12.323.232.626.325l6.882 2.174L25.183 5.71c.476-.287.958-.372 1.277-.316.157.028.294.09.405.177l.027.022a.693.693 0 0 1 .247.568c-.008.233-.132.49-.402.728L13.964 18.422l10.975 8.106c.22.12.424.203.607.242l.019.003c.204.043.381.034.517-.028.14-.063.265-.19.37-.38.098-.176.18-.405.24-.684C27.99 18.925 29.598 9.98 31.4 3.49a2.8 2.8 0 0 0 .09-.675c0-.318-.072-.565-.194-.736a.736.736 0 0 0-.412-.286l-.018-.004Z"/>
</symbol><symbol viewBox="0 0 36 24" id="vk" xmlns="http://www.w3.org/2000/svg">
    <path d="M1.6 2.167c.653 6.07 2.01 11.084 4.782 14.588 2.754 3.481 6.958 5.506 13.345 5.634v-7.386l.594-.01c2.22-.04 4.147.81 5.683 2.115 1.657 1.412 2.86 3.364 3.472 5.286h4.877c-.495-1.898-1.397-3.555-2.531-4.975-1.527-1.903-3.483-3.393-5.474-4.478l-.735-.401 1.67-1.529c2.481-2.231 4.914-4.419 5.882-8.804h-3.547l-.186.437c-1.188 2.815-3.217 7.619-9.08 7.835l-.624.024.003-8.296h-4.304l-.063 15.11-.795-.277c-3.045-1.062-5.034-3.144-6.314-5.884-1.185-2.534-1.757-5.624-2-8.976L1.6 2.167Zm3.84 15.33C2.402 13.658.984 8.203.336 1.624L.27.963l7.113.021.034.563c.212 3.435.749 6.586 1.924 9.1 1.03 2.204 2.567 3.932 4.83 4.942l.06-14.588h6.7v8.232c4.625-.505 6.36-4.608 7.394-7.056l.512-1.176h5.778l-.123.707c-.926 5.272-3.636 7.71-6.404 10.199l-.438.394c1.864 1.11 3.664 2.562 5.107 4.365 1.39 1.74 2.458 3.81 2.94 6.213l.144.72h-7.27l-.12-.445c-.503-1.845-1.628-3.766-3.224-5.128-1.188-1.01-2.643-1.706-4.294-1.818v7.389h-.603c-7.136-.013-11.818-2.217-14.89-6.1Z"/>
</symbol><symbol viewBox="0 0 28 28" id="voice" xmlns="http://www.w3.org/2000/svg">
    <path d="M19.398 7.527V1.42a.844.844 0 0 0-1.687 0v.933l-7.7 4.998H2.75c-1.5 0-2.719 1.22-2.719 2.719v4.722a2.722 2.722 0 0 0 2.719 2.719h.071v8.13c0 .983.799 1.782 1.781 1.782h1.93c.983 0 1.782-.8 1.782-1.781V17.51h1.697l7.699 4.998v.933a.844.844 0 0 0 1.687 0v-6.106c2.349-.404 4.147-2.443 4.147-4.905s-1.797-4.5-4.146-4.904ZM6.627 25.643a.094.094 0 0 1-.094.094h-1.93a.094.094 0 0 1-.094-.094v-8.131h2.118v8.13Zm2.79-9.82H2.75a1.032 1.032 0 0 1-1.031-1.03V10.07c0-.568.463-1.031 1.031-1.031h6.667v6.784Zm1.687.387V8.654l6.606-4.288V20.5l-6.606-4.29Zm8.294-.6V9.253a3.298 3.298 0 0 1 2.458 3.18 3.297 3.297 0 0 1-2.458 3.179Zm7.727-4.022h-1.442a.844.844 0 0 0 0 1.687h1.442a.844.844 0 0 0 0-1.687Zm-2.69-2.127a.843.843 0 0 0 .597-.248l1.02-1.02A.843.843 0 1 0 24.858 7l-1.02 1.02a.843.843 0 0 0 .596 1.44Zm.596 6.19a.84.84 0 0 0-1.193 0 .842.842 0 0 0 .001 1.193l1.02 1.02a.839.839 0 0 0 1.193-.002.842.842 0 0 0 0-1.192l-1.021-1.02Z"/>
</symbol><symbol viewBox="0 0 32 32" id="whatsap" xmlns="http://www.w3.org/2000/svg">
    <g clip-path="url(#la)">
        <path d="M32 15.588c0 8.609-7.032 15.588-15.71 15.588-2.754 0-5.341-.704-7.593-1.94L0 32l2.836-8.363a15.424 15.424 0 0 1-2.255-8.05C.581 6.98 7.615 0 16.291 0 24.968 0 32 6.979 32 15.588ZM16.29 2.482c-7.282 0-13.207 5.88-13.207 13.106 0 2.868.935 5.523 2.516 7.684l-1.65 4.867 5.076-1.613a13.198 13.198 0 0 0 7.266 2.167c7.282 0 13.208-5.878 13.208-13.104 0-7.227-5.925-13.107-13.208-13.107Zm7.934 16.696c-.097-.159-.354-.255-.739-.446-.385-.19-2.279-1.116-2.63-1.243-.354-.127-.611-.19-.867.191-.257.383-.995 1.243-1.22 1.498-.225.256-.45.288-.835.096-.384-.19-1.625-.595-3.096-1.896-1.144-1.012-1.917-2.263-2.142-2.646-.224-.382-.023-.588.169-.779.173-.171.385-.446.578-.669.193-.223.257-.382.384-.637.13-.255.065-.478-.032-.67-.096-.19-.866-2.07-1.187-2.836-.32-.764-.641-.637-.866-.637-.225 0-.482-.032-.738-.032-.257 0-.675.095-1.028.478-.352.382-1.347 1.307-1.347 3.187s1.38 3.696 1.572 3.95c.193.255 2.664 4.239 6.578 5.769 3.915 1.53 3.915 1.019 4.622.955.705-.064 2.277-.924 2.6-1.816.32-.893.32-1.658.224-1.817Z"/>
    </g>
    <defs>
        <clipPath id="la">
            <path d="M0 0h32v32H0z"/>
        </clipPath>
    </defs>
</symbol><symbol viewBox="0 0 30 30" id="whatsapp" xmlns="http://www.w3.org/2000/svg">
    <path d="M25.761 24.71a14.274 14.274 0 0 0 4.242-10.165c0-3.97-1.621-7.565-4.242-10.165A14.504 14.504 0 0 0 15.513.17c-4.004 0-7.628 1.61-10.249 4.21a14.274 14.274 0 0 0-4.242 10.165 14.234 14.234 0 0 0 2.077 7.42l.123.203-2.461 7.261 7.557-2.402.189.104a14.485 14.485 0 0 0 7.006 1.788c4.004 0 7.627-1.609 10.248-4.21ZM6.244 5.342a13.126 13.126 0 0 1 9.269-3.817c3.613 0 6.892 1.46 9.268 3.818 2.377 2.358 3.848 5.613 3.848 9.202 0 3.588-1.472 6.843-3.848 9.2a13.125 13.125 0 0 1-9.268 3.818 13.101 13.101 0 0 1-7.01-2.024L2.93 27.311l1.813-5.348a12.87 12.87 0 0 1-2.347-7.418c0-3.589 1.472-6.844 3.848-9.202Zm16.409 12.892c-.156-.073-.348-.152-.495-.235a124.12 124.12 0 0 0-1.665-.805 15.559 15.559 0 0 0-.794-.36.917.917 0 0 0-.22-.063c-.012.001.01.013-.017.052a9.36 9.36 0 0 1-.467.61c-.28.344-.6.716-.737.871-.192.22-.4.345-.662.376-.228.028-.464-.027-.739-.163l-.218-.096a9.974 9.974 0 0 1-2.849-1.79 10.527 10.527 0 0 1-1.421-1.563 11.93 11.93 0 0 1-.725-1.085c-.198-.338-.2-.622-.106-.873.083-.22.218-.358.348-.487.086-.085.209-.233.33-.38l.194-.23c.117-.134.172-.246.247-.399l.051-.106a.111.111 0 0 0 .014-.06.407.407 0 0 0-.044-.123 78.822 78.822 0 0 1-.765-1.819l-.384-.921c-.129-.305-.195-.306-.245-.303l-.115.006c-.102 0-.23-.008-.36-.017-.106-.006-.217-.014-.345-.014a.766.766 0 0 0-.316.075.935.935 0 0 0-.292.217l-.076.081c-.339.359-1.075 1.14-1.075 2.619 0 .805.301 1.608.624 2.238.332.65.685 1.115.771 1.23l.095.135c.455.67 2.657 3.911 5.967 5.204 2.947 1.152 3.4 1.046 3.8.95.116-.028.23-.056.382-.07.297-.026.82-.257 1.29-.584.359-.25.664-.544.762-.815.116-.33.184-.638.215-.89.03-.248.044-.39.042-.413Z"/>
</symbol><symbol viewBox="0 0 22 22" id="zoom" xmlns="http://www.w3.org/2000/svg">
    <path fill-rule="evenodd" clip-rule="evenodd" d="M16.613 7.029A7.336 7.336 0 0 0 2.5 9.838a7.336 7.336 0 0 0 11.412 6.098l.567.848-.567-.848a7.336 7.336 0 0 0 2.7-8.907Zm1.884-.781A9.376 9.376 0 0 0 .46 9.838m18.038-3.59A9.376 9.376 0 1 1 .46 9.838"/>
    <path fill-rule="evenodd" clip-rule="evenodd" d="M15.024 15.026a1.02 1.02 0 0 1 1.442 0l4.775 4.775a1.02 1.02 0 0 1-1.442 1.442l-4.775-4.775a1.02 1.02 0 0 1 0-1.442Z"/>
</symbol></svg>