<?xml version="1.0" encoding="utf-8"?><svg xmlns="http://www.w3.org/2000/svg" xmlns:xlink="http://www.w3.org/1999/xlink"><symbol viewBox="0 0 24 24" id="arrow-left" xmlns="http://www.w3.org/2000/svg">
    <path d="M19.018 12.24H5.46m0 0 6.778 6.777M5.461 12.24l6.778-6.778" stroke-width="1.94" stroke-linecap="round" stroke-linejoin="round"/>
</symbol><symbol viewBox="0 0 24 24" id="arrow-right" xmlns="http://www.w3.org/2000/svg">
    <path d="M4.982 12.24H18.54m0 0L11.76 5.46m6.778 6.778-6.778 6.778" stroke-width="1.94" stroke-linecap="round" stroke-linejoin="round"/>
</symbol><symbol viewBox="0 0 34 28" id="box" xmlns="http://www.w3.org/2000/svg">
    <path d="M30.333 9.994V26.5c0 .46-.373.833-.833.833h-25a.833.833 0 0 1-.833-.833V9.994L.393 1.81A.833.833 0 0 1 1.167.667h16.666c.341 0 .648.207.774.524l2.56 6.399 2.56-6.4A.833.833 0 0 1 24.5.668h8.333c.59 0 .993.595.774 1.143l-3.274 8.184ZM22 10.667v15h6.667v-15H22Zm-1.667 0h-15v15h15v-15ZM5.064 9h14.872l-2.667-6.667H2.398L5.064 9Zm23.872 0 2.666-6.667h-6.538L22.398 9h6.538Zm-10.27 10.833v3.334c0 .46-.372.833-.833.833h-5a.833.833 0 0 1-.833-.833v-3.334c0-.46.373-.833.833-.833h5c.46 0 .834.373.834.833ZM17 20.667h-3.333v1.666H17v-1.666Z"/>
</symbol><symbol viewBox="0 0 11 7" id="caret" xmlns="http://www.w3.org/2000/svg">
    <path d="M6.22 6.251a1 1 0 0 1-1.44 0L.633 1.943C.023 1.308.474.25 1.354.25h8.291c.882 0 1.332 1.058.72 1.693L6.222 6.251Z"/>
</symbol><symbol viewBox="0 0 28 24" id="cart" xmlns="http://www.w3.org/2000/svg">
    <path d="M26.188 7.132h-2.932L22.13 2.7a2.718 2.718 0 0 0-2.635-2.05H8.505a2.717 2.717 0 0 0-2.635 2.05L4.744 7.132H1.813c-.983 0-1.782.8-1.782 1.782v2.46c0 .983.799 1.782 1.782 1.782h.526l2.5 8.263a2.704 2.704 0 0 0 2.602 1.932H20.56a2.703 2.703 0 0 0 2.602-1.932l2.5-8.263h.526c.983 0 1.782-.8 1.782-1.781V8.914c0-.983-.799-1.782-1.782-1.782ZM7.506 3.113a1.03 1.03 0 0 1 1-.777h10.989c.472 0 .883.32 1 .777l1.02 4.018H6.484l1.02-4.018Zm14.04 17.818c-.133.438-.53.732-.987.732H7.44c-.457 0-.855-.294-.987-.732l-2.351-7.775h19.795l-2.352 7.775Zm4.735-9.556a.094.094 0 0 1-.093.093H1.813a.094.094 0 0 1-.094-.093V8.914c0-.052.042-.094.093-.094h24.375c.052 0 .094.042.094.094v2.46Z"/>
    <path d="M9.957 20.217a.844.844 0 0 0 .844-.844v-3.926a.844.844 0 0 0-1.687 0v3.926c0 .465.377.844.843.844Zm4.043 0a.844.844 0 0 0 .844-.844v-3.926a.844.844 0 0 0-1.688 0v3.926c0 .465.378.844.844.844Zm4.043 0a.844.844 0 0 0 .844-.844v-3.926a.844.844 0 0 0-1.687 0v3.926c0 .465.377.844.843.844Z"/>
</symbol><symbol viewBox="0 0 24 24" id="check-circle" xmlns="http://www.w3.org/2000/svg">
    <g stroke-width="2" stroke-linecap="round" stroke-linejoin="round">
        <path d="M12 22c5.5 0 10-4.5 10-10S17.5 2 12 2 2 6.5 2 12s4.5 10 10 10Z"/>
        <path d="m7.75 12 2.83 2.83 5.67-5.66"/>
    </g>
</symbol><symbol viewBox="0 0 344.971 344.971" xml:space="preserve" id="close" xmlns="http://www.w3.org/2000/svg">
    <path d="M342.622 330.438 183.814 172.494 341.79 13.646a8.001 8.001 0 1 0-11.344-11.288L172.502 161.182 13.67 3.206A8.001 8.001 0 1 0 2.382 14.55L161.19 172.494 3.23 331.326a8.001 8.001 0 1 0 11.344 11.288l157.928-158.808 158.8 157.976a8.001 8.001 0 1 0 11.288-11.344h.032z" data-original="#6d6e71"/>
</symbol><symbol viewBox="0 0 50 48" xml:space="preserve" fill-rule="evenodd" id="close-circle" xmlns="http://www.w3.org/2000/svg">
    <g>
        <path d="M1.2 0h48v48h-48z"/>
        <g stroke-width="4">
            <circle cx="25.2" cy="24" r="21"/>
            <path d="m19.22 18.02 11.96 11.96m0-11.96L19.22 29.98"/>
        </g>
    </g>
</symbol><symbol viewBox="0 0 47.971 47.971" xml:space="preserve" id="close2" xmlns="http://www.w3.org/2000/svg">
    <path d="M28.228 23.986 47.092 5.122a2.998 2.998 0 0 0 0-4.242 2.998 2.998 0 0 0-4.242 0L23.986 19.744 5.121.88a2.998 2.998 0 0 0-4.242 0 2.998 2.998 0 0 0 0 4.242l18.865 18.864L.879 42.85a2.998 2.998 0 1 0 4.242 4.241l18.865-18.864L42.85 47.091c.586.586 1.354.879 2.121.879s1.535-.293 2.121-.879a2.998 2.998 0 0 0 0-4.242L28.228 23.986z" data-original="#000000"/>
</symbol><symbol viewBox="0 0 28 28" id="comments" xmlns="http://www.w3.org/2000/svg">
    <path d="M23.627 4.088C20.695 1.083 16.607-.365 12.403.123 6.428.814 1.618 5.443.706 11.382c-.607 3.955.524 7.9 3.109 10.889l-.724 4.478c-.065.397.099.79.426 1.023a1.05 1.05 0 0 0 1.104.074l3.9-2.067a13.555 13.555 0 0 0 6.977 1.082c6.013-.646 10.985-5.458 11.82-11.44.588-4.198-.758-8.329-3.69-11.333Zm2.021 11.1c-.73 5.227-5.075 9.431-10.33 9.995a11.837 11.837 0 0 1-6.454-1.104.847.847 0 0 0-.764.013l-3.14 1.664.585-3.613a.845.845 0 0 0-.211-.705c-2.431-2.645-3.51-6.216-2.96-9.8.798-5.19 5-9.235 10.223-9.838.47-.054.935-.08 1.398-.08 3.175 0 6.187 1.254 8.426 3.547 2.564 2.628 3.741 6.244 3.227 9.92Z"/>
    <path d="M17.146 9.84h-.324v-.248a2.826 2.826 0 0 0-2.823-2.823 2.826 2.826 0 0 0-2.823 2.823v.248h-.324c-.979 0-1.776.797-1.776 1.776v4.942a2.337 2.337 0 0 0 2.335 2.335h5.175a2.337 2.337 0 0 0 2.334-2.335v-4.942a1.775 1.775 0 0 0-1.774-1.776Zm-4.281-.248a1.136 1.136 0 0 1 2.27 0v.248h-2.27v-.248Zm4.37 6.966c0 .357-.291.647-.648.647h-5.175a.648.648 0 0 1-.647-.647v-4.942c0-.049.04-.088.089-.088h6.293c.049 0 .088.04.088.088v4.942Z"/>
</symbol><symbol viewBox="0 0 30 30" id="contact" xmlns="http://www.w3.org/2000/svg">
    <path d="M23.75 27.5H6.25a2.507 2.507 0 0 1-2.5-2.5V7.5c0-1.375 1.125-2.5 2.5-2.5h17.5c1.375 0 2.5 1.125 2.5 2.5V25c0 1.375-1.125 2.5-2.5 2.5ZM20 2.5V5M10 2.5V5" stroke-width="2" stroke-linecap="round" stroke-linejoin="round"/>
    <path d="M15 17.5a3.75 3.75 0 1 0 0-7.5 3.75 3.75 0 0 0 0 7.5ZM21.25 23.125c-1.75-1.25-3.875-1.875-6.25-1.875s-4.5.75-6.25 1.875" stroke-width="2" stroke-linecap="round" stroke-linejoin="round"/>
</symbol><symbol viewBox="0 0 12.7 12.7" xml:space="preserve" id="copy" xmlns="http://www.w3.org/2000/svg">
    <path d="M4.64.53a1.47 1.47 0 0 0-1.307.809.529.529 0 1 0 .916.53c.05-.17.2-.283.39-.283h6.067c.234 0 .406.172.406.407V8.06a.39.39 0 0 1-.264.382.53.53 0 1 0 .53.917c.469-.245.793-.738.793-1.299V1.993c0-.803-.663-1.463-1.465-1.463zM1.994 3.177c-.802 0-1.465.66-1.465 1.462v6.068c0 .803.663 1.463 1.465 1.463H8.06c.803 0 1.466-.66 1.466-1.463V4.64c0-.802-.663-1.462-1.466-1.462zm0 1.056H8.06c.235 0 .407.172.407.406v6.068a.395.395 0 0 1-.407.407H1.994a.395.395 0 0 1-.406-.407V4.64c0-.234.172-.406.406-.406z" data-original="#000000"/>
</symbol><symbol viewBox="0 0 19 21" id="filter" xmlns="http://www.w3.org/2000/svg">
    <g fill-rule="evenodd" clip-rule="evenodd">
        <path d="M.184 3.208a.75.75 0 0 1 .75-.75h12.5a.75.75 0 0 1 0 1.5H.934a.75.75 0 0 1-.75-.75ZM.184 10.5a.75.75 0 0 1 .75-.75h6.25a.75.75 0 0 1 0 1.5H.934a.75.75 0 0 1-.75-.75ZM10.6 10.5a.75.75 0 0 1 .75-.75h6.25a.75.75 0 0 1 0 1.5h-6.25a.75.75 0 0 1-.75-.75ZM4.35 17.792a.75.75 0 0 1 .75-.75h12.5a.75.75 0 0 1 0 1.5H5.1a.75.75 0 0 1-.75-.75Z"/>
        <path d="M15.517 1.875a1.333 1.333 0 1 0 0 2.667 1.333 1.333 0 0 0 0-2.667Zm-2.833 1.333a2.833 2.833 0 1 1 5.666 0 2.833 2.833 0 0 1-5.666 0ZM9.267 9.167a1.333 1.333 0 1 0 0 2.666 1.333 1.333 0 0 0 0-2.666ZM6.434 10.5a2.833 2.833 0 1 1 5.666 0 2.833 2.833 0 0 1-5.666 0ZM3.017 16.458a1.333 1.333 0 1 0 0 2.667 1.333 1.333 0 0 0 0-2.667ZM.184 17.792a2.833 2.833 0 1 1 5.666 0 2.833 2.833 0 0 1-5.666 0Z"/>
    </g>
</symbol><symbol viewBox="0 0 28 28" id="flash-sale" xmlns="http://www.w3.org/2000/svg">
    <path d="M26.588 14.366a1.188 1.188 0 0 1 0-.732l.7-2.178a2.876 2.876 0 0 0-1.041-3.208l-1.848-1.351a1.172 1.172 0 0 1-.429-.59l-.716-2.177a2.879 2.879 0 0 0-2.724-1.98l-2.293-.011c-.25-.001-.489-.079-.691-.224L15.685.574a2.88 2.88 0 0 0-3.368 0l-1.86 1.34a1.188 1.188 0 0 1-.693.225l-2.293.01A2.878 2.878 0 0 0 4.747 4.13L4.03 6.307a1.177 1.177 0 0 1-.43.59l-1.847 1.35a2.874 2.874 0 0 0-1.041 3.209l.7 2.178c.077.24.077.492 0 .732l-.7 2.177a2.876 2.876 0 0 0 1.041 3.209l1.848 1.351c.203.148.35.351.429.59l.716 2.177a2.879 2.879 0 0 0 2.724 1.98l2.292.01c.252.001.49.079.692.224l1.861 1.341a2.876 2.876 0 0 0 3.368 0l1.86-1.34c.203-.146.442-.224.693-.225l2.29-.01a2.877 2.877 0 0 0 2.725-1.981l.717-2.177c.078-.238.226-.441.43-.59l1.847-1.35a2.874 2.874 0 0 0 1.041-3.209l-.698-2.177Zm-1.606.516.7 2.178a1.192 1.192 0 0 1-.432 1.33l-1.846 1.35c-.49.357-.848.85-1.037 1.425l-.717 2.176a1.19 1.19 0 0 1-1.129.82l-2.291.01a2.864 2.864 0 0 0-1.672.544l-1.86 1.34c-.416.3-.978.3-1.394 0l-1.86-1.34a2.866 2.866 0 0 0-1.672-.543l-2.292-.01a1.19 1.19 0 0 1-1.13-.82l-.714-2.176a2.855 2.855 0 0 0-1.037-1.426L2.75 18.39a1.192 1.192 0 0 1-.432-1.33l.7-2.176a2.87 2.87 0 0 0 0-1.766l-.7-2.178a1.194 1.194 0 0 1 .432-1.33l1.846-1.35c.49-.358.848-.85 1.037-1.427l.717-2.176c.16-.489.614-.819 1.129-.82l2.291-.01a2.863 2.863 0 0 0 1.672-.544l1.86-1.34a1.189 1.189 0 0 1 1.394 0l1.86 1.34c.489.353 1.068.54 1.672.543l2.292.01c.515.002.969.332 1.13.82l.714 2.176c.19.576.549 1.07 1.037 1.426L25.25 9.61c.416.303.59.838.432 1.329l-.7 2.177a2.87 2.87 0 0 0 0 1.766Z"/>
    <path d="M18.614 11.927h-2.598V7.652a.937.937 0 0 0-.643-.891.936.936 0 0 0-1.047.322l-5.69 7.483a.937.937 0 0 0-.091.986c.16.322.482.522.84.522h2.6v4.276a.937.937 0 0 0 .94.94.941.941 0 0 0 .75-.372l5.69-7.482a.937.937 0 0 0 .09-.986.936.936 0 0 0-.84-.523Zm-4.941 6.204v-2.806a.942.942 0 0 0-.94-.94h-1.84l3.433-4.516v2.805c0 .52.422.942.94.942h1.84l-3.433 4.515Z"/>
</symbol><symbol viewBox="0 0 27 23" id="heart" xmlns="http://www.w3.org/2000/svg">
    <path d="M4.79 1.505A5.914 5.914 0 0 1 7.178 1c.822 0 1.634.172 2.388.505a6.165 6.165 0 0 1 2.005 1.425 2.04 2.04 0 0 0 2.961 0C15.684 1.704 17.262 1 18.925 1c1.662 0 3.24.704 4.392 1.93l.729-.685-.729.685c1.15 1.223 1.786 2.87 1.786 4.578 0 1.706-.636 3.354-1.786 4.577l-8.09 8.612c-1.16 1.234-3.192 1.234-4.351 0l-8.09-8.611a6.54 6.54 0 0 1-1.324-2.108A6.817 6.817 0 0 1 1 7.508c0-.847.157-1.686.462-2.47A6.54 6.54 0 0 1 2.786 2.93 6.167 6.167 0 0 1 4.79 1.505Zm0 0L4.387.59l.403.915Z" stroke-width="2"/>
</symbol><symbol viewBox="0 0 24 24" xml:space="preserve" id="info-circle" xmlns="http://www.w3.org/2000/svg">
    <path d="M12 22.75A10.75 10.75 0 1 1 22.75 12 10.762 10.762 0 0 1 12 22.75zm0-20A9.25 9.25 0 1 0 21.25 12 9.26 9.26 0 0 0 12 2.75zm.75 13.75v-4.571a.75.75 0 0 0-1.5 0V16.5a.75.75 0 0 0 1.5 0zm.27-8a1 1 0 0 0-1-1h-.01a1 1 0 1 0 1.01 1z" data-original="#000000"/>
</symbol><symbol viewBox="0 0 34 42" id="langs" xmlns="http://www.w3.org/2000/svg">
    <path d="M1.274 21.747A1.154 1.154 0 0 1 .008 20.72a1.148 1.148 0 0 1 1.039-1.25c7.07-.703 7.826-1.293 10.076-3.049.639-.498 1.384-1.08 2.357-1.757-1.173-1.276-2.031-2.582-2.248-3.865a2.516 2.516 0 0 1-.304.11c-1.374.398-2.94.635-4.51.872-1.77.268-3.549.537-4.863 1.008a1.162 1.162 0 0 1-1.483-.685 1.14 1.14 0 0 1 .694-1.466c1.55-.557 3.433-.841 5.308-1.124 1.505-.228 3.006-.455 4.201-.802.13-.037.362-.316.586-.584.619-.742 1.21-1.45 2.355-1.284.26-.036.56-.009.915.301l.005.005c.5.441.693 1.069-.179 2.038-1.253 1.393.648 3.57 3.02 5.652 1.03.904 2.143 1.777 3.17 2.585.75.589 1.456 1.143 2.09 1.679.042.036.081.074.118.116.159.18.326.343.476.49 1.12 1.093 1.645 1.605.546 4.43a5.338 5.338 0 0 0-.07.334c-.079.43-.08.733-.012.904.004.01.013.016.026.022l.043.012 1.565.205c.044.002.088.007.133.015l.436.07c.62.094.949.144 1.363.492.398.334.554.706.882 1.495l.101.242c.121.29.397.513.712.68a3.792 3.792 0 0 0 1.535.42c.063-.005.127-.005.192 0l.067.008-.446-.286a1.166 1.166 0 0 1-.247-.178c-.43-.403-.742-1.03-1.155-1.864-.513-1.032-1.215-2.447-2.415-3.902-.657-.618-1.406-1.68-2.11-2.843-.923-1.522-1.796-3.252-2.264-4.334L15.301 2.787c-.17-.262-.4-.429-.694-.477-.406-.067-.952.027-1.653.31a1.216 1.216 0 0 1-.113.05L1.573 6.94a1.165 1.165 0 0 1-1.497-.664 1.142 1.142 0 0 1 .672-1.479L12.066.508c1.13-.457 2.099-.594 2.921-.458 1.034.17 1.799.729 2.326 1.6l.044.082 6.476 12.976c.435 1.01 1.259 2.646 2.13 4.083.622 1.026 1.253 1.932 1.747 2.382.058.053.11.11.154.172 1.372 1.657 2.15 3.222 2.715 4.362.277.557.491.99.633 1.164 1.45.934 2.515 1.783 2.715 2.552.371 1.426-.644 2.158-3.832 1.894-.568-.012-1.68-.188-2.627-.69-.738-.39-1.407-.974-1.765-1.826l-.101-.243c-.181-.434-.21-.592-.238-.616-.086-.072-.016.057-.21.028-.141-.021-.304-.046-.491-.079l-1.645-.217-.25-.047-.064-.018a2.278 2.278 0 0 1-1.144-.697c.126 1.38.195 2.765.167 4.118.405.913.704 2.127 1.007 3.353.42 1.7.847 3.432 1.296 3.74.428.21.817.48 1.09.783l.078.086c.254.312.402.667.408 1.058v.005c.007.44-.157.85-.538 1.198-.278.255-.688.474-1.26.633-.067.02-.138.036-.21.044-1.335.16-2.216.04-2.962-.308-.715-.334-1.18-.814-1.763-1.436a1.137 1.137 0 0 1-.348-.605c-.086-.402-.223-.76-.45-1.073-.232-.323-.584-.63-1.103-.929-.008-.005-.098-.017-.214-.04-.582-.12-1.24-.253-1.76-.921a2.717 2.717 0 0 1-.3-.387 2.308 2.308 0 0 1-.278-1.944c.16-.566.53-1.146 1.132-1.722.253-.243.551-.489.897-.737-.402-1.9-1.092-3.396-1.759-4.839-1.165-2.526-2.265-4.907-1.943-8.923l-.19.148c-2.65 2.068-3.54 2.762-11.283 3.533Zm14.13-5.222-.317 1.38c-.364 3.644.64 5.821 1.708 8.134.811 1.757 1.656 3.586 2.073 6.139a1.14 1.14 0 0 1-.526 1.147c-.499.31-.888.605-1.176.88-.295.283-.462.517-.514.7-.013.045-.01.082.006.107a.458.458 0 0 0 .06.072c.041.042.079.087.113.134l.39.08c.322.065.621.127.922.3.811.468 1.394.994 1.82 1.583.365.506.6 1.04.754 1.61.336.355.616.623.908.76.191.089.429.142.749.155-.951-.983-1.424-2.899-1.89-4.785-.3-1.219-.598-2.424-.96-3.143a1.127 1.127 0 0 1-.116-.588c.098-3.445-.503-7.218-1.033-10.55-.111-.7-.22-1.38-.303-1.92a65.886 65.886 0 0 1-2.637-2.168l-.03-.027Zm5.352 4.359c.134.848.27 1.72.396 2.607.016-.055.036-.108.06-.158.56-1.44.379-1.618-.005-1.992a12.7 12.7 0 0 1-.451-.457Zm10.93 9.103c-.01-.039-.153-.153-.396-.323.305.333.473.616.396.323Z"/>
</symbol><symbol viewBox="0 0 28 28" id="list" xmlns="http://www.w3.org/2000/svg">
    <path d="M23.375.536H4.625A4.599 4.599 0 0 0 .031 5.129v17.742a4.599 4.599 0 0 0 4.594 4.593h18.75a4.599 4.599 0 0 0 4.594-4.593V5.129A4.599 4.599 0 0 0 23.375.536Zm2.906 22.335a2.91 2.91 0 0 1-2.906 2.906H4.625a2.91 2.91 0 0 1-2.906-2.906V5.129a2.91 2.91 0 0 1 2.906-2.906h18.75a2.91 2.91 0 0 1 2.906 2.906v17.742Z"/>
    <path d="M21.369 6.846H11.066a.844.844 0 0 0 0 1.687h10.303a.844.844 0 0 0 0-1.687Zm-13.873 0H6.63a.844.844 0 0 0 0 1.687h.866a.844.844 0 0 0 0-1.687Zm13.873 6.31H11.066a.844.844 0 0 0 0 1.688h10.303a.844.844 0 0 0 0-1.688Zm-13.873 0H6.63a.844.844 0 0 0 0 1.688h.866a.844.844 0 0 0 0-1.688Zm13.873 6.31H11.066a.844.844 0 0 0 0 1.688h10.303a.844.844 0 0 0 0-1.687Zm-13.873 0H6.63a.844.844 0 0 0 0 1.688h.866a.844.844 0 0 0 0-1.687Z"/>
</symbol><symbol viewBox="0 0 24 28" id="login" xmlns="http://www.w3.org/2000/svg">
    <path d="M19.914 7.755h-2.091v-1.9A5.829 5.829 0 0 0 12 .031a5.829 5.829 0 0 0-5.822 5.822v1.902H4.086a3.19 3.19 0 0 0-3.188 3.188v12.431a4.599 4.599 0 0 0 4.594 4.594h13.017a4.599 4.599 0 0 0 4.594-4.594V10.943a3.192 3.192 0 0 0-3.189-3.188Zm-12.05-1.9A4.14 4.14 0 0 1 12 1.718a4.14 4.14 0 0 1 4.134 4.135v1.902h-8.27V5.854Zm13.55 17.52a2.91 2.91 0 0 1-2.906 2.906H5.492a2.91 2.91 0 0 1-2.906-2.906V10.943c0-.827.673-1.5 1.5-1.5h15.83c.826 0 1.5.673 1.5 1.5l-.002 12.432Z"/>
    <path d="M15.104 17.019H8.897a.844.844 0 0 0 0 1.687h6.207a.844.844 0 0 0 0-1.687Z"/>
</symbol><symbol viewBox="0 0 28 28" id="magazine" xmlns="http://www.w3.org/2000/svg">
    <path d="m27.814 7.192-1.66-4.555a2.73 2.73 0 0 0-2.555-1.78H4.4a2.732 2.732 0 0 0-2.556 1.781L.185 7.192a2.56 2.56 0 0 0-.154.876v1.234c0 1.526.844 2.846 2.08 3.56v11.563a2.723 2.723 0 0 0 2.718 2.719h18.342c1.499 0 2.718-1.22 2.718-2.719V12.863c1.236-.714 2.08-2.035 2.08-3.56V8.067c0-.3-.052-.595-.155-.876ZM23.6 2.544c.432 0 .822.27.97.673l1.35 3.704h-4.653l-.798-4.377H23.6Zm-8.756 0h3.908l.798 4.377h-4.706V2.544Zm0 6.065h4.875v.693a2.44 2.44 0 0 1-2.438 2.438 2.44 2.44 0 0 1-2.437-2.438V8.61ZM9.248 2.544h3.908V6.92H8.45l.798-4.377ZM8.28 8.609h4.875v.693a2.44 2.44 0 0 1-2.437 2.438A2.44 2.44 0 0 1 8.28 9.302V8.61ZM3.43 3.22c.148-.404.538-.675.97-.675h3.131L6.733 6.92H2.081L3.43 3.219ZM1.719 9.302V8.61h4.875v.693a2.44 2.44 0 0 1-2.438 2.438A2.44 2.44 0 0 1 1.72 9.302Zm14.795 16.154h-5.027v-4.792c0-.568.462-1.032 1.03-1.032h2.967c.568 0 1.031.463 1.031 1.032v4.792Zm7.688-1.031c0 .568-.462 1.031-1.031 1.031H18.2v-4.792c0-1.5-1.22-2.719-2.718-2.719h-2.966c-1.5 0-2.719 1.22-2.719 2.719v4.792H4.83a1.032 1.032 0 0 1-1.03-1.031V13.391c.12.01.234.037.357.037a4.108 4.108 0 0 0 3.282-1.653 4.108 4.108 0 0 0 3.28 1.653A4.108 4.108 0 0 0 14 11.775a4.108 4.108 0 0 0 3.281 1.653 4.108 4.108 0 0 0 3.282-1.653 4.108 4.108 0 0 0 3.28 1.653c.124 0 .239-.025.359-.037v11.034Zm2.08-15.123a2.44 2.44 0 0 1-2.438 2.438 2.44 2.44 0 0 1-2.438-2.438V8.61h4.875v.693Z"/>
</symbol><symbol viewBox="0 0 24 30" id="marker" xmlns="http://www.w3.org/2000/svg">
    <path d="M12 30a3 3 0 0 1-2.21-1C6.14 25 0 17.39 0 12.36A12.19 12.19 0 0 1 12 0a12.19 12.19 0 0 1 12 12.36c0 5-6.14 12.59-9.79 16.65A3.002 3.002 0 0 1 12 30Zm0-28A10.2 10.2 0 0 0 2 12.36c0 3.14 3.47 8.86 9.28 15.31a.999.999 0 0 0 1.44 0C18.53 21.22 22 15.5 22 12.36A10.2 10.2 0 0 0 12 2Z"/>
    <path d="M12 18a6 6 0 1 1 0-12 6 6 0 0 1 0 12Zm0-10a4 4 0 1 0 0 8 4 4 0 0 0 0-8Z"/>
</symbol><symbol viewBox="0 0 18 23" id="marker2" xmlns="http://www.w3.org/2000/svg">
    <g>
        <path d="M9 18.811a.856.856 0 0 1-.417-.109 13.156 13.156 0 0 1-6.73-11.754c.046-2.138.844-3.94 2.31-5.21C5.454.616 7.173 0 9 0c1.829 0 3.546.617 4.839 1.737 1.465 1.27 2.264 3.072 2.31 5.21l.003.285a13.156 13.156 0 0 1-6.734 11.47.856.856 0 0 1-.418.11Zm0-17.1c-1.416 0-2.736.467-3.717 1.318-1.09.945-1.685 2.313-1.72 3.955v.249a11.444 11.444 0 0 0 5.44 9.732 11.445 11.445 0 0 0 5.44-9.732c0-.084 0-.167-.003-.25-.035-1.641-.63-3.009-1.72-3.954-.984-.85-2.301-1.319-3.72-1.319Z"/>
        <path d="M9.018 11.366a4.112 4.112 0 1 1 0-8.223 4.112 4.112 0 0 1 0 8.223Zm0-6.512a2.402 2.402 0 1 0 0 4.803 2.402 2.402 0 0 0 0-4.803ZM9 22.916c-2.307 0-4.489-.46-6.144-1.294C1.013 20.692 0 19.392 0 17.956c0-1.904 1.781-3.549 4.765-4.398a.855.855 0 0 1 .466 1.645c-2.14.61-3.523 1.69-3.523 2.753 0 1.54 2.994 3.25 7.29 3.25 4.296 0 7.292-1.71 7.292-3.25 0-1.063-1.383-2.144-3.523-2.753a.854.854 0 1 1 .468-1.645c2.984.85 4.765 2.494 4.765 4.398 0 1.436-1.014 2.736-2.856 3.666-1.655.834-3.837 1.294-6.144 1.294Z"/>
    </g>
</symbol><symbol viewBox="0 0 26 35" id="medal" xmlns="http://www.w3.org/2000/svg">
    <path d="M12.984 24.911c6.587 0 11.927-5.34 11.927-11.927S19.571 1.057 12.984 1.057 1.057 6.397 1.057 12.984s5.34 11.927 11.927 11.927Z"/>
    <path d="m13.45 7.497 1.479 2.997 3.3.48c.429.062.6.59.29.893l-2.387 2.327.565 3.294a.52.52 0 0 1-.754.548l-2.959-1.555-2.959 1.555a.52.52 0 0 1-.754-.548l.565-3.294-2.393-2.333a.52.52 0 0 1 .287-.886l3.308-.48 1.479-2.998a.521.521 0 0 1 .933 0Z"/>
    <path d="M19.021 23.267v10.147a.52.52 0 0 1-.81.435l-4.933-3.347a.534.534 0 0 0-.587 0l-4.933 3.347a.52.52 0 0 1-.81-.434V23.266a11.83 11.83 0 0 0 6.036 1.644 11.83 11.83 0 0 0 6.037-1.644Z"/>
    <path d="M25.968 12.984C25.968 5.825 20.144 0 12.984 0S0 5.825 0 12.984c0 4.54 2.347 8.537 5.888 10.86v9.574a1.579 1.579 0 0 0 2.469 1.307l4.627-3.14 4.628 3.141a1.575 1.575 0 0 0 1.627.09 1.58 1.58 0 0 0 .841-1.397v-9.574c3.542-2.322 5.888-6.32 5.888-10.86Zm-8 19.427-4.096-2.78a1.574 1.574 0 0 0-1.775 0l-4.095 2.78V24.97c1.535.641 3.218.997 4.983.997 1.766 0 3.447-.357 4.984-.997l-.002 7.441Zm-4.984-8.556c-5.995 0-10.87-4.876-10.87-10.87 0-5.993 4.875-10.87 10.87-10.87 5.995 0 10.87 4.876 10.87 10.87 0 5.992-4.875 10.87-10.87 10.87Z"/>
    <path d="m18.38 9.927-2.749-.4-1.233-2.498a1.568 1.568 0 0 0-1.414-.88 1.57 1.57 0 0 0-1.414.88l-1.233 2.497-2.758.4A1.568 1.568 0 0 0 6.306 11a1.568 1.568 0 0 0 .4 1.616L8.7 14.561l-.471 2.746a1.565 1.565 0 0 0 .628 1.543 1.57 1.57 0 0 0 1.66.12l2.466-1.297 2.466 1.296c.535.282 1.17.237 1.661-.12.49-.354.73-.946.629-1.542l-.474-2.743 1.989-1.94a1.572 1.572 0 0 0 .4-1.62 1.57 1.57 0 0 0-1.275-1.077Zm-2.987 3.51a1.059 1.059 0 0 0-.304.937l.38 2.22-1.994-1.048a1.055 1.055 0 0 0-.984 0l-1.995 1.049.381-2.221a1.059 1.059 0 0 0-.304-.937l-1.614-1.572 2.23-.324a1.06 1.06 0 0 0 .796-.578l1-2.023.996 2.022c.154.312.452.528.797.577l2.229.325-1.614 1.573Z"/>
</symbol><symbol viewBox="0 0 32 24" id="menu" xmlns="http://www.w3.org/2000/svg">
    <path fill-rule="evenodd" clip-rule="evenodd" d="M31.5 2A1.5 1.5 0 0 0 30 .5H2a1.5 1.5 0 1 0 0 3h28A1.5 1.5 0 0 0 31.5 2Zm0 10a1.5 1.5 0 0 0-1.5-1.5H2a1.5 1.5 0 0 0 0 3h28a1.5 1.5 0 0 0 1.5-1.5Zm0 10a1.5 1.5 0 0 0-1.5-1.5H2a1.5 1.5 0 0 0 0 3h28a1.5 1.5 0 0 0 1.5-1.5Z"/>
</symbol><symbol viewBox="0 0 30 24" id="message" xmlns="http://www.w3.org/2000/svg">
    <path d="M0 19.5c0 .658.185 1.267.481 1.804l9.473-10.598-9.37-8.198A3.722 3.722 0 0 0 0 4.5v15Zm15-6.87L1.963 1.222A3.703 3.703 0 0 1 3.75.75h22.5c.65 0 1.253.18 1.786.472L15 12.63Zm-3.635-.69 3.018 2.642a.937.937 0 0 0 1.234 0l3.018-2.642 9.593 10.733a3.705 3.705 0 0 1-1.978.577H3.75a3.705 3.705 0 0 1-1.978-.577l9.593-10.733Zm18.05-9.432C29.78 3.086 30 3.766 30 4.5v15c0 .658-.184 1.267-.482 1.804l-9.47-10.6 9.368-8.196Z"/>
</symbol><symbol viewBox="0 0 27 28" id="new" xmlns="http://www.w3.org/2000/svg">
    <path d="M24.545 13.753c.003.02.01.042.018.065l.898 2.355a2.17 2.17 0 0 1 .141.766 2.162 2.162 0 0 1-.974 1.8l-2.111 1.378a.387.387 0 0 0-.157.216l-.658 2.432a2.15 2.15 0 0 1-2.075 1.59c-.866 0-1.771-.104-2.643-.13a.376.376 0 0 0-.235.083l-1.963 1.581a2.144 2.144 0 0 1-2.064.354c-.199-.07-.39-.17-.565-.3h-.003l-2.028-1.634a.376.376 0 0 0-.235-.083c-.672-.04-1.884.09-2.609.13v-.002h-.034a2.148 2.148 0 0 1-2.076-1.59l-.658-2.431a.375.375 0 0 0-.156-.215l-2.11-1.378a2.114 2.114 0 0 1-.303-.238l-.02-.019a2.154 2.154 0 0 1-.635-1.276c-.176-.24.931-3.139 1.021-3.39a.362.362 0 0 0 .02-.189c-.332-.86-.95-2.457-.95-2.518l.001-.001a2.175 2.175 0 0 1-.11-.677 2.161 2.161 0 0 1 .486-1.36l-.055-.085.543-.355h.001l2.11-1.377a.389.389 0 0 0 .157-.217l.658-2.433a2.15 2.15 0 0 1 2.076-1.589c.108.052 2.404.123 2.642.13a.387.387 0 0 0 .237-.084c.653-.526 1.308-1.052 1.96-1.58.378-.304.89-.357 1.35-.475a2.151 2.151 0 0 1 1.349.475l1.962 1.58a.38.38 0 0 0 .237.082c.233 0 2.593-.105 2.642-.128a2.147 2.147 0 0 1 2.075 1.59l.658 2.432a.374.374 0 0 0 .156.215l2.11 1.378a2.144 2.144 0 0 1 .94 2.19 2.163 2.163 0 0 1-.105.377l-.897 2.354a.36.36 0 0 0-.02.201Zm-6.02-3.325.757-.15a.27.27 0 0 1 .254.069.287.287 0 0 1 .088.206c.042 1.117-.19 2.948-.267 4.137a.314.314 0 0 1-.257.293l-.593.117a.308.308 0 0 1-.202-.027h-.001a.326.326 0 0 1-.138-.134l-.825-1.64-.147 1.82-.002.012a.323.323 0 0 1-.077.177.304.304 0 0 1-.178.1l-.592.117a.298.298 0 0 1-.205-.032.333.333 0 0 1-.13-.128c-.468-.932-1.116-2.133-1.579-3.158a.292.292 0 0 1-.232.337l-1.542.304.08.404 1.25-.246a.295.295 0 0 1 .222.045h.001a.297.297 0 0 1 .124.19l.124.629a.295.295 0 0 1-.044.223l-.001.001a.296.296 0 0 1-.19.125l-1.248.246.086.44 1.546-.304a.291.291 0 0 1 .218.046h.001a.296.296 0 0 1 .123.19l.125.636a.296.296 0 0 1-.23.347c-.819.2-1.75.345-2.588.51a.293.293 0 0 1-.223-.044.292.292 0 0 1-.127-.188c-.214-.9-.704-3.069-.77-3.915a.293.293 0 0 1 .045-.223.292.292 0 0 1 .182-.124c.676-.146 1.958-.457 2.595-.51a.292.292 0 0 1 .222.044l.015.01a.27.27 0 0 1 .148-.126.322.322 0 0 1 .052-.015l.764-.15a.305.305 0 0 1 .348.19l.699 1.564.125-1.755a.329.329 0 0 1 .077-.177l.001-.001a.309.309 0 0 1 .177-.101l.517-.102a.3.3 0 0 1 .207.033c.054.03.097.074.128.129l.797 1.576.038-1.706a.295.295 0 0 1 .068-.206.307.307 0 0 1 .183-.105ZM9.812 12.14c.16-.031.564-.136.7-.136a.294.294 0 0 1 .319.24c.158.798.537 3.33.77 3.91a.293.293 0 0 1-.232.35c-.007.002-.694.14-.712.14a.348.348 0 0 1-.335-.118l-1.377-1.61.333 1.695a.298.298 0 0 1-.043.224h-.001a.296.296 0 0 1-.189.125 6.581 6.581 0 0 1-.674.133.293.293 0 0 1-.348-.235 156.336 156.336 0 0 0-.769-3.912.29.29 0 0 1 .044-.223.291.291 0 0 1 .186-.125c.174-.056.52-.102.716-.14a.349.349 0 0 1 .338.118l1.372 1.612-.334-1.698a.293.293 0 0 1 .233-.349h.003ZM22.8 13.297l.013-.065-.024-.009 1.012-2.657a.384.384 0 0 0 .025-.134.369.369 0 0 0-.169-.314l-2.11-1.378a2.143 2.143 0 0 1-.9-1.24l-.66-2.432a.373.373 0 0 0-.356-.277c-.879.02-1.766.106-2.646.13a2.157 2.157 0 0 1-1.35-.476l-1.963-1.58a.373.373 0 0 0-.47 0l-1.963 1.58a2.15 2.15 0 0 1-1.35.476c-.511-.125-2.055-.116-2.644-.13a.376.376 0 0 0-.359.277l-.658 2.433a2.153 2.153 0 0 1-.9 1.24l-2.11 1.377a.371.371 0 0 0-.17.314.376.376 0 0 0 .024.134l.898 2.354c.036.095.066.194.088.295.08.788-.37 2.107-.985 3.591a.374.374 0 0 0-.026.133.383.383 0 0 0 .17.315l2.11 1.377a2.147 2.147 0 0 1 .901 1.24l.658 2.432a.373.373 0 0 0 .358.277c.22-.005 2.567-.092 2.647-.13a2.155 2.155 0 0 1 1.348.476l1.962 1.581a.373.373 0 0 0 .472 0l1.961-1.58a2.157 2.157 0 0 1 1.35-.477c.517.126 2.04.112 2.647.13a.375.375 0 0 0 .357-.277l.658-2.432a2.154 2.154 0 0 1 .413-.803l2.598-1.814a.381.381 0 0 0 .164-.382.364.364 0 0 0-.018-.061l-.898-2.36a2.16 2.16 0 0 1-.105-1.154Z"/>
</symbol><symbol viewBox="0 0 39 33" id="newspaper" xmlns="http://www.w3.org/2000/svg">
    <path d="M36.77 24.143h-3.263V5.044a4.336 4.336 0 0 0-4.332-4.33H4.752l-.004.001L4.74.714a4.336 4.336 0 0 0-4.332 4.33v1.982c0 1.004.816 1.82 1.82 1.82h4.547v19.1c0 1.223.517 2.397 1.42 3.218a4.342 4.342 0 0 0 2.892 1.121c.007 0 .012.004.02.004h23.142a4.349 4.349 0 0 0 4.343-4.344v-1.98a1.825 1.825 0 0 0-1.822-1.822ZM2.716 6.54V5.044a2.03 2.03 0 0 1 4.059 0V6.54h-4.06Zm6.366 21.405V7.693c0-1.52.236-3.28-.503-4.673h20.594c1.116 0 2.025.908 2.025 2.024v19.099H14.952c-1.004 0-1.821.817-1.821 1.822v1.819c0 1.727-1.992 2.938-3.385 1.673a2.049 2.049 0 0 1-.664-1.512Zm27.202 0a2.039 2.039 0 0 1-2.035 2.036H14.931c.517-.97.61-2.457.508-3.53h20.844v1.494Z"/>
</symbol><symbol viewBox="0 0 24 24" id="notification" xmlns="http://www.w3.org/2000/svg">
    <g stroke-linecap="round" stroke-linejoin="round">
        <path d="M12 9v5M12 21.41H5.94c-3.47 0-4.92-2.48-3.24-5.51l3.12-5.62L8.76 5c1.78-3.21 4.7-3.21 6.48 0l2.94 5.29 3.12 5.62c1.68 3.03.22 5.51-3.24 5.51H12v-.01Z" stroke-width="2"/>
        <path d="M11.994 17h.01" stroke-width="2.5"/>
    </g>
</symbol><symbol viewBox="0 0 23 28" id="order" xmlns="http://www.w3.org/2000/svg">
    <path fill-rule="evenodd" clip-rule="evenodd" d="M19.567 7.03H3.433c-.759 0-1.373.605-1.373 1.352v16.236c0 .747.614 1.353 1.373 1.353h16.134c.759 0 1.373-.606 1.373-1.353V8.382c0-.747-.614-1.353-1.373-1.353ZM3.433 5C1.537 5 0 6.514 0 8.382v16.236C0 26.486 1.537 28 3.433 28h16.134C21.463 28 23 26.486 23 24.618V8.382C23 6.514 21.463 5 19.567 5H3.433Z"/>
    <path fill-rule="evenodd" clip-rule="evenodd" d="M11.553 1.992C9.89 1.992 7.983 3.17 6.886 6L5 5.289C6.305 1.92 8.825 0 11.553 0c2.734 0 5.22 1.93 6.447 5.308l-1.901.672c-1.024-2.82-2.891-3.988-4.546-3.988Z"/>
</symbol><symbol viewBox="0 0 27 21" id="out" xmlns="http://www.w3.org/2000/svg">
    <path fill-rule="evenodd" clip-rule="evenodd" d="M.98.98A3.344 3.344 0 0 1 3.343 0h11.25a3.343 3.343 0 0 1 3.344 3.344v2.344a1 1 0 1 1-2 0V3.344A1.344 1.344 0 0 0 14.594 2H3.344A1.344 1.344 0 0 0 2 3.344v14.062a1.344 1.344 0 0 0 1.344 1.344h11.25a1.344 1.344 0 0 0 1.344-1.344v-2.343a1 1 0 1 1 2 0v2.343a3.343 3.343 0 0 1-3.344 3.344H3.344A3.344 3.344 0 0 1 0 17.406V3.344C0 2.457.352 1.606.98.979ZM19.98 4.98a1 1 0 0 1 1.415 0l4.687 4.688a1 1 0 0 1 0 1.414l-4.687 4.688a1 1 0 0 1-1.415-1.415l3.98-3.98-3.98-3.98a1 1 0 0 1 0-1.415Z"/>
    <path fill-rule="evenodd" clip-rule="evenodd" d="M8.379 10.375a1 1 0 0 1 1-1h15.996a1 1 0 1 1 0 2H9.379a1 1 0 0 1-1-1Z"/>
</symbol><symbol viewBox="0 0 21 19" id="photo" xmlns="http://www.w3.org/2000/svg">
    <path d="M18.313 18.094H2.688A2.344 2.344 0 0 1 .344 15.75V6.375a2.344 2.344 0 0 1 2.344-2.344h3.296L6.32 2.68A2.344 2.344 0 0 1 8.594.906h3.812A2.344 2.344 0 0 1 14.68 2.68l.336 1.351h3.296a2.344 2.344 0 0 1 2.344 2.344v9.375a2.344 2.344 0 0 1-2.343 2.344ZM2.688 5.594a.781.781 0 0 0-.782.781v9.375a.781.781 0 0 0 .782.781h15.624a.781.781 0 0 0 .782-.781V6.375a.781.781 0 0 0-.782-.781h-3.906A.781.781 0 0 1 13.625 5l-.484-1.945a.781.781 0 0 0-.782-.586H8.594a.781.781 0 0 0-.781.586L7.375 5a.781.781 0 0 1-.781.594H2.687Z"/>
    <path d="M10.5 14.969a3.906 3.906 0 1 1 0-7.812 3.906 3.906 0 0 1 0 7.812Zm0-6.25a2.344 2.344 0 1 0 0 4.687 2.344 2.344 0 0 0 0-4.687ZM16.75 8.719h-.781a.781.781 0 1 1 0-1.563h.781a.781.781 0 1 1 0 1.563Z"/>
</symbol><symbol viewBox="0 0 15 26" id="question" xmlns="http://www.w3.org/2000/svg">
    <path d="M7.298 6.518a7.71 7.71 0 0 0-1.99.25c-.625.166-1.318.433-2.079.803L2 4.44c.761-.462 1.659-.813 2.693-1.053A12.521 12.521 0 0 1 7.737 3c1.248 0 2.273.157 3.073.47.82.315 1.463.712 1.931 1.192.469.48.79 1.007.966 1.579.195.572.293 1.117.293 1.634 0 .517-.088.998-.263 1.44a5.368 5.368 0 0 1-.615 1.192c-.254.37-.546.72-.878 1.053-.332.332-.654.646-.966.941-.234.222-.478.462-.732.72a6.81 6.81 0 0 0-.702.776 4.997 4.997 0 0 0-.498.887c-.136.295-.205.6-.205.914v.332c0 .148.01.277.03.388H5.307a5.133 5.133 0 0 1-.087-.61V15.3c0-.517.068-.979.204-1.385a5.37 5.37 0 0 1 .527-1.163c.234-.37.498-.711.79-1.025.293-.314.596-.619.908-.914.449-.425.858-.84 1.229-1.247.37-.425.556-.905.556-1.44 0-.444-.185-.822-.556-1.136-.351-.314-.878-.471-1.58-.471Zm2.722 13.933c0 .813-.283 1.441-.85 1.884A2.89 2.89 0 0 1 7.299 23a3.008 3.008 0 0 1-1.903-.665c-.546-.443-.82-1.07-.82-1.884 0-.812.274-1.44.82-1.883a3.007 3.007 0 0 1 1.903-.665 2.89 2.89 0 0 1 1.873.665c.566.443.849 1.071.849 1.883Z"/>
</symbol><symbol viewBox="0 0 25 25" id="questions" xmlns="http://www.w3.org/2000/svg">
    <path d="M17.33 6.22V.755a.755.755 0 0 0-1.51 0v.836L8.931 6.063H2.433A2.436 2.436 0 0 0 0 8.496v4.226a2.436 2.436 0 0 0 2.433 2.432h.064v7.276c0 .88.714 1.594 1.594 1.594h1.727c.88 0 1.594-.715 1.594-1.594v-7.276H8.93l6.89 4.473v.835a.755.755 0 0 0 1.51 0v-5.464c2.101-.362 3.71-2.187 3.71-4.39s-1.608-4.027-3.71-4.388ZM5.902 22.43a.084.084 0 0 1-.084.084H4.09a.084.084 0 0 1-.084-.084v-7.276h1.895v7.276Zm2.496-8.787H2.433a.924.924 0 0 1-.923-.922V8.495c0-.509.415-.923.923-.923h5.965v6.071Zm1.51.346V7.229l5.912-3.837v14.436L9.909 13.99Zm7.423-.536v-5.69a2.951 2.951 0 0 1 2.2 2.845 2.95 2.95 0 0 1-2.2 2.845Zm6.914-3.6h-1.29a.755.755 0 0 0 0 1.51h1.29a.755.755 0 0 0 0-1.51Zm-2.408-1.903a.754.754 0 0 0 .535-.222l.912-.913a.754.754 0 1 0-1.068-1.068l-.912.913a.754.754 0 0 0 .533 1.29Zm.534 5.539a.752.752 0 0 0-1.067 0 .753.753 0 0 0 0 1.068l.913.912a.75.75 0 0 0 1.068-.001.754.754 0 0 0 0-1.067l-.914-.912Z"/>
</symbol><symbol viewBox="0 0 65 84" id="remove" xmlns="http://www.w3.org/2000/svg">
    <path d="M58.438 11.342H44C43.08 5.502 38.16 1 32.122 1S21.07 5.503 20.244 11.342H6.014A5.023 5.023 0 0 0 1 16.357v5.12c0 2.559 1.84 4.606 4.304 4.91v49.958A6.64 6.64 0 0 0 11.959 83h40.64a6.64 6.64 0 0 0 6.654-6.655V26.482c2.455-.408 4.304-2.456 4.304-4.91v-5.12c-.104-2.853-2.36-5.11-5.12-5.11Zm-26.316-6.55c3.991 0 7.271 2.768 7.982 6.55H24.036c.815-3.687 4.095-6.55 8.086-6.55Zm23.244 71.667a2.86 2.86 0 0 1-2.862 2.863h-40.65a2.86 2.86 0 0 1-2.863-2.863V26.595h46.28V76.46h.095Zm4.295-54.983c0 .72-.512 1.233-1.233 1.233H6.005c-.72 0-1.232-.512-1.232-1.233v-5.119c0-.72.512-1.232 1.232-1.232h52.32c.72 0 1.231.512 1.231 1.232v5.12h.105Z"/>
</symbol><symbol viewBox="0 0 65 84" id="remove2" xmlns="http://www.w3.org/2000/svg">
    <path d="M58.438 11.342H44C43.08 5.502 38.16 1 32.122 1S21.07 5.503 20.244 11.342H6.014A5.023 5.023 0 0 0 1 16.357v5.12c0 2.559 1.84 4.606 4.304 4.91v49.958A6.64 6.64 0 0 0 11.959 83h40.64a6.64 6.64 0 0 0 6.654-6.655V26.482c2.455-.408 4.304-2.456 4.304-4.91v-5.12c-.104-2.853-2.36-5.11-5.12-5.11Zm-26.316-6.55c3.991 0 7.271 2.768 7.982 6.55H24.036c.815-3.687 4.095-6.55 8.086-6.55Zm23.244 71.667a2.86 2.86 0 0 1-2.862 2.863h-40.65a2.86 2.86 0 0 1-2.863-2.863V26.595h46.28V76.46h.095Zm4.295-54.983c0 .72-.512 1.233-1.233 1.233H6.005c-.72 0-1.232-.512-1.232-1.233v-5.119c0-.72.512-1.232 1.232-1.232h52.32c.72 0 1.231.512 1.231 1.232v5.12h.105Z"/>
</symbol><symbol viewBox="0 0 25 26" id="reviews" xmlns="http://www.w3.org/2000/svg">
    <path d="M21.445 3.77C18.72.978 14.922-.367 11.017.087 5.465.728.997 5.029.149 10.547c-.564 3.674.487 7.34 2.889 10.116l-.673 4.161a.97.97 0 0 0 .396.95.974.974 0 0 0 1.026.07l3.622-1.921a12.595 12.595 0 0 0 6.483 1.005c5.587-.6 10.206-5.07 10.983-10.63.545-3.899-.705-7.736-3.43-10.528Zm1.878 10.313c-.68 4.856-4.716 8.762-9.599 9.286a10.997 10.997 0 0 1-5.995-1.026.787.787 0 0 0-.71.013l-2.917 1.546.543-3.357a.785.785 0 0 0-.196-.655c-2.259-2.457-3.261-5.776-2.75-9.106.741-4.82 4.646-8.58 9.498-9.14.436-.05.869-.074 1.299-.074 2.95 0 5.748 1.165 7.828 3.296 2.383 2.441 3.476 5.8 2.998 9.217Z"/>
    <path d="M15.423 9.114h-.3v-.23a2.626 2.626 0 0 0-2.624-2.623 2.626 2.626 0 0 0-2.622 2.623v.23h-.302c-.909 0-1.65.74-1.65 1.65v4.592c0 1.196.974 2.169 2.17 2.169h4.808a2.171 2.171 0 0 0 2.168-2.169v-4.592a1.65 1.65 0 0 0-1.648-1.65Zm-3.978-.23a1.056 1.056 0 0 1 2.11 0v.23h-2.11v-.23Zm4.06 6.472c0 .331-.27.601-.6.601h-4.809a.602.602 0 0 1-.6-.6v-4.593c0-.045.036-.082.081-.082h5.847c.046 0 .082.037.082.082v4.592Z"/>
</symbol><symbol viewBox="0 0 24 24" xml:space="preserve" id="rub" xmlns="http://www.w3.org/2000/svg">
    <path fill-rule="evenodd" d="M8 11H6v2h2v2H6v2h2v5h2v-5h5.95v-2H10v-2h4.5a5.5 5.5 0 1 0 0-11H8zm2 0V4h4.5a3.5 3.5 0 1 1 0 7z" clip-rule="evenodd" data-original="#000000"/>
</symbol><symbol viewBox="0 0 42 42" id="sale" xmlns="http://www.w3.org/2000/svg">
    <path fill-rule="evenodd" clip-rule="evenodd" d="m20.825 3.2-1.526 1.548a5.31 5.31 0 0 1-5.192 1.39l-2.095-.577-.547 2.103a5.31 5.31 0 0 1-3.8 3.801l-2.104.547.578 2.095A5.31 5.31 0 0 1 4.748 19.3L3.2 20.825l1.548 1.526a5.31 5.31 0 0 1 1.39 5.192l-.577 2.095 2.103.547a5.31 5.31 0 0 1 3.801 3.8l.547 2.104 2.095-.578a5.31 5.31 0 0 1 5.192 1.391l1.526 1.548 1.526-1.548a5.31 5.31 0 0 1 5.192-1.39l2.095.577.547-2.103a5.31 5.31 0 0 1 3.8-3.801l2.104-.547-.578-2.095a5.31 5.31 0 0 1 1.391-5.192l1.548-1.526-1.548-1.526a5.31 5.31 0 0 1-1.39-5.192l.577-2.095-2.103-.547a5.31 5.31 0 0 1-3.801-3.8l-.547-2.104-2.095.578a5.31 5.31 0 0 1-5.192-1.391L20.825 3.2Zm1.68-2.497a2.36 2.36 0 0 0-3.36 0l-1.946 1.974a2.36 2.36 0 0 1-2.308.618L12.22 2.56a2.36 2.36 0 0 0-2.911 1.68L8.61 6.921a2.36 2.36 0 0 1-1.69 1.69l-2.682.698a2.36 2.36 0 0 0-1.68 2.91l.736 2.672a2.36 2.36 0 0 1-.618 2.308L.703 19.144a2.36 2.36 0 0 0 0 3.362l1.974 1.945c.61.6.846 1.483.618 2.308L2.56 29.43a2.36 2.36 0 0 0 1.68 2.91l2.682.698a2.36 2.36 0 0 1 1.69 1.69l.698 2.682a2.36 2.36 0 0 0 2.91 1.68l2.672-.736a2.36 2.36 0 0 1 2.308.618l1.945 1.974a2.36 2.36 0 0 0 3.362 0l1.945-1.974a2.36 2.36 0 0 1 2.308-.618l2.672.736a2.36 2.36 0 0 0 2.91-1.68l.698-2.682a2.36 2.36 0 0 1 1.69-1.69l2.682-.698a2.36 2.36 0 0 0 1.68-2.91l-.736-2.672a2.36 2.36 0 0 1 .618-2.308l1.974-1.945a2.36 2.36 0 0 0 0-3.361l-1.974-1.946a2.36 2.36 0 0 1-.618-2.308l.736-2.671a2.36 2.36 0 0 0-1.68-2.911l-2.682-.698a2.36 2.36 0 0 1-1.69-1.69l-.698-2.682a2.36 2.36 0 0 0-2.91-1.68l-2.672.736a2.36 2.36 0 0 1-2.308-.618L22.506.703Z"/>
    <path fill-rule="evenodd" clip-rule="evenodd" d="M29.519 12.447c.566.585.55 1.52-.035 2.085L13.906 29.59a1.475 1.475 0 0 1-2.05-2.121L27.433 12.41a1.475 1.475 0 0 1 2.086.036Z"/>
    <path d="M17.875 15.22a2.655 2.655 0 1 1-5.309 0 2.655 2.655 0 0 1 5.31 0ZM29.084 26.43a2.655 2.655 0 1 1-5.31 0 2.655 2.655 0 0 1 5.31 0Z"/>
</symbol><symbol viewBox="0 0 45 46" id="shopping-bag" xmlns="http://www.w3.org/2000/svg">
    <path d="M37.658 44.832h-30.1a3.487 3.487 0 0 1-3.463-3.078L1.388 19.148a3.487 3.487 0 0 1 3.463-3.894h35.514a3.486 3.486 0 0 1 3.463 3.894L41.12 41.754a3.487 3.487 0 0 1-3.463 3.078Z" stroke-width="2" stroke-miterlimit="10" stroke-linecap="round" stroke-linejoin="round"/>
    <path d="M13.116 22.004V11.009a9.492 9.492 0 0 1 18.984 0v10.995" stroke-width="2" stroke-miterlimit="10" stroke-linecap="round" stroke-linejoin="round"/>
</symbol><symbol viewBox="0 0 19 19" id="shopping-bag-fill" xmlns="http://www.w3.org/2000/svg">
    <path d="M15.207 17.086H4.06c-.655 0-1.206-.49-1.283-1.14L1.774 7.574A1.291 1.291 0 0 1 3.056 6.13H16.21c.773 0 1.373.675 1.282 1.443l-1.002 8.372a1.291 1.291 0 0 1-1.283 1.14Z" stroke-width="2.007" stroke-miterlimit="10" stroke-linecap="round" stroke-linejoin="round"/>
    <path d="M6.117 8.631V4.56a3.516 3.516 0 1 1 7.031 0v4.072" stroke-width="2.007" stroke-miterlimit="10" stroke-linecap="round" stroke-linejoin="round"/>
</symbol><symbol viewBox="0 0 26 27" id="shopping-bag2" xmlns="http://www.w3.org/2000/svg">
    <path fill-rule="evenodd" clip-rule="evenodd" d="M2.098 10.743 3.6 23.302a.937.937 0 0 0 .931.827h16.723a.937.937 0 0 0 .93-.827V23.3l1.504-12.557a.937.937 0 0 0-.93-1.046H3.029c-.562 0-.997.49-.931 1.046Zm-1.987.234a2.937 2.937 0 0 1 2.917-3.28h19.73a2.937 2.937 0 0 1 2.917 3.28v.002l-1.503 12.557a2.937 2.937 0 0 1-2.917 2.593H4.532a2.937 2.937 0 0 1-2.917-2.592L.111 10.977Z"/>
    <path fill-rule="evenodd" clip-rule="evenodd" d="M12.893 2.065A4.273 4.273 0 0 0 8.62 6.34v6.107a1 1 0 1 1-2 0V6.34a6.273 6.273 0 0 1 12.547 0v6.107a1 1 0 1 1-2 0V6.34a4.273 4.273 0 0 0-4.274-4.274Z"/>
</symbol><symbol viewBox="0 0 28 24" id="shopping-bag3" xmlns="http://www.w3.org/2000/svg">
    <path d="M26.188 7.133h-2.932L22.13 2.699A2.718 2.718 0 0 0 19.495.65H8.505a2.717 2.717 0 0 0-2.635 2.05L4.744 7.133H1.813c-.983 0-1.782.8-1.782 1.78v2.462c0 .982.799 1.781 1.782 1.781h.526l2.5 8.263a2.704 2.704 0 0 0 2.602 1.932H20.56a2.703 2.703 0 0 0 2.602-1.932l2.5-8.263h.526c.983 0 1.782-.8 1.782-1.781V8.914c0-.983-.799-1.781-1.782-1.781ZM7.506 3.113a1.03 1.03 0 0 1 1-.777h10.989c.472 0 .883.32 1 .777l1.02 4.019H6.484l1.02-4.019Zm14.04 17.818c-.133.438-.53.732-.987.732H7.44c-.457 0-.855-.294-.987-.732l-2.351-7.775h19.795l-2.352 7.775Zm4.735-9.556a.094.094 0 0 1-.093.094H1.813a.094.094 0 0 1-.094-.094V8.914c0-.052.042-.094.093-.094h24.375c.052 0 .094.042.094.094v2.46Z"/>
    <path d="M9.958 20.217a.844.844 0 0 0 .843-.843v-3.927a.844.844 0 0 0-1.687 0v3.927c0 .465.377.843.844.843Zm4.042 0a.844.844 0 0 0 .844-.843v-3.927a.844.844 0 0 0-1.688 0v3.927c0 .465.378.843.844.843Zm4.044 0a.844.844 0 0 0 .843-.843v-3.927a.844.844 0 0 0-1.687 0v3.927c0 .465.377.843.844.843Z"/>
</symbol><symbol viewBox="0 0 30 26" id="size" xmlns="http://www.w3.org/2000/svg">
    <path d="M10.166 8.566c5.054 0 9.151-1.69 9.151-3.775s-4.097-3.776-9.15-3.776c-5.055 0-9.152 1.69-9.152 3.776 0 2.085 4.097 3.775 9.151 3.775Z"/>
    <path d="M10.166 24.245c5.054 0 9.151-1.69 9.151-3.776V4.791c0 2.085-4.097 3.775-9.15 3.775v15.679Z"/>
    <path d="M10.166 8.582v-.016c-5.054 0-9.15-1.69-9.15-3.775v15.678c0 2.085 4.096 3.775 9.15 3.775h18.819V8.582H10.166Z"/>
    <path d="M9.078 5.307h2.176a.58.58 0 0 0 0-1.16H9.078a.58.58 0 0 0 0 1.16Z"/>
    <path fill-rule="evenodd" clip-rule="evenodd" d="M11.254 5.742H9.078a1.015 1.015 0 0 1 0-2.03h2.176a1.015 1.015 0 0 1 0 2.03Zm0-.435H9.078a.58.58 0 0 1 0-1.16h2.176a.58.58 0 0 1 0 1.16Z"/>
    <path d="M28.985 8.001h-9.088v-3.21c0-1.26-1.079-2.398-3.039-3.206-1.797-.742-4.173-1.15-6.692-1.15-2.518 0-4.895.408-6.692 1.15-1.96.808-3.04 1.947-3.04 3.206v15.678c0 1.259 1.08 2.398 3.04 3.206 1.797.742 4.174 1.15 6.692 1.15h18.819c.32 0 .58-.26.58-.58V8.582a.58.58 0 0 0-.58-.58Zm-12.138 0 .011-.004c.764-.315 1.394-.681 1.879-1.084V8h-1.89Zm-6.68-6.406c5.05 0 8.57 1.684 8.57 3.196 0 1.511-3.52 3.195-8.57 3.195h-.001c-5.051 0-8.57-1.684-8.57-3.195 0-1.512 3.52-3.196 8.57-3.196Zm18.238 7.567v14.502H24.6v-7.99a.58.58 0 1 0-1.16 0v7.99h-8.093V11.762a.58.58 0 1 0-1.16 0v11.902h-4.022a19.84 19.84 0 0 1-3.927-.373V11.762a.58.58 0 0 0-1.16 0v11.246c-2.171-.63-3.484-1.616-3.484-2.539V6.913c.485.403 1.115.769 1.879 1.084 1.765.728 4.09 1.135 6.56 1.149l18.37.016Z"/>
    <path fill-rule="evenodd" clip-rule="evenodd" d="M3.308 1.183C5.171.414 7.607 0 10.166 0c2.56 0 4.995.414 6.858 1.183 2 .825 3.308 2.07 3.308 3.608v2.775h8.653c.56 0 1.015.455 1.015 1.016v15.663c0 .56-.454 1.015-1.015 1.015H10.166c-2.56 0-4.995-.414-6.858-1.183-2-.825-3.308-2.07-3.308-3.608V4.791c0-1.538 1.308-2.783 3.308-3.608Zm26.257 7.399v15.663c0 .32-.26.58-.58.58H10.166c-2.518 0-4.895-.408-6.692-1.15-1.96-.808-3.04-1.947-3.04-3.206V4.791c0-1.26 1.08-2.398 3.04-3.206C5.271.843 7.648.435 10.166.435c2.519 0 4.895.408 6.692 1.15 1.96.808 3.04 1.947 3.04 3.206V8h9.087c.32 0 .58.26.58.58ZM3.474 7.997a8.08 8.08 0 0 1-1.444-.759 5.478 5.478 0 0 1-.435-.325v13.556c0 .86 1.139 1.774 3.049 2.404.14.047.286.091.435.135V11.762a.58.58 0 0 1 1.16 0v11.53c1.152.233 2.476.372 3.927.372h4.021V11.762a.58.58 0 0 1 1.161 0v11.902h8.093v-7.99a.58.58 0 1 1 1.16 0v7.99h3.804V9.162l-18.372-.016c-2.469-.014-4.794-.42-6.559-1.15Zm24.496 1.6L10.03 9.58c-2.509-.015-4.892-.427-6.722-1.182a8.916 8.916 0 0 1-1.278-.644V20.47c0 .252.188.616.75 1.03.446.327 1.074.644 1.864.915V11.762a1.015 1.015 0 1 1 2.03 0v11.17c1.038.187 2.213.298 3.492.298h3.587V11.762a1.015 1.015 0 1 1 2.03 0V23.23h7.223v-7.557a1.015 1.015 0 1 1 2.03 0v7.557h2.934V9.596ZM16.847 8h1.89V6.913c-.134.11-.28.22-.435.325a6.869 6.869 0 0 1-.54.328 9.02 9.02 0 0 1-.91.433l-.005.002Zm-.664-4.972c-1.45-.585-3.535-.999-6.017-.999-2.481 0-4.567.414-6.017 1-.726.293-1.274.621-1.633.946-.365.33-.486.611-.486.815 0 .203.121.484.486.814.359.325.907.654 1.633.947 1.45.585 3.535 1 6.017 1s4.567-.415 6.017-1c.726-.293 1.274-.622 1.633-.947.365-.33.486-.61.486-.814 0-.204-.121-.485-.486-.815-.359-.325-.907-.653-1.633-.947Zm2.554 1.762c0-1.512-3.52-3.196-8.57-3.196-5.052 0-8.572 1.684-8.572 3.196 0 1.511 3.52 3.195 8.57 3.195h.002c5.05 0 8.57-1.684 8.57-3.195Z"/>
    <path d="M24.021 12.746c.32 0 .58-.26.58-.58v-.404a.58.58 0 0 0-1.16 0v.404c0 .32.26.58.58.58Z"/>
    <path fill-rule="evenodd" clip-rule="evenodd" d="M25.036 12.166a1.015 1.015 0 1 1-2.03 0v-.404a1.015 1.015 0 0 1 2.03 0v.404Zm-.435 0a.58.58 0 1 1-1.16 0v-.404a.58.58 0 1 1 1.16 0v.404Z"/>
</symbol><symbol viewBox="0 0 19 32" id="tel" xmlns="http://www.w3.org/2000/svg">
    <path d="M7.944 2.133a.531.531 0 0 0-.53.534.535.535 0 0 0 1.069 0 .533.533 0 0 0-.534-.534h-.005ZM8.467 28.8a1.068 1.068 0 0 0 2.133 0 1.068 1.068 0 0 0-2.133 0Z" stroke-width=".5"/>
    <path d="M1.533 24.533A.534.534 0 0 0 2.067 24V2.667c0-.778.822-1.6 1.6-1.6H15.4c.778 0 1.6.822 1.6 1.6a.533.533 0 0 0 1.067 0C18.067 1.296 16.77 0 15.4 0H3.667C2.296 0 1 1.296 1 2.667V24c0 .294.239.533.533.533Z" stroke-width=".5"/>
    <path d="M10.067 2.133a.534.534 0 0 0 0 1.067H12.2a.534.534 0 0 0 0-1.067h-2.133ZM14.333 9.6a.532.532 0 0 0 .377-.91l-1.066-1.067a.533.533 0 1 0-.754.754l1.066 1.067c.104.104.24.156.377.156ZM9.69 7.623a.533.533 0 0 0 0 .754l4.266 4.267a.532.532 0 0 0 .755 0 .533.533 0 0 0 0-.754l-4.267-4.267a.533.533 0 0 0-.754 0Z" stroke-width=".5"/>
    <path d="M17.533 4.267H3.667a.534.534 0 0 0 0 1.066H17v24c0 .778-.822 1.6-1.6 1.6H3.667c-.778 0-1.6-.822-1.6-1.6v-2.666H15.4a.534.534 0 0 0 0-1.067H1.533a.534.534 0 0 0-.533.533v3.2C1 30.704 2.296 32 3.667 32H15.4c1.37 0 2.667-1.296 2.667-2.667V4.8a.534.534 0 0 0-.534-.533Z" stroke-width=".5"/>
</symbol><symbol viewBox="0 0 23 21" id="telegram" xmlns="http://www.w3.org/2000/svg">
    <path d="M20.9 1.471c.111 0 .223.014.332.041l.019.005c.277.073.519.234.69.478.166.234.264.541.264.914 0 .185-.025.392-.08.616L18.98 18.35c-.055.258-.136.48-.237.661a1.28 1.28 0 0 1-.584.565 1.262 1.262 0 0 1-.798.071l-.015-.003a2.37 2.37 0 0 1-.632-.25l-7.529-5.557a.593.593 0 0 1-.182-.211L9 13.617a.595.595 0 0 1-.063-.262.607.607 0 0 1 .233-.47l7.62-6.882-9.999 6.308a.572.572 0 0 1-.17.08c-.607.156-4.4-1.252-5-1.472-.332-.1-.585-.247-.745-.418a.804.804 0 0 1-.232-.557.9.9 0 0 1 .217-.565c.187-.232.515-.458.987-.646L20.29 1.62a1.635 1.635 0 0 1 .554-.145l.057-.004Zm.154.752-.153-.017-.152.024C14.56 4.436 8.27 7.04 2.115 9.415c-.346.137-.572.285-.683.423-.036.044-.054.08-.054.106 0 .013.012.033.034.057.075.08.216.155.418.217l4.602 1.454 10.822-6.827c.318-.192.64-.25.854-.212.105.02.196.06.27.12l.019.014c.111.097.17.226.165.38-.006.155-.088.327-.269.486l-8.54 7.711 7.338 5.42c.147.08.284.136.406.162l.012.002a.561.561 0 0 0 .346-.018.571.571 0 0 0 .248-.255c.065-.118.12-.27.16-.457.868-4.518 1.943-10.499 3.148-14.838.041-.164.06-.316.06-.451 0-.212-.048-.378-.13-.492a.492.492 0 0 0-.275-.191l-.012-.003Z"/>
    <path fill-rule="evenodd" clip-rule="evenodd" d="M20.882.971h.018c.153 0 .305.02.452.056l.006.001.02.006c.386.102.73.328.972.673.232.329.355.74.355 1.202 0 .228-.031.473-.093.727L19.47 18.453a2.867 2.867 0 0 1-.29.8 1.78 1.78 0 0 1-.813.777c-.349.159-.73.185-1.109.105l-.01-.002-.01-.002a2.868 2.868 0 0 1-.765-.3l-.029-.016L8.89 14.24c-.139-.1-.254-.235-.333-.389l-.004-.008-.005-.012a1.094 1.094 0 0 1-.111-.476 1.106 1.106 0 0 1 .41-.853l3.296-2.976-5.078 3.204a1.075 1.075 0 0 1-.31.142l-.009.003c-.183.047-.4.025-.562 0a6.702 6.702 0 0 1-.638-.133c-.467-.118-1.03-.29-1.583-.471a74.912 74.912 0 0 1-2.432-.853l-.069-.025c-.381-.117-.717-.299-.952-.552l.366-.34-.364.341a1.303 1.303 0 0 1-.368-.898c0-.325.123-.624.327-.878.261-.325.676-.592 1.192-.797l.005-.003L20.095 1.16a2.137 2.137 0 0 1 .71-.182h.002l.075-.006Zm-4.195 4.823.277.366.999-.902a.329.329 0 0 0 .096-.12.133.133 0 0 0-.039-.012c-.068-.012-.267.002-.504.145l-.83.523Zm4.187-3.078c-4.122 1.47-8.283 3.115-12.427 4.753-2.038.805-4.071 1.61-6.094 2.39l4.009 1.266 10.633-6.708c.396-.24.84-.34 1.2-.276h.001c.18.033.35.105.493.22l.005.003.024.02.006.005a.963.963 0 0 1 .337.775m-.435.842-8.085 7.3 6.817 5.034c.103.054.182.083.237.096l.009.001.007.002a.363.363 0 0 0 .035.005.4.4 0 0 0 .02-.032c.035-.063.075-.164.107-.313l.374-1.963c.794-4.18 1.738-9.15 2.78-12.903.032-.126.044-.235.044-.324a.438.438 0 0 0-.033-.196l-.025-.003-.039.006"/>
</symbol><symbol viewBox="0 0 24 30" id="tights" xmlns="http://www.w3.org/2000/svg">
    <path d="M.9 15.537a.817.817 0 0 1-.161-1.627c4.991-.502 5.524-.924 7.113-2.178.45-.356.977-.772 1.663-1.255-.827-.912-1.434-1.845-1.586-2.762-.068.03-.14.056-.215.079-.97.284-2.075.454-3.183.623-1.25.191-2.506.383-3.433.72A.818.818 0 0 1 .54 7.6c1.094-.397 2.423-.6 3.747-.803 1.062-.163 2.122-.325 2.965-.573.091-.026.256-.226.414-.417.436-.53.854-1.036 1.662-.917.184-.026.396-.006.646.215l.003.003c.353.315.49.764-.126 1.456-.884.995.457 2.55 2.132 4.038.727.646 1.512 1.27 2.238 1.847.529.42 1.027.817 1.475 1.2.029.025.057.053.083.083.112.128.23.245.336.35.79.78 1.161 1.147.386 3.165-.02.08-.037.16-.05.238-.056.308-.057.524-.008.647.002.006.009.011.018.015l.03.009 1.105.146a.835.835 0 0 1 .094.01l.308.05c.437.068.67.104.962.353.28.238.39.504.622 1.067l.072.173c.085.207.28.367.502.486.408.218.86.295 1.084.3a.85.85 0 0 1 .135 0l.047.006-.314-.204a.816.816 0 0 1-.175-.127c-.303-.289-.523-.737-.815-1.332-.362-.738-.858-1.749-1.705-2.788-.463-.442-.992-1.2-1.49-2.032a28.457 28.457 0 0 1-1.597-3.095L10.801 1.99a.71.71 0 0 0-.49-.341c-.287-.048-.672.019-1.167.221a.853.853 0 0 1-.08.036L1.11 4.959a.819.819 0 0 1-.582-1.53L8.518.362c.796-.327 1.48-.424 2.061-.327.73.121 1.27.52 1.642 1.144l.031.057 4.571 9.27c.307.723.889 1.891 1.504 2.918.439.733.885 1.38 1.233 1.702a.81.81 0 0 1 .109.123c.968 1.184 1.517 2.302 1.916 3.117.195.397.347.707.447.83 1.023.669 1.775 1.275 1.917 1.824.262 1.019-.455 1.542-2.706 1.353a4.523 4.523 0 0 1-1.854-.492c-.52-.279-.993-.696-1.246-1.305l-.071-.174c-.128-.31-.148-.422-.168-.44-.06-.051-.012.04-.149.02-.099-.015-.214-.033-.346-.056l-1.161-.156-.177-.033-.045-.013a1.605 1.605 0 0 1-.807-.498c.089.986.137 1.975.118 2.942.286.653.497 1.52.71 2.396.297 1.215.599 2.452.915 2.672.303.15.577.343.77.56l.055.06c.179.224.284.477.288.757v.003a1.11 1.11 0 0 1-.38.856c-.196.183-.486.34-.889.452a.826.826 0 0 1-.15.032c-.94.114-1.562.029-2.09-.22-.504-.24-.832-.581-1.244-1.026a.814.814 0 0 1-.246-.432 2.005 2.005 0 0 0-.317-.767c-.164-.23-.412-.45-.779-.664-.006-.003-.07-.012-.151-.028-.41-.085-.875-.181-1.242-.658a1.94 1.94 0 0 1-.212-.277 1.665 1.665 0 0 1-.196-1.389c.113-.404.374-.819.798-1.23.18-.173.39-.35.634-.526-.283-1.358-.771-2.427-1.241-3.458-.823-1.804-1.6-3.505-1.372-6.375l-.134.106c-1.871 1.478-2.5 1.973-7.965 2.524Zm9.974-3.73-.224.985c-.257 2.604.452 4.16 1.205 5.811.573 1.256 1.17 2.563 1.464 4.386a.818.818 0 0 1-.372.82 5.127 5.127 0 0 0-.83.629c-.208.202-.326.369-.363.5-.009.032-.007.058.005.076.01.016.024.033.041.052.03.03.057.062.08.096l.276.057c.227.046.438.09.65.214.574.335.985.71 1.285 1.131.259.362.425.743.533 1.15.237.254.435.446.64.543.136.064.303.102.53.111-.672-.702-1.006-2.071-1.335-3.419-.212-.87-.422-1.731-.677-2.245a.812.812 0 0 1-.082-.42c.069-2.461-.355-5.157-.73-7.538-.078-.5-.155-.986-.213-1.371a46.686 46.686 0 0 1-1.861-1.55l-.022-.019Zm3.777 3.113c.095.606.19 1.23.28 1.863a.823.823 0 0 1 .042-.113c.395-1.03.268-1.156-.003-1.423a9.08 9.08 0 0 1-.319-.327Zm7.716 6.505c-.007-.029-.108-.11-.28-.231.215.238.334.44.28.23Z"/>
</symbol><symbol viewBox="0 0 29 19" id="track" xmlns="http://www.w3.org/2000/svg">
    <path fill-rule="evenodd" clip-rule="evenodd" d="M2.042.75a.75.75 0 0 1 .75-.75h16.125a.75.75 0 0 1 .75.75v14.333a.75.75 0 0 1-1.5 0V1.5H3.54v2.833a.75.75 0 1 1-1.5 0V.75ZM2.792 10.75a.75.75 0 0 1 .75.75v2.833h2.833a.75.75 0 0 1 0 1.5H2.792a.75.75 0 0 1-.75-.75V11.5a.75.75 0 0 1 .75-.75Z"/>
    <path fill-rule="evenodd" clip-rule="evenodd" d="M18.166 2.542a.75.75 0 0 1 .75-.75h5.375a.75.75 0 0 1 .75.75v4.911l3.17 1.584a.75.75 0 0 1 .414.671v5.375a.75.75 0 0 1-.75.75H24.29a.75.75 0 0 1 0-1.5h2.834v-4.161l-3.169-1.585a.75.75 0 0 1-.415-.67V3.292h-4.625a.75.75 0 0 1-.75-.75ZM9.063 13.146a1.937 1.937 0 1 0 0 3.875 1.937 1.937 0 0 0 0-3.875Zm-3.438 1.937a3.437 3.437 0 1 1 6.875 0 3.437 3.437 0 0 1-6.875 0Z"/>
    <path fill-rule="evenodd" clip-rule="evenodd" d="M21.604 13.146a1.938 1.938 0 1 0 0 3.875 1.938 1.938 0 0 0 0-3.875Zm-3.438 1.937a3.437 3.437 0 1 1 6.875 0 3.437 3.437 0 0 1-6.875 0Z"/>
    <path fill-rule="evenodd" clip-rule="evenodd" d="M11 15.083a.75.75 0 0 1 .75-.75h7.167a.75.75 0 0 1 0 1.5H11.75a.75.75 0 0 1-.75-.75ZM.25 4.333a.75.75 0 0 1 .75-.75h10.75a.75.75 0 0 1 0 1.5H1a.75.75 0 0 1-.75-.75ZM.25 7.917a.75.75 0 0 1 .75-.75h7.167a.75.75 0 1 1 0 1.5H1a.75.75 0 0 1-.75-.75ZM.25 11.5a.75.75 0 0 1 .75-.75h3.583a.75.75 0 0 1 0 1.5H1a.75.75 0 0 1-.75-.75Z"/>
</symbol><symbol viewBox="0 0 24 24" xml:space="preserve" id="truck" xmlns="http://www.w3.org/2000/svg">
    <g data-name="Layer 2">
        <path d="M9 20.75A2.75 2.75 0 1 1 11.75 18 2.75 2.75 0 0 1 9 20.75Zm0-4A1.25 1.25 0 1 0 10.25 18 1.25 1.25 0 0 0 9 16.75Zm9.5 4A2.75 2.75 0 1 1 21.25 18a2.75 2.75 0 0 1-2.75 2.75Zm0-4A1.25 1.25 0 1 0 19.75 18a1.25 1.25 0 0 0-1.25-1.25Z" data-original="#000000"/>
        <path d="M15 18.75h-4a.75.75 0 0 1 0-1.5h3.25V5a.25.25 0 0 0-.25-.25H5a.25.25 0 0 0-.25.25v2a.75.75 0 0 1-1.5 0V5A1.76 1.76 0 0 1 5 3.25h9A1.76 1.76 0 0 1 15.75 5v13a.76.76 0 0 1-.75.75Zm-8 0H5A1.76 1.76 0 0 1 3.25 17v-1a.75.75 0 0 1 1.5 0v1a.25.25 0 0 0 .25.25h2a.75.75 0 0 1 0 1.5Z" data-original="#000000"/>
        <path d="M21 18.75h-.5a.75.75 0 0 1 0-1.5h.5a.25.25 0 0 0 .25-.25v-3a.28.28 0 0 0-.09-.2 2.8 2.8 0 0 1-1.1-1.63l-.5-2.53a1.09 1.09 0 0 0-1.08-.89h-2.73v8.5h.75a.75.75 0 0 1 0 1.5H15a.76.76 0 0 1-.75-.75V8a.76.76 0 0 1 .75-.75h3.48A2.58 2.58 0 0 1 21 9.34l.51 2.53a1.29 1.29 0 0 0 .56.76 1.78 1.78 0 0 1 .68 1.37v3A1.76 1.76 0 0 1 21 18.75Zm-17-2H2a.75.75 0 0 1 0-1.5h2a.75.75 0 0 1 0 1.5Zm4-3H3a.75.75 0 0 1 0-1.5h5a.75.75 0 0 1 0 1.5Zm-2-3H2a.75.75 0 0 1 0-1.5h4a.75.75 0 0 1 0 1.5Zm1-3H3a.75.75 0 0 1 0-1.5h4a.75.75 0 0 1 0 1.5Z" data-original="#000000"/>
    </g>
</symbol><symbol viewBox="0 0 26 24" id="user" xmlns="http://www.w3.org/2000/svg">
    <g fill-rule="evenodd" clip-rule="evenodd">
        <path d="M12.271 12a5 5 0 1 0 0-10 5 5 0 0 0 0 10Zm0 2a7 7 0 1 0 0-14 7 7 0 0 0 0 14Z"/>
        <path d="M23.445 19.974c-.55-1.132-1.368-2.183-2.425-3.083a11.86 11.86 0 0 0-3.748-2.13c-1.42-.5-2.95-.761-4.5-.761-1.552 0-3.082.26-4.502.761a11.86 11.86 0 0 0-3.748 2.13c-1.056.9-1.874 1.95-2.425 3.083-.103.213-.105.357-.09.453a.852.852 0 0 0 .214.415c.299.346.888.658 1.608.658h17.884c.72 0 1.31-.313 1.608-.659a.852.852 0 0 0 .214-.414c.015-.096.014-.24-.09-.453Zm1.799-.875c1.1 2.264-1.014 4.401-3.531 4.401H3.829c-2.517 0-4.631-2.137-3.53-4.4.678-1.396 1.673-2.664 2.926-3.732a13.857 13.857 0 0 1 4.38-2.493A15.562 15.562 0 0 1 12.77 12c1.773 0 3.528.297 5.166.875a13.857 13.857 0 0 1 4.38 2.493c1.254 1.068 2.248 2.336 2.927 3.731Z"/>
    </g>
</symbol><symbol viewBox="0 0 24 24" xml:space="preserve" id="vk" xmlns="http://www.w3.org/2000/svg">
    <path d="M12.145 19.5c3.472 0 2.234-2.198 2.502-2.83-.004-.472-.008-.926.008-1.202.22.062.739.325 1.811 1.367 1.655 1.67 2.078 2.665 3.415 2.665h2.461c.78 0 1.186-.323 1.389-.594.196-.262.388-.722.178-1.438-.549-1.724-3.751-4.701-3.95-5.015a2.84 2.84 0 0 1 .103-.175h-.002c.632-.835 3.044-4.449 3.399-5.895a.019.019 0 0 0 .002-.008c.192-.66.016-1.088-.166-1.33-.274-.362-.71-.545-1.299-.545h-2.461c-.824 0-1.449.415-1.765 1.172-.529 1.345-2.015 4.111-3.129 5.09a64.114 64.114 0 0 1 .007-3.233c.036-1.535.152-3.029-1.441-3.029H9.339c-.998 0-1.953 1.09-.919 2.384.904 1.134.325 1.766.52 4.912-.76-.815-2.112-3.016-3.068-5.829-.268-.761-.674-1.466-1.817-1.466H1.594C.596 4.501 0 5.045 0 5.956 0 8.002 4.529 19.5 12.145 19.5zM4.055 6.001c.217 0 .239 0 .4.457.979 2.883 3.175 7.149 4.779 7.149 1.205 0 1.205-1.235 1.205-1.7l-.001-3.702C10.372 6.98 9.926 6.37 9.633 6l3.508.004c.002.017-.02 4.095.01 5.083 0 1.403 1.114 2.207 2.853.447 1.835-2.071 3.104-5.167 3.155-5.293.075-.18.14-.241.376-.241h2.471l-.002.009c-.225 1.05-2.446 4.396-3.189 5.435l-.034.05c-.327.534-.593 1.124.045 1.954h.001c.058.07.209.234.429.462.684.706 3.03 3.12 3.238 4.08-.138.022-.288.006-2.613.011-.495 0-.882-.74-2.359-2.23-1.328-1.292-2.19-1.82-2.975-1.82-1.524 0-1.413 1.237-1.399 2.733.005 1.622-.005 1.109.006 1.211-.089.035-.344.105-1.009.105C5.8 18 1.668 7.929 1.509 6.004c.055-.005.812-.002 2.546-.003z" data-original="#000000"/>
</symbol><symbol viewBox="0 0 28 28" id="voice" xmlns="http://www.w3.org/2000/svg">
    <path d="M19.398 7.527V1.42a.844.844 0 0 0-1.687 0v.933l-7.7 4.998H2.75c-1.5 0-2.719 1.22-2.719 2.719v4.722a2.722 2.722 0 0 0 2.719 2.719h.071v8.13c0 .983.799 1.782 1.781 1.782h1.93c.983 0 1.782-.8 1.782-1.781V17.51h1.697l7.699 4.998v.933a.844.844 0 0 0 1.687 0v-6.106c2.349-.404 4.147-2.443 4.147-4.905s-1.797-4.5-4.146-4.904ZM6.627 25.643a.094.094 0 0 1-.094.094h-1.93a.094.094 0 0 1-.094-.094v-8.131h2.118v8.13Zm2.79-9.82H2.75a1.032 1.032 0 0 1-1.031-1.03V10.07c0-.568.463-1.031 1.031-1.031h6.667v6.784Zm1.687.387V8.654l6.606-4.288V20.5l-6.606-4.29Zm8.294-.6V9.253a3.298 3.298 0 0 1 2.458 3.18 3.297 3.297 0 0 1-2.458 3.179Zm7.727-4.022h-1.442a.844.844 0 0 0 0 1.687h1.442a.844.844 0 0 0 0-1.687Zm-2.69-2.127a.843.843 0 0 0 .597-.248l1.02-1.02A.843.843 0 1 0 24.858 7l-1.02 1.02a.843.843 0 0 0 .596 1.44Zm.596 6.19a.84.84 0 0 0-1.193 0 .842.842 0 0 0 .001 1.193l1.02 1.02a.839.839 0 0 0 1.193-.002.842.842 0 0 0 0-1.192l-1.021-1.02Z"/>
</symbol><symbol viewBox="0 0 20 28" id="voucher" xmlns="http://www.w3.org/2000/svg">
    <path d="M.953 3.621v20.332c0 1.988 1.64 3.605 3.656 3.605h10.782c2.015 0 3.656-1.617 3.656-3.605V3.621c0-1.987-1.64-3.604-3.656-3.604H4.609C2.594.017.953 1.634.953 3.62Zm14.438-1.94c1.085 0 1.968.869 1.968 1.94v14.264h-.093a.838.838 0 0 0-.844.832c0 .46.378.832.844.832h.093v4.404c0 1.07-.882 1.941-1.968 1.941H4.609c-1.085 0-1.968-.87-1.968-1.94v-4.406h.093a.838.838 0 0 0 .844-.832.838.838 0 0 0-.844-.832h-.093V3.621c0-1.07.883-1.94 1.968-1.94h10.782Z"/>
    <path d="M10.975 18.713c0 .462.374.832.843.832h1.81c.469 0 .843-.37.843-.832a.84.84 0 0 0-.843-.832h-1.81a.84.84 0 0 0-.843.832Zm-5.456 0a.84.84 0 0 0 .843.832h1.82c.468 0 .843-.37.843-.832a.84.84 0 0 0-.844-.832H6.362a.846.846 0 0 0-.843.832ZM8.761 11.946c0-.59-.485-1.07-1.085-1.07-.599 0-1.084.48-1.084 1.07 0 .59.485 1.07 1.084 1.07.6 0 1.085-.48 1.085-1.07ZM11.557 8.122c.423.418 1.11.418 1.533 0a1.058 1.058 0 0 0 0-1.512 1.095 1.095 0 0 0-1.533 0 1.058 1.058 0 0 0 0 1.512ZM6.88 6.579a.823.823 0 0 0 0 1.177l5.048 4.976a.853.853 0 0 0 1.193 0 .823.823 0 0 0 0-1.178L8.073 6.578a.853.853 0 0 0-1.193.001Z"/>
</symbol><symbol viewBox="0 0 32 32" id="whatsap" xmlns="http://www.w3.org/2000/svg">
    <g clip-path="url(#caa)">
        <path d="M32 15.588c0 8.609-7.032 15.588-15.71 15.588-2.754 0-5.341-.704-7.593-1.94L0 32l2.836-8.363a15.424 15.424 0 0 1-2.255-8.05C.581 6.98 7.615 0 16.291 0 24.968 0 32 6.979 32 15.588ZM16.29 2.482c-7.282 0-13.207 5.88-13.207 13.106 0 2.868.935 5.523 2.516 7.684l-1.65 4.867 5.076-1.613a13.198 13.198 0 0 0 7.266 2.167c7.282 0 13.208-5.878 13.208-13.104 0-7.227-5.925-13.107-13.208-13.107Zm7.934 16.696c-.097-.159-.354-.255-.739-.446-.385-.19-2.279-1.116-2.63-1.243-.354-.127-.611-.19-.867.191-.257.383-.995 1.243-1.22 1.498-.225.256-.45.288-.835.096-.384-.19-1.625-.595-3.096-1.896-1.144-1.012-1.917-2.263-2.142-2.646-.224-.382-.023-.588.169-.779.173-.171.385-.446.578-.669.193-.223.257-.382.384-.637.13-.255.065-.478-.032-.67-.096-.19-.866-2.07-1.187-2.836-.32-.764-.641-.637-.866-.637-.225 0-.482-.032-.738-.032-.257 0-.675.095-1.028.478-.352.382-1.347 1.307-1.347 3.187s1.38 3.696 1.572 3.95c.193.255 2.664 4.239 6.578 5.769 3.915 1.53 3.915 1.019 4.622.955.705-.064 2.277-.924 2.6-1.816.32-.893.32-1.658.224-1.817Z"/>
    </g>
    <defs>
        <clipPath id="caa">
            <path d="M0 0h32v32H0z"/>
        </clipPath>
    </defs>
</symbol><symbol xml:space="preserve" viewBox="0 0 512 512" id="whatsapp" xmlns="http://www.w3.org/2000/svg">
    <path d="M435.922 74.352C387.824 26.434 323.84.027 255.742 0 187.797 0 123.711 26.383 75.297 74.29 26.797 122.276.063 186.05 0 253.628v.125c.008 40.902 10.754 82.164 31.152 119.828L.7 512l140.012-31.848c35.46 17.871 75.027 27.293 114.934 27.309h.101c67.934 0 132.02-26.387 180.441-74.297 48.543-48.027 75.29-111.719 75.32-179.34.02-67.144-26.82-130.883-75.585-179.472zM255.742 467.5h-.09c-35.832-.016-71.336-9.012-102.668-26.023l-6.62-3.594-93.102 21.176 20.222-91.907-3.898-6.722C50.203 327.004 39.96 290.105 39.96 253.71c.074-117.8 96.863-213.75 215.773-213.75 57.446.024 111.422 22.294 151.985 62.7 41.176 41.031 63.844 94.711 63.824 151.153-.047 117.828-96.856 213.687-215.8 213.687zm0 0" data-original="#000000"/>
    <path d="M186.152 141.863h-11.21c-3.903 0-10.239 1.461-15.598 7.293-5.364 5.836-20.477 19.942-20.477 48.63s20.965 56.405 23.887 60.3c2.926 3.89 40.469 64.64 99.93 88.012 49.418 19.422 59.476 15.558 70.199 14.586 10.726-.97 34.613-14.102 39.488-27.715s4.875-25.285 3.414-27.723c-1.465-2.43-5.367-3.887-11.215-6.8-5.851-2.919-34.523-17.262-39.886-19.212-5.364-1.941-9.262-2.914-13.164 2.926-3.903 5.828-15.391 19.313-18.805 23.203-3.41 3.895-6.824 4.383-12.676 1.465-5.852-2.926-24.5-9.191-46.848-29.05-17.394-15.458-29.464-35.169-32.879-41.005-3.41-5.832-.363-8.988 2.57-11.898 2.63-2.61 6.18-6.18 9.106-9.582 2.922-3.406 3.754-5.836 5.707-9.727 1.95-3.89.973-7.296-.488-10.21-1.465-2.919-12.691-31.75-17.895-43.282h.004c-4.382-9.71-8.996-10.039-13.164-10.21zm0 0" data-original="#000000"/>
</symbol><symbol viewBox="0 0 22 22" id="zoom" xmlns="http://www.w3.org/2000/svg">
    <path fill-rule="evenodd" clip-rule="evenodd" d="M16.613 7.029A7.336 7.336 0 0 0 2.5 9.838a7.336 7.336 0 0 0 11.412 6.098l.567.848-.567-.848a7.336 7.336 0 0 0 2.7-8.907Zm1.884-.781A9.376 9.376 0 0 0 .46 9.838m18.038-3.59A9.376 9.376 0 1 1 .46 9.838"/>
    <path fill-rule="evenodd" clip-rule="evenodd" d="M15.024 15.026a1.02 1.02 0 0 1 1.442 0l4.775 4.775a1.02 1.02 0 0 1-1.442 1.442l-4.775-4.775a1.02 1.02 0 0 1 0-1.442Z"/>
</symbol></svg>