<?xml version="1.0" encoding="utf-8"?><svg xmlns="http://www.w3.org/2000/svg" xmlns:xlink="http://www.w3.org/1999/xlink"><symbol viewBox="0 0 28 24" id="cart" xmlns="http://www.w3.org/2000/svg">
    <path d="M26.188 7.132h-2.932L22.13 2.7a2.718 2.718 0 0 0-2.635-2.05H8.505a2.717 2.717 0 0 0-2.635 2.05L4.744 7.132H1.813c-.983 0-1.782.8-1.782 1.782v2.46c0 .983.799 1.782 1.782 1.782h.526l2.5 8.263a2.704 2.704 0 0 0 2.602 1.932H20.56a2.703 2.703 0 0 0 2.602-1.932l2.5-8.263h.526c.983 0 1.782-.8 1.782-1.781V8.914c0-.983-.799-1.782-1.782-1.782ZM7.506 3.113a1.03 1.03 0 0 1 1-.777h10.989c.472 0 .883.32 1 .777l1.02 4.018H6.484l1.02-4.018Zm14.04 17.818c-.133.438-.53.732-.987.732H7.44c-.457 0-.855-.294-.987-.732l-2.351-7.775h19.795l-2.352 7.775Zm4.735-9.556a.094.094 0 0 1-.093.093H1.813a.094.094 0 0 1-.094-.093V8.914c0-.052.042-.094.093-.094h24.375c.052 0 .094.042.094.094v2.46Z"/>
    <path d="M9.957 20.217a.844.844 0 0 0 .844-.844v-3.926a.844.844 0 0 0-1.687 0v3.926c0 .465.377.844.843.844Zm4.043 0a.844.844 0 0 0 .844-.844v-3.926a.844.844 0 0 0-1.688 0v3.926c0 .465.378.844.844.844Zm4.043 0a.844.844 0 0 0 .844-.844v-3.926a.844.844 0 0 0-1.687 0v3.926c0 .465.377.844.843.844Z"/>
</symbol><symbol viewBox="0 0 344.971 344.971" xml:space="preserve" id="close" xmlns="http://www.w3.org/2000/svg">
    <path d="M342.622 330.438 183.814 172.494 341.79 13.646a8.001 8.001 0 1 0-11.344-11.288L172.502 161.182 13.67 3.206A8.001 8.001 0 1 0 2.382 14.55L161.19 172.494 3.23 331.326a8.001 8.001 0 1 0 11.344 11.288l157.928-158.808 158.8 157.976a8.001 8.001 0 1 0 11.288-11.344h.032z" data-original="#6d6e71"/>
</symbol><symbol viewBox="0 0 28 28" id="comments" xmlns="http://www.w3.org/2000/svg">
    <path d="M23.627 4.088C20.695 1.083 16.607-.365 12.403.123 6.428.814 1.618 5.443.706 11.382c-.607 3.955.524 7.9 3.109 10.889l-.724 4.478c-.065.397.099.79.426 1.023a1.05 1.05 0 0 0 1.104.074l3.9-2.067a13.555 13.555 0 0 0 6.977 1.082c6.013-.646 10.985-5.458 11.82-11.44.588-4.198-.758-8.329-3.69-11.333Zm2.021 11.1c-.73 5.227-5.075 9.431-10.33 9.995a11.837 11.837 0 0 1-6.454-1.104.847.847 0 0 0-.764.013l-3.14 1.664.585-3.613a.845.845 0 0 0-.211-.705c-2.431-2.645-3.51-6.216-2.96-9.8.798-5.19 5-9.235 10.223-9.838.47-.054.935-.08 1.398-.08 3.175 0 6.187 1.254 8.426 3.547 2.564 2.628 3.741 6.244 3.227 9.92Z"/>
    <path d="M17.146 9.84h-.324v-.248a2.826 2.826 0 0 0-2.823-2.823 2.826 2.826 0 0 0-2.823 2.823v.248h-.324c-.979 0-1.776.797-1.776 1.776v4.942a2.337 2.337 0 0 0 2.335 2.335h5.175a2.337 2.337 0 0 0 2.334-2.335v-4.942a1.775 1.775 0 0 0-1.774-1.776Zm-4.281-.248a1.136 1.136 0 0 1 2.27 0v.248h-2.27v-.248Zm4.37 6.966c0 .357-.291.647-.648.647h-5.175a.648.648 0 0 1-.647-.647v-4.942c0-.049.04-.088.089-.088h6.293c.049 0 .088.04.088.088v4.942Z"/>
</symbol><symbol viewBox="0 0 28 28" id="flash-sale" xmlns="http://www.w3.org/2000/svg">
    <path d="M26.588 14.366a1.188 1.188 0 0 1 0-.732l.7-2.178a2.876 2.876 0 0 0-1.041-3.208l-1.848-1.351a1.172 1.172 0 0 1-.429-.59l-.716-2.177a2.879 2.879 0 0 0-2.724-1.98l-2.293-.011c-.25-.001-.489-.079-.691-.224L15.685.574a2.88 2.88 0 0 0-3.368 0l-1.86 1.34a1.188 1.188 0 0 1-.693.225l-2.293.01A2.878 2.878 0 0 0 4.747 4.13L4.03 6.307a1.177 1.177 0 0 1-.43.59l-1.847 1.35a2.874 2.874 0 0 0-1.041 3.209l.7 2.178c.077.24.077.492 0 .732l-.7 2.177a2.876 2.876 0 0 0 1.041 3.209l1.848 1.351c.203.148.35.351.429.59l.716 2.177a2.879 2.879 0 0 0 2.724 1.98l2.292.01c.252.001.49.079.692.224l1.861 1.341a2.876 2.876 0 0 0 3.368 0l1.86-1.34c.203-.146.442-.224.693-.225l2.29-.01a2.877 2.877 0 0 0 2.725-1.981l.717-2.177c.078-.238.226-.441.43-.59l1.847-1.35a2.874 2.874 0 0 0 1.041-3.209l-.698-2.177Zm-1.606.516.7 2.178a1.192 1.192 0 0 1-.432 1.33l-1.846 1.35c-.49.357-.848.85-1.037 1.425l-.717 2.176a1.19 1.19 0 0 1-1.129.82l-2.291.01a2.864 2.864 0 0 0-1.672.544l-1.86 1.34c-.416.3-.978.3-1.394 0l-1.86-1.34a2.866 2.866 0 0 0-1.672-.543l-2.292-.01a1.19 1.19 0 0 1-1.13-.82l-.714-2.176a2.855 2.855 0 0 0-1.037-1.426L2.75 18.39a1.192 1.192 0 0 1-.432-1.33l.7-2.176a2.87 2.87 0 0 0 0-1.766l-.7-2.178a1.194 1.194 0 0 1 .432-1.33l1.846-1.35c.49-.358.848-.85 1.037-1.427l.717-2.176c.16-.489.614-.819 1.129-.82l2.291-.01a2.863 2.863 0 0 0 1.672-.544l1.86-1.34a1.189 1.189 0 0 1 1.394 0l1.86 1.34c.489.353 1.068.54 1.672.543l2.292.01c.515.002.969.332 1.13.82l.714 2.176c.19.576.549 1.07 1.037 1.426L25.25 9.61c.416.303.59.838.432 1.329l-.7 2.177a2.87 2.87 0 0 0 0 1.766Z"/>
    <path d="M18.614 11.927h-2.598V7.652a.937.937 0 0 0-.643-.891.936.936 0 0 0-1.047.322l-5.69 7.483a.937.937 0 0 0-.091.986c.16.322.482.522.84.522h2.6v4.276a.937.937 0 0 0 .94.94.941.941 0 0 0 .75-.372l5.69-7.482a.937.937 0 0 0 .09-.986.936.936 0 0 0-.84-.523Zm-4.941 6.204v-2.806a.942.942 0 0 0-.94-.94h-1.84l3.433-4.516v2.805c0 .52.422.942.94.942h1.84l-3.433 4.515Z"/>
</symbol><symbol viewBox="0 0 27 23" id="heart" xmlns="http://www.w3.org/2000/svg">
    <path d="M4.79 1.505A5.914 5.914 0 0 1 7.178 1c.822 0 1.634.172 2.388.505a6.165 6.165 0 0 1 2.005 1.425 2.04 2.04 0 0 0 2.961 0C15.684 1.704 17.262 1 18.925 1c1.662 0 3.24.704 4.392 1.93l.729-.685-.729.685c1.15 1.223 1.786 2.87 1.786 4.578 0 1.706-.636 3.354-1.786 4.577l-8.09 8.612c-1.16 1.234-3.192 1.234-4.351 0l-8.09-8.611a6.54 6.54 0 0 1-1.324-2.108A6.817 6.817 0 0 1 1 7.508c0-.847.157-1.686.462-2.47A6.54 6.54 0 0 1 2.786 2.93 6.167 6.167 0 0 1 4.79 1.505Zm0 0L4.387.59l.403.915Z" stroke-width="2"/>
</symbol><symbol viewBox="0 0 28 28" id="list" xmlns="http://www.w3.org/2000/svg">
    <path d="M23.375.536H4.625A4.599 4.599 0 0 0 .031 5.129v17.742a4.599 4.599 0 0 0 4.594 4.593h18.75a4.599 4.599 0 0 0 4.594-4.593V5.129A4.599 4.599 0 0 0 23.375.536Zm2.906 22.335a2.91 2.91 0 0 1-2.906 2.906H4.625a2.91 2.91 0 0 1-2.906-2.906V5.129a2.91 2.91 0 0 1 2.906-2.906h18.75a2.91 2.91 0 0 1 2.906 2.906v17.742Z"/>
    <path d="M21.369 6.846H11.066a.844.844 0 0 0 0 1.687h10.303a.844.844 0 0 0 0-1.687Zm-13.873 0H6.63a.844.844 0 0 0 0 1.687h.866a.844.844 0 0 0 0-1.687Zm13.873 6.31H11.066a.844.844 0 0 0 0 1.688h10.303a.844.844 0 0 0 0-1.688Zm-13.873 0H6.63a.844.844 0 0 0 0 1.688h.866a.844.844 0 0 0 0-1.688Zm13.873 6.31H11.066a.844.844 0 0 0 0 1.688h10.303a.844.844 0 0 0 0-1.687Zm-13.873 0H6.63a.844.844 0 0 0 0 1.688h.866a.844.844 0 0 0 0-1.687Z"/>
</symbol><symbol viewBox="0 0 24 28" id="login" xmlns="http://www.w3.org/2000/svg">
    <path d="M19.914 7.755h-2.091v-1.9A5.829 5.829 0 0 0 12 .031a5.829 5.829 0 0 0-5.822 5.822v1.902H4.086a3.19 3.19 0 0 0-3.188 3.188v12.431a4.599 4.599 0 0 0 4.594 4.594h13.017a4.599 4.599 0 0 0 4.594-4.594V10.943a3.192 3.192 0 0 0-3.189-3.188Zm-12.05-1.9A4.14 4.14 0 0 1 12 1.718a4.14 4.14 0 0 1 4.134 4.135v1.902h-8.27V5.854Zm13.55 17.52a2.91 2.91 0 0 1-2.906 2.906H5.492a2.91 2.91 0 0 1-2.906-2.906V10.943c0-.827.673-1.5 1.5-1.5h15.83c.826 0 1.5.673 1.5 1.5l-.002 12.432Z"/>
    <path d="M15.104 17.019H8.897a.844.844 0 0 0 0 1.687h6.207a.844.844 0 0 0 0-1.687Z"/>
</symbol><symbol viewBox="0 0 28 28" id="magazine" xmlns="http://www.w3.org/2000/svg">
    <path d="m27.814 7.192-1.66-4.555a2.73 2.73 0 0 0-2.555-1.78H4.4a2.732 2.732 0 0 0-2.556 1.781L.185 7.192a2.56 2.56 0 0 0-.154.876v1.234c0 1.526.844 2.846 2.08 3.56v11.563a2.723 2.723 0 0 0 2.718 2.719h18.342c1.499 0 2.718-1.22 2.718-2.719V12.863c1.236-.714 2.08-2.035 2.08-3.56V8.067c0-.3-.052-.595-.155-.876ZM23.6 2.544c.432 0 .822.27.97.673l1.35 3.704h-4.653l-.798-4.377H23.6Zm-8.756 0h3.908l.798 4.377h-4.706V2.544Zm0 6.065h4.875v.693a2.44 2.44 0 0 1-2.438 2.438 2.44 2.44 0 0 1-2.437-2.438V8.61ZM9.248 2.544h3.908V6.92H8.45l.798-4.377ZM8.28 8.609h4.875v.693a2.44 2.44 0 0 1-2.437 2.438A2.44 2.44 0 0 1 8.28 9.302V8.61ZM3.43 3.22c.148-.404.538-.675.97-.675h3.131L6.733 6.92H2.081L3.43 3.219ZM1.719 9.302V8.61h4.875v.693a2.44 2.44 0 0 1-2.438 2.438A2.44 2.44 0 0 1 1.72 9.302Zm14.795 16.154h-5.027v-4.792c0-.568.462-1.032 1.03-1.032h2.967c.568 0 1.031.463 1.031 1.032v4.792Zm7.688-1.031c0 .568-.462 1.031-1.031 1.031H18.2v-4.792c0-1.5-1.22-2.719-2.718-2.719h-2.966c-1.5 0-2.719 1.22-2.719 2.719v4.792H4.83a1.032 1.032 0 0 1-1.03-1.031V13.391c.12.01.234.037.357.037a4.108 4.108 0 0 0 3.282-1.653 4.108 4.108 0 0 0 3.28 1.653A4.108 4.108 0 0 0 14 11.775a4.108 4.108 0 0 0 3.281 1.653 4.108 4.108 0 0 0 3.282-1.653 4.108 4.108 0 0 0 3.28 1.653c.124 0 .239-.025.359-.037v11.034Zm2.08-15.123a2.44 2.44 0 0 1-2.438 2.438 2.44 2.44 0 0 1-2.438-2.438V8.61h4.875v.693Z"/>
</symbol><symbol viewBox="0 0 24 30" id="marker" xmlns="http://www.w3.org/2000/svg">
    <path d="M12 30a3 3 0 0 1-2.21-1C6.14 25 0 17.39 0 12.36A12.19 12.19 0 0 1 12 0a12.19 12.19 0 0 1 12 12.36c0 5-6.14 12.59-9.79 16.65A3.002 3.002 0 0 1 12 30Zm0-28A10.2 10.2 0 0 0 2 12.36c0 3.14 3.47 8.86 9.28 15.31a.999.999 0 0 0 1.44 0C18.53 21.22 22 15.5 22 12.36A10.2 10.2 0 0 0 12 2Z"/>
    <path d="M12 18a6 6 0 1 1 0-12 6 6 0 0 1 0 12Zm0-10a4 4 0 1 0 0 8 4 4 0 0 0 0-8Z"/>
</symbol><symbol viewBox="0 0 32 24" id="menu" xmlns="http://www.w3.org/2000/svg">
    <path fill-rule="evenodd" clip-rule="evenodd" d="M31.5 2A1.5 1.5 0 0 0 30 .5H2a1.5 1.5 0 1 0 0 3h28A1.5 1.5 0 0 0 31.5 2Zm0 10a1.5 1.5 0 0 0-1.5-1.5H2a1.5 1.5 0 0 0 0 3h28a1.5 1.5 0 0 0 1.5-1.5Zm0 10a1.5 1.5 0 0 0-1.5-1.5H2a1.5 1.5 0 0 0 0 3h28a1.5 1.5 0 0 0 1.5-1.5Z"/>
</symbol><symbol viewBox="0 0 15 26" id="question" xmlns="http://www.w3.org/2000/svg">
    <path d="M7.298 6.518a7.71 7.71 0 0 0-1.99.25c-.625.166-1.318.433-2.079.803L2 4.44c.761-.462 1.659-.813 2.693-1.053A12.521 12.521 0 0 1 7.737 3c1.248 0 2.273.157 3.073.47.82.315 1.463.712 1.931 1.192.469.48.79 1.007.966 1.579.195.572.293 1.117.293 1.634 0 .517-.088.998-.263 1.44a5.368 5.368 0 0 1-.615 1.192c-.254.37-.546.72-.878 1.053-.332.332-.654.646-.966.941-.234.222-.478.462-.732.72a6.81 6.81 0 0 0-.702.776 4.997 4.997 0 0 0-.498.887c-.136.295-.205.6-.205.914v.332c0 .148.01.277.03.388H5.307a5.133 5.133 0 0 1-.087-.61V15.3c0-.517.068-.979.204-1.385a5.37 5.37 0 0 1 .527-1.163c.234-.37.498-.711.79-1.025.293-.314.596-.619.908-.914.449-.425.858-.84 1.229-1.247.37-.425.556-.905.556-1.44 0-.444-.185-.822-.556-1.136-.351-.314-.878-.471-1.58-.471Zm2.722 13.933c0 .813-.283 1.441-.85 1.884A2.89 2.89 0 0 1 7.299 23a3.008 3.008 0 0 1-1.903-.665c-.546-.443-.82-1.07-.82-1.884 0-.812.274-1.44.82-1.883a3.007 3.007 0 0 1 1.903-.665 2.89 2.89 0 0 1 1.873.665c.566.443.849 1.071.849 1.883Z"/>
</symbol><symbol viewBox="0 0 45 46" id="shopping-bag" xmlns="http://www.w3.org/2000/svg">
    <path d="M37.658 44.832h-30.1a3.487 3.487 0 0 1-3.463-3.078L1.388 19.148a3.487 3.487 0 0 1 3.463-3.894h35.514a3.486 3.486 0 0 1 3.463 3.894L41.12 41.754a3.487 3.487 0 0 1-3.463 3.078Z" stroke-width="2" stroke-miterlimit="10" stroke-linecap="round" stroke-linejoin="round"/>
    <path d="M13.116 22.004V11.009a9.492 9.492 0 0 1 18.984 0v10.995" stroke-width="2" stroke-miterlimit="10" stroke-linecap="round" stroke-linejoin="round"/>
</symbol><symbol viewBox="0 0 26 27" id="shopping-bag2" xmlns="http://www.w3.org/2000/svg">
    <path fill-rule="evenodd" clip-rule="evenodd" d="M2.098 10.743 3.6 23.302a.937.937 0 0 0 .931.827h16.723a.937.937 0 0 0 .93-.827V23.3l1.504-12.557a.937.937 0 0 0-.93-1.046H3.029c-.562 0-.997.49-.931 1.046Zm-1.987.234a2.937 2.937 0 0 1 2.917-3.28h19.73a2.937 2.937 0 0 1 2.917 3.28v.002l-1.503 12.557a2.937 2.937 0 0 1-2.917 2.593H4.532a2.937 2.937 0 0 1-2.917-2.592L.111 10.977Z"/>
    <path fill-rule="evenodd" clip-rule="evenodd" d="M12.893 2.065A4.273 4.273 0 0 0 8.62 6.34v6.107a1 1 0 1 1-2 0V6.34a6.273 6.273 0 0 1 12.547 0v6.107a1 1 0 1 1-2 0V6.34a4.273 4.273 0 0 0-4.274-4.274Z"/>
</symbol><symbol viewBox="0 0 30 26" id="size" xmlns="http://www.w3.org/2000/svg">
    <path d="M10.166 8.566c5.054 0 9.151-1.69 9.151-3.775s-4.097-3.776-9.15-3.776c-5.055 0-9.152 1.69-9.152 3.776 0 2.085 4.097 3.775 9.151 3.775Z"/>
    <path d="M10.166 24.245c5.054 0 9.151-1.69 9.151-3.776V4.791c0 2.085-4.097 3.775-9.15 3.775v15.679Z"/>
    <path d="M10.166 8.582v-.016c-5.054 0-9.15-1.69-9.15-3.775v15.678c0 2.085 4.096 3.775 9.15 3.775h18.819V8.582H10.166Z"/>
    <path d="M9.078 5.307h2.176a.58.58 0 0 0 0-1.16H9.078a.58.58 0 0 0 0 1.16Z"/>
    <path fill-rule="evenodd" clip-rule="evenodd" d="M11.254 5.742H9.078a1.015 1.015 0 0 1 0-2.03h2.176a1.015 1.015 0 0 1 0 2.03Zm0-.435H9.078a.58.58 0 0 1 0-1.16h2.176a.58.58 0 0 1 0 1.16Z"/>
    <path d="M28.985 8.001h-9.088v-3.21c0-1.26-1.079-2.398-3.039-3.206-1.797-.742-4.173-1.15-6.692-1.15-2.518 0-4.895.408-6.692 1.15-1.96.808-3.04 1.947-3.04 3.206v15.678c0 1.259 1.08 2.398 3.04 3.206 1.797.742 4.174 1.15 6.692 1.15h18.819c.32 0 .58-.26.58-.58V8.582a.58.58 0 0 0-.58-.58Zm-12.138 0 .011-.004c.764-.315 1.394-.681 1.879-1.084V8h-1.89Zm-6.68-6.406c5.05 0 8.57 1.684 8.57 3.196 0 1.511-3.52 3.195-8.57 3.195h-.001c-5.051 0-8.57-1.684-8.57-3.195 0-1.512 3.52-3.196 8.57-3.196Zm18.238 7.567v14.502H24.6v-7.99a.58.58 0 1 0-1.16 0v7.99h-8.093V11.762a.58.58 0 1 0-1.16 0v11.902h-4.022a19.84 19.84 0 0 1-3.927-.373V11.762a.58.58 0 0 0-1.16 0v11.246c-2.171-.63-3.484-1.616-3.484-2.539V6.913c.485.403 1.115.769 1.879 1.084 1.765.728 4.09 1.135 6.56 1.149l18.37.016Z"/>
    <path fill-rule="evenodd" clip-rule="evenodd" d="M3.308 1.183C5.171.414 7.607 0 10.166 0c2.56 0 4.995.414 6.858 1.183 2 .825 3.308 2.07 3.308 3.608v2.775h8.653c.56 0 1.015.455 1.015 1.016v15.663c0 .56-.454 1.015-1.015 1.015H10.166c-2.56 0-4.995-.414-6.858-1.183-2-.825-3.308-2.07-3.308-3.608V4.791c0-1.538 1.308-2.783 3.308-3.608Zm26.257 7.399v15.663c0 .32-.26.58-.58.58H10.166c-2.518 0-4.895-.408-6.692-1.15-1.96-.808-3.04-1.947-3.04-3.206V4.791c0-1.26 1.08-2.398 3.04-3.206C5.271.843 7.648.435 10.166.435c2.519 0 4.895.408 6.692 1.15 1.96.808 3.04 1.947 3.04 3.206V8h9.087c.32 0 .58.26.58.58ZM3.474 7.997a8.08 8.08 0 0 1-1.444-.759 5.478 5.478 0 0 1-.435-.325v13.556c0 .86 1.139 1.774 3.049 2.404.14.047.286.091.435.135V11.762a.58.58 0 0 1 1.16 0v11.53c1.152.233 2.476.372 3.927.372h4.021V11.762a.58.58 0 0 1 1.161 0v11.902h8.093v-7.99a.58.58 0 1 1 1.16 0v7.99h3.804V9.162l-18.372-.016c-2.469-.014-4.794-.42-6.559-1.15Zm24.496 1.6L10.03 9.58c-2.509-.015-4.892-.427-6.722-1.182a8.916 8.916 0 0 1-1.278-.644V20.47c0 .252.188.616.75 1.03.446.327 1.074.644 1.864.915V11.762a1.015 1.015 0 1 1 2.03 0v11.17c1.038.187 2.213.298 3.492.298h3.587V11.762a1.015 1.015 0 1 1 2.03 0V23.23h7.223v-7.557a1.015 1.015 0 1 1 2.03 0v7.557h2.934V9.596ZM16.847 8h1.89V6.913c-.134.11-.28.22-.435.325a6.869 6.869 0 0 1-.54.328 9.02 9.02 0 0 1-.91.433l-.005.002Zm-.664-4.972c-1.45-.585-3.535-.999-6.017-.999-2.481 0-4.567.414-6.017 1-.726.293-1.274.621-1.633.946-.365.33-.486.611-.486.815 0 .203.121.484.486.814.359.325.907.654 1.633.947 1.45.585 3.535 1 6.017 1s4.567-.415 6.017-1c.726-.293 1.274-.622 1.633-.947.365-.33.486-.61.486-.814 0-.204-.121-.485-.486-.815-.359-.325-.907-.653-1.633-.947Zm2.554 1.762c0-1.512-3.52-3.196-8.57-3.196-5.052 0-8.572 1.684-8.572 3.196 0 1.511 3.52 3.195 8.57 3.195h.002c5.05 0 8.57-1.684 8.57-3.195Z"/>
    <path d="M24.021 12.746c.32 0 .58-.26.58-.58v-.404a.58.58 0 0 0-1.16 0v.404c0 .32.26.58.58.58Z"/>
    <path fill-rule="evenodd" clip-rule="evenodd" d="M25.036 12.166a1.015 1.015 0 1 1-2.03 0v-.404a1.015 1.015 0 0 1 2.03 0v.404Zm-.435 0a.58.58 0 1 1-1.16 0v-.404a.58.58 0 1 1 1.16 0v.404Z"/>
</symbol><symbol viewBox="0 0 19 32" id="tel" xmlns="http://www.w3.org/2000/svg">
    <path d="M7.944 2.133a.531.531 0 0 0-.53.534.535.535 0 0 0 1.069 0 .533.533 0 0 0-.534-.534h-.005ZM8.467 28.8a1.068 1.068 0 0 0 2.133 0 1.068 1.068 0 0 0-2.133 0Z" stroke-width=".5"/>
    <path d="M1.533 24.533A.534.534 0 0 0 2.067 24V2.667c0-.778.822-1.6 1.6-1.6H15.4c.778 0 1.6.822 1.6 1.6a.533.533 0 0 0 1.067 0C18.067 1.296 16.77 0 15.4 0H3.667C2.296 0 1 1.296 1 2.667V24c0 .294.239.533.533.533Z" stroke-width=".5"/>
    <path d="M10.067 2.133a.534.534 0 0 0 0 1.067H12.2a.534.534 0 0 0 0-1.067h-2.133ZM14.333 9.6a.532.532 0 0 0 .377-.91l-1.066-1.067a.533.533 0 1 0-.754.754l1.066 1.067c.104.104.24.156.377.156ZM9.69 7.623a.533.533 0 0 0 0 .754l4.266 4.267a.532.532 0 0 0 .755 0 .533.533 0 0 0 0-.754l-4.267-4.267a.533.533 0 0 0-.754 0Z" stroke-width=".5"/>
    <path d="M17.533 4.267H3.667a.534.534 0 0 0 0 1.066H17v24c0 .778-.822 1.6-1.6 1.6H3.667c-.778 0-1.6-.822-1.6-1.6v-2.666H15.4a.534.534 0 0 0 0-1.067H1.533a.534.534 0 0 0-.533.533v3.2C1 30.704 2.296 32 3.667 32H15.4c1.37 0 2.667-1.296 2.667-2.667V4.8a.534.534 0 0 0-.534-.533Z" stroke-width=".5"/>
</symbol><symbol viewBox="0 0 23 21" id="telegram" xmlns="http://www.w3.org/2000/svg">
    <path d="M20.9 1.471c.111 0 .223.014.332.041l.019.005c.277.073.519.234.69.478.166.234.264.541.264.914 0 .185-.025.392-.08.616L18.98 18.35c-.055.258-.136.48-.237.661a1.28 1.28 0 0 1-.584.565 1.262 1.262 0 0 1-.798.071l-.015-.003a2.37 2.37 0 0 1-.632-.25l-7.529-5.557a.593.593 0 0 1-.182-.211L9 13.617a.595.595 0 0 1-.063-.262.607.607 0 0 1 .233-.47l7.62-6.882-9.999 6.308a.572.572 0 0 1-.17.08c-.607.156-4.4-1.252-5-1.472-.332-.1-.585-.247-.745-.418a.804.804 0 0 1-.232-.557.9.9 0 0 1 .217-.565c.187-.232.515-.458.987-.646L20.29 1.62a1.635 1.635 0 0 1 .554-.145l.057-.004Zm.154.752-.153-.017-.152.024C14.56 4.436 8.27 7.04 2.115 9.415c-.346.137-.572.285-.683.423-.036.044-.054.08-.054.106 0 .013.012.033.034.057.075.08.216.155.418.217l4.602 1.454 10.822-6.827c.318-.192.64-.25.854-.212.105.02.196.06.27.12l.019.014c.111.097.17.226.165.38-.006.155-.088.327-.269.486l-8.54 7.711 7.338 5.42c.147.08.284.136.406.162l.012.002a.561.561 0 0 0 .346-.018.571.571 0 0 0 .248-.255c.065-.118.12-.27.16-.457.868-4.518 1.943-10.499 3.148-14.838.041-.164.06-.316.06-.451 0-.212-.048-.378-.13-.492a.492.492 0 0 0-.275-.191l-.012-.003Z"/>
    <path fill-rule="evenodd" clip-rule="evenodd" d="M20.882.971h.018c.153 0 .305.02.452.056l.006.001.02.006c.386.102.73.328.972.673.232.329.355.74.355 1.202 0 .228-.031.473-.093.727L19.47 18.453a2.867 2.867 0 0 1-.29.8 1.78 1.78 0 0 1-.813.777c-.349.159-.73.185-1.109.105l-.01-.002-.01-.002a2.868 2.868 0 0 1-.765-.3l-.029-.016L8.89 14.24c-.139-.1-.254-.235-.333-.389l-.004-.008-.005-.012a1.094 1.094 0 0 1-.111-.476 1.106 1.106 0 0 1 .41-.853l3.296-2.976-5.078 3.204a1.075 1.075 0 0 1-.31.142l-.009.003c-.183.047-.4.025-.562 0a6.702 6.702 0 0 1-.638-.133c-.467-.118-1.03-.29-1.583-.471a74.912 74.912 0 0 1-2.432-.853l-.069-.025c-.381-.117-.717-.299-.952-.552l.366-.34-.364.341a1.303 1.303 0 0 1-.368-.898c0-.325.123-.624.327-.878.261-.325.676-.592 1.192-.797l.005-.003L20.095 1.16a2.137 2.137 0 0 1 .71-.182h.002l.075-.006Zm-4.195 4.823.277.366.999-.902a.329.329 0 0 0 .096-.12.133.133 0 0 0-.039-.012c-.068-.012-.267.002-.504.145l-.83.523Zm4.187-3.078c-4.122 1.47-8.283 3.115-12.427 4.753-2.038.805-4.071 1.61-6.094 2.39l4.009 1.266 10.633-6.708c.396-.24.84-.34 1.2-.276h.001c.18.033.35.105.493.22l.005.003.024.02.006.005a.963.963 0 0 1 .337.775m-.435.842-8.085 7.3 6.817 5.034c.103.054.182.083.237.096l.009.001.007.002a.363.363 0 0 0 .035.005.4.4 0 0 0 .02-.032c.035-.063.075-.164.107-.313l.374-1.963c.794-4.18 1.738-9.15 2.78-12.903.032-.126.044-.235.044-.324a.438.438 0 0 0-.033-.196l-.025-.003-.039.006"/>
</symbol><symbol viewBox="0 0 25 17" id="vk" xmlns="http://www.w3.org/2000/svg">
    <path d="M1.421 1.813c.437 4.058 1.344 7.411 3.198 9.754 1.842 2.328 4.653 3.682 8.923 3.768v-4.94l.397-.006c1.485-.027 2.774.541 3.8 1.414 1.109.944 1.912 2.25 2.322 3.535h3.261a8.925 8.925 0 0 0-1.692-3.327c-1.021-1.273-2.329-2.269-3.66-2.994l-.492-.268 1.117-1.023c1.659-1.492 3.285-2.954 3.933-5.887h-2.372l-.124.293c-.795 1.882-2.151 5.094-6.072 5.239l-.417.016.002-5.548h-2.878l-.042 10.104-.532-.185c-2.036-.71-3.366-2.103-4.222-3.935-.792-1.694-1.174-3.76-1.337-6.001l-3.113-.01Zm2.569 10.25C1.957 9.497 1.009 5.849.576 1.45l-.044-.442 4.756.015.023.376c.142 2.297.5 4.404 1.287 6.086.688 1.473 1.716 2.628 3.229 3.304l.041-9.755h4.48l-.001 5.505C17.44 6.2 18.6 3.456 19.29 1.819l.343-.786h3.863l-.082.473c-.62 3.525-2.431 5.155-4.282 6.82l-.293.263c1.246.742 2.45 1.713 3.415 2.919.93 1.164 1.644 2.547 1.966 4.154l.096.482h-4.86l-.081-.298c-.336-1.233-1.089-2.518-2.156-3.429-.794-.675-1.767-1.14-2.872-1.216v4.941h-.403c-4.771-.008-7.902-1.482-9.955-4.078Z"/>
</symbol><symbol viewBox="0 0 28 28" id="voice" xmlns="http://www.w3.org/2000/svg">
    <path d="M19.398 7.527V1.42a.844.844 0 0 0-1.687 0v.933l-7.7 4.998H2.75c-1.5 0-2.719 1.22-2.719 2.719v4.722a2.722 2.722 0 0 0 2.719 2.719h.071v8.13c0 .983.799 1.782 1.781 1.782h1.93c.983 0 1.782-.8 1.782-1.781V17.51h1.697l7.699 4.998v.933a.844.844 0 0 0 1.687 0v-6.106c2.349-.404 4.147-2.443 4.147-4.905s-1.797-4.5-4.146-4.904ZM6.627 25.643a.094.094 0 0 1-.094.094h-1.93a.094.094 0 0 1-.094-.094v-8.131h2.118v8.13Zm2.79-9.82H2.75a1.032 1.032 0 0 1-1.031-1.03V10.07c0-.568.463-1.031 1.031-1.031h6.667v6.784Zm1.687.387V8.654l6.606-4.288V20.5l-6.606-4.29Zm8.294-.6V9.253a3.298 3.298 0 0 1 2.458 3.18 3.297 3.297 0 0 1-2.458 3.179Zm7.727-4.022h-1.442a.844.844 0 0 0 0 1.687h1.442a.844.844 0 0 0 0-1.687Zm-2.69-2.127a.843.843 0 0 0 .597-.248l1.02-1.02A.843.843 0 1 0 24.858 7l-1.02 1.02a.843.843 0 0 0 .596 1.44Zm.596 6.19a.84.84 0 0 0-1.193 0 .842.842 0 0 0 .001 1.193l1.02 1.02a.839.839 0 0 0 1.193-.002.842.842 0 0 0 0-1.192l-1.021-1.02Z"/>
</symbol><symbol viewBox="0 0 32 32" id="whatsap" xmlns="http://www.w3.org/2000/svg">
    <g clip-path="url(#sa)">
        <path d="M32 15.588c0 8.609-7.032 15.588-15.71 15.588-2.754 0-5.341-.704-7.593-1.94L0 32l2.836-8.363a15.424 15.424 0 0 1-2.255-8.05C.581 6.98 7.615 0 16.291 0 24.968 0 32 6.979 32 15.588ZM16.29 2.482c-7.282 0-13.207 5.88-13.207 13.106 0 2.868.935 5.523 2.516 7.684l-1.65 4.867 5.076-1.613a13.198 13.198 0 0 0 7.266 2.167c7.282 0 13.208-5.878 13.208-13.104 0-7.227-5.925-13.107-13.208-13.107Zm7.934 16.696c-.097-.159-.354-.255-.739-.446-.385-.19-2.279-1.116-2.63-1.243-.354-.127-.611-.19-.867.191-.257.383-.995 1.243-1.22 1.498-.225.256-.45.288-.835.096-.384-.19-1.625-.595-3.096-1.896-1.144-1.012-1.917-2.263-2.142-2.646-.224-.382-.023-.588.169-.779.173-.171.385-.446.578-.669.193-.223.257-.382.384-.637.13-.255.065-.478-.032-.67-.096-.19-.866-2.07-1.187-2.836-.32-.764-.641-.637-.866-.637-.225 0-.482-.032-.738-.032-.257 0-.675.095-1.028.478-.352.382-1.347 1.307-1.347 3.187s1.38 3.696 1.572 3.95c.193.255 2.664 4.239 6.578 5.769 3.915 1.53 3.915 1.019 4.622.955.705-.064 2.277-.924 2.6-1.816.32-.893.32-1.658.224-1.817Z"/>
    </g>
    <defs>
        <clipPath id="sa">
            <path d="M0 0h32v32H0z"/>
        </clipPath>
    </defs>
</symbol><symbol viewBox="0 0 22 22" id="whatsapp" xmlns="http://www.w3.org/2000/svg">
    <path d="M18.299 17.15a9.462 9.462 0 0 0 2.811-6.738A9.463 9.463 0 0 0 18.3 3.675a9.614 9.614 0 0 0-6.793-2.79 9.615 9.615 0 0 0-6.794 2.79 9.461 9.461 0 0 0-2.811 6.737 9.434 9.434 0 0 0 1.377 4.919l.08.134-1.63 4.814 5.009-1.593.125.07a9.604 9.604 0 0 0 4.644 1.185 9.614 9.614 0 0 0 6.793-2.79ZM5.362 4.313a8.7 8.7 0 0 1 6.144-2.53 8.7 8.7 0 0 1 6.143 2.53 8.57 8.57 0 0 1 2.551 6.1 8.57 8.57 0 0 1-2.55 6.099 8.7 8.7 0 0 1-6.144 2.53 8.685 8.685 0 0 1-4.647-1.341l-3.694 1.174 1.202-3.545a8.531 8.531 0 0 1-1.556-4.917 8.57 8.57 0 0 1 2.551-6.1Zm10.876 8.545c-.103-.048-.23-.1-.328-.155-.15-.074-.672-.33-1.104-.534a10.24 10.24 0 0 0-.525-.238.604.604 0 0 0-.147-.042c-.008 0 .007.008-.01.034-.07.104-.186.253-.31.405-.186.228-.398.474-.489.577a.673.673 0 0 1-.438.25c-.152.018-.308-.019-.49-.11l-.145-.063c-.358-.154-1.066-.458-1.888-1.186a6.977 6.977 0 0 1-.942-1.036 7.898 7.898 0 0 1-.48-.72c-.132-.223-.133-.412-.071-.578a.867.867 0 0 1 .23-.323c.058-.056.139-.154.22-.251l.128-.153c.077-.089.114-.163.164-.264l.034-.07a.074.074 0 0 0 .01-.041.27.27 0 0 0-.03-.081c-.046-.09-.291-.683-.508-1.206l-.254-.61c-.085-.203-.13-.203-.163-.201l-.076.004c-.067 0-.152-.006-.239-.011-.07-.005-.143-.01-.228-.01a.507.507 0 0 0-.21.05.62.62 0 0 0-.193.144l-.05.054c-.225.237-.713.755-.713 1.735 0 .534.2 1.067.413 1.484.22.431.455.74.512.815l.063.09c.301.443 1.761 2.592 3.955 3.45 1.954.763 2.253.693 2.519.63.076-.02.152-.038.253-.047.197-.018.544-.17.855-.388.238-.166.44-.36.505-.54a3.31 3.31 0 0 0 .17-.864Z"/>
</symbol><symbol viewBox="0 0 22 22" id="zoom" xmlns="http://www.w3.org/2000/svg">
    <path fill-rule="evenodd" clip-rule="evenodd" d="M16.613 7.029A7.336 7.336 0 0 0 2.5 9.838a7.336 7.336 0 0 0 11.412 6.098l.567.848-.567-.848a7.336 7.336 0 0 0 2.7-8.907Zm1.884-.781A9.376 9.376 0 0 0 .46 9.838m18.038-3.59A9.376 9.376 0 1 1 .46 9.838"/>
    <path fill-rule="evenodd" clip-rule="evenodd" d="M15.024 15.026a1.02 1.02 0 0 1 1.442 0l4.775 4.775a1.02 1.02 0 0 1-1.442 1.442l-4.775-4.775a1.02 1.02 0 0 1 0-1.442Z"/>
</symbol></svg>