<svg width="60" height="60" viewBox="0 0 60 60" fill="none" xmlns="http://www.w3.org/2000/svg">
<path d="M27.6188 55.4813L23.8969 52.8019C23.2088 52.305 22.3819 52.0369 21.5325 52.0332L16.9482 52.0144C15.195 52.0069 13.6425 50.8782 13.0932 49.2132L11.6625 44.8613C11.3963 44.0532 10.8844 43.3463 10.1963 42.8438L6.50253 40.1419C5.08503 39.105 4.49066 37.2769 5.02878 35.6044L6.43128 31.2469C6.69191 30.435 6.69191 29.5632 6.43128 28.7513L5.02878 24.3938C4.49066 22.7213 5.08503 20.8932 6.50253 19.8563L10.1963 17.1544C10.8844 16.6519 11.3963 15.9469 11.6625 15.1369L13.0932 10.785C13.6407 9.11816 15.1932 7.98941 16.9482 7.98379L21.5325 7.96504C22.3819 7.96129 23.2088 7.69316 23.8969 7.19629L27.6188 4.51879C29.0419 3.49504 30.9582 3.49504 32.3813 4.51879L36.1032 7.19816C36.7913 7.69504 37.6182 7.96316 38.4675 7.96691L43.0519 7.98566C44.805 7.99316 46.3575 9.12191 46.9069 10.7869L48.3375 15.1388C48.6038 15.9469 49.1157 16.6538 49.8038 17.1563L53.4975 19.8582C54.915 20.895 55.5094 22.7232 54.9713 24.3957L53.5688 28.7532C53.3082 29.565 53.3082 30.4369 53.5688 31.2488L54.9713 35.6063C55.5094 37.2788 54.915 39.1069 53.4975 40.1438L49.8038 42.8457C49.1157 43.3482 48.6038 44.0532 48.3375 44.8632L46.9069 49.215C46.3594 50.8819 44.8069 52.0107 43.0519 52.0163L38.4675 52.035C37.6182 52.0388 36.7913 52.3069 36.1032 52.8038L32.3813 55.4813C30.9582 56.5069 29.0419 56.5069 27.6188 55.4813Z" fill="#F0D2DC"/>
<path d="M28.005 42.8138L39.3825 27.8513C39.48 27.7238 39.3881 27.5419 39.2288 27.5419H32.5369C32.43 27.5419 32.3438 27.4556 32.3438 27.3488V17.3025C32.3438 17.1169 32.1094 17.0381 31.9969 17.1863L20.6194 32.1488C20.5219 32.2763 20.6138 32.4581 20.7731 32.4581H27.465C27.5719 32.4581 27.6581 32.5444 27.6581 32.6513V42.6975C27.6581 42.8813 27.8925 42.9619 28.005 42.8138Z" fill="#F3E9ED"/>
<path d="M55.1756 30.7312C55.0219 30.2531 55.0219 29.7487 55.1756 29.2687L56.5762 24.9131C57.3394 22.5431 56.5012 19.9649 54.4931 18.4968L50.7975 15.7931C50.3925 15.4987 50.0962 15.0918 49.9406 14.6137L48.5081 10.2599C47.7319 7.90119 45.54 6.31119 43.0594 6.29994L38.475 6.27744C37.9725 6.27557 37.4962 6.11994 37.0912 5.82932L33.3694 3.14807C31.3556 1.69869 28.6481 1.69869 26.6344 3.14807L22.9125 5.82932C22.5075 6.11994 22.0294 6.27557 21.5287 6.27744L16.9425 6.29619C14.4581 6.30744 12.2681 7.90119 11.4937 10.2599L10.0594 14.6137C9.90373 15.0899 9.60748 15.4968 9.20061 15.7931L5.50686 18.4949C3.49873 19.9612 2.65873 22.5412 3.42373 24.9112L4.82436 29.2687C4.97811 29.7468 4.97811 30.2512 4.82436 30.7312L3.42373 35.0868C2.66061 37.4568 3.49873 40.0349 5.50686 41.5031L9.20248 44.2068C9.60748 44.5012 9.90373 44.9081 10.0594 45.3862L11.4919 49.7399C12.2681 52.0987 14.46 53.6887 16.9406 53.6999L21.525 53.7206C22.0275 53.7224 22.5037 53.8781 22.9087 54.1687L26.6306 56.8499C27.6375 57.5756 28.8187 57.9374 29.9981 57.9374C31.1775 57.9374 32.3587 57.5756 33.3656 56.8499L37.0875 54.1687C37.4925 53.8781 37.9706 53.7224 38.4712 53.7206L43.0537 53.6999C45.5381 53.6887 47.7281 52.0968 48.5025 49.7381L49.9369 45.3843C50.0925 44.9081 50.3887 44.5012 50.7956 44.2049L54.4894 41.5031C56.4975 40.0368 57.3375 37.4568 56.5725 35.0868L55.1756 30.7312ZM51.9637 31.7643L53.3644 36.1199C53.6794 37.1024 53.3325 38.1712 52.5 38.7787L48.8081 41.4787C47.8294 42.1931 47.1112 43.1793 46.7344 44.3306L45.3 48.6824C44.9794 49.6593 44.0719 50.3193 43.0425 50.3231L38.46 50.3437C37.2506 50.3493 36.0937 50.7243 35.1169 51.4293L31.395 54.1106C30.5644 54.7106 29.4394 54.7106 28.6087 54.1106L24.8869 51.4293C23.91 50.7243 22.7512 50.3493 21.5437 50.3437L16.9594 50.3231C15.93 50.3193 15.0225 49.6593 14.7019 48.6824L13.2712 44.3324C12.8925 43.1793 12.1744 42.1912 11.1975 41.4806L7.49998 38.7806C6.66748 38.1731 6.32061 37.1043 6.63561 36.1218L8.03623 31.7681C8.40748 30.6131 8.40748 29.3887 8.03623 28.2356L6.63561 23.8799C6.32061 22.8956 6.66748 21.8287 7.49998 21.2193L11.1919 18.5193C12.1706 17.8049 12.8887 16.8187 13.2656 15.6656L14.7 11.3137C15.0206 10.3368 15.9281 9.67682 16.9575 9.67307L21.54 9.65244C22.7494 9.64682 23.9062 9.27182 24.8831 8.56682L28.605 5.88557C29.0212 5.58557 29.5087 5.43557 29.9981 5.43557C30.4875 5.43557 30.975 5.58557 31.3912 5.88557L35.1131 8.56682C36.09 9.27182 37.2487 9.64682 38.4562 9.65244L43.0406 9.67307C44.07 9.67682 44.9775 10.3368 45.2981 11.3137L46.7287 15.6637C47.1075 16.8168 47.8256 17.8049 48.8025 18.5156L52.5 21.2193C53.3325 21.8268 53.6794 22.8956 53.3644 23.8781L51.9637 28.2318C51.5925 29.3887 51.5925 30.6112 51.9637 31.7643Z" fill="#E69AB1"/>
<path d="M39.2287 25.8544H34.0312V17.3044C34.0312 16.4925 33.5156 15.7781 32.745 15.5212C31.98 15.2625 31.1344 15.525 30.6525 16.1662L19.2712 31.1325C18.84 31.7062 18.7687 32.4619 19.0894 33.105C19.41 33.7481 20.055 34.1475 20.7712 34.1475H25.9687V42.6994C25.9687 43.5112 26.4844 44.2256 27.255 44.4825C27.45 44.5481 27.6525 44.5819 27.8512 44.5819C28.4287 44.5819 28.9856 44.3137 29.3494 43.8356L40.7287 28.8731C41.16 28.2994 41.2312 27.5437 40.9106 26.9006C40.59 26.2575 39.9469 25.8544 39.2287 25.8544ZM29.3456 38.2612V32.6512C29.3456 31.6125 28.5019 30.7687 27.465 30.7687H23.7844L30.6525 21.7387V27.3487C30.6525 28.3875 31.4962 29.2312 32.5331 29.2312H36.2137L29.3456 38.2612Z" fill="#E69AB1"/>
</svg>
