<svg width="34" height="28" viewBox="0 0 34 28" fill="none" xmlns="http://www.w3.org/2000/svg">
<path d="M30.3333 9.9939V26.5001C30.3333 26.9603 29.9602 27.3334 29.5 27.3334H4.50001C4.03977 27.3334 3.66667 26.9603 3.66667 26.5001V9.9939L0.392944 1.80957C0.173989 1.26219 0.577121 0.666748 1.16667 0.666748H17.8333C18.1741 0.666748 18.4805 0.874207 18.6071 1.19059L21.1667 7.5896L23.7263 1.19059C23.8528 0.874207 24.1593 0.666748 24.5 0.666748H32.8333C33.4229 0.666748 33.826 1.26219 33.6071 1.80957L30.3333 9.9939ZM22 10.6667V25.6667H28.6667V10.6667H22ZM20.3333 10.6667H5.33334V25.6667H20.3333V10.6667ZM5.0642 9.00008H19.9358L17.2691 2.33341H2.39754L5.0642 9.00008ZM28.9358 9.00008L31.6025 2.33341H25.0642L22.3975 9.00008H28.9358ZM18.6667 19.8334V23.1667C18.6667 23.627 18.2936 24.0001 17.8333 24.0001H12.8333C12.3731 24.0001 12 23.627 12 23.1667V19.8334C12 19.3732 12.3731 19.0001 12.8333 19.0001H17.8333C18.2936 19.0001 18.6667 19.3732 18.6667 19.8334ZM17 20.6667H13.6667V22.3334H17V20.6667Z" fill="#797979"/>
</svg>
