<svg width="28" height="28" viewBox="0 0 28 28" fill="none" xmlns="http://www.w3.org/2000/svg">
<path d="M26.5878 14.3656C26.5109 14.1265 26.5109 13.8743 26.5878 13.6343L27.2881 11.4565C27.6697 10.2715 27.2506 8.98247 26.2466 8.24841L24.3987 6.89653C24.1962 6.74935 24.0481 6.54591 23.9703 6.30685L23.2541 4.12997C22.8659 2.9506 21.77 2.1556 20.5297 2.14997L18.2375 2.13872C17.9862 2.13778 17.7481 2.05997 17.5456 1.91466L15.6847 0.574033C14.6778 -0.150654 13.3241 -0.150654 12.3172 0.574033L10.4562 1.91466C10.2537 2.05997 10.0147 2.13778 9.76437 2.13872L7.47124 2.1481C6.22905 2.15372 5.13405 2.9506 4.74687 4.12997L4.02968 6.30685C3.95187 6.54497 3.80374 6.74841 3.6003 6.89653L1.75343 8.24747C0.749367 8.9806 0.329367 10.2706 0.711867 11.4556L1.41218 13.6343C1.48905 13.8734 1.48905 14.1256 1.41218 14.3656L0.711867 16.5434C0.330304 17.7284 0.749367 19.0175 1.75343 19.7515L3.60124 21.1034C3.80374 21.2506 3.95187 21.454 4.02968 21.6931L4.74593 23.87C5.13405 25.0493 6.22999 25.8443 7.4703 25.85L9.76249 25.8603C10.0137 25.8612 10.2519 25.939 10.4544 26.0843L12.3153 27.425C12.8187 27.7878 13.4094 27.9687 13.9991 27.9687C14.5887 27.9687 15.1794 27.7878 15.6828 27.425L17.5437 26.0843C17.7462 25.939 17.9853 25.8612 18.2356 25.8603L20.5269 25.85C21.7691 25.8443 22.8641 25.0484 23.2512 23.869L23.9684 21.6922C24.0462 21.454 24.1944 21.2506 24.3978 21.1025L26.2447 19.7515C27.2487 19.0184 27.6687 17.7284 27.2862 16.5434L26.5878 14.3656ZM24.9819 14.8822L25.6822 17.06C25.8397 17.5512 25.6662 18.0856 25.25 18.3893L23.4041 19.7393C22.9147 20.0965 22.5556 20.5897 22.3672 21.1653L21.65 23.3412C21.4897 23.8297 21.0359 24.1597 20.5212 24.1615L18.23 24.1718C17.6253 24.1747 17.0469 24.3622 16.5584 24.7147L14.6975 26.0553C14.2822 26.3553 13.7197 26.3553 13.3044 26.0553L11.4434 24.7147C10.955 24.3622 10.3756 24.1747 9.77187 24.1718L7.47968 24.1615C6.96499 24.1597 6.51124 23.8297 6.35093 23.3412L5.63562 21.1662C5.44624 20.5897 5.08718 20.0956 4.59874 19.7403L2.74999 18.3903C2.33374 18.0865 2.1603 17.5522 2.3178 17.0609L3.01812 14.884C3.20374 14.3065 3.20374 13.6943 3.01812 13.1178L2.3178 10.94C2.1603 10.4478 2.33374 9.91435 2.74999 9.60966L4.59593 8.25966C5.0853 7.90247 5.44437 7.40935 5.6328 6.83278L6.34999 4.65685C6.5103 4.16841 6.96405 3.83841 7.47874 3.83653L9.76999 3.82622C10.3747 3.82341 10.9531 3.63591 11.4416 3.28341L13.3025 1.94278C13.5106 1.79278 13.7544 1.71778 13.9991 1.71778C14.2437 1.71778 14.4875 1.79278 14.6956 1.94278L16.5566 3.28341C17.045 3.63591 17.6244 3.82341 18.2281 3.82622L20.5203 3.83653C21.035 3.83841 21.4887 4.16841 21.6491 4.65685L22.3644 6.83185C22.5537 7.40841 22.9128 7.90247 23.4012 8.25778L25.25 9.60966C25.6662 9.91341 25.8397 10.4478 25.6822 10.939L24.9819 13.1159C24.7962 13.6943 24.7962 14.3056 24.9819 14.8822Z" fill="#E69AB1"/>
<path d="M18.6144 11.9271H16.0156V7.65206C16.0156 7.24612 15.7578 6.88893 15.3725 6.7605C14.99 6.63112 14.5672 6.76237 14.3262 7.083L8.63562 14.5661C8.42 14.853 8.38437 15.2308 8.54468 15.5524C8.705 15.8739 9.0275 16.0736 9.38562 16.0736H11.9844V20.3496C11.9844 20.7555 12.2422 21.1127 12.6275 21.2411C12.725 21.2739 12.8262 21.2908 12.9256 21.2908C13.2144 21.2908 13.4928 21.1567 13.6747 20.9177L19.3644 13.4364C19.58 13.1496 19.6156 12.7717 19.4553 12.4502C19.295 12.1286 18.9734 11.9271 18.6144 11.9271ZM13.6728 18.1305V15.3255C13.6728 14.8061 13.2509 14.3842 12.7325 14.3842H10.8922L14.3262 9.86925V12.6742C14.3262 13.1936 14.7481 13.6155 15.2666 13.6155H17.1069L13.6728 18.1305Z" fill="#E69AB1"/>
</svg>
