<svg width="16" height="16" viewBox="0 0 16 16" fill="none" xmlns="http://www.w3.org/2000/svg">
<path d="M15.0166 5.08337V1.33337C15.0166 1.24445 14.9829 1.15553 14.9156 1.08738C14.9151 1.08688 14.9146 1.08638 14.9141 1.08589C14.9136 1.08539 14.9131 1.0849 14.9126 1.08441C14.8794 1.05158 14.8412 1.02676 14.8006 1.00993C14.7593 0.992819 14.714 0.983374 14.6666 0.983374H10.9166C10.7233 0.983374 10.5666 1.14007 10.5666 1.33337C10.5666 1.52667 10.7233 1.68337 10.9166 1.68337H13.8216L9.4191 6.08589C9.28241 6.22257 9.28241 6.44418 9.4191 6.58086C9.55578 6.71755 9.77739 6.71755 9.91407 6.58086L14.3166 2.17835V5.08337C14.3166 5.27667 14.4733 5.43337 14.6666 5.43337C14.8599 5.43337 15.0166 5.27667 15.0166 5.08337ZM6.58074 6.08589L2.17823 1.68337H5.08325C5.27655 1.68337 5.43325 1.52667 5.43325 1.33337C5.43325 1.14007 5.27655 0.983374 5.08325 0.983374H1.33325C1.24368 0.983374 1.15411 1.01754 1.08576 1.08589C1.05221 1.11944 1.02689 1.15812 1.00981 1.1994C0.992697 1.24067 0.983252 1.28592 0.983252 1.33337V5.08337C0.983252 5.27667 1.13995 5.43337 1.33325 5.43337C1.52655 5.43337 1.68325 5.27667 1.68325 5.08337V2.17835L6.08576 6.58086C6.22245 6.71755 6.44406 6.71755 6.58074 6.58086C6.71742 6.44418 6.71742 6.22257 6.58074 6.08589ZM10.9166 15.0167H14.6666C14.7542 15.0167 14.8417 14.984 14.9095 14.9187C14.9126 14.9157 14.9156 14.9127 14.9186 14.9096C14.9499 14.8771 14.9737 14.8401 14.99 14.8007C15.0071 14.7594 15.0166 14.7142 15.0166 14.6667V10.9167C15.0166 10.7234 14.8599 10.5667 14.6666 10.5667C14.4733 10.5667 14.3166 10.7234 14.3166 10.9167V13.8217L9.91407 9.41922C9.77739 9.28254 9.55578 9.28254 9.4191 9.41922C9.28241 9.5559 9.28241 9.77751 9.4191 9.91419L13.8216 14.3167H10.9166C10.7233 14.3167 10.5666 14.4734 10.5666 14.6667C10.5666 14.86 10.7233 15.0167 10.9166 15.0167ZM14.9141 14.4192L14.9136 14.4188L14.9186 14.4238C14.9171 14.4223 14.9156 14.4207 14.9141 14.4192ZM0.983252 10.9167V14.6667C0.983252 14.7556 1.01693 14.8446 1.08428 14.9127C1.08478 14.9132 1.08527 14.9137 1.08576 14.9142C1.08626 14.9147 1.08676 14.9152 1.08725 14.9157C1.12046 14.9485 1.15861 14.9733 1.19928 14.9901C1.24055 15.0073 1.2858 15.0167 1.33325 15.0167H5.08325C5.27655 15.0167 5.43325 14.86 5.43325 14.6667C5.43325 14.4734 5.27655 14.3167 5.08325 14.3167H2.17823L6.58074 9.91419C6.71742 9.77751 6.71742 9.5559 6.58074 9.41922C6.44406 9.28254 6.22245 9.28254 6.08576 9.41922L1.68325 13.8217V10.9167C1.68325 10.7234 1.52655 10.5667 1.33325 10.5667C1.13995 10.5667 0.983252 10.7234 0.983252 10.9167Z" stroke="white" stroke-width="0.7" stroke-linecap="round" stroke-linejoin="round"/>
</svg>
