<svg width="27" height="23" viewBox="0 0 27 23" fill="none" xmlns="http://www.w3.org/2000/svg">
<path d="M4.79044 1.50508C5.54492 1.17241 6.35658 1 7.17836 1C8.00015 1 8.81179 1.1724 9.56627 1.50508C10.3205 1.83763 11.0009 2.32288 11.5707 2.92954L11.5708 2.92956C12.3681 3.77833 13.7349 3.77834 14.5323 2.92957C15.684 1.70355 17.2621 1.00001 18.9247 1.00001C20.5872 1.00001 22.1654 1.70355 23.3171 2.92957L24.046 2.24488L23.3171 2.92957C24.4667 4.15325 25.103 5.80076 25.103 7.50756C25.103 9.21443 24.4667 10.8619 23.3172 12.0855L23.3171 12.0855L15.2275 20.6968L15.2275 20.6968C14.0679 21.9312 12.0351 21.9312 10.8755 20.6968L10.8755 20.6968L2.78593 12.0855L2.78588 12.0855C2.21611 11.479 1.76716 10.7623 1.46184 9.9777C1.15653 9.19308 1 8.35387 1 7.50756C1 6.66127 1.15653 5.82209 1.46185 5.03747L1.46185 5.03746C1.76716 4.25284 2.21611 3.53612 2.78592 2.92958L2.78593 2.92956C3.35586 2.32288 4.03627 1.83762 4.79044 1.50508ZM4.79044 1.50508L4.38699 0.590075L4.79044 1.50508Z" stroke="#E69AB1" stroke-width="2"/>
</svg>
