<svg width="34" height="42" viewBox="0 0 34 42" fill="none" xmlns="http://www.w3.org/2000/svg">
<path d="M1.27382 21.7467C0.637571 21.8085 0.0706781 21.349 0.0081288 20.7204C-0.0544205 20.0918 0.410641 19.5317 1.04689 19.4699C8.11759 18.7665 8.87302 18.1769 11.1233 16.4211C11.7615 15.923 12.5072 15.3408 13.4797 14.6643C12.3075 13.388 11.4487 12.0817 11.2323 10.7989C11.1364 10.8406 11.0352 10.8774 10.9281 10.9084C9.55403 11.3072 7.98855 11.544 6.41867 11.7812C4.64776 12.0488 2.86937 12.3177 1.55496 12.7895C0.95383 13.0048 0.289494 12.6976 0.071559 12.1036C-0.146376 11.5097 0.164612 10.8533 0.765744 10.638C2.31631 10.0814 4.19915 9.79691 6.0741 9.5135C7.57945 9.28604 9.0802 9.059 10.275 8.71228C10.4047 8.67476 10.6373 8.3959 10.861 8.12789C11.4799 7.38565 12.0714 6.67724 13.2161 6.84399C13.4764 6.80821 13.7769 6.83531 14.1309 7.14539L14.1355 7.14996C14.6357 7.59101 14.8288 8.21854 13.9571 9.18781C12.7043 10.5808 14.6052 12.7572 16.9779 14.8399C18.0078 15.7439 19.1199 16.6174 20.1479 17.4249C20.897 18.0136 21.6028 18.5676 22.2373 19.1039C22.2785 19.1396 22.318 19.1782 22.3554 19.2203C22.514 19.3998 22.6815 19.5631 22.8309 19.7091C23.9513 20.8026 24.4761 21.3154 23.3772 24.1408C23.3496 24.2533 23.3256 24.3648 23.3061 24.4741C23.2284 24.9045 23.2262 25.2068 23.2951 25.3783C23.2986 25.3872 23.3076 25.3944 23.321 25.3996L23.3643 25.4119L24.9291 25.6168C24.9732 25.6194 25.0175 25.6244 25.0619 25.632L25.498 25.7021C26.118 25.7959 26.4467 25.8463 26.8615 26.1943C27.2594 26.528 27.4148 26.9001 27.7431 27.6887L27.8443 27.9312C27.9655 28.2202 28.2411 28.4438 28.5561 28.6105C29.1339 28.9165 29.7744 29.024 30.0911 29.0307C30.1538 29.0258 30.2179 29.0255 30.2829 29.0307L30.3498 29.0392L29.9045 28.7532C29.8165 28.7059 29.7331 28.6469 29.6571 28.5754C29.227 28.1716 28.9151 27.5441 28.5016 26.7112C27.9892 25.6786 27.2866 24.264 26.087 22.8092C25.4301 22.191 24.6813 21.1291 23.9761 19.9656C23.0539 18.4438 22.1811 16.7145 21.7134 15.6325L15.3013 2.78628C15.1315 2.52412 14.9017 2.35737 14.6065 2.3088C14.2005 2.24202 13.6551 2.3359 12.9543 2.61888C12.9176 2.63709 12.8799 2.65379 12.8406 2.66853L1.57318 6.9407C0.974462 7.16578 0.303978 6.86893 0.076167 6.27739C-0.151644 5.68585 0.148809 5.02341 0.747526 4.79833L12.0661 0.508392C13.1951 0.0510784 14.1647 -0.0855386 14.9875 0.049769C16.021 0.219771 16.7856 0.779006 17.3128 1.65092L17.3573 1.7318L23.8331 14.7077C24.2681 15.7186 25.0917 17.3535 25.9632 18.7912C26.585 19.8168 27.2164 20.7234 27.7098 21.1734C27.7682 21.2263 27.8195 21.2837 27.8643 21.3449C29.2364 23.0024 30.0131 24.5669 30.5792 25.7072C30.8557 26.2641 31.0705 26.6969 31.2117 26.8708C32.6611 27.8054 33.7266 28.6537 33.9272 29.4228C34.2985 30.8485 33.2835 31.5814 30.0948 31.3169C29.5266 31.3052 28.4152 31.1291 27.4675 30.6275C26.7303 30.2372 26.0607 29.6533 25.7032 28.8007L25.602 28.5582C25.4209 28.1235 25.3928 27.9663 25.3643 27.9424C25.278 27.8702 25.3476 27.999 25.1534 27.9698C25.0127 27.9485 24.8496 27.9236 24.6629 27.891L23.0177 27.6735L22.7673 27.6269L22.7039 27.6092C22.2333 27.4795 21.8508 27.2462 21.5602 26.912C21.6857 28.292 21.7549 29.6765 21.727 31.03C22.1319 31.9431 22.4313 33.1565 22.7339 34.383C23.1538 36.0839 23.5813 37.8153 24.0299 38.1232C24.4581 38.3338 24.847 38.6029 25.1207 38.9056L25.1982 38.9917C25.4516 39.3044 25.6 39.6591 25.6064 40.0501V40.0546C25.6127 40.4957 25.4486 40.9042 25.0685 41.2531C24.7904 41.5085 24.38 41.7273 23.8085 41.8858C23.7409 41.9067 23.6702 41.9218 23.5973 41.9303C22.2634 42.0901 21.3824 41.9702 20.6362 41.6217C19.9212 41.2876 19.4561 40.8084 18.8726 40.1856C18.7018 40.0301 18.5765 39.8228 18.5247 39.5815C18.4385 39.1792 18.3024 38.8215 18.0757 38.5077C17.8426 38.185 17.4912 37.8784 16.9724 37.579C16.9636 37.574 16.8736 37.5621 16.7577 37.5386C16.1757 37.4198 15.5177 37.2856 14.9982 36.6177C14.8845 36.495 14.784 36.3658 14.698 36.2307C14.3253 35.6461 14.2196 34.9923 14.4199 34.2871C14.5808 33.7208 14.9497 33.1405 15.5515 32.5646C15.8046 32.3224 16.1031 32.0762 16.4489 31.828C16.0475 29.9272 15.3566 28.4316 14.6905 26.989C13.5247 24.4633 12.4254 22.0819 12.7469 18.0656L12.5568 18.2139C9.90628 20.2819 9.01676 20.9763 1.27382 21.7467ZM15.4049 16.5252L15.0869 17.9052C14.7232 21.5494 15.7275 23.726 16.7953 26.0388C17.6064 27.7956 18.4514 29.6249 18.868 32.1775C18.9428 32.6433 18.7214 33.0882 18.3417 33.3248C17.8433 33.6351 17.4543 33.9296 17.1664 34.2052C16.8708 34.4882 16.7042 34.7215 16.652 34.9056C16.6392 34.9505 16.6418 34.9867 16.6579 35.0116C16.6717 35.0335 16.6921 35.058 16.7171 35.0836C16.7591 35.1261 16.797 35.1712 16.8308 35.218L17.2204 35.2978C17.543 35.3633 17.8421 35.4245 18.1426 35.5979C18.9544 36.0665 19.5371 36.5917 19.9627 37.1811C20.3285 37.6874 20.5636 38.221 20.717 38.7918C21.0532 39.1459 21.3333 39.4145 21.6252 39.5509C21.8161 39.64 22.0538 39.6934 22.374 39.7059C21.4226 38.7228 20.9496 36.807 20.4839 34.9207C20.1832 33.7021 19.8859 32.4971 19.5246 31.7781C19.43 31.5888 19.3934 31.3863 19.4078 31.1898C19.5055 27.7455 18.9053 23.9725 18.375 20.6399C18.2637 19.9408 18.1551 19.2593 18.0724 18.72C17.1951 18.0281 16.2848 17.2974 15.4354 16.5521L15.4049 16.5252ZM20.7556 20.8837C20.8902 21.7315 21.026 22.6036 21.152 23.4905C21.1682 23.4359 21.1882 23.3832 21.2117 23.3329C21.7716 21.8922 21.5907 21.715 21.2069 21.3405C21.0704 21.2074 20.9213 21.0617 20.7556 20.8837ZM31.6864 29.9874C31.6761 29.9482 31.533 29.8344 31.29 29.6644C31.5949 29.9972 31.7625 30.2802 31.6864 29.9874Z" fill="#E69AB1"/>
</svg>
