<svg width="18" height="23" viewBox="0 0 18 23" fill="none" xmlns="http://www.w3.org/2000/svg">
<g id="1">
<path id="Vector" d="M9.00037 18.8112C8.85408 18.8112 8.71021 18.7737 8.58254 18.7023C6.54256 17.561 4.8435 15.8967 3.66017 13.8808C2.47684 11.8649 1.85197 9.57015 1.84985 7.23261C1.84985 7.1376 1.85099 7.04259 1.85327 6.94759C1.89888 4.80996 2.6975 3.00808 4.16306 1.73747C5.45419 0.616778 7.17227 0 9.00037 0C10.8285 0 12.546 0.616778 13.8388 1.7369C15.3044 3.00751 16.103 4.80939 16.1486 6.94702C16.1509 7.04202 16.152 7.13703 16.152 7.23204C16.1498 9.56985 15.5248 11.8649 14.3411 13.8809C13.1575 15.8969 11.458 17.5611 9.41764 18.7023C9.29014 18.7736 9.14648 18.8111 9.00037 18.8112ZM9.00037 1.71011C7.58384 1.71011 6.26421 2.1781 5.28318 3.0286C4.1927 3.97429 3.59758 5.3418 3.56281 6.9835C3.56281 7.06616 3.56281 7.14938 3.56281 7.23261C3.56462 9.18408 4.06543 11.1027 5.01764 12.8061C5.96986 14.5095 7.34185 15.9411 9.00323 16.9648C10.6645 15.941 12.0364 14.5094 12.9886 12.806C13.9407 11.1026 14.4414 9.18404 14.4431 7.23261C14.4431 7.14938 14.4431 7.06616 14.4402 6.9835C14.4054 5.3418 13.8103 3.97429 12.7199 3.0286C11.7365 2.1781 10.4186 1.71011 9.00037 1.71011Z" fill="#E69AB1"/>
<path id="Vector_2" d="M9.01792 11.3664C8.2047 11.3664 7.40976 11.1253 6.7336 10.6735C6.05744 10.2217 5.53044 9.57951 5.21923 8.8282C4.90803 8.07689 4.82661 7.25017 4.98526 6.45259C5.14391 5.655 5.5355 4.92237 6.11053 4.34735C6.68556 3.77232 7.41819 3.38072 8.21577 3.22207C9.01335 3.06342 9.84007 3.14485 10.5914 3.45605C11.3427 3.76725 11.9848 4.29425 12.4366 4.97041C12.8884 5.64657 13.1296 6.44152 13.1296 7.25473C13.1284 8.34484 12.6948 9.38996 11.924 10.1608C11.1531 10.9316 10.108 11.3652 9.01792 11.3664ZM9.01792 4.85374C8.54291 4.85374 8.07857 4.99461 7.68362 5.25852C7.28868 5.52243 6.98086 5.89754 6.79911 6.3364C6.61736 6.77526 6.56983 7.25816 6.66254 7.72403C6.75526 8.18991 6.98404 8.61782 7.31996 8.95366C7.65588 9.2895 8.08385 9.51818 8.54974 9.61078C9.01564 9.70338 9.49853 9.65575 9.93735 9.47389C10.3762 9.29203 10.7512 8.98413 11.015 8.58912C11.2788 8.19411 11.4196 7.72974 11.4195 7.25473C11.4187 6.61808 11.1654 6.00773 10.7152 5.55761C10.265 5.10748 9.65456 4.85435 9.01792 4.85374Z" fill="#E69AB1"/>
<path id="Vector_3" d="M9.00028 22.9155C6.69335 22.9155 4.51126 22.456 2.85588 21.6221C1.01295 20.6923 0 19.3921 0 17.9562C0 16.0517 1.78136 14.4071 4.76549 13.5578C4.98204 13.5011 5.21219 13.5316 5.40651 13.6427C5.60084 13.7538 5.74384 13.9367 5.80482 14.152C5.86579 14.3674 5.83987 14.5981 5.73262 14.7946C5.62537 14.9911 5.44535 15.1377 5.23121 15.2029C3.09073 15.8123 1.70783 16.8931 1.70783 17.9562C1.70783 19.4953 4.70165 21.2054 8.998 21.2054C13.2944 21.2054 16.2899 19.4953 16.2899 17.9562C16.2899 16.8931 14.907 15.8123 12.7665 15.2029C12.6585 15.1722 12.5576 15.1205 12.4695 15.0507C12.3815 14.981 12.3081 14.8946 12.2534 14.7965C12.143 14.5984 12.1159 14.3645 12.1779 14.1463C12.24 13.9282 12.3862 13.7436 12.5843 13.6332C12.7825 13.5229 13.0163 13.4957 13.2345 13.5578C16.2186 14.4071 18 16.0517 18 17.9562C18 19.3921 16.9859 20.6923 15.1441 21.6221C13.4887 22.456 11.3066 22.9155 9.00028 22.9155Z" fill="#E69AB1"/>
</g>
</svg>
