<svg width="30" height="24" viewBox="0 0 30 24" fill="none" xmlns="http://www.w3.org/2000/svg">
<path d="M0 19.4999C0 20.1576 0.184992 20.7673 0.481339 21.3037L9.95357 10.7056L0.584034 2.5081C0.219553 3.08651 0 3.76595 0 4.50016V19.4999ZM15 12.6299L1.96257 1.2225C2.49757 0.929612 3.10003 0.75 3.74992 0.75H26.25C26.9007 0.75 27.5034 0.929612 28.0362 1.2225L15 12.6299ZM11.3652 11.9398L14.383 14.582C14.5596 14.7357 14.7794 14.8125 15 14.8125C15.2207 14.8125 15.4405 14.7357 15.617 14.582L18.6355 11.9396L28.2276 22.6732C27.6526 23.0339 26.9788 23.25 26.2501 23.25H3.74992C3.02133 23.25 2.34721 23.0339 1.77245 22.6732L11.3652 11.9398ZM29.4158 2.50804C29.7803 3.08645 30 3.76588 30 4.50016V19.4999C30 20.1576 29.8159 20.7673 29.5184 21.3037L20.0473 10.7038L29.4158 2.50804Z" fill="#E69AB1"/>
</svg>
