<svg width="39" height="33" viewBox="0 0 39 33" fill="none" xmlns="http://www.w3.org/2000/svg">
<path d="M36.77 24.1427H33.5066V5.04437C33.5066 2.65612 31.563 0.713745 29.1747 0.713745H4.75152L4.74767 0.715027C4.74511 0.715027 4.74255 0.713745 4.73999 0.713745C2.35174 0.713745 0.408081 2.65612 0.408081 5.04437V7.02646C0.408081 8.02968 1.22424 8.84584 2.22746 8.84584H6.77461V27.9454C6.77461 29.169 7.29224 30.3426 8.19424 31.1639C8.98477 31.8827 10.02 32.2786 11.0873 32.285C11.0937 32.285 11.0988 32.2889 11.1065 32.2889H34.2485C36.6431 32.2889 38.5919 30.3401 38.5919 27.9454V25.9646C38.5906 24.9601 37.7745 24.1427 36.77 24.1427ZM2.71561 6.53959V5.04437C2.71561 3.9284 3.62402 3.02 4.75152 3.02C5.86749 3.02 6.77461 3.9284 6.77461 5.04437V6.53959H2.71561ZM9.08214 27.9454V7.69271C9.08214 6.17315 9.31789 4.41271 8.57861 3.02H29.1734C30.2894 3.02 31.1978 3.9284 31.1978 5.04437V24.1427H14.9516C13.9483 24.1427 13.1309 24.9601 13.1309 25.9646V27.784C13.1309 29.5111 11.1386 30.7219 9.74583 29.4573C9.3243 29.0729 9.08214 28.522 9.08214 27.9454ZM36.2844 27.9454C36.2844 29.0678 35.3708 29.9813 34.2485 29.9813H14.9323C15.4487 29.0101 15.5422 27.5239 15.4397 26.4502H32.3535H36.2844V27.9454Z" fill="#E69AB1"/>
</svg>
