<svg width="27" height="21" viewBox="0 0 27 21" fill="none" xmlns="http://www.w3.org/2000/svg">
<path fill-rule="evenodd" clip-rule="evenodd" d="M0.979362 0.979362C1.60644 0.352287 2.45693 0 3.34375 0H14.5938C15.4806 0 16.3311 0.352287 16.9581 0.979362C17.5852 1.60644 17.9375 2.45693 17.9375 3.34375V5.6875C17.9375 6.23978 17.4898 6.6875 16.9375 6.6875C16.3852 6.6875 15.9375 6.23978 15.9375 5.6875V3.34375C15.9375 2.98737 15.7959 2.64558 15.5439 2.39358C15.2919 2.14157 14.9501 2 14.5938 2H3.34375C2.98737 2 2.64558 2.14157 2.39358 2.39358C2.14157 2.64558 2 2.98737 2 3.34375V17.4062C2 17.7626 2.14157 18.1044 2.39358 18.3564C2.64558 18.6084 2.98737 18.75 3.34375 18.75H14.5938C14.9501 18.75 15.2919 18.6084 15.5439 18.3564C15.7959 18.1044 15.9375 17.7626 15.9375 17.4062V15.0625C15.9375 14.5102 16.3852 14.0625 16.9375 14.0625C17.4898 14.0625 17.9375 14.5102 17.9375 15.0625V17.4062C17.9375 18.2931 17.5852 19.1436 16.9581 19.7706C16.3311 20.3977 15.4806 20.75 14.5938 20.75H3.34375C2.45693 20.75 1.60644 20.3977 0.979362 19.7706C0.352287 19.1436 0 18.2931 0 17.4062V3.34375C0 2.45693 0.352287 1.60644 0.979362 0.979362Z" fill="white"/>
<path fill-rule="evenodd" clip-rule="evenodd" d="M19.9804 4.98039C20.3709 4.58987 21.0041 4.58987 21.3946 4.98039L26.0821 9.66789C26.4726 10.0584 26.4726 10.6916 26.0821 11.0821L21.3946 15.7696C21.0041 16.1601 20.3709 16.1601 19.9804 15.7696C19.5899 15.3791 19.5899 14.7459 19.9804 14.3554L23.9608 10.375L19.9804 6.39461C19.5899 6.00408 19.5899 5.37092 19.9804 4.98039Z" fill="white"/>
<path fill-rule="evenodd" clip-rule="evenodd" d="M8.37891 10.375C8.37891 9.82272 8.82662 9.375 9.37891 9.375H25.375C25.9273 9.375 26.375 9.82272 26.375 10.375C26.375 10.9273 25.9273 11.375 25.375 11.375H9.37891C8.82662 11.375 8.37891 10.9273 8.37891 10.375Z" fill="white"/>
</svg>
