<svg width="25" height="25" viewBox="0 0 25 25" fill="none" xmlns="http://www.w3.org/2000/svg">
<path d="M17.3305 6.2198V0.755034C17.3305 0.338087 16.9924 0 16.5755 0C16.1586 0 15.8205 0.338087 15.8205 0.755034V1.5906L8.93121 6.06292H2.43289C1.09144 6.06292 0 7.1552 0 8.4958V12.7215C0 14.0629 1.09144 15.1544 2.43289 15.1544H2.49664V22.4304C2.49664 23.3096 3.21141 24.0243 4.0906 24.0243H5.81795C6.69715 24.0243 7.41191 23.3087 7.41191 22.4304V15.1544H8.93037L15.8196 19.6267V20.4622C15.8196 20.8792 16.1577 21.2173 16.5747 21.2173C16.9916 21.2173 17.3297 20.8792 17.3297 20.4622V14.9975C19.4312 14.6359 21.0403 12.8112 21.0403 10.6082C21.0403 8.4052 19.432 6.58138 17.3305 6.2198ZM5.90185 22.4312C5.90185 22.4773 5.86409 22.5151 5.81795 22.5151H4.0906C4.04446 22.5151 4.00671 22.4773 4.00671 22.4312V15.1552H5.90185V22.4312ZM8.39849 13.6443H2.43289C1.9245 13.6443 1.51007 13.2307 1.51007 12.7215V8.4958C1.51007 7.98741 1.9245 7.57299 2.43289 7.57299H8.39849V13.6443ZM9.90856 13.9899V7.22903L15.8196 3.39178V17.828L9.90856 13.9899ZM17.3305 13.4539V7.76426C18.5931 8.10067 19.5302 9.24245 19.5302 10.6091C19.5302 11.9757 18.5931 13.1183 17.3305 13.4539ZM24.245 9.85403H22.9547C22.5378 9.85403 22.1997 10.1921 22.1997 10.6091C22.1997 11.026 22.5378 11.3641 22.9547 11.3641H24.245C24.6619 11.3641 25 11.026 25 10.6091C25 10.1921 24.6619 9.85403 24.245 9.85403ZM21.8372 7.9505C22.0302 7.9505 22.224 7.87668 22.3716 7.72903L23.2844 6.81627C23.5797 6.52097 23.5797 6.04278 23.2844 5.74832C22.9891 5.45386 22.5109 5.45302 22.2164 5.74832L21.3037 6.66107C21.0084 6.95638 21.0084 7.43456 21.3037 7.72903C21.4505 7.87668 21.6435 7.9505 21.8372 7.9505ZM22.3708 13.4899C22.0755 13.1946 21.5982 13.1938 21.3037 13.4908C21.0084 13.7861 21.0092 14.2634 21.3045 14.5579L22.2173 15.4698C22.3649 15.6174 22.557 15.6913 22.7508 15.6913C22.9446 15.6913 23.1376 15.6174 23.2852 15.469C23.5805 15.1737 23.5797 14.6963 23.2844 14.4018L22.3708 13.4899Z" fill="#AFAFAF"/>
</svg>
