<svg width="15" height="26" viewBox="0 0 15 26" fill="none" xmlns="http://www.w3.org/2000/svg">
<path d="M7.29755 6.51801C6.59512 6.51801 5.9317 6.60111 5.30731 6.76732C4.68292 6.93352 3.99024 7.2013 3.22927 7.57064L2 4.44044C2.76098 3.97877 3.65853 3.62789 4.69268 3.38781C5.72682 3.12927 6.74146 3 7.73658 3C8.98535 3 10.0097 3.15697 10.8098 3.47091C11.6293 3.78486 12.2732 4.1819 12.7415 4.66205C13.2098 5.1422 13.5317 5.66852 13.7073 6.241C13.9024 6.81349 14 7.35827 14 7.87535C14 8.39244 13.9122 8.87258 13.7366 9.3158C13.5804 9.74055 13.3756 10.1376 13.122 10.5069C12.8683 10.8763 12.5756 11.2271 12.2439 11.5595C11.9121 11.8919 11.5902 12.2059 11.2781 12.5014C11.0439 12.723 10.7999 12.9631 10.5463 13.2216C10.2927 13.4617 10.0585 13.7202 9.84389 13.9972C9.64877 14.2742 9.48291 14.5697 9.34633 14.8836C9.20974 15.1791 9.14145 15.4839 9.14145 15.7978C9.14145 15.8717 9.14145 15.9825 9.14145 16.1302C9.14145 16.278 9.15121 16.4072 9.17072 16.518H5.30731C5.26828 16.3334 5.23902 16.1302 5.21951 15.9086C5.21951 15.6686 5.21951 15.4654 5.21951 15.2992C5.21951 14.7821 5.2878 14.3204 5.42439 13.9141C5.56097 13.4894 5.73658 13.1016 5.95122 12.7507C6.18536 12.3814 6.44878 12.0397 6.74146 11.7257C7.03414 11.4118 7.33658 11.1071 7.64877 10.8116C8.09755 10.3869 8.50731 9.97139 8.87804 9.56511C9.24877 9.14036 9.43414 8.66022 9.43414 8.12466C9.43414 7.68145 9.24877 7.30287 8.87804 6.98892C8.52682 6.67498 7.99999 6.51801 7.29755 6.51801ZM10.0195 20.4515C10.0195 21.2641 9.73657 21.892 9.17072 22.3352C8.62438 22.7784 7.99999 23 7.29755 23C6.59512 23 5.96097 22.7784 5.39512 22.3352C4.84878 21.892 4.57561 21.2641 4.57561 20.4515C4.57561 19.639 4.84878 19.0111 5.39512 18.5679C5.96097 18.1246 6.59512 17.903 7.29755 17.903C7.99999 17.903 8.62438 18.1246 9.17072 18.5679C9.73657 19.0111 10.0195 19.639 10.0195 20.4515Z" fill="#282828"/>
</svg>
