<svg width="65" height="84" viewBox="0 0 65 84" fill="none" xmlns="http://www.w3.org/2000/svg">
<path d="M58.4379 11.3424H44.0002C43.0807 5.50286 38.1607 1 32.1221 1C26.0835 1 21.0686 5.50286 20.2439 11.3424H6.0148C3.24667 11.3424 1 13.5986 1 16.3572V21.4763C1 24.0359 2.83911 26.0834 5.30384 26.3868V76.3452C5.30384 80.0329 8.27099 83 11.9586 83H52.5984C56.286 83 59.2532 80.0329 59.2532 76.3452V26.4817C61.7084 26.074 63.557 24.0265 63.557 21.5711V16.4521C63.4527 13.5986 61.1965 11.3424 58.4379 11.3424ZM32.1221 4.7919C36.1131 4.7919 39.3931 7.56004 40.104 11.3424H24.0358C24.8511 7.65478 28.1311 4.7919 32.1221 4.7919ZM55.3664 76.459C55.3664 77.9947 54.1341 79.3219 52.5035 79.3219H11.8544C10.3186 79.3219 8.99148 78.0896 8.99148 76.459V26.5954H55.2718V76.459H55.3664ZM59.6608 21.4763C59.6608 22.1968 59.1489 22.7087 58.4284 22.7087H6.00527C5.28479 22.7087 4.77285 22.1968 4.77285 21.4763V16.3572C4.77285 15.6367 5.28479 15.1248 6.00527 15.1248H58.3241C59.0446 15.1248 59.5564 15.6367 59.5564 16.3572V21.4763H59.6608Z" fill="#E69AB1" stroke="#E69AB1"/>
</svg>
