<svg width="25" height="26" viewBox="0 0 25 26" fill="none" xmlns="http://www.w3.org/2000/svg">
<path d="M21.4446 3.77005C18.7201 0.978463 14.9216 -0.367245 11.0169 0.0865504C5.46509 0.728484 0.996812 5.02865 0.14932 10.5465C-0.415093 14.2213 0.636214 17.8865 3.03759 20.6633L2.36517 24.8241C2.30507 25.1925 2.45662 25.5575 2.7606 25.7743C2.93132 25.8963 3.12904 25.9581 3.3285 25.9581C3.48528 25.9581 3.64207 25.9198 3.78665 25.8431L7.40918 23.9226C9.42121 24.8206 11.6519 25.1672 13.8921 24.9277C19.4787 24.3276 24.0977 19.8576 24.8746 14.2988C25.4199 10.3993 24.17 6.56163 21.4446 3.77005ZM23.3225 14.0828C22.6431 18.9395 18.6069 22.8451 13.724 23.3695C11.6449 23.5942 9.56841 23.238 7.72884 22.3434C7.50412 22.2346 7.23933 22.2389 7.01897 22.3556L4.10196 23.9017L4.64547 20.5448C4.68379 20.3079 4.61063 20.0666 4.44862 19.8898C2.19009 17.4327 1.18756 14.1141 1.69972 10.7843C2.44007 5.96325 6.34481 2.20484 11.1972 1.64479C11.6327 1.59427 12.0656 1.56988 12.4959 1.56988C15.4451 1.56988 18.2437 2.73529 20.3236 4.86578C22.7067 7.30721 23.7998 10.6667 23.3225 14.0828Z" fill="#AFAFAF"/>
<path d="M15.4234 9.11441H15.1221V8.88359C15.1221 7.43772 13.9453 6.26099 12.4994 6.26099C11.0536 6.26099 9.87684 7.43772 9.87684 8.88359V9.11441H9.57547C8.66614 9.11441 7.92578 9.85477 7.92578 10.7641V15.3561C7.92578 16.552 8.8987 17.5249 10.0946 17.5249H14.9026C16.0985 17.5249 17.0714 16.552 17.0714 15.3561V10.7641C17.0731 9.85477 16.3328 9.11441 15.4234 9.11441ZM11.4455 8.88359C11.4455 8.30263 11.9185 7.8288 12.5003 7.8288C13.0822 7.8288 13.5551 8.30176 13.5551 8.88359V9.11441H11.4455V8.88359ZM15.5053 15.3561C15.5053 15.687 15.2353 15.9571 14.9043 15.9571H10.0963C9.76448 15.9571 9.49534 15.687 9.49534 15.3561V10.7641C9.49534 10.7188 9.53192 10.6822 9.57721 10.6822H15.4243C15.4696 10.6822 15.5062 10.7188 15.5062 10.7641L15.5053 15.3561Z" fill="#AFAFAF"/>
</svg>
