<svg width="29" height="19" viewBox="0 0 29 19" fill="none" xmlns="http://www.w3.org/2000/svg">
<path fill-rule="evenodd" clip-rule="evenodd" d="M2.0415 0.75C2.0415 0.335786 2.37729 0 2.7915 0H18.9165C19.3307 0 19.6665 0.335786 19.6665 0.75V15.0833C19.6665 15.4975 19.3307 15.8333 18.9165 15.8333C18.5023 15.8333 18.1665 15.4975 18.1665 15.0833V1.5H3.5415V4.33333C3.5415 4.74755 3.20572 5.08333 2.7915 5.08333C2.37729 5.08333 2.0415 4.74755 2.0415 4.33333V0.75Z" fill="white"/>
<path fill-rule="evenodd" clip-rule="evenodd" d="M2.7915 10.75C3.20572 10.75 3.5415 11.0858 3.5415 11.5V14.3333H6.37484C6.78905 14.3333 7.12484 14.6691 7.12484 15.0833C7.12484 15.4975 6.78905 15.8333 6.37484 15.8333H2.7915C2.37729 15.8333 2.0415 15.4975 2.0415 15.0833V11.5C2.0415 11.0858 2.37729 10.75 2.7915 10.75Z" fill="white"/>
<path fill-rule="evenodd" clip-rule="evenodd" d="M18.1665 2.54163C18.1665 2.12741 18.5023 1.79163 18.9165 1.79163H24.2915C24.7057 1.79163 25.0415 2.12741 25.0415 2.54163V7.4531L28.2102 9.03747C28.4643 9.16452 28.6248 9.42421 28.6248 9.70829V15.0833C28.6248 15.4975 28.2891 15.8333 27.8748 15.8333H24.2915C23.8773 15.8333 23.5415 15.4975 23.5415 15.0833C23.5415 14.6691 23.8773 14.3333 24.2915 14.3333H27.1248V10.1718L23.9561 8.58745C23.702 8.4604 23.5415 8.20071 23.5415 7.91663V3.29163H18.9165C18.5023 3.29163 18.1665 2.95584 18.1665 2.54163Z" fill="white"/>
<path fill-rule="evenodd" clip-rule="evenodd" d="M9.0625 13.1459C7.99245 13.1459 7.125 14.0133 7.125 15.0834C7.125 16.1534 7.99245 17.0209 9.0625 17.0209C10.1326 17.0209 11 16.1534 11 15.0834C11 14.0133 10.1326 13.1459 9.0625 13.1459ZM5.625 15.0834C5.625 13.1849 7.16402 11.6459 9.0625 11.6459C10.961 11.6459 12.5 13.1849 12.5 15.0834C12.5 16.9819 10.961 18.5209 9.0625 18.5209C7.16402 18.5209 5.625 16.9819 5.625 15.0834Z" fill="white"/>
<path fill-rule="evenodd" clip-rule="evenodd" d="M21.604 13.1459C20.534 13.1459 19.6665 14.0133 19.6665 15.0834C19.6665 16.1534 20.534 17.0209 21.604 17.0209C22.6741 17.0209 23.5415 16.1534 23.5415 15.0834C23.5415 14.0133 22.6741 13.1459 21.604 13.1459ZM18.1665 15.0834C18.1665 13.1849 19.7055 11.6459 21.604 11.6459C23.5025 11.6459 25.0415 13.1849 25.0415 15.0834C25.0415 16.9819 23.5025 18.5209 21.604 18.5209C19.7055 18.5209 18.1665 16.9819 18.1665 15.0834Z" fill="white"/>
<path fill-rule="evenodd" clip-rule="evenodd" d="M11 15.0834C11 14.6692 11.3358 14.3334 11.75 14.3334H18.9167C19.3309 14.3334 19.6667 14.6692 19.6667 15.0834C19.6667 15.4976 19.3309 15.8334 18.9167 15.8334H11.75C11.3358 15.8334 11 15.4976 11 15.0834Z" fill="white"/>
<path fill-rule="evenodd" clip-rule="evenodd" d="M0.25 4.33337C0.25 3.91916 0.585786 3.58337 1 3.58337H11.75C12.1642 3.58337 12.5 3.91916 12.5 4.33337C12.5 4.74759 12.1642 5.08337 11.75 5.08337H1C0.585786 5.08337 0.25 4.74759 0.25 4.33337Z" fill="white"/>
<path fill-rule="evenodd" clip-rule="evenodd" d="M0.25 7.91663C0.25 7.50241 0.585786 7.16663 1 7.16663H8.16667C8.58088 7.16663 8.91667 7.50241 8.91667 7.91663C8.91667 8.33084 8.58088 8.66663 8.16667 8.66663H1C0.585786 8.66663 0.25 8.33084 0.25 7.91663Z" fill="white"/>
<path fill-rule="evenodd" clip-rule="evenodd" d="M0.25 11.5C0.25 11.0858 0.585786 10.75 1 10.75H4.58333C4.99755 10.75 5.33333 11.0858 5.33333 11.5C5.33333 11.9142 4.99755 12.25 4.58333 12.25H1C0.585786 12.25 0.25 11.9142 0.25 11.5Z" fill="white"/>
</svg>
