<svg width="26" height="24" viewBox="0 0 26 24" fill="none" xmlns="http://www.w3.org/2000/svg">
<g id="Group 8">
<path id="Ellipse 6 (Stroke)" fill-rule="evenodd" clip-rule="evenodd" d="M12.271 12C15.0324 12 17.271 9.76142 17.271 7C17.271 4.23858 15.0324 2 12.271 2C9.50957 2 7.271 4.23858 7.271 7C7.271 9.76142 9.50957 12 12.271 12ZM12.271 14C16.137 14 19.271 10.866 19.271 7C19.271 3.13401 16.137 0 12.271 0C8.405 0 5.271 3.13401 5.271 7C5.271 10.866 8.405 14 12.271 14Z" fill="white"/>
<path id="Ellipse 7 (Stroke)" fill-rule="evenodd" clip-rule="evenodd" d="M23.4448 19.9737C22.8944 18.8418 22.0767 17.7908 21.0201 16.8908C19.963 15.9903 18.6915 15.2624 17.2718 14.7614C15.8521 14.2605 14.322 14 12.7711 14C11.2201 14 9.69001 14.2605 8.27034 14.7614C6.85063 15.2624 5.57917 15.9903 4.52207 16.8908C3.46551 17.7908 2.64773 18.8418 2.09734 19.9737C1.99351 20.1873 1.99171 20.3313 2.00697 20.4269C2.02415 20.5347 2.0804 20.6787 2.22097 20.8415C2.51965 21.1875 3.10931 21.5 3.82928 21.5L21.7129 21.5C22.4328 21.5 23.0225 21.1875 23.3212 20.8415C23.4618 20.6787 23.518 20.5347 23.5352 20.4269C23.5504 20.3313 23.5487 20.1873 23.4448 19.9737ZM25.2435 19.0991C26.3443 21.3631 24.2303 23.5 21.7129 23.5L3.82928 23.5C1.31186 23.5 -0.80215 21.3631 0.298706 19.0991C0.977144 17.7039 1.97155 16.4361 3.22514 15.3683C4.47873 14.3004 5.96696 13.4533 7.60485 12.8754C9.24275 12.2975 10.9982 12 12.7711 12C14.5439 12 16.2994 12.2975 17.9373 12.8754C19.5752 13.4533 21.0634 14.3004 22.317 15.3683C23.5706 16.4361 24.565 17.7039 25.2435 19.0991Z" fill="white"/>
</g>
</svg>
