<svg width="20" height="28" viewBox="0 0 20 28" fill="none" xmlns="http://www.w3.org/2000/svg">
<path d="M0.953124 3.62103L0.953125 23.9535C0.953125 25.9405 2.59375 27.5579 4.60938 27.5579L15.3906 27.5579C17.4062 27.5579 19.0469 25.9405 19.0469 23.9535L19.0469 3.62103C19.0469 1.63399 17.4062 0.0166371 15.3906 0.0166372L4.60937 0.0166376C2.59375 0.0166377 0.953124 1.63399 0.953124 3.62103ZM15.3906 1.6802C16.4762 1.6802 17.3594 2.54987 17.3594 3.62103L17.3594 17.8852L17.2656 17.8852C16.7997 17.8852 16.4219 18.2576 16.4219 18.7169C16.4219 19.1763 16.7997 19.5487 17.2656 19.5487L17.3594 19.5487L17.3594 23.9535C17.3594 25.0237 16.4772 25.8943 15.3906 25.8943L4.60938 25.8943C3.52375 25.8943 2.64062 25.0237 2.64062 23.9535L2.64062 19.5478L2.73437 19.5478C3.20031 19.5478 3.57812 19.1753 3.57812 18.716C3.57812 18.2567 3.20031 17.8842 2.73437 17.8842L2.64062 17.8842L2.64062 3.62103C2.64062 2.5508 3.52375 1.6802 4.60937 1.6802L15.3906 1.6802Z" fill="#E69AB1"/>
<path d="M10.9748 18.7133C10.9748 19.1754 11.3489 19.545 11.8176 19.545L13.6279 19.545C14.0967 19.545 14.4707 19.1754 14.4707 18.7133C14.4707 18.2604 14.0967 17.8815 13.6279 17.8815L11.8176 17.8815C11.3489 17.8815 10.9748 18.2604 10.9748 18.7133ZM5.51855 18.7133C5.51855 19.1754 5.90293 19.545 6.3623 19.545L8.18105 19.545C8.6498 19.545 9.0248 19.1754 9.0248 18.7133C9.0248 18.2604 8.6498 17.8815 8.18105 17.8815L6.3623 17.8815C5.90293 17.8815 5.51855 18.2604 5.51855 18.7133Z" fill="#E69AB1"/>
<path d="M8.76117 11.9462C8.76117 11.3556 8.27554 10.8769 7.67648 10.8769C7.07743 10.8769 6.5918 11.3556 6.5918 11.9462C6.5918 12.5368 7.07743 13.0155 7.67648 13.0155C8.27554 13.0155 8.76117 12.5368 8.76117 11.9462Z" fill="#E69AB1"/>
<path d="M11.5566 8.12188C11.9803 8.53962 12.6666 8.53962 13.0903 8.12188C13.5141 7.70414 13.5141 7.02763 13.0903 6.60989C12.6666 6.19215 11.9803 6.19215 11.5566 6.60989C11.1328 7.0267 11.1328 7.70414 11.5566 8.12188ZM6.88031 6.57939C6.55031 6.90471 6.55031 7.4315 6.88031 7.7559L11.9278 12.7318C12.2578 13.0562 12.7922 13.0562 13.1213 12.7318C13.2863 12.5691 13.3688 12.3566 13.3688 12.1431C13.3688 11.9296 13.2863 11.717 13.1213 11.5544L8.07281 6.57846C7.74375 6.25499 7.20937 6.25499 6.88031 6.57939Z" fill="#E69AB1"/>
</svg>
