<svg width="22" height="22" viewBox="0 0 22 22" fill="none" xmlns="http://www.w3.org/2000/svg">
<path fill-rule="evenodd" clip-rule="evenodd" d="M16.6128 7.02853C15.2732 3.79537 11.8361 1.95879 8.40361 2.64204C4.97121 3.3253 2.49944 6.33807 2.49996 9.83779V9.83785C2.50013 11.7834 3.27321 13.6491 4.64906 15.0244L4.64915 15.0245C7.12411 17.499 11.0023 17.8805 13.9121 15.9358L14.4788 16.7839L13.9121 15.9358C16.8218 13.991 17.9526 10.2618 16.6129 7.02856L16.6128 7.02853ZM18.4975 6.24762C16.7853 2.11531 12.3923 -0.231945 8.00535 0.641296L8.00535 0.641297C3.61845 1.51456 0.45932 5.3651 0.459961 9.83803M18.4975 6.24762C20.2098 10.38 18.7645 15.1463 15.0456 17.6319L15.0456 17.6319C11.3268 20.1173 6.37011 19.6298 3.20686 16.4672C1.44828 14.7093 0.460192 12.3247 0.459961 9.83809" fill="#E69AB1"/>
<path fill-rule="evenodd" clip-rule="evenodd" d="M15.0238 15.0258C15.4222 14.6275 16.068 14.6275 16.4663 15.0258L21.2413 19.8008C21.6396 20.1991 21.6396 20.8449 21.2413 21.2433C20.843 21.6416 20.1971 21.6416 19.7988 21.2433L15.0238 16.4683C14.6255 16.07 14.6255 15.4241 15.0238 15.0258Z" fill="#E69AB1"/>
</svg>
