<svg width="35" height="35" viewBox="0 0 35 35" fill="none" xmlns="http://www.w3.org/2000/svg">
<path d="M28.4375 32.2742H6.5625C4.14641 32.2742 2.1875 30.3153 2.1875 27.8992V8.31128C2.1875 5.89519 4.14641 3.93628 6.5625 3.93628H28.4375C30.8536 3.93628 32.8125 5.89519 32.8125 8.31128V27.8992C32.8125 30.3153 30.8536 32.2742 28.4375 32.2742Z" fill="#F0D2DC"/>
<path d="M28.4375 2.9509H27.1863V2.72559C27.1863 2.18199 26.7455 1.74121 26.2019 1.74121C25.6583 1.74121 25.2175 2.18199 25.2175 2.72559V2.9509H9.77594V2.72559C9.77594 2.18199 9.33516 1.74121 8.79156 1.74121C8.24797 1.74121 7.80719 2.18199 7.80719 2.72559V2.9509H6.5625C3.60719 2.9509 1.20312 5.35496 1.20312 8.31027V27.8982C1.20312 30.8536 3.60719 33.2576 6.5625 33.2576H28.4375C31.3928 33.2576 33.7969 30.8536 33.7969 27.8982V8.31137C33.7969 5.35496 31.3928 2.9509 28.4375 2.9509ZM31.8281 27.8993C31.8281 29.7686 30.3067 31.29 28.4375 31.29H6.5625C4.69328 31.29 3.17188 29.7686 3.17188 27.8993V8.31137C3.17188 6.44215 4.69328 4.92074 6.5625 4.92074H7.80719V5.14715C7.80719 5.69074 8.24797 6.13152 8.79156 6.13152C9.33516 6.13152 9.77594 5.69074 9.77594 5.14715V4.92074H25.2186V5.14715C25.2186 5.69074 25.6594 6.13152 26.203 6.13152C26.7466 6.13152 27.1873 5.69074 27.1873 5.14715V4.92074H28.4375C30.3067 4.92074 31.8281 6.44215 31.8281 8.31137V27.8993Z" fill="#E69AB1"/>
<path d="M22.0933 18.3303H23.9057V16.3225H25.3816V18.3303H27.194V19.6869H25.3816V21.6946H23.9057V19.6869H22.0933V18.3303Z" fill="#E69AB1"/>
<path d="M21.1886 18.4713C21.1886 19.7374 20.9462 20.7106 20.4614 21.3907C19.9839 22.0635 19.3219 22.4 18.4754 22.4C17.6289 22.4 16.9632 22.0635 16.4785 21.3907C16.001 20.7106 15.7622 19.7374 15.7622 18.4713C15.7622 17.8418 15.8237 17.2847 15.9467 16.8C16.0769 16.3152 16.2614 15.9064 16.5002 15.5736C16.739 15.2408 17.0247 14.9876 17.3576 14.8139C17.6904 14.6403 18.063 14.5535 18.4754 14.5535C19.3219 14.5535 19.9839 14.8935 20.4614 15.5736C20.9462 16.2465 21.1886 17.2124 21.1886 18.4713ZM19.539 18.4713C19.539 18.0951 19.5209 17.755 19.4847 17.4511C19.4485 17.14 19.3906 16.8723 19.311 16.648C19.2315 16.4238 19.1229 16.2501 18.9855 16.1271C18.848 16.0041 18.678 15.9426 18.4754 15.9426C18.2728 15.9426 18.1028 16.0041 17.9653 16.1271C17.8351 16.2501 17.7265 16.4238 17.6397 16.648C17.5601 16.8723 17.5023 17.14 17.4661 17.4511C17.4299 17.755 17.4118 18.0951 17.4118 18.4713C17.4118 18.8475 17.4299 19.1912 17.4661 19.5023C17.5023 19.8134 17.5601 20.0811 17.6397 20.3054C17.7265 20.5297 17.8351 20.7033 17.9653 20.8263C18.1028 20.9493 18.2728 21.0108 18.4754 21.0108C18.678 21.0108 18.848 20.9493 18.9855 20.8263C19.1229 20.7033 19.2315 20.5297 19.311 20.3054C19.3906 20.0811 19.4485 19.8134 19.4847 19.5023C19.5209 19.1912 19.539 18.8475 19.539 18.4713Z" fill="white"/>
<path d="M11.6993 22.4108C11.504 22.4108 11.2978 22.3964 11.0807 22.3674C10.8637 22.3457 10.6539 22.3132 10.4513 22.2697C10.2487 22.2263 10.0642 22.1793 9.89778 22.1287C9.73137 22.078 9.60114 22.031 9.50708 21.9876L9.82181 20.6418C10.0099 20.7214 10.2487 20.8082 10.5381 20.9023C10.8347 20.9891 11.2001 21.0325 11.6342 21.0325C12.1334 21.0325 12.4988 20.9385 12.7303 20.7504C12.9619 20.5623 13.0776 20.309 13.0776 19.9907C13.0776 19.7953 13.0342 19.6325 12.9474 19.5023C12.8678 19.3648 12.7557 19.2563 12.611 19.1767C12.4663 19.0899 12.2926 19.032 12.09 19.0031C11.8947 18.9669 11.6849 18.9488 11.4606 18.9488H10.8311V17.6465H11.5474C11.7066 17.6465 11.8585 17.632 12.0032 17.6031C12.1551 17.5741 12.289 17.5271 12.4048 17.462C12.5205 17.3896 12.611 17.2956 12.6761 17.1798C12.7484 17.0568 12.7846 16.9049 12.7846 16.724C12.7846 16.5865 12.7557 16.4672 12.6978 16.3659C12.6399 16.2646 12.5639 16.1814 12.4699 16.1163C12.383 16.0511 12.2781 16.0041 12.1551 15.9752C12.0394 15.939 11.92 15.9209 11.797 15.9209C11.4859 15.9209 11.1965 15.9679 10.9288 16.062C10.6683 16.1561 10.4296 16.2718 10.2125 16.4093L9.63731 15.2263C9.75307 15.154 9.88693 15.078 10.0389 14.9984C10.198 14.9188 10.3717 14.8465 10.5598 14.7814C10.7479 14.7163 10.9469 14.662 11.1567 14.6186C11.3737 14.5752 11.6017 14.5535 11.8404 14.5535C12.2818 14.5535 12.6616 14.6077 12.9799 14.7163C13.3055 14.8176 13.5732 14.9659 13.783 15.1612C13.9929 15.3493 14.1484 15.5736 14.2497 15.8341C14.351 16.0873 14.4017 16.3659 14.4017 16.6697C14.4017 16.9664 14.3185 17.2558 14.152 17.538C13.9856 17.8129 13.7613 18.0227 13.4792 18.1674C13.8699 18.3266 14.1701 18.5654 14.3799 18.8837C14.597 19.1948 14.7055 19.571 14.7055 20.0124C14.7055 20.3597 14.6476 20.6816 14.5319 20.9783C14.4161 21.2677 14.2352 21.5209 13.9893 21.738C13.7433 21.9478 13.4285 22.1142 13.0451 22.2372C12.6688 22.353 12.2203 22.4108 11.6993 22.4108Z" fill="white"/>
</svg>
