<svg width="43" height="43" viewBox="0 0 43 43" fill="none" xmlns="http://www.w3.org/2000/svg">
<g id="delivery_truck_shipping_package_fast_icon_196609 1" clip-path="url(#clip0_1250_2022)">
<g id="Layer 2">
<g id="Workspace">
<path id="Vector" d="M8.9585 16.125V12.5416H25.0835V26.875" stroke="#797979" stroke-width="2" stroke-linecap="round" stroke-linejoin="round"/>
<path id="Vector_2" d="M12.5418 26.875H8.9585V23.2916" stroke="#797979" stroke-width="2" stroke-linecap="round" stroke-linejoin="round"/>
<path id="Vector_3" d="M25.0835 14.3334H30.4585V19.7084L34.0418 21.5V26.875H30.4585" stroke="#797979" stroke-width="2" stroke-linecap="round" stroke-linejoin="round"/>
<path id="Vector_4" d="M15.229 29.5625C16.7133 29.5625 17.9165 28.3593 17.9165 26.875C17.9165 25.3907 16.7133 24.1875 15.229 24.1875C13.7447 24.1875 12.5415 25.3907 12.5415 26.875C12.5415 28.3593 13.7447 29.5625 15.229 29.5625Z" stroke="#797979" stroke-width="2" stroke-linecap="round" stroke-linejoin="round"/>
<path id="Vector_5" d="M27.771 29.5625C29.2553 29.5625 30.4585 28.3593 30.4585 26.875C30.4585 25.3907 29.2553 24.1875 27.771 24.1875C26.2867 24.1875 25.0835 25.3907 25.0835 26.875C25.0835 28.3593 26.2867 29.5625 27.771 29.5625Z" stroke="#797979" stroke-width="2" stroke-linecap="round" stroke-linejoin="round"/>
<path id="Vector_6" d="M17.9165 26.875H25.0832" stroke="#797979" stroke-width="2" stroke-linecap="round" stroke-linejoin="round"/>
<path id="Vector_7" d="M7.1665 16.125H17.9165" stroke="#797979" stroke-width="2" stroke-linecap="round" stroke-linejoin="round"/>
<path id="Vector_8" d="M7.1665 19.7084H14.3332" stroke="#797979" stroke-width="2" stroke-linecap="round" stroke-linejoin="round"/>
<path id="Vector_9" d="M7.1665 23.2916H10.7498" stroke="#797979" stroke-width="2" stroke-linecap="round" stroke-linejoin="round"/>
</g>
</g>
</g>
<defs>
<clipPath id="clip0_1250_2022">
<rect width="43" height="43" fill="white"/>
</clipPath>
</defs>
</svg>
