<svg width="30" height="30" viewBox="0 0 30 30" fill="none" xmlns="http://www.w3.org/2000/svg">
<path d="M27.5878 15.3656C27.5109 15.1265 27.5109 14.8743 27.5878 14.6343L28.2881 12.4565C28.6697 11.2715 28.2506 9.98247 27.2466 9.24841L25.3987 7.89653C25.1962 7.74935 25.0481 7.54591 24.9703 7.30685L24.2541 5.12997C23.8659 3.9506 22.77 3.1556 21.5297 3.14997L19.2375 3.13872C18.9862 3.13778 18.7481 3.05997 18.5456 2.91466L16.6847 1.57403C15.6778 0.849346 14.3241 0.849346 13.3172 1.57403L11.4562 2.91466C11.2537 3.05997 11.0147 3.13778 10.7644 3.13872L8.47124 3.1481C7.22905 3.15372 6.13405 3.9506 5.74687 5.12997L5.02968 7.30685C4.95187 7.54497 4.80374 7.74841 4.6003 7.89653L2.75343 9.24747C1.74937 9.9806 1.32937 11.2706 1.71187 12.4556L2.41218 14.6343C2.48905 14.8734 2.48905 15.1256 2.41218 15.3656L1.71187 17.5434C1.3303 18.7284 1.74937 20.0175 2.75343 20.7515L4.60124 22.1034C4.80374 22.2506 4.95187 22.454 5.02968 22.6931L5.74593 24.87C6.13405 26.0493 7.22999 26.8443 8.4703 26.85L10.7625 26.8603C11.0137 26.8612 11.2519 26.939 11.4544 27.0843L13.3153 28.425C13.8187 28.7878 14.4094 28.9687 14.9991 28.9687C15.5887 28.9687 16.1794 28.7878 16.6828 28.425L18.5437 27.0843C18.7462 26.939 18.9853 26.8612 19.2356 26.8603L21.5269 26.85C22.7691 26.8443 23.8641 26.0484 24.2512 24.869L24.9684 22.6922C25.0462 22.454 25.1944 22.2506 25.3978 22.1025L27.2447 20.7515C28.2487 20.0184 28.6687 18.7284 28.2862 17.5434L27.5878 15.3656ZM25.9819 15.8822L26.6822 18.06C26.8397 18.5512 26.6662 19.0856 26.25 19.3893L24.4041 20.7393C23.9147 21.0965 23.5556 21.5897 23.3672 22.1653L22.65 24.3412C22.4897 24.8297 22.0359 25.1597 21.5212 25.1615L19.23 25.1718C18.6253 25.1747 18.0469 25.3622 17.5584 25.7147L15.6975 27.0553C15.2822 27.3553 14.7197 27.3553 14.3044 27.0553L12.4434 25.7147C11.955 25.3622 11.3756 25.1747 10.7719 25.1718L8.47968 25.1615C7.96499 25.1597 7.51124 24.8297 7.35093 24.3412L6.63562 22.1662C6.44624 21.5897 6.08718 21.0956 5.59874 20.7403L3.74999 19.3903C3.33374 19.0865 3.1603 18.5522 3.3178 18.0609L4.01812 15.884C4.20374 15.3065 4.20374 14.6943 4.01812 14.1178L3.3178 11.94C3.1603 11.4478 3.33374 10.9143 3.74999 10.6097L5.59593 9.25966C6.0853 8.90247 6.44437 8.40935 6.6328 7.83278L7.34999 5.65685C7.5103 5.16841 7.96405 4.83841 8.47874 4.83653L10.77 4.82622C11.3747 4.82341 11.9531 4.63591 12.4416 4.28341L14.3025 2.94278C14.5106 2.79278 14.7544 2.71778 14.9991 2.71778C15.2437 2.71778 15.4875 2.79278 15.6956 2.94278L17.5566 4.28341C18.045 4.63591 18.6244 4.82341 19.2281 4.82622L21.5203 4.83653C22.035 4.83841 22.4887 5.16841 22.6491 5.65685L23.3644 7.83185C23.5537 8.40841 23.9128 8.90247 24.4012 9.25778L26.25 10.6097C26.6662 10.9134 26.8397 11.4478 26.6822 11.939L25.9819 14.1159C25.7962 14.6943 25.7962 15.3056 25.9819 15.8822Z" fill="#E69AB1"/>
<path d="M19.6143 12.9272H17.0155V8.65218C17.0155 8.24624 16.7577 7.88906 16.3724 7.76062C15.9899 7.63124 15.5671 7.76249 15.3261 8.08312L9.6355 15.5662C9.41987 15.8531 9.38425 16.2309 9.54456 16.5525C9.70487 16.8741 10.0274 17.0737 10.3855 17.0737H12.9842V21.3497C12.9842 21.7556 13.2421 22.1128 13.6274 22.2412C13.7249 22.2741 13.8261 22.2909 13.9255 22.2909C14.2142 22.2909 14.4927 22.1569 14.6746 21.9178L20.3642 14.4366C20.5799 14.1497 20.6155 13.7719 20.4552 13.4503C20.2949 13.1287 19.9733 12.9272 19.6143 12.9272ZM14.6727 19.1306V16.3256C14.6727 15.8062 14.2508 15.3844 13.7324 15.3844H11.8921L15.3261 10.8694V13.6744C15.3261 14.1937 15.748 14.6156 16.2664 14.6156H18.1067L14.6727 19.1306Z" fill="#E69AB1"/>
</svg>
