<svg width="33" height="33" viewBox="0 0 33 33" fill="none" xmlns="http://www.w3.org/2000/svg">
<path d="M25.4217 7.98624C25.5759 7.84514 26.93 6.55342 26.93 4.30249C26.93 4.13405 26.9147 3.00749 26.3569 1.88202C25.9948 1.15139 25.0411 0.954517 24.4297 1.49374L17.0666 7.98514L9.70234 1.49374C9.09094 0.95561 8.13719 1.15249 7.77515 1.88202C7.21734 3.00749 7.20203 4.13405 7.20203 4.30249C7.20203 6.55233 8.55719 7.84405 8.71031 7.98624H25.4217Z" fill="#F3E9ED"/>
<path d="M26.3569 31.8125H6.64312C5.41265 31.8125 4.41516 30.815 4.41516 29.5845V14.9359H28.5837V29.5845C28.5848 30.815 27.5873 31.8125 26.3569 31.8125ZM29.0508 14.9359H3.94922C2.71875 14.9359 1.72125 13.9384 1.72125 12.7079V10.2142C1.72125 8.98371 2.71875 7.98621 3.94922 7.98621H29.0519C30.2823 7.98621 31.2798 8.98371 31.2798 10.2142V12.7079C31.2787 13.9384 30.2812 14.9359 29.0508 14.9359Z" fill="#F0D2DC"/>
<path d="M29.0508 7.00076H27.3008C27.6377 6.29857 27.9144 5.40279 27.9144 4.30248C27.9144 3.95248 27.8663 2.70888 27.2384 1.4456C26.9278 0.81779 26.3558 0.379196 25.6689 0.244665C24.9853 0.106852 24.2984 0.296071 23.7778 0.755446L17.0655 6.67263L10.3531 0.755446C9.8325 0.296071 9.14672 0.106852 8.46203 0.244665C7.77625 0.38029 7.20422 0.81779 6.89359 1.4456C6.26687 2.70998 6.21766 3.95248 6.21766 4.30357C6.21766 5.40279 6.49437 6.29857 6.83125 7.00185H3.94922C2.17734 7.00185 0.736874 8.44341 0.736874 10.2153V12.7079C0.736874 14.3015 1.90719 15.6184 3.43078 15.8689V29.5856C3.43078 31.3564 4.87125 32.799 6.64312 32.799H26.3558C28.1277 32.799 29.5681 31.3575 29.5681 29.5856V15.8678C31.0928 15.6184 32.262 14.3004 32.262 12.7069V10.2142C32.2631 8.44341 30.8227 7.00076 29.0508 7.00076ZM25.0805 2.2331C25.1559 2.16638 25.2369 2.16857 25.2894 2.17623C25.3364 2.18607 25.4239 2.2167 25.4753 2.31951C25.9325 3.24263 25.9456 4.19748 25.9456 4.30248C25.9456 5.65873 25.3495 6.57638 24.9973 7.00076H19.6719L25.0805 2.2331ZM8.18641 4.30357C8.18641 4.19748 8.19953 3.24263 8.65781 2.3206C8.70812 2.2167 8.79562 2.18607 8.84375 2.17623C8.89734 2.16857 8.97937 2.16638 9.05156 2.23201L14.4612 7.00076H9.13469C8.7825 6.57529 8.18641 5.65654 8.18641 4.30357ZM15.5156 30.8281H6.64312C5.95734 30.8281 5.39953 30.2703 5.39953 29.5845V15.9203H15.5156V30.8281ZM27.6005 29.5845C27.6005 30.2703 27.0427 30.8281 26.3569 30.8281H17.4844V15.9203H27.6005V29.5845ZM30.2944 12.7069C30.2944 13.3926 29.7366 13.9504 29.0508 13.9504H3.94922C3.26344 13.9504 2.70562 13.3926 2.70562 12.7069V10.2142C2.70562 9.52841 3.26344 8.9706 3.94922 8.9706H29.0508C29.7366 8.9706 30.2944 9.52841 30.2944 10.2142V12.7069Z" fill="#E69AB1"/>
</svg>
