<svg width="26" height="35" viewBox="0 0 26 35" fill="none" xmlns="http://www.w3.org/2000/svg">
<path d="M12.9841 24.9112C19.5713 24.9112 24.9112 19.5713 24.9112 12.9841C24.9112 6.39703 19.5713 1.05713 12.9841 1.05713C6.39704 1.05713 1.05713 6.39703 1.05713 12.9841C1.05713 19.5713 6.39704 24.9112 12.9841 24.9112Z" fill="#F0D2DC"/>
<path d="M13.4503 7.49684L14.929 10.4942L18.2281 10.9733C18.658 11.0356 18.8295 11.5641 18.5182 11.8671L16.1316 14.1938L16.6966 17.4883C16.7694 17.9123 16.3243 18.2364 15.9425 18.0356L12.984 16.4806L10.0254 18.0356C9.64372 18.2364 9.19859 17.9123 9.27141 17.4883L9.83634 14.1938L7.44271 11.8613C7.13382 11.5606 7.30412 11.0368 7.73047 10.9745L11.0378 10.4942L12.5165 7.49684C12.7092 7.11043 13.2588 7.11043 13.4503 7.49684Z" fill="white"/>
<path d="M19.0211 23.2668V33.4145C19.0211 33.8373 18.5513 34.084 18.2107 33.8491L13.2778 30.5017C13.1016 30.3843 12.8667 30.3843 12.6906 30.5017L7.75767 33.8491C7.41706 34.084 6.94727 33.8373 6.94727 33.4145V23.2668C8.72076 24.3121 10.7761 24.9111 12.9842 24.9111C15.1922 24.9111 17.2476 24.3121 19.0211 23.2668Z" fill="#F0D2DC"/>
<path d="M25.9681 12.9841C25.9681 5.8255 20.1438 0 12.9841 0C5.82433 0 0 5.8255 0 12.9841C0 17.5247 2.34664 21.5215 5.88775 23.8435V33.418C5.88775 34.0052 6.20956 34.5408 6.72869 34.8144C7.24782 35.0881 7.87148 35.0552 8.35654 34.7252L12.9841 31.5846L17.6116 34.7263C17.8794 34.9084 18.1883 35 18.4995 35C18.752 35 19.0069 34.9389 19.2394 34.8156C19.7574 34.5408 20.0804 34.0052 20.0804 33.4191V23.8446C23.6215 21.5227 25.9681 17.5247 25.9681 12.9841ZM17.9675 32.4114L13.872 29.6302C13.3329 29.2649 12.6352 29.2649 12.0973 29.6302L8.00185 32.4102V24.9698C9.53691 25.6111 11.22 25.9669 12.9852 25.9669C14.7505 25.9669 16.4324 25.6099 17.9686 24.9698L17.9675 32.4114ZM12.9841 23.8552C6.98943 23.8552 2.11409 18.9787 2.11409 12.9852C2.11409 6.99178 6.98943 2.11409 12.9841 2.11409C18.9787 2.11409 23.854 6.9906 23.854 12.9841C23.854 18.9775 18.9787 23.8552 12.9841 23.8552Z" fill="#E69AB1"/>
<path d="M18.3797 9.92684L15.6314 9.52751L14.3982 7.02936C14.1304 6.48674 13.5878 6.14966 12.9841 6.14966C12.3804 6.14966 11.8378 6.48674 11.57 7.02818L10.3368 9.52634L7.57906 9.92684C6.98124 10.0138 6.49265 10.4248 6.30591 11.0003C6.11916 11.5758 6.27302 12.1948 6.70524 12.6164L8.70071 14.5614L8.22973 17.3074C8.12755 17.904 8.36832 18.4948 8.85809 18.8495C9.1341 19.0503 9.45826 19.1525 9.78242 19.1525C10.0326 19.1525 10.2851 19.0914 10.5177 18.9693L12.9841 17.6726L15.4505 18.9693C15.9849 19.2512 16.6203 19.2065 17.1113 18.8495C17.601 18.4948 17.8418 17.9028 17.7396 17.3074L17.2663 14.5638L19.2547 12.6247C19.6893 12.2018 19.842 11.5805 19.6552 11.0039C19.4685 10.4272 18.9799 10.0138 18.3797 9.92684ZM15.393 13.4374C15.144 13.6805 15.0301 14.0305 15.0888 14.3735L15.4693 16.5945L13.475 15.5456C13.3212 15.4646 13.152 15.4247 12.9829 15.4247C12.8138 15.4247 12.6447 15.4646 12.4908 15.5456L10.4965 16.5945L10.877 14.3735C10.9358 14.0305 10.8218 13.6805 10.5729 13.4374L8.95909 11.8648L11.1883 11.5406C11.5324 11.4913 11.8296 11.274 11.9846 10.9627L12.9841 8.94026L13.9812 10.9616C14.1351 11.274 14.4334 11.4901 14.7776 11.5394L17.0067 11.8636L15.393 13.4374Z" fill="#E69AB1"/>
</svg>
