<svg width="30" height="30" viewBox="0 0 30 30" fill="none" xmlns="http://www.w3.org/2000/svg">
<g id="megaphone">
<g id="Group">
<path id="Vector" d="M19.5534 23.0522L11.2603 17.6681V9.19594L19.5534 3.81094V23.0522Z" fill="#F0D2DC"/>
<path id="Vector_2" d="M11.2603 17.6681H3.75C2.71406 17.6681 1.875 16.8291 1.875 15.7931V11.0709C1.875 10.035 2.71406 9.19594 3.75 9.19594H11.2603V17.6681Z" fill="#F0D2DC"/>
<path id="Vector_3" d="M23.7 13.4344C23.7 15.7219 21.8438 17.5781 19.5563 17.5781V9.28125C21.8438 9.28125 23.7 11.1375 23.7 13.4344Z" fill="#F5F5F5"/>
<path id="Vector_4" d="M7.53285 27.5794H5.60254C5.08504 27.5794 4.66504 27.1594 4.66504 26.6419V17.6672H8.47035V26.6419C8.47035 27.1603 8.05035 27.5794 7.53285 27.5794Z" fill="#F0D2DC"/>
<path id="Vector_5" d="M20.3981 8.52657V2.41969C20.3981 1.95376 20.0203 1.57594 19.5544 1.57594C19.0884 1.57594 18.7106 1.95376 18.7106 2.41969V3.35344L11.0119 8.35126H3.75C2.25094 8.35126 1.03125 9.57188 1.03125 11.07V15.7922C1.03125 17.2913 2.25094 18.5109 3.75 18.5109H3.82125V26.6419C3.82125 27.6244 4.62 28.4231 5.6025 28.4231H7.53281C8.51531 28.4231 9.31406 27.6234 9.31406 26.6419V18.5109H11.0109L18.7097 23.5088V24.4425C18.7097 24.9084 19.0875 25.2863 19.5534 25.2863C20.0194 25.2863 20.3972 24.9084 20.3972 24.4425V18.3356C22.7456 17.9316 24.5438 15.8925 24.5438 13.4306C24.5438 10.9688 22.7466 8.93063 20.3981 8.52657ZM7.62656 26.6428C7.62656 26.6944 7.58437 26.7366 7.53281 26.7366H5.6025C5.55094 26.7366 5.50875 26.6944 5.50875 26.6428V18.5119H7.62656V26.6428ZM10.4166 16.8234H3.75C3.18187 16.8234 2.71875 16.3613 2.71875 15.7922V11.07C2.71875 10.5019 3.18187 10.0388 3.75 10.0388H10.4166V16.8234ZM12.1041 17.2097V9.65438L18.7097 5.36626V21.4988L12.1041 17.2097ZM20.3981 16.6106V10.2525C21.8091 10.6284 22.8562 11.9044 22.8562 13.4316C22.8562 14.9588 21.8091 16.2356 20.3981 16.6106ZM28.125 12.5878H26.6831C26.2172 12.5878 25.8394 12.9656 25.8394 13.4316C25.8394 13.8975 26.2172 14.2753 26.6831 14.2753H28.125C28.5909 14.2753 28.9688 13.8975 28.9688 13.4316C28.9688 12.9656 28.5909 12.5878 28.125 12.5878ZM25.4344 10.4606C25.65 10.4606 25.8666 10.3781 26.0316 10.2131L27.0516 9.19313C27.3816 8.86313 27.3816 8.32876 27.0516 7.99969C26.7216 7.67063 26.1872 7.66969 25.8581 7.99969L24.8381 9.01969C24.5081 9.34969 24.5081 9.88407 24.8381 10.2131C25.0022 10.3781 25.2178 10.4606 25.4344 10.4606ZM26.0306 16.6509C25.7006 16.3209 25.1672 16.32 24.8381 16.6519C24.5081 16.9819 24.5091 17.5153 24.8391 17.8444L25.8591 18.8634C26.0241 19.0284 26.2388 19.1109 26.4553 19.1109C26.6719 19.1109 26.8875 19.0284 27.0525 18.8625C27.3825 18.5325 27.3816 17.9991 27.0516 17.67L26.0306 16.6509Z" fill="#E69AB1"/>
</g>
</g>
</svg>
