<svg width="28" height="27" viewBox="0 0 28 27" fill="none" xmlns="http://www.w3.org/2000/svg">
<path d="M23.3438 26.085H4.59375C2.52281 26.085 0.84375 24.4059 0.84375 22.335V4.59375C0.84375 2.52281 2.52281 0.84375 4.59375 0.84375H23.3438C25.4147 0.84375 27.0938 2.52281 27.0938 4.59375V22.335C27.0938 24.4059 25.4147 26.085 23.3438 26.085Z" fill="#F0D2DC"/>
<path d="M23.3438 0H4.59375C2.06063 0 0 2.06063 0 4.59375V22.335C0 24.8681 2.06063 26.9287 4.59375 26.9287H23.3438C25.8769 26.9287 27.9375 24.8681 27.9375 22.335V4.59375C27.9375 2.06063 25.8769 0 23.3438 0ZM26.25 22.335C26.25 23.9372 24.9459 25.2412 23.3438 25.2412H4.59375C2.99156 25.2412 1.6875 23.9372 1.6875 22.335V4.59375C1.6875 2.99156 2.99156 1.6875 4.59375 1.6875H23.3438C24.9459 1.6875 26.25 2.99156 26.25 4.59375V22.335Z" fill="#E69AB1"/>
<path d="M21.3375 6.3103H11.0344C10.5684 6.3103 10.1906 6.68811 10.1906 7.15405C10.1906 7.61999 10.5684 7.9978 11.0344 7.9978H21.3375C21.8034 7.9978 22.1812 7.61999 22.1812 7.15405C22.1812 6.68811 21.8034 6.3103 21.3375 6.3103ZM7.46437 6.3103H6.59906C6.13312 6.3103 5.75531 6.68811 5.75531 7.15405C5.75531 7.61999 6.13312 7.9978 6.59906 7.9978H7.46437C7.93031 7.9978 8.30812 7.61999 8.30812 7.15405C8.30812 6.68811 7.93125 6.3103 7.46437 6.3103ZM21.3375 12.6206H11.0344C10.5684 12.6206 10.1906 12.9984 10.1906 13.4644C10.1906 13.9303 10.5684 14.3081 11.0344 14.3081H21.3375C21.8034 14.3081 22.1812 13.9303 22.1812 13.4644C22.1812 12.9984 21.8034 12.6206 21.3375 12.6206ZM7.46437 12.6206H6.59906C6.13312 12.6206 5.75531 12.9984 5.75531 13.4644C5.75531 13.9303 6.13312 14.3081 6.59906 14.3081H7.46437C7.93031 14.3081 8.30812 13.9303 8.30812 13.4644C8.30812 12.9984 7.93125 12.6206 7.46437 12.6206ZM21.3375 18.9309H11.0344C10.5684 18.9309 10.1906 19.3087 10.1906 19.7747C10.1906 20.2406 10.5684 20.6184 11.0344 20.6184H21.3375C21.8034 20.6184 22.1812 20.2406 22.1812 19.7747C22.1812 19.3087 21.8034 18.9309 21.3375 18.9309ZM7.46437 18.9309H6.59906C6.13312 18.9309 5.75531 19.3087 5.75531 19.7747C5.75531 20.2406 6.13312 20.6184 6.59906 20.6184H7.46437C7.93031 20.6184 8.30812 20.2406 8.30812 19.7747C8.30812 19.3087 7.93125 18.9309 7.46437 18.9309Z" fill="#E69AB1"/>
</svg>
