<svg width="30" height="30" viewBox="0 0 30 30" fill="none" xmlns="http://www.w3.org/2000/svg">
<path d="M25 29H5C2.791 29 1 27.209 1 25V5C1 2.791 2.791 1 5 1H25C27.209 1 29 2.791 29 5V25C29 27.209 27.209 29 25 29Z" fill="#F0D2DC"/>
<path d="M20.14 1V8.64C20.14 9 19.74 9.21 19.45 9.01L15.25 6.16C15.1 6.06 14.9 6.06 14.75 6.16L10.55 9.01C10.26 9.21 9.86002 9 9.86002 8.64V1H20.14Z" fill="white"/>
<path d="M25 0.0999756H5.00001C2.29801 0.0999756 0.100006 2.29798 0.100006 4.99998V25C0.100006 27.702 2.29801 29.9 5.00001 29.9H25C27.702 29.9 29.9 27.702 29.9 25V4.99998C29.9 2.29798 27.702 0.0999756 25 0.0999756ZM10.758 1.89998H19.242V7.78698L15.756 5.41898C15.298 5.10898 14.705 5.10698 14.243 5.41898L10.758 7.78598V1.89998ZM28.1 25C28.1 26.709 26.709 28.1 25 28.1H5.00001C3.29101 28.1 1.90001 26.709 1.90001 25V4.99998C1.90001 3.29098 3.29101 1.89998 5.00001 1.89998H8.95701V8.64398C8.95701 9.14398 9.23101 9.59997 9.67401 9.83397C9.87201 9.93897 10.088 9.99098 10.304 9.99098C10.569 9.99098 10.832 9.91298 11.06 9.75798L15 7.08198L18.94 9.75698C19.353 10.038 19.884 10.067 20.326 9.83397C20.768 9.59997 21.043 9.14398 21.043 8.64398V1.89998H25C26.709 1.89998 28.1 3.29098 28.1 4.99998V25Z" fill="#E69AB1"/>
<path d="M9.41701 23.1H6.00001C5.50301 23.1 5.10001 23.503 5.10001 24C5.10001 24.497 5.50301 24.9 6.00001 24.9H9.41701C9.91401 24.9 10.317 24.497 10.317 24C10.317 23.503 9.91401 23.1 9.41701 23.1ZM12.417 19.6H6.00001C5.50301 19.6 5.10001 20.003 5.10001 20.5C5.10001 20.997 5.50301 21.4 6.00001 21.4H12.417C12.914 21.4 13.317 20.997 13.317 20.5C13.317 20.003 12.914 19.6 12.417 19.6Z" fill="#E69AB1"/>
</svg>
