<svg width="24" height="20" viewBox="0 0 24 20" fill="none" xmlns="http://www.w3.org/2000/svg">
<path d="M7.18015 4.19745H8.90103C9.15447 4.19745 9.35999 3.99198 9.35999 3.7385C9.35999 3.48501 9.15447 3.27954 8.90103 3.27954H7.18015C6.92671 3.27954 6.72119 3.48501 6.72119 3.7385C6.72119 3.99198 6.92671 4.19745 7.18015 4.19745Z" fill="white"/>
<path fill-rule="evenodd" clip-rule="evenodd" d="M8.90116 4.54134H7.18028C6.73694 4.54134 6.37744 4.18193 6.37744 3.7385C6.37744 3.29508 6.73694 2.93567 7.18028 2.93567H8.90116C9.3445 2.93567 9.704 3.29508 9.704 3.7385C9.704 4.18193 9.3445 4.54134 8.90116 4.54134ZM8.90116 4.19746H7.18028C6.92684 4.19746 6.72132 3.99199 6.72132 3.7385C6.72132 3.48502 6.92684 3.27955 7.18028 3.27955H8.90116C9.1546 3.27955 9.36012 3.48502 9.36012 3.7385C9.36012 3.99199 9.1546 4.19746 8.90116 4.19746Z" fill="white"/>
<path d="M22.925 6.3285H15.7375V3.78919C15.7375 2.79352 14.8837 1.89294 13.3336 1.25335C11.9124 0.666914 10.0326 0.343994 8.04075 0.343994C6.04887 0.343994 4.16904 0.666959 2.74776 1.25335C1.19773 1.89294 0.343994 2.79352 0.343994 3.78919V16.1896C0.343994 17.1852 1.19773 18.0858 2.74776 18.7254C4.16904 19.3118 6.04878 19.6348 8.04066 19.6348H22.925C23.1784 19.6348 23.3839 19.4293 23.3839 19.1758V6.78745C23.384 6.53397 23.1785 6.3285 22.925 6.3285ZM13.325 6.3285C13.3278 6.32728 13.3308 6.3262 13.3336 6.32499C13.9381 6.0756 14.4362 5.78634 14.8195 5.46738V6.32845L13.325 6.3285ZM8.0407 1.26195C12.0356 1.26195 14.8195 2.59386 14.8195 3.78919C14.8195 4.98453 12.0357 6.31639 8.04106 6.31644H8.0407H8.0403C4.04569 6.31639 1.26195 4.98453 1.26195 3.78919C1.26195 2.59386 4.04587 1.26195 8.0407 1.26195ZM22.4661 7.24641V18.7167H19.4579V12.3965C19.4579 12.1431 19.2524 11.9376 18.9989 11.9376C18.7455 11.9376 18.54 12.1431 18.54 12.3965V18.7168H12.1392V9.30326C12.1392 9.04978 11.9337 8.84431 11.6803 8.84431C11.4268 8.84431 11.2213 9.04978 11.2213 9.30326V18.7168H8.0407C6.89298 18.7168 5.84551 18.6067 4.93498 18.4217V9.30326C4.93498 9.04978 4.72947 8.84431 4.47603 8.84431C4.22259 8.84431 4.01707 9.04978 4.01707 9.30326V18.1974C2.29974 17.6999 1.26195 16.9193 1.26195 16.1896V5.46742C1.64526 5.78634 2.14332 6.0756 2.7478 6.32503C4.14402 6.90112 5.98272 7.22269 7.93553 7.23381L22.4661 7.24641Z" fill="white"/>
<path fill-rule="evenodd" clip-rule="evenodd" d="M2.61649 0.935353C4.08968 0.327542 6.01644 0 8.04063 0C10.0648 0 11.9915 0.327495 13.4647 0.935357C15.0469 1.5882 16.0812 2.57312 16.0812 3.78908V5.9845H22.9249C23.3682 5.9845 23.7277 6.34388 23.7277 6.78734C23.7277 6.78732 23.7277 6.78736 23.7277 6.78734V19.1757C23.7277 19.6191 23.3682 19.9785 22.9249 19.9785H8.04054C6.01636 19.9785 4.08968 19.651 2.61648 19.0432C1.03433 18.3903 0 17.4054 0 16.1895V3.78908C0 2.57313 1.03434 1.58819 2.61649 0.935353ZM23.3838 6.78734V19.1757C23.3838 19.4292 23.1783 19.6346 22.9249 19.6346H8.04054C6.04866 19.6346 4.16892 19.3117 2.74764 18.7253C1.19762 18.0857 0.34388 17.1851 0.34388 16.1895V3.78908C0.34388 2.79341 1.19762 1.89282 2.74764 1.25324C4.16892 0.666845 6.04875 0.34388 8.04063 0.34388C10.0325 0.34388 11.9123 0.6668 13.3335 1.25324C14.8836 1.89282 15.7373 2.79341 15.7373 3.78908V6.32838H22.9249C23.1784 6.32838 23.3839 6.53385 23.3838 6.78734ZM2.74769 6.32492C2.31025 6.14441 1.92854 5.94305 1.60572 5.72468C1.48244 5.6413 1.36776 5.55543 1.26183 5.46731V16.1895C1.26183 16.8691 2.16206 17.5929 3.67308 18.0909C3.78443 18.1276 3.89909 18.1631 4.01696 18.1973V9.30315C4.01696 9.04967 4.22247 8.84419 4.47591 8.84419C4.72935 8.84419 4.93487 9.04967 4.93487 9.30315V18.4215C5.8454 18.6066 6.89286 18.7167 8.04059 18.7167H11.2212V9.30315C11.2212 9.04967 11.4267 8.84419 11.6801 8.84419C11.9336 8.84419 12.1391 9.04967 12.1391 9.30315V18.7167H18.5398V12.3964C18.5398 12.1429 18.7454 11.9375 18.9988 11.9375C19.2522 11.9375 19.4578 12.1429 19.4578 12.3964V18.7166H22.466V7.24629L7.93542 7.23369C5.9826 7.22258 4.1439 6.90101 2.74769 6.32492ZM22.1221 7.58987L7.93346 7.57757C5.94882 7.56627 4.0639 7.24 2.61653 6.6428C2.24403 6.48909 1.90597 6.31906 1.60572 6.13392V16.1895C1.60572 16.3883 1.75454 16.6766 2.19909 17.0034C2.55132 17.2624 3.04817 17.5132 3.67308 17.7281V9.30315C3.67308 8.85972 4.03257 8.50031 4.47591 8.50031C4.91925 8.50031 5.27875 8.85972 5.27875 9.30315V18.1374C6.09993 18.2856 7.02926 18.3728 8.04059 18.3728H10.8773V9.30315C10.8773 8.85972 11.2368 8.50031 11.6801 8.50031C12.1235 8.50031 12.483 8.85972 12.483 9.30315V18.3728H18.196V12.3964C18.196 11.953 18.5555 11.5936 18.9988 11.5936C19.4421 11.5936 19.8016 11.953 19.8016 12.3964V18.3727H22.1221V7.58987ZM13.3249 6.32838L14.8194 6.32834V5.46726C14.7135 5.5554 14.5988 5.64126 14.4755 5.72465C14.3431 5.81421 14.2008 5.90091 14.0488 5.98448C13.8302 6.10468 13.5916 6.21841 13.3335 6.32487C13.3321 6.32548 13.3307 6.32605 13.3292 6.32663C13.3278 6.3272 13.3263 6.32777 13.3249 6.32838ZM12.7994 2.3961C11.6528 1.93338 10.0033 1.60572 8.04059 1.60572C6.07794 1.60572 4.42843 1.93338 3.28184 2.3961C2.70729 2.62797 2.27379 2.88781 1.99011 3.14478C1.70167 3.40606 1.60572 3.62801 1.60572 3.78908C1.60572 3.95015 1.70167 4.17211 1.99008 4.43338C2.27374 4.69034 2.70721 4.95018 3.28173 5.18204C4.42824 5.64476 6.07765 5.97242 8.04018 5.97244H8.04094C10.0035 5.97242 11.6529 5.64476 12.7995 5.18204C13.374 4.95018 13.8075 4.69034 14.0911 4.43338C14.3795 4.1721 14.4755 3.95015 14.4755 3.78908C14.4755 3.62801 14.3795 3.40606 14.0911 3.14478C13.8074 2.88781 13.3739 2.62797 12.7994 2.3961ZM14.8194 3.78908C14.8194 2.59374 12.0355 1.26183 8.04059 1.26183C4.04576 1.26183 1.26183 2.59374 1.26183 3.78908C1.26183 4.98441 4.04558 6.31628 8.04018 6.31632H8.04095C12.0356 6.31628 14.8194 4.98441 14.8194 3.78908Z" fill="white"/>
<path d="M18.9987 10.0813C19.2522 10.0813 19.4577 9.87584 19.4577 9.62235V9.30344C19.4577 9.04995 19.2522 8.84448 18.9987 8.84448C18.7453 8.84448 18.5398 9.04995 18.5398 9.30344V9.62235C18.5398 9.87584 18.7453 10.0813 18.9987 10.0813Z" fill="white"/>
<path fill-rule="evenodd" clip-rule="evenodd" d="M19.8017 9.62224C19.8017 10.0657 19.4422 10.4251 18.9989 10.4251C18.5555 10.4251 18.196 10.0657 18.196 9.62224V9.30332C18.196 8.8599 18.5555 8.50049 18.9989 8.50049C19.4422 8.50049 19.8017 8.8599 19.8017 9.30332V9.62224ZM19.4578 9.62224C19.4578 9.87572 19.2523 10.0812 18.9989 10.0812C18.7454 10.0812 18.5399 9.87572 18.5399 9.62224V9.30332C18.5399 9.04984 18.7454 8.84437 18.9989 8.84437C19.2523 8.84437 19.4578 9.04984 19.4578 9.30332V9.62224Z" fill="white"/>
</svg>
