<svg width="27" height="22" viewBox="0 0 27 22" fill="none" xmlns="http://www.w3.org/2000/svg">
<path d="M8.84583 7.45343C13.2433 7.45343 16.8082 5.98271 16.8082 4.16849C16.8082 2.35426 13.2433 0.883545 8.84583 0.883545C4.44831 0.883545 0.883423 2.35426 0.883423 4.16849C0.883423 5.98271 4.44831 7.45343 8.84583 7.45343Z" fill="#F5F5F5"/>
<path d="M8.8457 21.0953C13.2432 21.0953 16.808 19.6246 16.808 17.8102V4.16846C16.808 5.98281 13.2432 7.4536 8.8457 7.4536V21.0953Z" fill="#F5F5F5"/>
<path d="M8.84573 7.46691V7.45365C4.44826 7.4536 0.883423 5.98281 0.883423 4.16846V17.8102C0.883423 19.6245 4.44826 21.0953 8.84573 21.0953H25.22V7.46691H8.84573Z" fill="#F5F5F5"/>
<path d="M7.89894 4.61771H9.7921C10.0709 4.61771 10.297 4.39167 10.297 4.11281C10.297 3.83395 10.0709 3.60791 9.7921 3.60791H7.89894C7.62013 3.60791 7.39404 3.83395 7.39404 4.11281C7.39404 4.39167 7.62013 4.61771 7.89894 4.61771Z" fill="#AFAFAF"/>
<path fill-rule="evenodd" clip-rule="evenodd" d="M9.79224 4.99602H7.89907C7.41136 4.99602 7.01587 4.60064 7.01587 4.11282C7.01587 3.625 7.41135 3.22961 7.89907 3.22961H9.79224C10.28 3.22961 10.6754 3.625 10.6754 4.11282C10.6754 4.60064 10.28 4.99602 9.79224 4.99602ZM9.79224 4.61772H7.89907C7.62026 4.61772 7.39417 4.39168 7.39417 4.11282C7.39417 3.83396 7.62026 3.60792 7.89907 3.60792H9.79224C10.071 3.60792 10.2971 3.83396 10.2971 4.11282C10.2971 4.39168 10.071 4.61772 9.79224 4.61772Z" fill="#AFAFAF"/>
<path d="M25.22 6.96201H17.3129V4.16851C17.3129 3.07316 16.3737 2.08242 14.6684 1.37881C13.1049 0.733665 11.037 0.378418 8.84567 0.378418C6.65439 0.378418 4.58638 0.733714 3.02282 1.37881C1.31762 2.08242 0.378418 3.07316 0.378418 4.16851V17.8103C0.378418 18.9056 1.31762 19.8963 3.02282 20.5999C4.58638 21.2451 6.65429 21.6003 8.84557 21.6003H25.2199C25.4987 21.6003 25.7248 21.3743 25.7248 21.0954V7.46691C25.7249 7.18805 25.4988 6.96201 25.22 6.96201ZM14.6589 6.96201C14.662 6.96068 14.6653 6.95949 14.6684 6.95815C15.3334 6.6838 15.8813 6.36558 16.3031 6.01469V6.96196L14.6589 6.96201ZM8.84562 1.38827C13.2404 1.38827 16.303 2.85351 16.303 4.16851C16.303 5.4835 13.2406 6.9487 8.84602 6.94875H8.84562H8.84518C4.45068 6.9487 1.38827 5.4835 1.38827 4.16851C1.38827 2.85351 4.45088 1.38827 8.84562 1.38827ZM24.7151 7.97181V20.5904H21.4057V13.6375C21.4057 13.3587 21.1796 13.1326 20.9008 13.1326C20.622 13.1326 20.3959 13.3587 20.3959 13.6375V20.5905H13.3544V10.2346C13.3544 9.95572 13.1283 9.72968 12.8495 9.72968C12.5707 9.72968 12.3446 9.95572 12.3446 10.2346V20.5905H8.84562C7.583 20.5905 6.43068 20.4694 5.429 20.2658V10.2346C5.429 9.95572 5.20291 9.72968 4.9241 9.72968C4.64529 9.72968 4.4192 9.95572 4.4192 10.2346V20.0191C2.52995 19.4718 1.38827 18.613 1.38827 17.8103V6.01474C1.80995 6.36558 2.35787 6.6838 3.02287 6.9582C4.55885 7.59196 6.58162 7.94572 8.72993 7.95795L24.7151 7.97181Z" fill="#AFAFAF"/>
<path fill-rule="evenodd" clip-rule="evenodd" d="M2.87842 1.02899C4.49908 0.360331 6.61874 0 8.84556 0C11.0724 0 13.192 0.360279 14.8126 1.02899C16.5532 1.74719 17.6911 2.83071 17.6911 4.16839V6.58359H25.2199C25.7076 6.58359 26.1031 6.97895 26.103 7.4668C26.103 7.46678 26.103 7.46682 26.103 7.4668V21.0953C26.103 21.5831 25.7075 21.9785 25.2198 21.9785H8.84546C6.61864 21.9785 4.49908 21.6182 2.87841 20.9495C1.13787 20.2313 0 19.1478 0 17.8101V4.16839C0 2.83071 1.13789 1.74718 2.87842 1.02899ZM25.7247 7.4668V21.0953C25.7247 21.3742 25.4986 21.6002 25.2198 21.6002H8.84546C6.65418 21.6002 4.58626 21.245 3.0227 20.5998C1.31751 19.8962 0.378305 18.9055 0.378305 17.8101V4.16839C0.378305 3.07305 1.31751 2.08231 3.0227 1.3787C4.58626 0.733601 6.65428 0.378305 8.84556 0.378305C11.0368 0.378305 13.1048 0.733552 14.6683 1.3787C16.3736 2.08231 17.3128 3.07305 17.3128 4.16839V6.9619H25.2199C25.4987 6.9619 25.7248 7.18794 25.7247 7.4668ZM3.02275 6.95809C2.54152 6.75951 2.1216 6.53799 1.76646 6.29777C1.63085 6.20603 1.50468 6.11158 1.38815 6.01463V17.8101C1.38815 18.5578 2.3785 19.3541 4.04078 19.902C4.16328 19.9424 4.28942 19.9814 4.41909 20.0189V10.2345C4.41909 9.9556 4.64517 9.72956 4.92399 9.72956C5.2028 9.72956 5.42888 9.9556 5.42888 10.2345V20.2657C6.43057 20.4692 7.58289 20.5904 8.84551 20.5904H12.3445V10.2345C12.3445 9.9556 12.5706 9.72956 12.8494 9.72956C13.1282 9.72956 13.3543 9.9556 13.3543 10.2345V20.5904H20.3958V13.6374C20.3958 13.3585 20.6219 13.1325 20.9007 13.1325C21.1795 13.1325 21.4056 13.3585 21.4056 13.6374V20.5903H24.715V7.9717L8.72982 7.95784C6.58151 7.94561 4.55874 7.59185 3.02275 6.95809ZM24.3367 8.34968L8.72766 8.33614C6.54434 8.32371 4.47072 7.96478 2.87846 7.3078C2.46867 7.1387 2.09677 6.95165 1.76646 6.74797V17.8101C1.76646 18.0289 1.93018 18.346 2.41923 18.7056C2.80672 18.9904 3.35331 19.2664 4.04078 19.5028V10.2345C4.04078 9.74665 4.43626 9.35126 4.92399 9.35126C5.4117 9.35126 5.80719 9.74665 5.80719 10.2345V19.953C6.71057 20.1162 7.73294 20.2121 8.84551 20.2121H11.9662V10.2345C11.9662 9.74665 12.3617 9.35126 12.8494 9.35126C13.3371 9.35126 13.7326 9.74665 13.7326 10.2345V20.2121H20.0175V13.6374C20.0175 13.1496 20.413 12.7542 20.9007 12.7542C21.3884 12.7542 21.7839 13.1496 21.7839 13.6374V20.212H24.3367V8.34968ZM14.6588 6.9619L16.303 6.96185V6.01458C16.1864 6.11153 16.0603 6.20599 15.9247 6.29773C15.779 6.39626 15.6224 6.49163 15.4552 6.58357C15.2147 6.71581 14.9522 6.84092 14.6683 6.95804C14.6668 6.95871 14.6652 6.95934 14.6636 6.95997C14.662 6.9606 14.6604 6.96123 14.6588 6.9619ZM14.0807 2.63597C12.8193 2.12692 11.0047 1.76646 8.84551 1.76646C6.68638 1.76646 4.87175 2.12692 3.61038 2.63596C2.97831 2.89105 2.50141 3.1769 2.18933 3.45959C1.87202 3.74703 1.76646 3.9912 1.76646 4.16839C1.76646 4.34559 1.87202 4.58977 2.1893 4.87719C2.50136 5.15988 2.97823 5.44573 3.61026 5.70081C4.87154 6.20984 6.68607 6.5703 8.84506 6.57033H8.8459C11.0049 6.5703 12.8195 6.20984 14.0808 5.7008C14.7128 5.44573 15.1897 5.15988 15.5018 4.87719C15.819 4.58976 15.9246 4.34559 15.9246 4.16839C15.9246 3.9912 15.819 3.74703 15.5017 3.45959C15.1897 3.1769 14.7128 2.89105 14.0807 2.63597ZM16.3029 4.16839C16.3029 2.8534 13.2403 1.38815 8.84551 1.38815C4.45077 1.38815 1.38815 2.8534 1.38815 4.16839C1.38815 5.48339 4.45057 6.94858 8.84506 6.94863H8.84591C13.2404 6.94858 16.3029 5.48339 16.3029 4.16839Z" fill="#AFAFAF"/>
<path d="M20.9007 11.0905C21.1795 11.0905 21.4056 10.8645 21.4056 10.5856V10.2348C21.4056 9.9559 21.1795 9.72986 20.9007 9.72986C20.6218 9.72986 20.3958 9.9559 20.3958 10.2348V10.5856C20.3958 10.8645 20.6218 11.0905 20.9007 11.0905Z" fill="#AFAFAF"/>
<path fill-rule="evenodd" clip-rule="evenodd" d="M21.784 10.5855C21.784 11.0733 21.3885 11.4687 20.9008 11.4687C20.4131 11.4687 20.0176 11.0733 20.0176 10.5855V10.2346C20.0176 9.74683 20.4131 9.35144 20.9008 9.35144C21.3885 9.35144 21.784 9.74683 21.784 10.2346V10.5855ZM21.4057 10.5855C21.4057 10.8643 21.1796 11.0904 20.9008 11.0904C20.622 11.0904 20.3959 10.8643 20.3959 10.5855V10.2346C20.3959 9.95579 20.622 9.72975 20.9008 9.72975C21.1796 9.72975 21.4057 9.95579 21.4057 10.2346V10.5855Z" fill="#AFAFAF"/>
</svg>
