<svg width="51" height="51" viewBox="0 0 51 51" fill="none" xmlns="http://www.w3.org/2000/svg">
<g id="delivery_truck_shipping_package_fast_icon_196609 1" clip-path="url(#clip0_800_1091)">
<g id="Layer 2">
<g id="Workspace">
<path id="Vector" d="M11.2009 19.2309V15.0642H29.9509V31.7309" stroke="#797979" stroke-width="1.7693" stroke-linecap="round" stroke-linejoin="round"/>
<path id="Vector_2" d="M15.3676 31.7311H11.2009V27.5645" stroke="#797979" stroke-width="1.7693" stroke-linecap="round" stroke-linejoin="round"/>
<path id="Vector_3" d="M29.9509 17.1475H36.2009V23.3975L40.3676 25.4808V31.7308H36.2009" stroke="#797979" stroke-width="1.7693" stroke-linecap="round" stroke-linejoin="round"/>
<path id="Vector_4" d="M18.4932 34.856C20.2191 34.856 21.6182 33.4568 21.6182 31.731C21.6182 30.0051 20.2191 28.606 18.4932 28.606C16.7673 28.606 15.3682 30.0051 15.3682 31.731C15.3682 33.4568 16.7673 34.856 18.4932 34.856Z" stroke="#797979" stroke-width="1.7693" stroke-linecap="round" stroke-linejoin="round"/>
<path id="Vector_5" d="M33.0759 34.856C34.8018 34.856 36.2009 33.4568 36.2009 31.731C36.2009 30.0051 34.8018 28.606 33.0759 28.606C31.35 28.606 29.9509 30.0051 29.9509 31.731C29.9509 33.4568 31.35 34.856 33.0759 34.856Z" stroke="#797979" stroke-width="1.7693" stroke-linecap="round" stroke-linejoin="round"/>
<path id="Vector_6" d="M21.6179 31.731H29.9513" stroke="#797979" stroke-width="1.7693" stroke-linecap="round" stroke-linejoin="round"/>
<path id="Vector_7" d="M9.11792 19.231H21.6179" stroke="#797979" stroke-width="1.7693" stroke-linecap="round" stroke-linejoin="round"/>
<path id="Vector_8" d="M9.11792 23.3975H17.4513" stroke="#797979" stroke-width="1.7693" stroke-linecap="round" stroke-linejoin="round"/>
<path id="Vector_9" d="M9.11792 27.5645H13.2846" stroke="#797979" stroke-width="1.7693" stroke-linecap="round" stroke-linejoin="round"/>
</g>
</g>
</g>
<defs>
<clipPath id="clip0_800_1091">
<rect width="50" height="50" fill="white" transform="translate(0.784668 0.480957)"/>
</clipPath>
</defs>
</svg>
