<svg width="28" height="24" viewBox="0 0 28 24" fill="none" xmlns="http://www.w3.org/2000/svg">
<path d="M26.1875 7.13243H23.2559L22.13 2.69899C21.8234 1.49243 20.7397 0.648682 19.4947 0.648682H8.50531C7.26031 0.648682 6.17656 1.49149 5.87 2.69899L4.74406 7.13243H1.8125C0.83 7.13243 0.03125 7.93212 0.03125 8.91368V11.3746C0.03125 12.3571 0.83 13.1559 1.8125 13.1559H2.33937L4.83875 21.419C5.18844 22.574 6.23375 23.3512 7.44125 23.3512H20.5587C21.7662 23.3512 22.8116 22.5749 23.1612 21.419L25.6606 13.1559H26.1875C27.17 13.1559 27.9687 12.3562 27.9687 11.3746V8.91368C27.9687 7.93118 27.17 7.13243 26.1875 7.13243ZM7.50594 3.11337C7.62219 2.65587 8.03281 2.33618 8.50531 2.33618H19.4947C19.9672 2.33618 20.3778 2.65587 20.4941 3.11337L21.5141 7.13149H6.48594L7.50594 3.11337ZM21.5459 20.9306C21.4128 21.3693 21.0162 21.6627 20.5587 21.6627H7.44125C6.98375 21.6627 6.58625 21.3693 6.45406 20.9306L4.10281 13.1559H23.8981L21.5459 20.9306ZM26.2812 11.3746C26.2812 11.4262 26.2391 11.4684 26.1875 11.4684H1.8125C1.76094 11.4684 1.71875 11.4262 1.71875 11.3746V8.91368C1.71875 8.86212 1.76094 8.81993 1.8125 8.81993H26.1875C26.2391 8.81993 26.2812 8.86212 26.2812 8.91368V11.3746Z" fill="#E69AB1"/>
<path d="M9.95749 20.217C10.4234 20.217 10.8012 19.8392 10.8012 19.3733V15.447C10.8012 14.9811 10.4234 14.6033 9.95749 14.6033C9.49155 14.6033 9.11374 14.9811 9.11374 15.447V19.3733C9.11374 19.8383 9.49061 20.217 9.95749 20.217ZM14 20.217C14.4659 20.217 14.8437 19.8392 14.8437 19.3733V15.447C14.8437 14.9811 14.4659 14.6033 14 14.6033C13.5341 14.6033 13.1562 14.9811 13.1562 15.447V19.3733C13.1562 19.8383 13.5341 20.217 14 20.217ZM18.0434 20.217C18.5094 20.217 18.8872 19.8392 18.8872 19.3733V15.447C18.8872 14.9811 18.5094 14.6033 18.0434 14.6033C17.5775 14.6033 17.1997 14.9811 17.1997 15.447V19.3733C17.1997 19.8383 17.5766 20.217 18.0434 20.217Z" fill="#E69AB1"/>
</svg>
