<svg width="28" height="28" viewBox="0 0 28 28" fill="none" xmlns="http://www.w3.org/2000/svg">
<path d="M23.6271 4.08781C20.6946 1.08313 16.6061 -0.365312 12.4033 0.123126C6.42769 0.814063 1.61832 5.4425 0.706129 11.3816C0.0986292 15.3369 1.23019 19.2819 3.81488 22.2706L3.09113 26.7491C3.02644 27.1456 3.18957 27.5384 3.51675 27.7719C3.7005 27.9031 3.91332 27.9697 4.128 27.9697C4.29675 27.9697 4.4655 27.9284 4.62113 27.8459L8.52019 25.7787C10.6858 26.7453 13.0868 27.1184 15.498 26.8606C21.5111 26.2147 26.4827 21.4034 27.3189 15.4203C27.9058 11.2231 26.5605 7.0925 23.6271 4.08781ZM25.6483 15.1878C24.9171 20.4153 20.5727 24.6191 15.3171 25.1834C13.0793 25.4253 10.8443 25.0419 8.86425 24.0791C8.62238 23.9619 8.33738 23.9666 8.10019 24.0922L4.9605 25.7563L5.5455 22.1431C5.58675 21.8881 5.508 21.6284 5.33363 21.4381C2.90269 18.7934 1.82363 15.2216 2.37488 11.6375C3.17175 6.44844 7.37457 2.40313 12.5974 1.80031C13.0661 1.74594 13.5321 1.71969 13.9952 1.71969C17.1696 1.71969 20.1818 2.97406 22.4205 5.26719C24.9855 7.895 26.1621 11.5109 25.6483 15.1878Z" fill="#E69AB1"/>
<path d="M17.1462 9.84029H16.8218V9.59186C16.8218 8.03561 15.5552 6.76904 13.999 6.76904C12.4427 6.76904 11.1762 8.03561 11.1762 9.59186V9.84029H10.8518C9.87305 9.84029 9.07617 10.6372 9.07617 11.6159V16.5584C9.07617 17.8456 10.1234 18.8928 11.4105 18.8928H16.5855C17.8727 18.8928 18.9199 17.8456 18.9199 16.5584V11.6159C18.9218 10.6372 18.1249 9.84029 17.1462 9.84029ZM12.8646 9.59186C12.8646 8.96654 13.3737 8.45654 13.9999 8.45654C14.6262 8.45654 15.1352 8.96561 15.1352 9.59186V9.84029H12.8646V9.59186ZM17.2343 16.5584C17.2343 16.9147 16.9437 17.2053 16.5874 17.2053H11.4124C11.0552 17.2053 10.7655 16.9147 10.7655 16.5584V11.6159C10.7655 11.5672 10.8049 11.5278 10.8537 11.5278H17.1471C17.1959 11.5278 17.2352 11.5672 17.2352 11.6159L17.2343 16.5584Z" fill="#E69AB1"/>
</svg>
