<svg width="30" height="30" viewBox="0 0 30 30" fill="none" xmlns="http://www.w3.org/2000/svg">
<path d="M23.75 27.5H6.25C4.875 27.5 3.75 26.375 3.75 25V7.5C3.75 6.125 4.875 5 6.25 5H23.75C25.125 5 26.25 6.125 26.25 7.5V25C26.25 26.375 25.125 27.5 23.75 27.5Z" stroke="#E69AB1" stroke-width="2" stroke-linecap="round" stroke-linejoin="round"/>
<path d="M20 2.5V5" stroke="#E69AB1" stroke-width="2" stroke-linecap="round" stroke-linejoin="round"/>
<path d="M10 2.5V5" stroke="#E69AB1" stroke-width="2" stroke-linecap="round" stroke-linejoin="round"/>
<path d="M15 17.5C17.0711 17.5 18.75 15.8211 18.75 13.75C18.75 11.6789 17.0711 10 15 10C12.9289 10 11.25 11.6789 11.25 13.75C11.25 15.8211 12.9289 17.5 15 17.5Z" stroke="#E69AB1" stroke-width="2" stroke-linecap="round" stroke-linejoin="round"/>
<path d="M21.25 23.125C19.5 21.875 17.375 21.25 15 21.25C12.625 21.25 10.5 22 8.75 23.125" stroke="#E69AB1" stroke-width="2" stroke-linecap="round" stroke-linejoin="round"/>
</svg>
