<svg width="19" height="21" viewBox="0 0 19 21" fill="none" xmlns="http://www.w3.org/2000/svg">
<g id="Page-1">
<g id="Filter">
<path id="Path (Stroke)" fill-rule="evenodd" clip-rule="evenodd" d="M0.183594 3.20837C0.183594 2.79416 0.51938 2.45837 0.933594 2.45837H13.4336C13.8478 2.45837 14.1836 2.79416 14.1836 3.20837C14.1836 3.62259 13.8478 3.95837 13.4336 3.95837H0.933594C0.51938 3.95837 0.183594 3.62259 0.183594 3.20837Z" fill="white"/>
<path id="Path (Stroke)_2" fill-rule="evenodd" clip-rule="evenodd" d="M0.183594 10.5C0.183594 10.0858 0.51938 9.75 0.933594 9.75H7.18359C7.59781 9.75 7.93359 10.0858 7.93359 10.5C7.93359 10.9142 7.59781 11.25 7.18359 11.25H0.933594C0.51938 11.25 0.183594 10.9142 0.183594 10.5Z" fill="white"/>
<path id="Path (Stroke)_3" fill-rule="evenodd" clip-rule="evenodd" d="M10.6002 10.5C10.6002 10.0858 10.936 9.75 11.3502 9.75H17.6002C18.0144 9.75 18.3502 10.0858 18.3502 10.5C18.3502 10.9142 18.0144 11.25 17.6002 11.25H11.3502C10.936 11.25 10.6002 10.9142 10.6002 10.5Z" fill="white"/>
<path id="Path (Stroke)_4" fill-rule="evenodd" clip-rule="evenodd" d="M4.35022 17.7916C4.35022 17.3774 4.68601 17.0416 5.10022 17.0416H17.6002C18.0144 17.0416 18.3502 17.3774 18.3502 17.7916C18.3502 18.2058 18.0144 18.5416 17.6002 18.5416H5.10022C4.68601 18.5416 4.35022 18.2058 4.35022 17.7916Z" fill="white"/>
<path id="Oval (Stroke)" fill-rule="evenodd" clip-rule="evenodd" d="M15.5169 1.875C14.7805 1.875 14.1836 2.47195 14.1836 3.20833C14.1836 3.94471 14.7805 4.54167 15.5169 4.54167C16.2533 4.54167 16.8503 3.94471 16.8503 3.20833C16.8503 2.47195 16.2533 1.875 15.5169 1.875ZM12.6836 3.20833C12.6836 1.64353 13.9521 0.375 15.5169 0.375C17.0817 0.375 18.3503 1.64353 18.3503 3.20833C18.3503 4.77314 17.0817 6.04167 15.5169 6.04167C13.9521 6.04167 12.6836 4.77314 12.6836 3.20833Z" fill="white"/>
<path id="Oval (Stroke)_2" fill-rule="evenodd" clip-rule="evenodd" d="M9.26693 9.16663C8.53055 9.16663 7.93359 9.76358 7.93359 10.5C7.93359 11.2363 8.53055 11.8333 9.26693 11.8333C10.0033 11.8333 10.6003 11.2363 10.6003 10.5C10.6003 9.76358 10.0033 9.16663 9.26693 9.16663ZM6.43359 10.5C6.43359 8.93515 7.70212 7.66663 9.26693 7.66663C10.8317 7.66663 12.1003 8.93515 12.1003 10.5C12.1003 12.0648 10.8317 13.3333 9.26693 13.3333C7.70212 13.3333 6.43359 12.0648 6.43359 10.5Z" fill="white"/>
<path id="Oval (Stroke)_3" fill-rule="evenodd" clip-rule="evenodd" d="M3.01693 16.4584C2.28055 16.4584 1.68359 17.0553 1.68359 17.7917C1.68359 18.5281 2.28055 19.125 3.01693 19.125C3.75331 19.125 4.35026 18.5281 4.35026 17.7917C4.35026 17.0553 3.75331 16.4584 3.01693 16.4584ZM0.183594 17.7917C0.183594 16.2269 1.45212 14.9584 3.01693 14.9584C4.58173 14.9584 5.85026 16.2269 5.85026 17.7917C5.85026 19.3565 4.58173 20.625 3.01693 20.625C1.45212 20.625 0.183594 19.3565 0.183594 17.7917Z" fill="white"/>
</g>
</g>
</svg>
