<svg width="30" height="26" viewBox="0 0 30 26" fill="none" xmlns="http://www.w3.org/2000/svg">
<path fill-rule="evenodd" clip-rule="evenodd" d="M5.04193 0.678169C6.05368 0.232059 7.14431 0 8.25003 0C9.35577 0 10.4464 0.232059 11.4581 0.678169C12.4694 1.12405 13.3777 1.77296 14.1358 2.58003C14.5983 3.07232 15.4017 3.07232 15.8642 2.58003C17.3969 0.948469 19.5102 1.44503e-05 21.75 1.44503e-05C23.9898 1.44503e-05 26.1032 0.948469 27.6359 2.58003C29.1641 4.20675 30 6.38448 30 8.62838C30 10.8723 29.1641 13.0501 27.6359 14.6767L18.3386 24.5735C16.5519 26.4755 13.4481 26.4755 11.6614 24.5735L2.36419 14.6767C1.60629 13.87 1.01211 12.9199 0.60903 11.8841C0.205965 10.8482 0 9.74232 0 8.62838C0 7.51445 0.205965 6.40857 0.60903 5.37275C1.01211 4.33686 1.60629 3.38679 2.36419 2.58003C3.12235 1.77296 4.03074 1.12405 5.04193 0.678169Z" fill="#E69AB1"/>
</svg>
