<svg xmlns="http://www.w3.org/2000/svg" version="1.1" xmlns:xlink="http://www.w3.org/1999/xlink" width="512" height="512" x="0" y="0" viewBox="0 0 24 24" style="enable-background:new 0 0 512 512" xml:space="preserve" class=""><g><path d="M12 22.75A10.75 10.75 0 1 1 22.75 12 10.762 10.762 0 0 1 12 22.75zm0-20A9.25 9.25 0 1 0 21.25 12 9.26 9.26 0 0 0 12 2.75zm.75 13.75v-4.571a.75.75 0 0 0-1.5 0V16.5a.75.75 0 0 0 1.5 0zm.27-8a1 1 0 0 0-1-1h-.01a1 1 0 1 0 1.01 1z" fill="#000000" opacity="1" data-original="#000000" class=""></path></g></svg>