<svg width="28" height="28" viewBox="0 0 28 28" fill="none" xmlns="http://www.w3.org/2000/svg">
<path d="M23.375 0.535645H4.625C2.09188 0.535645 0.03125 2.59627 0.03125 5.12939V22.8706C0.03125 25.4038 2.09188 27.4644 4.625 27.4644H23.375C25.9081 27.4644 27.9688 25.4038 27.9688 22.8706V5.12939C27.9688 2.59627 25.9081 0.535645 23.375 0.535645ZM26.2812 22.8706C26.2812 24.4728 24.9772 25.7769 23.375 25.7769H4.625C3.02281 25.7769 1.71875 24.4728 1.71875 22.8706V5.12939C1.71875 3.52721 3.02281 2.22314 4.625 2.22314H23.375C24.9772 2.22314 26.2812 3.52721 26.2812 5.12939V22.8706Z" fill="#E69AB1"/>
<path d="M21.3688 6.84595H11.0657C10.5997 6.84595 10.2219 7.22376 10.2219 7.6897C10.2219 8.15563 10.5997 8.53345 11.0657 8.53345H21.3688C21.8347 8.53345 22.2126 8.15563 22.2126 7.6897C22.2126 7.22376 21.8347 6.84595 21.3688 6.84595ZM7.49568 6.84595H6.63037C6.16443 6.84595 5.78662 7.22376 5.78662 7.6897C5.78662 8.15563 6.16443 8.53345 6.63037 8.53345H7.49568C7.96162 8.53345 8.33943 8.15563 8.33943 7.6897C8.33943 7.22376 7.96256 6.84595 7.49568 6.84595ZM21.3688 13.1563H11.0657C10.5997 13.1563 10.2219 13.5341 10.2219 14C10.2219 14.4659 10.5997 14.8438 11.0657 14.8438H21.3688C21.8347 14.8438 22.2126 14.4659 22.2126 14C22.2126 13.5341 21.8347 13.1563 21.3688 13.1563ZM7.49568 13.1563H6.63037C6.16443 13.1563 5.78662 13.5341 5.78662 14C5.78662 14.4659 6.16443 14.8438 6.63037 14.8438H7.49568C7.96162 14.8438 8.33943 14.4659 8.33943 14C8.33943 13.5341 7.96256 13.1563 7.49568 13.1563ZM21.3688 19.4666H11.0657C10.5997 19.4666 10.2219 19.8444 10.2219 20.3103C10.2219 20.7763 10.5997 21.1541 11.0657 21.1541H21.3688C21.8347 21.1541 22.2126 20.7763 22.2126 20.3103C22.2126 19.8444 21.8347 19.4666 21.3688 19.4666ZM7.49568 19.4666H6.63037C6.16443 19.4666 5.78662 19.8444 5.78662 20.3103C5.78662 20.7763 6.16443 21.1541 6.63037 21.1541H7.49568C7.96162 21.1541 8.33943 20.7763 8.33943 20.3103C8.33943 19.8444 7.96256 19.4666 7.49568 19.4666Z" fill="#E69AB1"/>
</svg>
