<svg width="24" height="28" viewBox="0 0 24 28" fill="none" xmlns="http://www.w3.org/2000/svg">
<path d="M19.9144 7.75535H17.8229V5.8541C17.8229 2.6441 15.211 0.0322266 12.0001 0.0322266C8.79007 0.0322266 6.17819 2.6441 6.17819 5.8541V7.75629H4.08569C2.32788 7.75629 0.898193 9.18598 0.898193 10.9438V23.375C0.898193 25.9082 2.95882 27.9688 5.49194 27.9688H18.5091C21.0423 27.9688 23.1029 25.9082 23.1029 23.375V10.9429C23.1029 9.18504 21.6723 7.75535 19.9144 7.75535ZM7.86476 5.8541C7.86476 3.57316 9.72007 1.71879 12.0001 1.71879C14.2801 1.71879 16.1344 3.5741 16.1344 5.8541V7.75629H7.86476V5.8541ZM21.4144 23.375C21.4144 24.9772 20.1104 26.2813 18.5082 26.2813H5.49194C3.88976 26.2813 2.58569 24.9772 2.58569 23.375V10.9429C2.58569 10.116 3.25882 9.44285 4.08569 9.44285H19.9154C20.7423 9.44285 21.4154 10.116 21.4154 10.9429L21.4144 23.375Z" fill="#E69AB1"/>
<path d="M15.1042 17.0188H8.89697C8.43103 17.0188 8.05322 17.3966 8.05322 17.8626C8.05322 18.3285 8.43103 18.7063 8.89697 18.7063H15.1042C15.5701 18.7063 15.9479 18.3285 15.9479 17.8626C15.9479 17.3966 15.5701 17.0188 15.1042 17.0188Z" fill="#E69AB1"/>
</svg>
