<svg width="28" height="28" viewBox="0 0 28 28" fill="none" xmlns="http://www.w3.org/2000/svg">
<path d="M27.8141 7.19183L26.1537 2.63651C25.7628 1.57151 24.7362 0.856201 23.5991 0.856201H19.4553H14H8.54375H4.4C3.26281 0.856201 2.23625 1.57245 1.84437 2.63839L0.185 7.19183C0.0828125 7.47308 0.03125 7.76839 0.03125 8.06839V9.30214C0.03125 10.8284 0.875 12.1484 2.11063 12.8628V24.425C2.11063 25.924 3.33125 27.1437 4.82938 27.1437H23.1706C24.6697 27.1437 25.8894 25.9231 25.8894 24.425V12.8628C27.125 12.1493 27.9688 10.8284 27.9688 9.30214V8.06839C27.9688 7.76839 27.9172 7.47308 27.8141 7.19183ZM23.6 2.5437C24.0322 2.5437 24.4222 2.81464 24.5694 3.21683L25.9194 6.92089H21.2666L20.4688 2.5437H23.6ZM14.8437 2.5437H18.7522L19.55 6.92089H14.8437V2.5437ZM14.8437 8.60933H19.7188V9.30214C19.7188 10.6465 18.6256 11.7396 17.2812 11.7396C15.9369 11.7396 14.8437 10.6465 14.8437 9.30214V8.60933ZM9.24781 2.5437H13.1562V6.92089H8.45L9.24781 2.5437ZM8.28125 8.60933H13.1562V9.30214C13.1562 10.6465 12.0631 11.7396 10.7188 11.7396C9.37437 11.7396 8.28125 10.6465 8.28125 9.30214V8.60933ZM3.42969 3.2187C3.57781 2.81464 3.96781 2.5437 4.4 2.5437H7.53125L6.73344 6.92089H2.08062L3.42969 3.2187ZM1.71875 9.30214V8.60933H6.59375V9.30214C6.59375 10.6465 5.50063 11.7396 4.15625 11.7396C2.81188 11.7396 1.71875 10.6465 1.71875 9.30214ZM16.5144 25.4562H11.4866V20.6637C11.4866 20.0956 11.9487 19.6325 12.5178 19.6325H15.4841C16.0522 19.6325 16.5153 20.0946 16.5153 20.6637V25.4562H16.5144ZM24.2019 24.425C24.2019 24.9931 23.7397 25.4562 23.1706 25.4562H18.2019V20.6637C18.2019 19.1646 16.9813 17.945 15.4831 17.945H12.5169C11.0178 17.945 9.79812 19.1656 9.79812 20.6637V25.4562H4.82938C4.26125 25.4562 3.79813 24.994 3.79813 24.425V13.3915C3.91813 13.4018 4.03344 13.4281 4.15625 13.4281C5.49969 13.4281 6.68375 12.7728 7.4375 11.7753C8.19125 12.7728 9.37531 13.4281 10.7188 13.4281C12.0622 13.4281 13.2462 12.7728 14 11.7753C14.7537 12.7728 15.9378 13.4281 17.2812 13.4281C18.6247 13.4281 19.8088 12.7728 20.5625 11.7753C21.3162 12.7728 22.5003 13.4281 23.8438 13.4281C23.9666 13.4281 24.0819 13.4028 24.2019 13.3915V24.425ZM26.2812 9.30214C26.2812 10.6465 25.1881 11.7396 23.8438 11.7396C22.4994 11.7396 21.4062 10.6465 21.4062 9.30214V8.60933H26.2812V9.30214Z" fill="#E69AB1"/>
</svg>
