<svg width="24" height="30" viewBox="0 0 24 30" fill="none" xmlns="http://www.w3.org/2000/svg">
<path d="M12 30C11.5823 29.9964 11.17 29.9055 10.7894 29.7333C10.4088 29.5611 10.0684 29.3114 9.78999 29C6.13999 25 -1.32014e-05 17.39 -1.32014e-05 12.36C-0.0454455 9.13033 1.19277 6.01466 3.44272 3.69722C5.69267 1.37977 8.77039 0.0500248 12 0C15.2296 0.0500248 18.3073 1.37977 20.5573 3.69722C22.8072 6.01466 24.0454 9.13033 24 12.36C24 17.36 17.86 24.95 14.21 29.01C13.9306 29.3195 13.5898 29.5674 13.2093 29.7379C12.8288 29.9084 12.4169 29.9976 12 30ZM12 2C9.30166 2.05258 6.73416 3.17241 4.85983 5.11421C2.9855 7.05602 1.95714 9.6615 1.99999 12.36C1.99999 15.5 5.46999 21.22 11.28 27.67C11.3733 27.7668 11.4851 27.8438 11.6088 27.8963C11.7325 27.9489 11.8656 27.976 12 27.976C12.1344 27.976 12.2674 27.9489 12.3912 27.8963C12.5149 27.8438 12.6267 27.7668 12.72 27.67C18.53 21.22 22 15.5 22 12.36C22.0428 9.6615 21.0145 7.05602 19.1401 5.11421C17.2658 3.17241 14.6983 2.05258 12 2Z" fill="#282828"/>
<path d="M12 18C10.8133 18 9.65328 17.6481 8.66658 16.9888C7.67989 16.3295 6.91085 15.3925 6.45673 14.2961C6.0026 13.1997 5.88378 11.9933 6.11529 10.8295C6.3468 9.66558 6.91825 8.59648 7.75736 7.75736C8.59648 6.91825 9.66557 6.3468 10.8295 6.11529C11.9933 5.88378 13.1997 6.0026 14.2961 6.45673C15.3925 6.91085 16.3295 7.67989 16.9888 8.66658C17.6481 9.65328 18 10.8133 18 12C18 13.5913 17.3679 15.1174 16.2426 16.2426C15.1174 17.3679 13.5913 18 12 18ZM12 8C11.2089 8 10.4355 8.2346 9.77772 8.67412C9.11993 9.11365 8.60723 9.73836 8.30448 10.4693C8.00173 11.2002 7.92252 12.0044 8.07686 12.7804C8.2312 13.5563 8.61216 14.269 9.17158 14.8284C9.73099 15.3878 10.4437 15.7688 11.2196 15.9231C11.9956 16.0775 12.7998 15.9983 13.5307 15.6955C14.2616 15.3928 14.8864 14.8801 15.3259 14.2223C15.7654 13.5645 16 12.7911 16 12C16 10.9391 15.5786 9.92172 14.8284 9.17158C14.0783 8.42143 13.0609 8 12 8Z" fill="#282828"/>
</svg>
