<svg width="32" height="24" viewBox="0 0 32 24" fill="none" xmlns="http://www.w3.org/2000/svg">
<path fill-rule="evenodd" clip-rule="evenodd" d="M31.5 2C31.5 1.17157 30.8284 0.5 30 0.5H2C1.17157 0.5 0.5 1.17157 0.5 2C0.5 2.82843 1.17157 3.5 2 3.5H30C30.8284 3.5 31.5 2.82843 31.5 2ZM31.5 12C31.5 11.1716 30.8284 10.5 30 10.5H2C1.17157 10.5 0.5 11.1716 0.5 12C0.5 12.8284 1.17157 13.5 2 13.5H30C30.8284 13.5 31.5 12.8284 31.5 12ZM31.5 22C31.5 21.1716 30.8284 20.5 30 20.5H2C1.17157 20.5 0.5 21.1716 0.5 22C0.5 22.8284 1.17157 23.5 2 23.5H30C30.8284 23.5 31.5 22.8284 31.5 22Z" fill="white"/>
</svg>
