<svg width="27" height="28" viewBox="0 0 27 28" fill="none" xmlns="http://www.w3.org/2000/svg">
<g id="new  2">
<g id="&#208;&#161;&#208;&#187;&#208;&#190;&#208;&#185;_x0020_1">
<path id="Vector" d="M24.5448 13.7534C24.5484 13.7732 24.5548 13.795 24.5635 13.818L25.4605 16.1732C25.5068 16.2947 25.5418 16.4211 25.5657 16.55C25.59 16.6822 25.602 16.8125 25.602 16.9388C25.6013 17.2978 25.5115 17.6499 25.3428 17.962C25.1769 18.2689 24.9352 18.5382 24.6284 18.7392L22.5165 20.1175C22.4783 20.1431 22.4451 20.1749 22.4188 20.2111C22.3924 20.2477 22.3723 20.289 22.3605 20.3328L21.7021 22.7649C21.5748 23.2349 21.2982 23.6317 20.9331 23.9113C20.5672 24.1916 20.1111 24.3539 19.6266 24.3541C18.761 24.3541 17.8557 24.2515 16.9836 24.2253C16.94 24.2261 16.8978 24.2333 16.8589 24.247C16.819 24.2611 16.7814 24.2819 16.7482 24.3087L14.7859 25.8892C14.5923 26.0455 14.3773 26.1635 14.1526 26.2428C13.9221 26.3241 13.6794 26.3649 13.4371 26.3647C13.1946 26.3649 12.952 26.324 12.7216 26.2429C12.5231 26.1729 12.3323 26.0727 12.157 25.9426H12.1542L10.1263 24.309C10.0929 24.2821 10.0552 24.2611 10.0153 24.2471C9.97634 24.2334 9.93404 24.2261 9.89066 24.2261C9.21863 24.1854 8.00678 24.3161 7.28246 24.3554L7.28147 24.3537L7.24763 24.3541C6.76298 24.3539 6.30713 24.1916 5.94128 23.9115C5.57615 23.6319 5.29949 23.2349 5.17205 22.7649L4.51361 20.3328C4.50182 20.2889 4.48166 20.2475 4.45511 20.2108C4.42838 20.1739 4.39535 20.1421 4.35791 20.1177L2.24777 18.7398C2.13788 18.6686 2.03717 18.5887 1.9451 18.5017L1.92557 18.483C1.76681 18.3289 1.63469 18.1529 1.53173 17.9627C1.40501 17.7286 1.32275 17.4719 1.28954 17.2069C1.11422 16.9675 2.22131 14.068 2.31131 13.8177C2.31923 13.797 2.32535 13.7755 2.32931 13.7539C2.33291 13.7342 2.3348 13.7112 2.3348 13.6856C2.3348 13.6647 2.33354 13.6455 2.33102 13.6283C1.99856 12.7688 1.38026 11.1707 1.38026 11.1095L1.38197 11.1089C1.35083 11.0148 1.32626 10.9182 1.30817 10.8201C1.28396 10.6883 1.27199 10.5584 1.27199 10.4324C1.27271 10.0734 1.36262 9.7212 1.53146 9.40917C1.59572 9.29028 1.67141 9.17697 1.7579 9.07113L1.70282 8.98689L2.24606 8.63211L2.24705 8.63139V8.63148L4.35692 7.25466C4.39517 7.22901 4.42856 7.19706 4.45502 7.16061C4.48166 7.1238 4.50182 7.08231 4.51361 7.03839L5.17214 4.60515C5.2994 4.13598 5.57588 3.73926 5.94137 3.45945C6.30785 3.17892 6.7637 3.01629 7.24763 3.01629C7.35563 3.06768 9.65234 3.13878 9.88967 3.14571C9.93377 3.1449 9.97643 3.13779 10.0153 3.1242C10.0555 3.1098 10.0934 3.08874 10.1267 3.06201C10.7804 2.53551 11.435 2.00982 12.0879 1.48242C12.4654 1.17813 12.9772 1.12476 13.4363 1.00659C13.6796 1.00641 13.9223 1.04727 14.153 1.12863C14.3776 1.20801 14.5924 1.32609 14.786 1.48242L16.7478 3.06237C16.7813 3.08946 16.8188 3.11025 16.8579 3.12393H16.8589C16.8979 3.13761 16.9404 3.14481 16.9845 3.14481C17.2179 3.14418 19.5781 3.03933 19.6265 3.01629C20.1104 3.01629 20.5662 3.17892 20.9328 3.45954C21.2982 3.73926 21.5747 4.13589 21.702 4.60515L22.3604 7.03839C22.3722 7.08204 22.3922 7.12335 22.4187 7.15989C22.445 7.19616 22.4781 7.22802 22.5161 7.25295L24.6264 8.63148C24.9342 8.83218 25.1762 9.10146 25.3423 9.40845C25.5112 9.72066 25.6012 10.073 25.6011 10.4321C25.602 10.5584 25.5899 10.6887 25.5656 10.8206C25.5419 10.9494 25.5069 11.076 25.4607 11.1975L24.5637 13.5521C24.555 13.5743 24.5487 13.5964 24.5448 13.6174C24.5412 13.637 24.5394 13.66 24.5394 13.6856C24.5394 13.7111 24.5413 13.7339 24.5448 13.7534ZM18.5244 10.4275L19.2819 10.2785C19.3859 10.2575 19.469 10.2839 19.5356 10.3466L19.5365 10.3475C19.5949 10.4031 19.6214 10.4731 19.6244 10.5532C19.6658 11.6702 19.4343 13.5014 19.3569 14.6902C19.354 14.7617 19.3272 14.8277 19.2804 14.8809C19.2363 14.932 19.1741 14.9686 19.0995 14.9829L18.5071 15.1002C18.4333 15.1147 18.3659 15.1038 18.3048 15.0733H18.3039C18.2432 15.0428 18.1977 14.9958 18.1655 14.9386L17.3406 13.2992L17.1944 15.1195L17.1925 15.1307C17.1843 15.1961 17.1598 15.2565 17.1148 15.3077C17.071 15.3585 17.0122 15.3939 16.9372 15.4084L16.3448 15.5254C16.2712 15.5398 16.2022 15.5272 16.1401 15.4932C16.0849 15.4634 16.0418 15.4187 16.0107 15.3653C15.5417 14.433 14.8937 13.2317 14.4312 12.207C14.4439 12.2847 14.4267 12.3582 14.3863 12.4186C14.3449 12.4823 14.2798 12.5268 14.1997 12.5441L12.6567 12.8476L12.7361 13.2519L13.9866 13.0061C14.0679 12.9907 14.1455 13.0076 14.2093 13.0506L14.2102 13.0515C14.2733 13.0948 14.3183 13.1602 14.3345 13.2419L14.4582 13.8699C14.4739 13.9521 14.4567 14.0296 14.4139 14.0934L14.413 14.0943C14.3694 14.1586 14.3034 14.2033 14.2225 14.2193L12.9749 14.4647L13.0614 14.9041L14.6066 14.6006C14.6869 14.5867 14.7617 14.6042 14.8245 14.6469L14.8264 14.6478C14.8892 14.6911 14.9335 14.7567 14.9493 14.8378L15.0743 15.4731C15.0903 15.5539 15.0735 15.6313 15.0304 15.6955C14.9881 15.7585 14.9237 15.8034 14.8451 15.8204C14.0255 16.0203 13.0937 16.1648 12.2558 16.3296C12.174 16.3456 12.0968 16.329 12.0325 16.2859C11.9682 16.244 11.9236 16.1786 11.9065 16.0979C11.692 15.1973 11.2019 13.0292 11.1368 12.1828C11.1213 12.1021 11.1375 12.0248 11.1811 11.9601C11.2227 11.8978 11.2849 11.8538 11.3625 11.8361C12.039 11.6899 13.3206 11.3789 13.958 11.3258C14.039 11.3104 14.1162 11.3267 14.1802 11.37L14.195 11.3807C14.226 11.3234 14.2743 11.2799 14.3428 11.2541C14.3587 11.2481 14.3766 11.2427 14.3948 11.2392L15.1593 11.0893C15.2368 11.0742 15.3078 11.0858 15.3703 11.1203C15.4338 11.1557 15.4804 11.21 15.5071 11.2786L16.2058 12.8434L16.3311 11.0877C16.3393 11.0221 16.3641 10.9619 16.4081 10.9108L16.409 10.9099C16.4532 10.8593 16.5111 10.8241 16.5858 10.809L17.1025 10.7069C17.1778 10.6925 17.2472 10.705 17.3096 10.7397C17.3638 10.7699 17.4066 10.8143 17.4376 10.8689L18.2347 12.4451L18.2731 10.7391C18.2705 10.6584 18.2931 10.5903 18.3408 10.5329C18.3882 10.4764 18.4495 10.442 18.5244 10.4275ZM9.81281 12.1403C9.97364 12.1087 10.3766 12.004 10.5134 12.004C10.5834 11.9971 10.6498 12.0147 10.7063 12.0527C10.7709 12.0959 10.8161 12.1616 10.8323 12.2439C10.9896 13.0424 11.3693 15.5744 11.6011 16.1541C11.6174 16.2359 11.6006 16.3132 11.5582 16.3772C11.5157 16.4414 11.4503 16.4864 11.3697 16.5032C11.3633 16.5065 10.6759 16.6433 10.6581 16.6433C10.5926 16.6553 10.533 16.6522 10.4739 16.6313C10.4149 16.6102 10.3661 16.5753 10.3231 16.5256L8.94557 14.9163L9.27902 16.6109C9.29468 16.6938 9.27794 16.7715 9.23573 16.8348H9.23474C9.1919 16.8988 9.12665 16.9436 9.0461 16.9604C8.9327 16.9969 8.49755 17.0786 8.37209 17.0931C8.29001 17.1088 8.21198 17.0913 8.14817 17.0477C8.08454 17.0037 8.04035 16.9387 8.02424 16.8583C7.78169 15.5645 7.5305 14.2313 7.25501 12.9457C7.23899 12.8638 7.25591 12.7872 7.29893 12.7232C7.34132 12.6595 7.4054 12.6153 7.48505 12.5985C7.65929 12.5423 8.00534 12.4959 8.20145 12.4573C8.26355 12.4451 8.32637 12.4485 8.38739 12.4701C8.44391 12.4901 8.49548 12.5248 8.53949 12.576L9.91091 14.1876L9.57737 12.4904C9.56135 12.409 9.57827 12.3317 9.62075 12.2678C9.66359 12.2026 9.72911 12.158 9.81002 12.1412L9.81281 12.1403ZM22.7997 13.2968L22.8126 13.2323L22.7889 13.2233L23.8013 10.5657C23.8104 10.5416 23.8169 10.5196 23.8205 10.4998C23.8241 10.48 23.826 10.4572 23.826 10.432C23.8268 10.3699 23.8107 10.3078 23.7805 10.2521C23.7519 10.1991 23.71 10.1525 23.657 10.118L21.5469 8.7402C21.3254 8.59593 21.1348 8.41323 20.9823 8.20317C20.83 7.99347 20.7153 7.7556 20.6463 7.50072L19.9879 5.06838C19.966 4.98693 19.9178 4.91781 19.8547 4.86948C19.7912 4.82088 19.7128 4.79226 19.6305 4.79145C18.7524 4.81152 17.8646 4.89738 16.9845 4.92087C16.7405 4.92087 16.4981 4.87884 16.2686 4.79802C16.0413 4.71801 15.8265 4.59912 15.6349 4.44486L13.6725 2.86428C13.6385 2.83683 13.6011 2.81613 13.562 2.80236C13.5231 2.78868 13.4808 2.78175 13.4372 2.78175C13.3954 2.78094 13.353 2.78823 13.3119 2.80263C13.273 2.8164 13.2358 2.83692 13.2018 2.86428L11.2391 4.44522C11.0475 4.59939 10.8328 4.71828 10.6053 4.79838C10.376 4.8792 10.1341 4.92123 9.88976 4.92123C9.37793 4.7964 7.83362 4.80513 7.24547 4.79145C7.16276 4.7919 7.08356 4.82061 7.01957 4.86957C6.95639 4.9179 6.90824 4.98702 6.88637 5.06847L6.22793 7.50072C6.1589 7.75578 6.04424 7.99356 5.89205 8.20317C5.7395 8.41332 5.54879 8.59593 5.32829 8.7402L3.21707 10.1181C3.16415 10.1526 3.12221 10.1993 3.0935 10.2523C3.06344 10.308 3.04724 10.3702 3.04715 10.4324C3.04715 10.4543 3.04931 10.4773 3.05363 10.5006C3.05741 10.5215 3.06362 10.5434 3.07217 10.5661L3.96956 12.9197C4.00601 13.015 4.03553 13.1139 4.05812 13.2151C4.13894 14.0031 3.68804 15.3224 3.07253 16.8063C3.06362 16.8297 3.05732 16.8514 3.05372 16.871C3.04949 16.894 3.04733 16.9168 3.04733 16.9387C3.04742 17.0009 3.06362 17.0632 3.09377 17.1191C3.12257 17.1725 3.16442 17.2192 3.21734 17.2537L5.32694 18.6312C5.5487 18.7758 5.73968 18.9583 5.89187 19.1679C6.04424 19.3776 6.1589 19.6155 6.22802 19.8707L6.88646 22.3027C6.90842 22.3842 6.95648 22.4532 7.01957 22.5016C7.08311 22.5502 7.16168 22.5788 7.24385 22.5796C7.4639 22.5753 9.81101 22.4881 9.89075 22.4502C10.1351 22.4502 10.3769 22.4924 10.6059 22.573C10.8334 22.6533 11.0481 22.7724 11.2395 22.9264L13.2015 24.507C13.2355 24.5345 13.273 24.5551 13.3122 24.5689C13.3513 24.5826 13.3936 24.5896 13.4372 24.5896C13.4808 24.5896 13.5231 24.5827 13.5622 24.5689C13.6012 24.5553 13.6386 24.5346 13.6727 24.507L15.6345 22.9264C15.826 22.7722 16.0407 22.6531 16.2682 22.5727C16.4973 22.492 16.7392 22.4498 16.9836 22.4498C17.5008 22.576 19.0235 22.5622 19.6312 22.5796C19.7133 22.5786 19.7915 22.5501 19.8547 22.5016C19.9178 22.4533 19.9659 22.3842 19.9879 22.3026L20.6463 19.8706C20.7154 19.6154 20.8301 19.3775 20.9824 19.1678C21.007 19.1339 21.0327 19.1007 21.0593 19.0683L23.657 17.2536C23.7098 17.2191 23.7517 17.1724 23.7804 17.1191C23.8106 17.0633 23.8268 17.0011 23.8269 16.9389C23.826 16.9138 23.8242 16.8911 23.8206 16.8715C23.8173 16.8533 23.8114 16.833 23.8032 16.8109L22.9047 14.4517C22.8587 14.3308 22.8236 14.2045 22.7997 14.0747C22.7755 13.9434 22.7634 13.813 22.7634 13.6856C22.7634 13.5584 22.7755 13.428 22.7997 13.2968Z" fill="#E69AB1"/>
</g>
</g>
</svg>
