<svg width="23" height="28" viewBox="0 0 23 28" fill="none" xmlns="http://www.w3.org/2000/svg">
<path fill-rule="evenodd" clip-rule="evenodd" d="M19.5672 7.02941H3.43284C2.67448 7.02941 2.0597 7.63514 2.0597 8.38235V24.6176C2.0597 25.3649 2.67447 25.9706 3.43284 25.9706H19.5672C20.3255 25.9706 20.9403 25.3649 20.9403 24.6176V8.38235C20.9403 7.63514 20.3255 7.02941 19.5672 7.02941ZM3.43284 5C1.53693 5 0 6.51433 0 8.38235V24.6176C0 26.4857 1.53693 28 3.43284 28H19.5672C21.4631 28 23 26.4857 23 24.6176V8.38235C23 6.51433 21.4631 5 19.5672 5H3.43284Z" fill="#B9B9B9"/>
<path fill-rule="evenodd" clip-rule="evenodd" d="M11.5526 1.99213C9.89009 1.99213 7.9828 3.16991 6.88624 6L5 5.28872C6.30483 1.92109 8.82509 1.34572e-06 11.5526 0C14.2873 -1.26656e-06 16.773 1.93039 18 5.30834L16.099 5.98038C15.0748 3.16059 13.2079 1.99213 11.5526 1.99213Z" fill="#B9B9B9"/>
</svg>
