<svg width="21" height="19" viewBox="0 0 21 19" fill="none" xmlns="http://www.w3.org/2000/svg">
<path d="M18.3125 18.0938H2.6875C2.0659 18.0938 1.46976 17.8468 1.03022 17.4073C0.59068 16.9677 0.34375 16.3716 0.34375 15.75V6.375C0.34375 5.7534 0.59068 5.15726 1.03022 4.71772C1.46976 4.27818 2.0659 4.03125 2.6875 4.03125H5.98438L6.32031 2.67969C6.44743 2.173 6.74017 1.72331 7.15206 1.40201C7.56394 1.08071 8.07137 0.90622 8.59375 0.90625H12.4062C12.9286 0.90622 13.4361 1.08071 13.8479 1.40201C14.2598 1.72331 14.5526 2.173 14.6797 2.67969L15.0156 4.03125H18.3125C18.9341 4.03125 19.5302 4.27818 19.9698 4.71772C20.4093 5.15726 20.6562 5.7534 20.6562 6.375V15.75C20.6562 16.3716 20.4093 16.9677 19.9698 17.4073C19.5302 17.8468 18.9341 18.0938 18.3125 18.0938ZM2.6875 5.59375C2.4803 5.59375 2.28159 5.67606 2.13507 5.82257C1.98856 5.96909 1.90625 6.1678 1.90625 6.375V15.75C1.90625 15.9572 1.98856 16.1559 2.13507 16.3024C2.28159 16.4489 2.4803 16.5312 2.6875 16.5312H18.3125C18.5197 16.5312 18.7184 16.4489 18.8649 16.3024C19.0114 16.1559 19.0938 15.9572 19.0938 15.75V6.375C19.0938 6.1678 19.0114 5.96909 18.8649 5.82257C18.7184 5.67606 18.5197 5.59375 18.3125 5.59375H14.4062C14.2278 5.59895 14.0529 5.54286 13.9108 5.43483C13.7686 5.3268 13.6678 5.17334 13.625 5L13.1406 3.05469C13.0963 2.8828 12.9948 2.73111 12.8528 2.62461C12.7108 2.51811 12.5368 2.46314 12.3594 2.46875H8.59375C8.41634 2.46314 8.2423 2.51811 8.10029 2.62461C7.95829 2.73111 7.85679 2.8828 7.8125 3.05469L7.375 5C7.33223 5.17334 7.23137 5.3268 7.08922 5.43483C6.94708 5.54286 6.77221 5.59895 6.59375 5.59375H2.6875Z" fill="#797979"/>
<path d="M10.5 14.9688C9.72742 14.9688 8.97219 14.7397 8.32981 14.3104C7.68743 13.8812 7.18675 13.2711 6.8911 12.5574C6.59544 11.8436 6.51809 11.0582 6.66881 10.3004C6.81953 9.54269 7.19157 8.84667 7.73787 8.30037C8.28417 7.75407 8.98019 7.38203 9.73793 7.23131C10.4957 7.08059 11.2811 7.15794 11.9949 7.4536C12.7086 7.74925 13.3187 8.24993 13.7479 8.89231C14.1772 9.53469 14.4063 10.2899 14.4063 11.0625C14.4063 11.5755 14.3052 12.0834 14.1089 12.5574C13.9126 13.0313 13.6249 13.4619 13.2621 13.8246C12.8994 14.1874 12.4688 14.4751 11.9949 14.6714C11.5209 14.8677 11.013 14.9688 10.5 14.9688ZM10.5 8.71875C10.0365 8.71875 9.58331 8.85621 9.19788 9.11375C8.81246 9.37128 8.51205 9.73732 8.33466 10.1656C8.15727 10.5939 8.11085 11.0651 8.20129 11.5197C8.29172 11.9744 8.51494 12.392 8.84272 12.7198C9.1705 13.0476 9.58812 13.2708 10.0428 13.3612C10.4974 13.4517 10.9687 13.4052 11.3969 13.2278C11.8252 13.0505 12.1912 12.75 12.4488 12.3646C12.7063 11.9792 12.8438 11.5261 12.8438 11.0625C12.8438 10.4409 12.5968 9.84476 12.1573 9.40522C11.7177 8.96568 11.1216 8.71875 10.5 8.71875Z" fill="#797979"/>
<path d="M16.75 8.71875H15.9688C15.7615 8.71875 15.5628 8.63644 15.4163 8.48993C15.2698 8.34341 15.1875 8.1447 15.1875 7.9375C15.1875 7.7303 15.2698 7.53159 15.4163 7.38507C15.5628 7.23856 15.7615 7.15625 15.9688 7.15625H16.75C16.9572 7.15625 17.1559 7.23856 17.3024 7.38507C17.4489 7.53159 17.5312 7.7303 17.5312 7.9375C17.5312 8.1447 17.4489 8.34341 17.3024 8.48993C17.1559 8.63644 16.9572 8.71875 16.75 8.71875Z" fill="#797979"/>
</svg>
