<svg width="16" height="20" viewBox="0 0 16 20" fill="none" xmlns="http://www.w3.org/2000/svg">
<path d="M14.3803 2.52254H10.859C10.6347 1.09826 9.43467 0 7.96185 0C6.48903 0 5.26588 1.09826 5.06472 2.52254H1.59422C0.919061 2.52254 0.371094 3.07283 0.371094 3.74566V4.99422C0.371094 5.61851 0.819656 6.11791 1.42081 6.19191V18.3769C1.42081 19.2763 2.14451 20 3.04393 20H12.9561C13.8555 20 14.5792 19.2763 14.5792 18.3769V6.21504C15.178 6.11561 15.6289 5.61621 15.6289 5.01735V3.7688C15.6035 3.07283 15.0532 2.52254 14.3803 2.52254ZM7.96185 0.924855C8.93527 0.924855 9.73526 1.60001 9.90867 2.52254H5.98957C6.18844 1.62312 6.98843 0.924855 7.96185 0.924855ZM13.6312 18.4046C13.6312 18.7792 13.3306 19.1029 12.9329 19.1029H3.0185C2.64393 19.1029 2.32023 18.8023 2.32023 18.4046V6.24277H13.6081V18.4046H13.6312ZM14.6786 4.99422C14.6786 5.16994 14.5538 5.29481 14.378 5.29481H1.59189C1.41616 5.29481 1.2913 5.16994 1.2913 4.99422V3.74566C1.2913 3.56993 1.41616 3.44507 1.59189 3.44507H14.3526C14.5283 3.44507 14.6532 3.56993 14.6532 3.74566V4.99422H14.6786ZM4.39189 16.7052V8.8162C4.39189 8.5665 4.59073 8.36764 4.84045 8.36764C5.09018 8.36764 5.28901 8.56647 5.28901 8.8162V16.7052C5.28901 16.9549 5.09018 17.1538 4.84045 17.1538C4.59075 17.1815 4.39189 16.9549 4.39189 16.7052ZM7.56185 16.7052V8.8162C7.56185 8.5665 7.76069 8.36764 8.01042 8.36764C8.26012 8.36764 8.45898 8.56647 8.45898 8.8162V16.7052C8.45898 16.9549 8.26014 17.1538 8.01042 17.1538C7.76299 17.1815 7.56185 16.9549 7.56185 16.7052ZM10.7341 16.7052V8.8162C10.7341 8.5665 10.9329 8.36764 11.1827 8.36764C11.4324 8.36764 11.6312 8.56647 11.6312 8.8162V16.7052C11.6312 16.9549 11.4324 17.1538 11.1827 17.1538C10.9584 17.1815 10.7341 16.9549 10.7341 16.7052Z" fill="#797979"/>
</svg>
