<svg width="42" height="42" viewBox="0 0 42 42" fill="none" xmlns="http://www.w3.org/2000/svg">
<path fill-rule="evenodd" clip-rule="evenodd" d="M20.825 3.19998L19.2995 4.74759C17.9488 6.11793 15.9623 6.65021 14.1074 6.13882L12.0125 5.56129L11.4652 7.66429C10.9806 9.52641 9.52642 10.9806 7.66429 11.4652L5.56129 12.0125L6.13882 14.1074C6.6502 15.9623 6.11794 17.9488 4.74759 19.2995L3.19998 20.825L4.74759 22.3505C6.11793 23.7012 6.65021 25.6877 6.13882 27.5426L5.56129 29.6375L7.66429 30.1848C9.52641 30.6694 10.9806 32.1236 11.4652 33.9857L12.0125 36.0887L14.1074 35.5112C15.9623 34.9998 17.9488 35.5321 19.2995 36.9024L20.825 38.45L22.3505 36.9024C23.7012 35.5321 25.6877 34.9998 27.5426 35.5112L29.6375 36.0887L30.1848 33.9857C30.6694 32.1236 32.1236 30.6694 33.9857 30.1848L36.0887 29.6375L35.5112 27.5426C34.9998 25.6877 35.5321 23.7012 36.9024 22.3505L38.45 20.825L36.9024 19.2995C35.5321 17.9488 34.9998 15.9623 35.5112 14.1074L36.0887 12.0125L33.9857 11.4652C32.1236 10.9806 30.6694 9.52642 30.1848 7.66429L29.6375 5.56129L27.5426 6.13882C25.6877 6.6502 23.7012 6.11794 22.3505 4.74759L20.825 3.19998ZM22.5055 0.703188C21.5813 -0.234395 20.0687 -0.234396 19.1445 0.703187L17.1989 2.67702C16.5986 3.28606 15.7157 3.52262 14.8913 3.29534L12.2195 2.55875C10.9503 2.20887 9.64031 2.96519 9.30875 4.23925L8.61073 6.92143C8.39535 7.74904 7.74904 8.39535 6.92143 8.61073L4.23925 9.30875C2.96519 9.64031 2.20887 10.9503 2.55875 12.2195L3.29534 14.8913C3.52262 15.7157 3.28606 16.5986 2.67702 17.1989L0.703188 19.1445C-0.234395 20.0687 -0.234396 21.5813 0.703187 22.5055L2.67702 24.4511C3.28606 25.0514 3.52262 25.9343 3.29534 26.7587L2.55875 29.4306C2.20887 30.6997 2.96519 32.0097 4.23925 32.3413L6.92143 33.0393C7.74904 33.2547 8.39535 33.901 8.61073 34.7286L9.30875 37.4108C9.64031 38.6848 10.9503 39.4412 12.2195 39.0913L14.8913 38.3547C15.7157 38.1274 16.5986 38.364 17.1989 38.973L19.1445 40.9468C20.0687 41.8844 21.5813 41.8844 22.5055 40.9468L24.4511 38.973C25.0514 38.364 25.9343 38.1274 26.7587 38.3547L29.4306 39.0913C30.6997 39.4412 32.0097 38.6848 32.3413 37.4108L33.0393 34.7286C33.2547 33.901 33.901 33.2547 34.7286 33.0393L37.4108 32.3413C38.6848 32.0097 39.4412 30.6997 39.0913 29.4306L38.3547 26.7587C38.1274 25.9343 38.364 25.0514 38.973 24.4511L40.9468 22.5055C41.8844 21.5813 41.8844 20.0687 40.9468 19.1445L38.973 17.1989C38.364 16.5986 38.1274 15.7157 38.3547 14.8913L39.0913 12.2195C39.4412 10.9503 38.6848 9.64031 37.4108 9.30875L34.7286 8.61073C33.901 8.39535 33.2547 7.74904 33.0393 6.92143L32.3413 4.23925C32.0097 2.96519 30.6997 2.20887 29.4306 2.55875L26.7587 3.29534C25.9343 3.52262 25.0514 3.28606 24.4511 2.67702L22.5055 0.703188Z" fill="#E69AB1"/>
<path fill-rule="evenodd" clip-rule="evenodd" d="M29.5189 12.4468C30.0849 13.0324 30.0691 13.9661 29.4835 14.5321L13.9069 29.5896C13.3213 30.1557 12.3876 30.1398 11.8215 29.5542C11.2554 28.9686 11.2712 28.035 11.8569 27.4689L27.4335 12.4114C28.0191 11.8454 28.9528 11.8612 29.5189 12.4468Z" fill="#E69AB1"/>
<path d="M17.8755 15.2208C17.8755 16.6869 16.6869 17.8754 15.2209 17.8754C13.7548 17.8754 12.5663 16.6869 12.5663 15.2208C12.5663 13.7547 13.7548 12.5662 15.2209 12.5662C16.6869 12.5662 17.8755 13.7547 17.8755 15.2208Z" fill="#E69AB1"/>
<path d="M29.0838 26.4291C29.0838 27.8952 27.8953 29.0837 26.4292 29.0837C24.9631 29.0837 23.7746 27.8952 23.7746 26.4291C23.7746 24.963 24.9631 23.7745 26.4292 23.7745C27.8953 23.7745 29.0838 24.963 29.0838 26.4291Z" fill="#E69AB1"/>
</svg>
