<svg width="26" height="27" viewBox="0 0 26 27" fill="none" xmlns="http://www.w3.org/2000/svg">
<path fill-rule="evenodd" clip-rule="evenodd" d="M2.09765 10.7432C2.09762 10.743 2.09768 10.7435 2.09765 10.7432L3.60149 23.3018C3.65714 23.7737 4.05703 24.1291 4.53203 24.1291H21.2547C21.7297 24.1291 22.1296 23.7737 22.1852 23.3018L22.1854 23.3L23.6892 10.7432C23.6891 10.7433 23.6892 10.7431 23.6892 10.7432C23.7546 10.1863 23.3195 9.69653 22.7586 9.69653H3.02818C2.46747 9.69653 2.03246 10.1864 2.09765 10.7432ZM0.111403 10.9773C-0.094428 9.2312 1.26977 7.69653 3.02818 7.69653H22.7586C24.517 7.69653 25.8812 9.2312 25.6754 10.9773L25.6752 10.9792L24.1715 23.5361C23.997 25.0148 22.7437 26.1291 21.2547 26.1291H4.53203C3.04329 26.1291 1.79021 25.0153 1.61537 23.5371C1.61533 23.5367 1.61541 23.5374 1.61537 23.5371L0.111403 10.9773Z" fill="white"/>
<path fill-rule="evenodd" clip-rule="evenodd" d="M12.8933 2.06519C10.5332 2.06519 8.61987 3.97847 8.61987 6.33862V12.4464C8.61987 12.9987 8.17216 13.4464 7.61987 13.4464C7.06759 13.4464 6.61987 12.9987 6.61987 12.4464V6.33862C6.61987 2.8739 9.42859 0.0651855 12.8933 0.0651855C16.358 0.0651855 19.1667 2.8739 19.1667 6.33862V12.4464C19.1667 12.9987 18.719 13.4464 18.1667 13.4464C17.6145 13.4464 17.1667 12.9987 17.1667 12.4464V6.33862C17.1667 3.97847 15.2535 2.06519 12.8933 2.06519Z" fill="white"/>
</svg>
