<svg width="28" height="24" viewBox="0 0 28 24" fill="none" xmlns="http://www.w3.org/2000/svg">
<path d="M26.1875 7.13255H23.2559L22.13 2.69912C21.8234 1.49255 20.7397 0.648804 19.4947 0.648804H8.50531C7.26031 0.648804 6.17656 1.49162 5.87 2.69912L4.74406 7.13255H1.8125C0.83 7.13255 0.03125 7.93224 0.03125 8.9138V11.3747C0.03125 12.3572 0.83 13.156 1.8125 13.156H2.33937L4.83875 21.4191C5.18844 22.5741 6.23375 23.3513 7.44125 23.3513H20.5587C21.7662 23.3513 22.8116 22.5751 23.1612 21.4191L25.6606 13.156H26.1875C27.17 13.156 27.9687 12.3563 27.9687 11.3747V8.9138C27.9687 7.9313 27.17 7.13255 26.1875 7.13255ZM7.50594 3.11349C7.62219 2.65599 8.03281 2.3363 8.50531 2.3363H19.4947C19.9672 2.3363 20.3778 2.65599 20.4941 3.11349L21.5141 7.13162H6.48594L7.50594 3.11349ZM21.5459 20.9307C21.4128 21.3694 21.0162 21.6629 20.5587 21.6629H7.44125C6.98375 21.6629 6.58625 21.3694 6.45406 20.9307L4.10281 13.156H23.8981L21.5459 20.9307ZM26.2812 11.3747C26.2812 11.4263 26.2391 11.4685 26.1875 11.4685H1.8125C1.76094 11.4685 1.71875 11.4263 1.71875 11.3747V8.9138C1.71875 8.86224 1.76094 8.82005 1.8125 8.82005H26.1875C26.2391 8.82005 26.2812 8.86224 26.2812 8.9138V11.3747Z" fill="#E69AB1"/>
<path d="M9.95752 20.2173C10.4235 20.2173 10.8013 19.8395 10.8013 19.3735V15.4473C10.8013 14.9813 10.4235 14.6035 9.95752 14.6035C9.49158 14.6035 9.11377 14.9813 9.11377 15.4473V19.3735C9.11377 19.8385 9.49064 20.2173 9.95752 20.2173ZM14 20.2173C14.466 20.2173 14.8438 19.8395 14.8438 19.3735V15.4473C14.8438 14.9813 14.466 14.6035 14 14.6035C13.5341 14.6035 13.1563 14.9813 13.1563 15.4473V19.3735C13.1563 19.8385 13.5341 20.2173 14 20.2173ZM18.0435 20.2173C18.5094 20.2173 18.8872 19.8395 18.8872 19.3735V15.4473C18.8872 14.9813 18.5094 14.6035 18.0435 14.6035C17.5775 14.6035 17.1997 14.9813 17.1997 15.4473V19.3735C17.1997 19.8385 17.5766 20.2173 18.0435 20.2173Z" fill="#E69AB1"/>
</svg>
