<svg width="30" height="26" viewBox="0 0 30 26" fill="none" xmlns="http://www.w3.org/2000/svg">
<path d="M10.1663 8.5661C15.2203 8.5661 19.3174 6.87581 19.3174 4.79074C19.3174 2.70567 15.2203 1.01538 10.1663 1.01538C5.11224 1.01538 1.01514 2.70567 1.01514 4.79074C1.01514 6.87581 5.11224 8.5661 10.1663 8.5661Z" fill="#F0D2DC"/>
<path d="M10.1661 24.2446C15.2201 24.2446 19.3171 22.5542 19.3171 20.469V4.79065C19.3171 6.87587 15.2201 8.56623 10.1661 8.56623V24.2446Z" fill="#F0D2DC"/>
<path d="M10.1662 8.58154V8.56629C5.11218 8.56623 1.01514 6.87587 1.01514 4.79065V20.4689C1.01514 22.5542 5.11218 24.2445 10.1662 24.2445H28.985V8.58154H10.1662Z" fill="#F0D2DC"/>
<path d="M9.07817 5.30704H11.254C11.5744 5.30704 11.8342 5.04725 11.8342 4.72676C11.8342 4.40627 11.5744 4.14648 11.254 4.14648H9.07817C8.75774 4.14648 8.49789 4.40627 8.49789 4.72676C8.49789 5.04725 8.75774 5.30704 9.07817 5.30704Z" fill="#E69AB1"/>
<path fill-rule="evenodd" clip-rule="evenodd" d="M11.254 5.74179H9.07817C8.51764 5.74179 8.06311 5.28738 8.06311 4.72673C8.06311 4.16609 8.51764 3.71167 9.07817 3.71167H11.254C11.8145 3.71167 12.269 4.16609 12.269 4.72673C12.269 5.28738 11.8145 5.74179 11.254 5.74179ZM11.254 5.30701H9.07817C8.75774 5.30701 8.49789 5.04722 8.49789 4.72673C8.49789 4.40624 8.75774 4.14645 9.07817 4.14645H11.254C11.5744 4.14645 11.8342 4.40624 11.8342 4.72673C11.8342 5.04722 11.5744 5.30701 11.254 5.30701Z" fill="#E69AB1"/>
<path d="M28.985 8.00129H19.8974V4.79073C19.8974 3.53186 18.818 2.39321 16.8582 1.58456C15.0612 0.843097 12.6846 0.434814 10.1661 0.434814C7.64771 0.434814 5.27096 0.843153 3.47397 1.58456C1.51421 2.39321 0.434784 3.53186 0.434784 4.79073V20.4691C0.434784 21.728 1.51421 22.8666 3.47397 23.6753C5.27096 24.4167 7.6476 24.825 10.166 24.825H28.9849C29.3054 24.825 29.5652 24.5652 29.5652 24.2447V8.58157C29.5653 8.26107 29.3054 8.00129 28.985 8.00129ZM16.8473 8.00129C16.8508 7.99975 16.8546 7.99839 16.8582 7.99685C17.6225 7.68154 18.2522 7.31581 18.7369 6.91254V8.00123L16.8473 8.00129ZM10.1661 1.59543C15.217 1.59543 18.7368 3.27942 18.7368 4.79073C18.7368 6.30205 15.2171 7.98598 10.1665 7.98604H10.1661H10.1656C5.11501 7.98598 1.59539 6.30205 1.59539 4.79073C1.59539 3.27942 5.11523 1.59543 10.1661 1.59543ZM28.4047 9.16184V23.6643H24.6013V15.6734C24.6013 15.3529 24.3415 15.0931 24.021 15.0931C23.7006 15.0931 23.4408 15.3529 23.4408 15.6734V23.6644H15.348V11.7624C15.348 11.4419 15.0882 11.1821 14.7677 11.1821C14.4473 11.1821 14.1874 11.4419 14.1874 11.7624V23.6644H10.1661C8.71496 23.6644 7.3906 23.5252 6.23938 23.2912V11.7624C6.23938 11.4419 5.97953 11.1821 5.6591 11.1821C5.33866 11.1821 5.07882 11.4419 5.07882 11.7624V23.0076C2.90752 22.3787 1.59539 21.3917 1.59539 20.4691V6.91259C2.08003 7.31581 2.70975 7.68154 3.47403 7.99691C5.23932 8.72528 7.56407 9.13186 10.0331 9.14591L28.4047 9.16184Z" fill="#E69AB1"/>
<path fill-rule="evenodd" clip-rule="evenodd" d="M3.30815 1.18261C5.17076 0.414126 7.60686 0 10.1661 0C12.7254 0 15.1614 0.414066 17.024 1.18261C19.0245 2.00803 20.3322 3.25332 20.3322 4.7907V7.56647H28.985C29.5455 7.56647 30.0001 8.02085 30 8.58153C30 8.58151 30 8.58156 30 8.58153V24.2447C30 24.8053 29.5455 25.2598 28.9849 25.2598H10.166C7.60675 25.2598 5.17076 24.8457 3.30813 24.0771C1.30775 23.2517 0 22.0064 0 20.4691V4.7907C0 3.25332 1.30776 2.00802 3.30815 1.18261ZM29.5652 8.58153V24.2447C29.5652 24.5652 29.3054 24.825 28.9849 24.825H10.166C7.64759 24.825 5.27096 24.4167 3.47397 23.6752C1.5142 22.8666 0.434783 21.7279 0.434783 20.4691V4.7907C0.434783 3.53183 1.5142 2.39318 3.47397 1.58453C5.27096 0.843122 7.64771 0.434783 10.1661 0.434783C12.6846 0.434783 15.0612 0.843066 16.8582 1.58453C18.818 2.39318 19.8974 3.53183 19.8974 4.7907V8.00126H28.985C29.3054 8.00126 29.5653 8.26104 29.5652 8.58153ZM3.47403 7.99688C2.92095 7.76865 2.43834 7.51406 2.03018 7.23797C1.87432 7.13255 1.72932 7.02399 1.59539 6.91256V20.4691C1.59539 21.3283 2.73359 22.2435 4.64404 22.8732C4.78482 22.9196 4.9298 22.9644 5.07882 23.0076V11.7624C5.07882 11.4419 5.33866 11.1821 5.6591 11.1821C5.97953 11.1821 6.23938 11.4419 6.23938 11.7624V23.2912C7.3906 23.5251 8.71495 23.6644 10.1661 23.6644H14.1874V11.7624C14.1874 11.4419 14.4473 11.1821 14.7677 11.1821C15.0882 11.1821 15.348 11.4419 15.348 11.7624V23.6644H23.4408V15.6734C23.4408 15.3529 23.7006 15.0931 24.021 15.0931C24.3415 15.0931 24.6013 15.3529 24.6013 15.6734V23.6642H28.4047V9.16181L10.0331 9.14588C7.56407 9.13183 5.23932 8.72525 3.47403 7.99688ZM27.9699 9.59622L10.0306 9.58066C7.52136 9.56637 5.13817 9.15386 3.30819 8.39879C2.83722 8.20445 2.40981 7.98948 2.03018 7.75539V20.4691C2.03018 20.7205 2.21834 21.0849 2.7804 21.4982C3.22574 21.8256 3.85393 22.1427 4.64404 22.4144V11.7624C4.64404 11.2017 5.09856 10.7473 5.6591 10.7473C6.21963 10.7473 6.67416 11.2017 6.67416 11.7624V22.9319C7.71241 23.1194 8.88741 23.2296 10.1661 23.2296H13.7527V11.7624C13.7527 11.2017 14.2072 10.7473 14.7677 10.7473C15.3283 10.7473 15.7828 11.2017 15.7828 11.7624V23.2296H23.006V15.6734C23.006 15.1127 23.4605 14.6583 24.021 14.6583C24.5816 14.6583 25.0361 15.1127 25.0361 15.6734V23.2295H27.9699V9.59622ZM16.8473 8.00126L18.7369 8.0012V6.91251C18.6029 7.02394 18.4579 7.1325 18.3021 7.23793C18.1347 7.35117 17.9548 7.46078 17.7626 7.56645C17.4862 7.71842 17.1844 7.86221 16.8582 7.99682C16.8564 7.99759 16.8546 7.99831 16.8527 7.99904C16.8509 7.99976 16.849 8.00049 16.8473 8.00126ZM16.1828 3.02949C14.7331 2.44446 12.6476 2.03018 10.1661 2.03018C7.68461 2.03018 5.59906 2.44446 4.14938 3.02949C3.42295 3.32266 2.87485 3.65118 2.51618 3.97608C2.1515 4.30643 2.03018 4.58706 2.03018 4.7907C2.03018 4.99435 2.15149 5.27498 2.51615 5.60532C2.8748 5.93021 3.42285 6.25873 4.14924 6.55189C5.59883 7.13692 7.68424 7.5512 10.1656 7.55123H10.1665C12.6479 7.5512 14.7333 7.13692 16.1829 6.55189C16.9093 6.25873 17.4574 5.93021 17.816 5.60532C18.1807 5.27498 18.302 4.99435 18.302 4.7907C18.302 4.58706 18.1807 4.30643 17.816 3.97608C17.4573 3.65118 16.9093 3.32266 16.1828 3.02949ZM18.7368 4.7907C18.7368 3.27939 15.217 1.59539 10.1661 1.59539C5.11523 1.59539 1.59539 3.27939 1.59539 4.7907C1.59539 6.30202 5.11501 7.98595 10.1656 7.98601H10.1665C15.2171 7.98595 18.7368 6.30202 18.7368 4.7907Z" fill="#E69AB1"/>
<path d="M24.021 12.746C24.3415 12.746 24.6013 12.4862 24.6013 12.1657V11.7625C24.6013 11.442 24.3415 11.1823 24.021 11.1823C23.7006 11.1823 23.4408 11.442 23.4408 11.7625V12.1657C23.4408 12.4862 23.7006 12.746 24.021 12.746Z" fill="#E69AB1"/>
<path fill-rule="evenodd" clip-rule="evenodd" d="M25.0361 12.1657C25.0361 12.7264 24.5816 13.1808 24.021 13.1808C23.4605 13.1808 23.006 12.7264 23.006 12.1657V11.7625C23.006 11.2019 23.4605 10.7474 24.021 10.7474C24.5816 10.7474 25.0361 11.2019 25.0361 11.7625V12.1657ZM24.6013 12.1657C24.6013 12.4862 24.3415 12.746 24.021 12.746C23.7006 12.746 23.4408 12.4862 23.4408 12.1657V11.7625C23.4408 11.442 23.7006 11.1822 24.021 11.1822C24.3415 11.1822 24.6013 11.442 24.6013 11.7625V12.1657Z" fill="#E69AB1"/>
</svg>
