<svg width="19" height="32" viewBox="0 0 19 32" fill="none" xmlns="http://www.w3.org/2000/svg">
<path d="M7.94405 2.1333C7.64967 2.1333 7.41336 2.37224 7.41336 2.66661C7.41336 2.96099 7.65442 3.19993 7.94936 3.19993C8.2443 3.19993 8.48267 2.96099 8.48267 2.66661C8.48267 2.37224 8.2443 2.1333 7.94936 2.1333H7.94405Z" fill="black" stroke="black" stroke-width="0.5"/>
<path d="M8.46667 28.8C8.46667 29.3882 8.94505 29.8667 9.53336 29.8667C10.1216 29.8667 10.6 29.3883 10.6 28.8C10.6 28.2117 10.1217 27.7333 9.53336 27.7333C8.94511 27.7333 8.46667 28.2117 8.46667 28.8Z" fill="black" stroke="black" stroke-width="0.5"/>
<path d="M1.53337 24.5333C1.82775 24.5333 2.06669 24.2944 2.06669 24V2.66669C2.06669 1.88906 2.88906 1.06669 3.66669 1.06669H15.4C16.1776 1.06669 17 1.88906 17 2.66669C17 2.96106 17.2389 3.2 17.5333 3.2C17.8277 3.2 18.0666 2.96106 18.0666 2.66669C18.0667 1.296 16.7707 0 15.4001 0H3.66669C2.296 0 1 1.296 1 2.66669V24C1.00006 24.2944 1.239 24.5333 1.53337 24.5333Z" fill="black" stroke="black" stroke-width="0.5"/>
<path d="M10.0667 2.1333C9.77232 2.1333 9.53339 2.37224 9.53339 2.66661C9.53339 2.96099 9.77232 3.19993 10.0667 3.19993H12.2C12.4944 3.19993 12.7333 2.96099 12.7333 2.66661C12.7333 2.37224 12.4944 2.1333 12.2 2.1333H10.0667Z" fill="black" stroke="black" stroke-width="0.5"/>
<path d="M14.3334 9.59999C14.4699 9.59999 14.6064 9.54774 14.7104 9.44374C14.919 9.23518 14.919 8.89811 14.7104 8.68961L13.6437 7.62293C13.4352 7.41443 13.0981 7.41443 12.8896 7.62293C12.6811 7.83149 12.6811 8.16855 12.8896 8.37705L13.9563 9.44374C14.0603 9.54774 14.1968 9.59999 14.3334 9.59999Z" fill="black" stroke="black" stroke-width="0.5"/>
<path d="M9.68964 7.62297C9.48114 7.83154 9.48114 8.1686 9.68964 8.3771L13.9563 12.6438C14.0603 12.7478 14.1969 12.8 14.3334 12.8C14.47 12.8 14.6065 12.7478 14.7105 12.6438C14.919 12.4352 14.919 12.0982 14.7105 11.8897L10.4438 7.62297C10.2353 7.41441 9.8982 7.41441 9.68964 7.62297Z" fill="black" stroke="black" stroke-width="0.5"/>
<path d="M17.5334 4.26672H3.66669C3.37231 4.26672 3.13337 4.50566 3.13337 4.80004C3.13337 5.09441 3.37231 5.33335 3.66669 5.33335H17V29.3333C17 30.111 16.1776 30.9333 15.4 30.9333H3.66669C2.88906 30.9333 2.06669 30.111 2.06669 29.3333V26.6667H15.4C15.6944 26.6667 15.9333 26.4277 15.9333 26.1333C15.9333 25.839 15.6944 25.6 15.4 25.6H1.53337C1.239 25.6 1.00006 25.839 1.00006 26.1333V29.3333C1.00006 30.704 2.29606 32 3.66675 32H15.4001C16.7707 32 18.0667 30.704 18.0667 29.3333V4.80004C18.0667 4.50566 17.8277 4.26672 17.5334 4.26672Z" fill="black" stroke="black" stroke-width="0.5"/>
</svg>
