<svg width="23" height="21" viewBox="0 0 23 21" fill="none" xmlns="http://www.w3.org/2000/svg">
<path d="M20.9 1.47107C21.0112 1.47107 21.123 1.48504 21.2319 1.5121L21.2506 1.51695C21.5277 1.59048 21.77 1.75092 21.9415 1.9946C22.1066 2.22916 22.2053 2.53607 22.2053 2.90886C22.2053 3.0943 22.1796 3.30122 22.1247 3.52533L18.9797 18.3492C18.9249 18.6068 18.8444 18.8283 18.743 19.0102C18.5937 19.2774 18.3972 19.4662 18.1591 19.5746C17.9203 19.6836 17.6503 19.7072 17.3608 19.6461L17.3462 19.6427C17.1469 19.5996 16.9339 19.5142 16.7137 19.3927L9.18518 13.8365C9.10885 13.7817 9.04562 13.7081 9.00327 13.6247L8.99974 13.6171C8.95959 13.5352 8.93665 13.4464 8.93665 13.3547C8.93665 13.2617 8.96165 13.168 9.00327 13.0853C9.04209 13.0083 9.10047 12.9381 9.16988 12.8847L16.7908 6.00254L6.79135 12.3112C6.74003 12.3467 6.68091 12.3737 6.62121 12.3903C6.01444 12.5467 2.2218 11.1386 1.62121 10.9186C1.28871 10.8186 1.03591 10.6721 0.876354 10.5006C0.722825 10.3368 0.643707 10.1465 0.643707 9.94386C0.643707 9.75151 0.715913 9.55989 0.86106 9.37872C1.04782 9.1468 1.37621 8.92122 1.84827 8.73298L20.2891 1.6196C20.3774 1.57872 20.4724 1.54533 20.5703 1.52033C20.6586 1.49754 20.7508 1.48225 20.8431 1.47519L20.9 1.47107ZM21.0541 2.22298L20.9008 2.20563L20.7494 2.22989C14.5602 4.43622 8.26871 7.04107 2.11488 9.41474C1.76915 9.55225 1.54341 9.70019 1.43165 9.83827C1.39635 9.8821 1.37827 9.91886 1.37827 9.94386C1.37827 9.95695 1.39003 9.9771 1.41224 10.0008C1.48724 10.0806 1.62812 10.1562 1.83018 10.218L6.43238 11.6718L17.2539 4.84519C17.5718 4.65283 17.8946 4.59592 18.1078 4.63342C18.2127 4.65225 18.3043 4.69313 18.3786 4.7521L18.3966 4.7668C18.5084 4.86386 18.5674 4.99313 18.5618 5.14651C18.5562 5.30195 18.4737 5.47416 18.2931 5.63313L9.75238 13.3443L17.0908 18.7643C17.2378 18.8442 17.3746 18.8997 17.4968 18.9261L17.5093 18.9283C17.6461 18.9567 17.7641 18.9511 17.855 18.9095C17.9481 18.8671 18.0321 18.7818 18.103 18.6547C18.1681 18.5374 18.223 18.3846 18.2625 18.1978C19.1311 13.6803 20.2058 7.6993 21.4111 3.36019C21.4521 3.19636 21.4708 3.0443 21.4708 2.90886C21.4708 2.69651 21.4228 2.53122 21.3416 2.41666C21.2736 2.32019 21.1758 2.25563 21.0661 2.22578L21.0541 2.22298Z" fill="#E69AB1"/>
<path fill-rule="evenodd" clip-rule="evenodd" d="M20.882 0.971069H20.9C21.0529 0.971069 21.2051 0.990256 21.3524 1.02684L21.3577 1.02814L21.3789 1.03367C21.7635 1.13575 22.1077 1.36201 22.3504 1.70686C22.5819 2.03575 22.7053 2.44614 22.7053 2.90886C22.7053 3.13747 22.674 3.38186 22.6123 3.6364L19.4688 18.4529C19.4057 18.7496 19.3099 19.0203 19.1796 19.2538C18.9867 19.5991 18.7159 19.8705 18.3663 20.0297C18.0172 20.1888 17.6365 20.2154 17.2574 20.1353L17.2476 20.1332L17.2366 20.1305C16.9793 20.0744 16.7216 19.9681 16.4722 19.8305L16.4433 19.8146L8.89043 14.2404C8.75106 14.1395 8.63583 14.0054 8.55748 13.8512L8.55322 13.8428L8.54786 13.8312C8.47965 13.69 8.43665 13.5284 8.43665 13.3547C8.43665 13.1743 8.48436 13.0041 8.55669 12.8605C8.62658 12.7217 8.72743 12.5987 8.84714 12.5025L12.1432 9.52588L7.06547 12.7295C6.96871 12.7946 6.8621 12.8423 6.75527 12.872L6.74597 12.8746C6.56263 12.9218 6.34644 12.8996 6.18402 12.8757C5.99749 12.8482 5.77903 12.8008 5.54626 12.7421C5.07927 12.6244 4.51673 12.452 3.96326 12.2707C2.9391 11.9353 1.91672 11.5598 1.53137 11.4182C1.50544 11.4087 1.4824 11.4002 1.46244 11.3929C1.08094 11.2761 0.745472 11.094 0.510316 10.8412L0.876354 10.5006L0.511524 10.8425C0.280619 10.5961 0.143707 10.2867 0.143707 9.94386C0.143707 9.61904 0.267364 9.32009 0.470842 9.0661L0.47164 9.06511C0.732316 8.74142 1.14701 8.47432 1.66307 8.26854L1.66831 8.26645L20.095 1.15858C20.208 1.10744 20.3266 1.06652 20.4467 1.03587C20.5633 1.00584 20.6841 0.985884 20.805 0.976641L20.807 0.976491L20.882 0.971069ZM16.6866 5.7942L16.9637 6.15975L17.9627 5.2578C18.0291 5.19939 18.0515 5.15735 18.0588 5.13803C18.0513 5.13403 18.0391 5.12916 18.0204 5.12572C17.9521 5.11411 17.7535 5.12839 17.5163 5.27077L16.6866 5.7942ZM20.874 2.7163C16.7521 4.18681 12.5912 5.83128 8.44703 7.46915C6.40944 8.27445 4.3759 9.07815 2.35302 9.85879L6.3618 11.1252L16.995 4.41731C17.3912 4.17763 17.8358 4.07791 18.1944 4.14098L18.1962 4.14129C18.3758 4.17353 18.5454 4.24614 18.6895 4.36053L18.694 4.36411L18.7184 4.38397L18.7245 4.38929C18.9475 4.58293 19.0726 4.85631 19.0615 5.16447M18.6261 6.0061L10.5415 13.3055L17.3583 18.3403C17.4611 18.3939 17.5397 18.4228 17.5947 18.4356L17.6036 18.4372L17.6109 18.4387C17.6248 18.4416 17.6364 18.4434 17.6457 18.4444C17.6514 18.4362 17.6583 18.4255 17.6661 18.4116C17.7007 18.3491 17.7405 18.2477 17.7725 18.0986C17.8931 17.4708 18.018 16.8138 18.1467 16.1362C18.9412 11.9553 19.8853 6.98672 20.9275 3.23296C20.9586 3.10696 20.9708 2.99776 20.9708 2.90886C20.9708 2.79006 20.948 2.73247 20.9379 2.71302L20.9125 2.71014L20.874 2.7163" fill="#E69AB1"/>
</svg>
