<svg width="33" height="28" viewBox="0 0 33 28" fill="none" xmlns="http://www.w3.org/2000/svg">
<path d="M30.6359 0.665527C30.8022 0.665527 30.9693 0.68642 31.1323 0.726888L31.1602 0.734145C31.5746 0.84411 31.937 1.08405 32.1934 1.44848C32.4404 1.79926 32.588 2.25826 32.588 2.81578C32.588 3.09311 32.5495 3.40255 32.4675 3.73772L27.7641 25.907C27.682 26.2924 27.5617 26.6236 27.41 26.8956C27.1867 27.2952 26.8929 27.5776 26.5369 27.7397C26.1797 27.9027 25.7759 27.9381 25.3429 27.8466L25.3211 27.8415C25.0231 27.7771 24.7044 27.6493 24.3752 27.4677L13.1161 19.1583C13.002 19.0763 12.9074 18.9663 12.8441 18.8416L12.8388 18.8302C12.7787 18.7077 12.7444 18.5748 12.7444 18.4378C12.7444 18.2986 12.7818 18.1585 12.8441 18.0349C12.9021 17.9196 12.9894 17.8147 13.0932 17.7349L24.4904 7.44243L9.53609 16.8772C9.45934 16.9302 9.37093 16.9707 9.28163 16.9955C8.37421 17.2293 2.70223 15.1235 1.80403 14.7945C1.30677 14.6449 0.928715 14.4259 0.690091 14.1694C0.460485 13.9244 0.342163 13.6398 0.342163 13.3368C0.342163 13.0491 0.450148 12.7625 0.667219 12.4916C0.946529 12.1447 1.43763 11.8074 2.14361 11.5259L29.7223 0.887656C29.8543 0.826515 29.9963 0.776591 30.1428 0.739203C30.2748 0.705114 30.4127 0.682242 30.5508 0.671685L30.6359 0.665527ZM30.8664 1.79003L30.637 1.76407L30.4107 1.80036C21.1545 5.09996 11.7455 8.99557 2.54234 12.5455C2.02528 12.7511 1.68769 12.9723 1.52055 13.1789C1.46776 13.2444 1.44071 13.2994 1.44071 13.3368C1.44071 13.3563 1.4583 13.3865 1.49151 13.4219C1.60368 13.5413 1.81437 13.6543 2.11655 13.7467L8.99924 15.9209L25.183 5.71159C25.6585 5.42392 26.1412 5.33881 26.4601 5.39489C26.6169 5.42304 26.7539 5.48418 26.865 5.57237L26.892 5.59437C27.0592 5.73952 27.1474 5.93284 27.139 6.16222C27.1307 6.39469 27.0073 6.65223 26.7372 6.88997L13.9644 18.4222L24.9391 26.5279C25.159 26.6473 25.3635 26.7305 25.5463 26.7698L25.565 26.7731C25.7695 26.8156 25.9461 26.8072 26.082 26.745C26.2213 26.6816 26.3468 26.5541 26.4528 26.3641C26.5503 26.1886 26.6323 25.96 26.6915 25.6807C27.9904 18.9247 29.5976 9.97998 31.4002 3.49074C31.4615 3.24574 31.4894 3.01833 31.4894 2.81578C31.4894 2.4982 31.4177 2.251 31.2963 2.07967C31.1945 1.9354 31.0483 1.83885 30.8842 1.7942L30.8664 1.79003Z" fill="#282828"/>
</svg>
