<svg width="24" height="30" viewBox="0 0 24 30" fill="none" xmlns="http://www.w3.org/2000/svg">
<path d="M0.899165 15.5369C0.45005 15.5811 0.0498904 15.2528 0.00573798 14.8037C-0.0384145 14.3546 0.289864 13.9544 0.73898 13.9103C5.73007 13.4077 6.26331 12.9865 7.85171 11.7321C8.30222 11.3762 8.82864 10.9603 9.5151 10.4769C8.68766 9.56505 8.08145 8.63181 7.9287 7.7153C7.861 7.74504 7.78958 7.77138 7.71398 7.79353C6.74402 8.07843 5.63898 8.2476 4.53083 8.41709C3.28077 8.60826 2.02544 8.80036 1.09762 9.13747C0.673292 9.29131 0.204349 9.07178 0.0505122 8.64746C-0.103324 8.22313 0.116197 7.75418 0.540525 7.60035C1.63504 7.20267 2.96411 6.99941 4.2876 6.79693C5.3502 6.63442 6.40955 6.47221 7.25294 6.22449C7.3445 6.19769 7.50871 5.99846 7.66658 5.80698C8.10345 5.27669 8.52097 4.77056 9.32904 4.88969C9.51278 4.86413 9.72486 4.8835 9.97474 5.10503L9.978 5.10829C10.3311 5.4234 10.4674 5.87174 9.85205 6.56424C8.96776 7.55945 10.3095 9.11439 11.9844 10.6024C12.7114 11.2483 13.4964 11.8723 14.2221 12.4492C14.7508 12.8698 15.249 13.2656 15.6969 13.6488C15.726 13.6743 15.7539 13.7019 15.7803 13.732C15.8923 13.8602 16.0105 13.9769 16.116 14.0812C16.9068 14.8624 17.2772 15.2288 16.5016 17.2474C16.482 17.3278 16.4651 17.4075 16.4514 17.4855C16.3965 17.7931 16.395 18.009 16.4436 18.1316C16.4461 18.1379 16.4525 18.143 16.4619 18.1467L16.4924 18.1556L17.597 18.302C17.6281 18.3038 17.6594 18.3074 17.6907 18.3128L17.9986 18.3629C18.4362 18.4299 18.6683 18.4659 18.9611 18.7145C19.2419 18.9529 19.3516 19.2188 19.5834 19.7822L19.6548 19.9554C19.7403 20.1619 19.9349 20.3217 20.1572 20.4408C20.5651 20.6594 21.0172 20.7362 21.2407 20.741C21.2851 20.7375 21.3303 20.7373 21.3761 20.741L21.4234 20.7471L21.1091 20.5427C21.0469 20.509 20.9881 20.4668 20.9345 20.4157C20.6308 20.1272 20.4107 19.6789 20.1188 19.0839C19.7571 18.3461 19.2612 17.3354 18.4144 16.2961C17.9507 15.8544 17.4221 15.0957 16.9243 14.2644C16.2734 13.1772 15.6572 11.9417 15.3271 11.1686L10.8009 1.99066C10.681 1.80336 10.5188 1.68423 10.3105 1.64953C10.0239 1.60181 9.63887 1.66889 9.14421 1.87106C9.11834 1.88407 9.09169 1.896 9.06396 1.90654L1.11048 4.95879C0.687856 5.1196 0.214573 4.90751 0.053765 4.48489C-0.107043 4.06226 0.105041 3.58898 0.527665 3.42817L8.51725 0.363221C9.31416 0.036493 9.99861 -0.0611131 10.5794 0.0355575C11.3089 0.157015 11.8487 0.556562 12.2208 1.1795L12.2522 1.23728L16.8233 10.5079C17.1304 11.2301 17.7118 12.3982 18.327 13.4254C18.7659 14.1581 19.2116 14.8059 19.5599 15.1273C19.6011 15.1651 19.6373 15.2062 19.6689 15.2499C20.6375 16.4341 21.1858 17.5518 21.5853 18.3666C21.7805 18.7644 21.9321 19.0736 22.0318 19.1979C23.0549 19.8656 23.807 20.4716 23.9486 21.0211C24.2107 22.0397 23.4942 22.5634 21.2434 22.3744C20.8423 22.366 20.0578 22.2402 19.3888 21.8819C18.8684 21.603 18.3958 21.1858 18.1434 20.5767L18.072 20.4035C17.9442 20.0929 17.9244 19.9805 17.9042 19.9635C17.8433 19.9119 17.8924 20.0039 17.7553 19.983C17.656 19.9678 17.5409 19.95 17.4091 19.9268L16.2478 19.7714L16.071 19.7381L16.0263 19.7254C15.6941 19.6327 15.4241 19.466 15.219 19.2273C15.3076 20.2132 15.3564 21.2024 15.3367 22.1694C15.6225 22.8218 15.8339 23.6887 16.0475 24.565C16.3439 25.7802 16.6456 27.0172 16.9623 27.2372C17.2645 27.3876 17.5391 27.5799 17.7323 27.7961L17.7869 27.8576C17.9659 28.081 18.0706 28.3345 18.0751 28.6138V28.6171C18.0796 28.9322 17.9637 29.224 17.6954 29.4733C17.4991 29.6558 17.2094 29.8121 16.806 29.9254C16.7583 29.9402 16.7084 29.9511 16.6569 29.9571C15.7153 30.0713 15.0935 29.9856 14.5668 29.7367C14.062 29.4979 13.7337 29.1556 13.3218 28.7106C13.2013 28.5996 13.1128 28.4515 13.0763 28.279C13.0154 27.9917 12.9193 27.736 12.7593 27.5119C12.5948 27.2813 12.3467 27.0623 11.9805 26.8483C11.9743 26.8448 11.9108 26.8363 11.829 26.8195C11.4181 26.7346 10.9537 26.6387 10.587 26.1616C10.5067 26.0739 10.4358 25.9815 10.3751 25.885C10.112 25.4674 10.0373 25.0003 10.1788 24.4965C10.2923 24.0918 10.5527 23.6773 10.9775 23.2658C11.1562 23.0927 11.3669 22.9169 11.611 22.7395C11.3277 21.3815 10.84 20.313 10.3698 19.2823C9.54685 17.4778 8.77085 15.7765 8.99781 12.907L8.86365 13.013C6.99267 14.4905 6.36477 14.9865 0.899165 15.5369ZM10.8741 11.8064L10.6496 12.7924C10.3929 15.396 11.1018 16.9511 11.8555 18.6034C12.4281 19.8586 13.0245 21.1655 13.3186 22.9893C13.3714 23.322 13.2151 23.6399 12.9471 23.8089C12.5952 24.0306 12.3207 24.241 12.1174 24.4379C11.9088 24.6401 11.7912 24.8068 11.7543 24.9383C11.7453 24.9704 11.7472 24.9963 11.7585 25.0141C11.7683 25.0297 11.7827 25.0472 11.8003 25.0655C11.8299 25.0959 11.8567 25.1281 11.8806 25.1616L12.1556 25.2186C12.3833 25.2654 12.5945 25.309 12.8065 25.433C13.3796 25.7678 13.7909 26.143 14.0913 26.5641C14.3496 26.9258 14.5155 27.3071 14.6238 27.7148C14.8611 27.9678 15.0588 28.1597 15.2648 28.2572C15.3996 28.3209 15.5674 28.359 15.7934 28.368C15.1218 27.6655 14.788 26.2968 14.4592 24.9492C14.247 24.0785 14.0371 23.2176 13.7821 22.7039C13.7153 22.5686 13.6894 22.424 13.6997 22.2836C13.7686 19.8228 13.3449 17.1272 12.9706 14.7462C12.8921 14.2468 12.8154 13.7598 12.757 13.3746C12.1377 12.8802 11.4951 12.3581 10.8956 11.8257L10.8741 11.8064ZM14.651 14.9204C14.746 15.5261 14.8419 16.1492 14.9308 16.7828C14.9423 16.7438 14.9564 16.7061 14.973 16.6702C15.3682 15.6409 15.2405 15.5143 14.9696 15.2468C14.8732 15.1517 14.768 15.0475 14.651 14.9204ZM22.3669 21.4246C22.3596 21.3965 22.2586 21.3152 22.0871 21.1937C22.3023 21.4315 22.4206 21.6337 22.3669 21.4246Z" fill="#E69AB1"/>
</svg>
