<svg xmlns="http://www.w3.org/2000/svg" version="1.1" xmlns:xlink="http://www.w3.org/1999/xlink" width="512" height="512" x="0" y="0" viewBox="0 0 24 24" style="enable-background:new 0 0 512 512" xml:space="preserve" class=""><g><g data-name="Layer 2"><path d="M9 20.75A2.75 2.75 0 1 1 11.75 18 2.75 2.75 0 0 1 9 20.75Zm0-4A1.25 1.25 0 1 0 10.25 18 1.25 1.25 0 0 0 9 16.75ZM18.5 20.75A2.75 2.75 0 1 1 21.25 18a2.75 2.75 0 0 1-2.75 2.75Zm0-4A1.25 1.25 0 1 0 19.75 18a1.25 1.25 0 0 0-1.25-1.25Z" fill="#000000" opacity="1" data-original="#000000"></path><path d="M15 18.75h-4a.75.75 0 0 1 0-1.5h3.25V5a.25.25 0 0 0-.25-.25H5a.25.25 0 0 0-.25.25v2a.75.75 0 0 1-1.5 0V5A1.76 1.76 0 0 1 5 3.25h9A1.76 1.76 0 0 1 15.75 5v13a.76.76 0 0 1-.75.75ZM7 18.75H5A1.76 1.76 0 0 1 3.25 17v-1a.75.75 0 0 1 1.5 0v1a.25.25 0 0 0 .25.25h2a.75.75 0 0 1 0 1.5Z" fill="#000000" opacity="1" data-original="#000000"></path><path d="M21 18.75h-.5a.75.75 0 0 1 0-1.5h.5a.25.25 0 0 0 .25-.25v-3a.28.28 0 0 0-.09-.2 2.8 2.8 0 0 1-1.1-1.63l-.5-2.53a1.09 1.09 0 0 0-1.08-.89h-2.73v8.5h.75a.75.75 0 0 1 0 1.5H15a.76.76 0 0 1-.75-.75V8a.76.76 0 0 1 .75-.75h3.48A2.58 2.58 0 0 1 21 9.34l.51 2.53a1.29 1.29 0 0 0 .56.76 1.78 1.78 0 0 1 .68 1.37v3A1.76 1.76 0 0 1 21 18.75ZM4 16.75H2a.75.75 0 0 1 0-1.5h2a.75.75 0 0 1 0 1.5ZM8 13.75H3a.75.75 0 0 1 0-1.5h5a.75.75 0 0 1 0 1.5ZM6 10.75H2a.75.75 0 0 1 0-1.5h4a.75.75 0 0 1 0 1.5ZM7 7.75H3a.75.75 0 0 1 0-1.5h4a.75.75 0 0 1 0 1.5Z" fill="#000000" opacity="1" data-original="#000000"></path></g></g></svg>