<svg width="25" height="17" viewBox="0 0 25 17" fill="none" xmlns="http://www.w3.org/2000/svg">
<path d="M1.42124 1.81253C1.85844 5.87091 2.76491 9.22415 4.61888 11.5671C6.46079 13.895 9.27153 15.2486 13.5424 15.3346V10.3956L13.9393 10.3887C15.4239 10.3621 16.7127 10.9303 17.7396 11.8033C18.8479 12.7471 19.6515 14.0527 20.0612 15.3377H23.3223C22.9909 14.0686 22.3883 12.9603 21.6296 12.0112C20.609 10.7384 19.3011 9.74209 17.9696 9.01694L17.4783 8.74871L18.5949 7.7265C20.254 6.2343 21.8804 4.7718 22.5277 1.83915H20.1558L20.0315 2.13165C19.2371 4.01386 17.8805 7.22606 13.9599 7.37077L13.5433 7.3868L13.5448 1.83915H10.667L10.6251 11.9427L10.0934 11.7575C8.05726 11.0477 6.72741 9.65518 5.87123 7.82327C5.07903 6.12915 4.69653 4.06268 4.53359 1.82165L1.42124 1.81253ZM3.98976 12.0637C1.95741 9.49606 1.00903 5.84812 0.575647 1.44915L0.532265 1.00739L5.28844 1.0218L5.31123 1.39812C5.453 3.69474 5.81182 5.80165 6.59785 7.48356C7.28638 8.95665 8.31403 10.1122 9.82682 10.7878L9.868 1.03327H14.3476L14.3468 6.53753C17.4402 6.20003 18.6004 3.45636 19.2912 1.81944L19.634 1.03327H23.4974L23.4152 1.50562C22.7959 5.03077 20.9837 6.66091 19.1327 8.32518L18.8402 8.58885C20.0864 9.3315 21.2899 10.3019 22.2551 11.5077C23.1851 12.6716 23.8989 14.0549 24.2211 15.6621L24.317 16.1436H19.4565L19.3758 15.8458C19.0398 14.6125 18.2873 13.3275 17.2201 12.4172C16.4256 11.7415 15.4529 11.2762 14.3484 11.2015V16.1421H13.9454C9.17403 16.1337 6.04329 14.6597 3.98976 12.0637Z" fill="#797979" stroke="#797979"/>
</svg>
