<svg width="36" height="24" viewBox="0 0 36 24" fill="none" xmlns="http://www.w3.org/2000/svg">
<path d="M1.59961 2.16676C2.25346 8.23615 3.60911 13.251 6.38176 16.7549C9.13638 20.2364 13.3399 22.2606 19.7271 22.3893V15.0029L20.3207 14.9926C22.5409 14.9528 24.4683 15.8026 26.0041 17.1081C27.6615 18.5196 28.8634 20.4721 29.4761 22.3939H34.353C33.8575 20.4959 32.9563 18.8385 31.8217 17.4191C30.2953 15.5156 28.3393 14.0256 26.3481 12.9411L25.6133 12.5399L27.2832 11.0112C29.7644 8.7796 32.1966 6.5924 33.1648 2.20657H29.6175L29.4317 2.64401C28.2436 5.45888 26.2148 10.2628 20.3515 10.4792L19.7284 10.5032L19.7306 2.20657H15.4268L15.3641 17.3166L14.5691 17.0397C11.5239 15.9781 9.53511 13.8956 8.25468 11.1559C7.06992 8.62235 6.49788 5.5319 6.2542 2.1804L1.59961 2.16676ZM5.4409 17.4976C2.40148 13.6576 0.983153 8.20206 0.335021 1.62331L0.270142 0.962646L7.3831 0.9842L7.41719 1.547C7.6292 4.98164 8.16583 8.13257 9.34135 10.6479C10.3711 12.8509 11.9079 14.5791 14.1703 15.5895L14.2319 1.00135H20.9312L20.9301 9.23309C25.5563 8.72835 27.2913 4.62513 28.3246 2.1771L28.8372 1.00135H34.615L34.492 1.70777C33.5659 6.9797 30.8557 9.41761 28.0875 11.9066L27.65 12.3009C29.5137 13.4115 31.3136 14.8628 32.757 16.666C34.1478 18.4068 35.2154 20.4754 35.6973 22.8791L35.8406 23.5991H28.5718L28.451 23.1537C27.9485 21.3094 26.8231 19.3877 25.2271 18.0263C24.039 17.0157 22.5842 16.3199 20.9325 16.2082V23.5969H20.3297C13.1941 23.5844 8.512 21.38 5.4409 17.4976Z" fill="#282828"/>
</svg>
