<svg width="28" height="28" viewBox="0 0 28 28" fill="none" xmlns="http://www.w3.org/2000/svg">
<path d="M19.3981 7.52655V1.41968C19.3981 0.95374 19.0203 0.575928 18.5544 0.575928C18.0884 0.575928 17.7106 0.95374 17.7106 1.41968V2.35343L10.0119 7.35124H2.75C1.25094 7.35124 0.03125 8.57187 0.03125 10.07V14.7922C0.03125 16.2912 1.25094 17.5109 2.75 17.5109H2.82125V25.6419C2.82125 26.6244 3.62 27.4231 4.6025 27.4231H6.53281C7.51531 27.4231 8.31406 26.6234 8.31406 25.6419V17.5109H10.0109L17.7097 22.5087V23.4425C17.7097 23.9084 18.0875 24.2862 18.5534 24.2862C19.0194 24.2862 19.3972 23.9084 19.3972 23.4425V17.3356C21.7456 16.9316 23.5438 14.8925 23.5438 12.4306C23.5438 9.96874 21.7466 7.93062 19.3981 7.52655ZM6.62656 25.6428C6.62656 25.6944 6.58437 25.7366 6.53281 25.7366H4.6025C4.55094 25.7366 4.50875 25.6944 4.50875 25.6428V17.5119H6.62656V25.6428ZM9.41656 15.8234H2.75C2.18187 15.8234 1.71875 15.3612 1.71875 14.7922V10.07C1.71875 9.50187 2.18187 9.03874 2.75 9.03874H9.41656V15.8234ZM11.1041 16.2097V8.65437L17.7097 4.36624V20.4987L11.1041 16.2097ZM19.3981 15.6106V9.25249C20.8091 9.62843 21.8562 10.9044 21.8562 12.4316C21.8562 13.9587 20.8091 15.2356 19.3981 15.6106ZM27.125 11.5878H25.6831C25.2172 11.5878 24.8394 11.9656 24.8394 12.4316C24.8394 12.8975 25.2172 13.2753 25.6831 13.2753H27.125C27.5909 13.2753 27.9688 12.8975 27.9688 12.4316C27.9688 11.9656 27.5909 11.5878 27.125 11.5878ZM24.4344 9.46062C24.65 9.46062 24.8666 9.37812 25.0316 9.21312L26.0516 8.19312C26.3816 7.86312 26.3816 7.32874 26.0516 6.99968C25.7216 6.67062 25.1872 6.66968 24.8581 6.99968L23.8381 8.01968C23.5081 8.34968 23.5081 8.88405 23.8381 9.21312C24.0022 9.37812 24.2178 9.46062 24.4344 9.46062ZM25.0306 15.6509C24.7006 15.3209 24.1672 15.32 23.8381 15.6519C23.5081 15.9819 23.5091 16.5153 23.8391 16.8444L24.8591 17.8634C25.0241 18.0284 25.2388 18.1109 25.4553 18.1109C25.6719 18.1109 25.8875 18.0284 26.0525 17.8625C26.3825 17.5325 26.3816 16.9991 26.0516 16.67L25.0306 15.6509Z" fill="#E69AB1"/>
</svg>
