<svg width="30" height="30" viewBox="0 0 30 30" fill="none" xmlns="http://www.w3.org/2000/svg">
<path d="M25.7611 24.7093C28.3819 22.1088 30.0028 18.515 30.0028 14.5448C30.0028 10.5745 28.3816 6.98045 25.7611 4.38003C23.1403 1.7796 19.517 0.170654 15.5127 0.170654C11.5089 0.170654 7.88538 1.77984 5.26435 4.3805C2.64355 6.98093 1.02239 10.5748 1.02239 14.5448C1.02239 15.883 1.20593 17.1763 1.54856 18.4005C1.90366 19.6687 2.42959 20.8658 3.09904 21.9653L3.22244 22.1678L0.760742 29.429L8.31811 27.0272L8.50691 27.1309C9.56022 27.7089 10.6952 28.1612 11.8901 28.4665C13.0465 28.7619 14.2605 28.9191 15.5127 28.9191C19.5165 28.9191 23.14 27.3102 25.7611 24.7093ZM6.24433 5.34347C8.62001 2.98625 11.899 1.5261 15.5127 1.5261C19.1264 1.5261 22.4054 2.98649 24.7811 5.34395C27.1575 7.7019 28.6294 10.9572 28.6294 14.5457C28.6294 18.1343 27.1572 21.3891 24.7813 23.7465C22.4056 26.1038 19.1269 27.5639 15.5132 27.5639C14.2061 27.5639 12.941 27.3722 11.7464 27.0157C10.5932 26.6719 9.50343 26.1713 8.5026 25.5402L2.92988 27.3111L4.74321 21.9634C4.01601 20.9264 3.4364 19.7804 3.03531 18.5555C2.62103 17.2902 2.39652 15.9417 2.39652 14.545C2.39652 10.9562 3.86841 7.70118 6.24433 5.34347ZM22.6527 18.2347C22.4965 18.1616 22.3053 18.0832 22.1577 18.0001C21.9312 17.888 21.1429 17.5024 20.4926 17.1953C20.116 17.0175 19.7988 16.8713 19.6991 16.8356C19.5963 16.7987 19.5119 16.77 19.4786 16.7719C19.4667 16.7733 19.4882 16.7846 19.4619 16.8239C19.3567 16.9808 19.1818 17.2051 18.9946 17.4349C18.7153 17.778 18.3949 18.1499 18.2576 18.3051C18.0655 18.5244 17.8575 18.6497 17.5963 18.6813C17.368 18.7089 17.132 18.654 16.8571 18.5176L16.6393 18.4218C16.099 18.1894 15.0304 17.7296 13.7902 16.6322C13.2139 16.1223 12.7331 15.5554 12.3689 15.0688C12.0054 14.5831 11.7562 14.1748 11.6441 13.9839C11.4457 13.6458 11.444 13.3621 11.5379 13.1112C11.6206 12.8905 11.7557 12.753 11.8865 12.6239C11.9721 12.5395 12.0945 12.3914 12.2162 12.2446L12.4103 12.0148C12.5268 11.8799 12.5821 11.768 12.6569 11.6154L12.7084 11.5092C12.7206 11.485 12.7242 11.4646 12.7225 11.4481C12.7189 11.4146 12.7002 11.3705 12.6777 11.3257C12.6094 11.1898 12.239 10.2959 11.9127 9.50732L11.529 8.5858C11.4004 8.28055 11.334 8.28031 11.2837 8.28318L11.1689 8.28917C11.0671 8.28917 10.9396 8.28079 10.8086 8.2724C10.7027 8.26569 10.5924 8.2585 10.4642 8.2585C10.3825 8.2585 10.2697 8.27671 10.1484 8.33302C10.0526 8.37759 9.95101 8.44683 9.85589 8.5501L9.77993 8.63109C9.44113 8.99001 8.70459 9.77041 8.70459 11.25C8.70459 12.0546 9.00625 12.8584 9.32852 13.4883C9.66109 14.1384 10.014 14.6032 10.1005 14.7173L10.1952 14.8531C10.6499 15.5224 12.8524 18.764 16.1623 20.0573C19.1094 21.2086 19.5613 21.103 19.9619 21.0071C20.0777 20.9789 20.1915 20.9515 20.3443 20.9377C20.641 20.9113 21.1647 20.6803 21.6339 20.3528C21.9926 20.1024 22.2981 19.8091 22.3963 19.5376C22.5125 19.2077 22.5796 18.9003 22.6108 18.6473C22.6412 18.3998 22.6546 18.2574 22.6527 18.2347Z" fill="#E69AB1"/>
</svg>
