<svg xmlns="http://www.w3.org/2000/svg" version="1.1" xmlns:xlink="http://www.w3.org/1999/xlink" width="512" height="512" x="0" y="0" viewBox="0 0 682.667 682.667" style="enable-background:new 0 0 512 512" xml:space="preserve" class=""><g><defs><clipPath id="a" clipPathUnits="userSpaceOnUse"><path d="M0 512h512V0H0Z" fill="#000000" opacity="1" data-original="#000000"></path></clipPath></defs><g clip-path="url(#a)" transform="matrix(1.33333 0 0 -1.33333 0 682.667)"><path d="M0 0v0zm188.692 13.63v0c-23.629 22.785-47.258 36.495-70.742 13.56L109 18.122s-25.316 6.192-55 35.877c-29.684 29.685-34.876 55-34.876 55l9.067 8.95c22.935 23.484 9.225 47.113-13.56 70.742-11.372 11.793-30.04 12.467-42.232 1.524-14.308-14.308-28.387-42.874-28.275-65.409C-55.675 84.656-40.145 40.145 0-.001v0c40.145-40.145 84.656-56.676 124.806-56.876 22.535-.112 51.102 13.967 65.409 28.275 10.944 12.192 10.27 30.86-1.523 42.232z" style="stroke-width:40;stroke-linecap:round;stroke-linejoin:round;stroke-miterlimit:10;stroke-dasharray:none;stroke-opacity:1" transform="translate(182 182.001)" fill="none" stroke="#000000" stroke-width="40" stroke-linecap="round" stroke-linejoin="round" stroke-miterlimit="10" stroke-dasharray="none" stroke-opacity="" data-original="#000000" class=""></path><path d="M0 0c-35.623-21.579-77.411-34-122.1-34-50.569 0-97.418 15.913-135.828 42.993l-52.831-37.422c-19.868-14.072-47.341.135-47.341 24.482V202c0 130.339 105.662 236 236 236 130.339 0 236-105.661 236-236 0-48.467-14.943-93.521-40-131" style="stroke-width:40;stroke-linecap:round;stroke-linejoin:round;stroke-miterlimit:10;stroke-dasharray:none;stroke-opacity:1" transform="translate(378.1 54)" fill="none" stroke="#000000" stroke-width="40" stroke-linecap="round" stroke-linejoin="round" stroke-miterlimit="10" stroke-dasharray="none" stroke-opacity="" data-original="#000000" class=""></path></g></g></svg>