<svg width="22" height="22" viewBox="0 0 22 22" fill="none" xmlns="http://www.w3.org/2000/svg">
<path d="M18.2988 17.1501C20.036 15.4263 21.1104 13.0441 21.1104 10.4124C21.1104 7.78074 20.0358 5.39838 18.2988 3.67467C16.5615 1.95096 14.1598 0.88446 11.5056 0.88446C8.85162 0.88446 6.44973 1.95112 4.71236 3.67499C2.97515 5.3987 1.90055 7.7809 1.90055 10.4124C1.90055 11.2995 2.02221 12.1568 2.24932 12.9682C2.4847 13.8089 2.83332 14.6024 3.27707 15.3312L3.35886 15.4654L1.72711 20.2786L6.73656 18.6865L6.86172 18.7553C7.55991 19.1384 8.31225 19.4382 9.10431 19.6406C9.87079 19.8364 10.6755 19.9406 11.5056 19.9406C14.1595 19.9406 16.5614 18.8741 18.2988 17.1501ZM5.36195 4.3133C6.93668 2.7508 9.11018 1.78293 11.5056 1.78293C13.9009 1.78293 16.0744 2.75095 17.6492 4.31362C19.2244 5.8766 20.2 8.03438 20.2 10.4131C20.2 12.7918 19.2242 14.9492 17.6493 16.5119C16.0746 18.0744 13.9013 19.0423 11.5059 19.0423C10.6395 19.0423 9.80091 18.9152 9.00901 18.6789C8.24459 18.451 7.52226 18.1192 6.85886 17.7009L3.16494 18.8747L4.36692 15.3299C3.88489 14.6425 3.50069 13.8829 3.23482 13.071C2.96022 12.2322 2.8114 11.3384 2.8114 10.4126C2.8114 8.03374 3.78705 5.87612 5.36195 4.3133ZM16.2383 12.8583C16.1348 12.8099 16.008 12.7579 15.9102 12.7028C15.7601 12.6285 15.2376 12.373 14.8065 12.1693C14.5569 12.0515 14.3466 11.9546 14.2805 11.931C14.2124 11.9065 14.1565 11.8874 14.1344 11.8887C14.1265 11.8897 14.1408 11.8971 14.1233 11.9232C14.0536 12.0272 13.9376 12.1759 13.8136 12.3282C13.6284 12.5556 13.416 12.8021 13.325 12.905C13.1977 13.0503 13.0598 13.1334 12.8867 13.1544C12.7353 13.1726 12.5789 13.1363 12.3967 13.0459L12.2523 12.9824C11.8942 12.8283 11.1858 12.5235 10.3638 11.7961C9.98181 11.4581 9.66305 11.0824 9.42164 10.7598C9.1807 10.4379 9.01552 10.1672 8.94119 10.0406C8.80969 9.81654 8.80858 9.62849 8.87084 9.4622C8.92563 9.31592 9.01521 9.22476 9.10192 9.13915C9.15862 9.08325 9.23978 8.9851 9.32046 8.88774L9.44911 8.73542C9.5263 8.64601 9.56299 8.57184 9.61254 8.47067L9.64669 8.40031C9.65479 8.38427 9.65717 8.37077 9.65606 8.35981C9.65368 8.33757 9.64129 8.30835 9.62636 8.27865C9.58109 8.1886 9.33555 7.59602 9.11924 7.07334L8.86496 6.4625C8.77967 6.26016 8.73568 6.26 8.70232 6.26191L8.62625 6.26588C8.55875 6.26588 8.47425 6.26032 8.38738 6.25476C8.31718 6.25031 8.24412 6.24555 8.15915 6.24555C8.10499 6.24555 8.03018 6.25762 7.94982 6.29494C7.88629 6.32448 7.81895 6.37038 7.75589 6.43884L7.70555 6.49252C7.48097 6.73044 6.99275 7.24772 6.99275 8.22846C6.99275 8.76179 7.19271 9.29464 7.40632 9.71219C7.62677 10.1431 7.86072 10.4512 7.91805 10.5268L7.98079 10.6168C8.28223 11.0604 9.74214 13.2092 11.9361 14.0665C13.8897 14.8296 14.1892 14.7596 14.4548 14.6961C14.5315 14.6773 14.6069 14.6592 14.7082 14.65C14.9049 14.6325 15.252 14.4794 15.563 14.2623C15.8008 14.0964 16.0033 13.902 16.0684 13.722C16.1454 13.5033 16.1899 13.2995 16.2105 13.1318C16.2307 12.9678 16.2396 12.8734 16.2383 12.8583Z" fill="#E69AB1" stroke="#E69AB1"/>
</svg>
